# Exported from Wings 3D 1.0
mtllib gunship3 - latest -lwing.mtl
o cylinder1
#16 vertices, 28 faces
v -9.80408927 1.00000000 1.96972934
v -9.81158019 1.00000000 -1.93206991
v -9.80408927 -1.00000000 1.96972934
v -9.81158019 -1.00000000 -1.93206991
v -9.06846358 -1.00000000 -3.73589947
v -9.05405194 -1.00000000 3.77069225
v -9.06846358 1.00000000 -3.73589947
v -9.05405194 1.00000000 3.77069225
v -13.42489604 0.10434133 1.42123166
v -13.43874379 0.10434133 -1.36446242
v -13.42489604 -1.00000000 1.42123166
v -13.43874379 -1.00000000 -1.36446242
v -13.15351892 0.10434133 -2.65806804
v -13.15351892 -1.00000000 -2.65806804
v -13.13288981 -1.00000000 2.71100918
v -13.13288981 0.10434133 2.71100918
vt 2.3306073e-2 0.20030857
vt 2.3659174e-2 0.38422813
vt 4.1682793e-2 0.24443410
vt 4.1866329e-2 0.34003237
vt 0.12324198 0.22627194
vt 0.12374742 0.35782010
vt 0.13039645 0.25787288
vt 0.13073573 0.32612537
vt 0.15578961 0.22255185
vt 0.19961975 0.20064599
vt 0.20206415 0.31513983
vt 0.22231520 0.35566159
vt 0.22231919 0.32860138
vt 0.22626586 0.30304405
vt 0.24404586 0.21827654
vt 0.25472175 0.35566480
vt 0.25472307 0.32860616
vt 0.25800877 0.30980161
vt 0.32297455 0.32860589
vt 0.32297695 0.35566235
vt 0.32625736 0.30942997
vt 0.33963877 0.21803915
vt 0.35542470 0.32860138
vt 0.35542977 0.35565627
vt 0.35790408 0.30248910
vt 0.38215871 0.31447840
vt 0.38398474 0.20020799
vt 0.42791072 0.22192103
vn -0.24161258 0.96957906 3.9240336e-2
vn -0.24161258 0.96957906 3.9240336e-2
vn 0.96522945 0.0000000e+0 -0.26140412
vn 0.96522945 0.0000000e+0 -0.26140412
vn 0.96522945 0.0000000e+0 -0.26140412
vn -0.24161258 0.96957906 3.9240336e-2
vn -0.24161258 0.96957906 3.9240336e-2
vn 0.99179076 0.0000000e+0 0.12787140
vn 0.99179076 0.0000000e+0 0.12787140
vn 0.99179076 0.0000000e+0 0.12787140
vn -0.24708482 0.96759092 -5.2123826e-2
vn -0.24708482 0.96759092 -5.2123826e-2
vn 0.82039748 -0.56131259 -0.10897776
vn 0.82039748 -0.56131259 -0.10897776
vn 0.82039748 -0.56131259 -0.10897776
vn 0.82039748 -0.56131259 -0.10897776
vn 0.82039748 -0.56131259 -0.10897776
vn 0.57334681 -0.80491667 0.15291367
vn 0.57334681 -0.80491667 0.15291367
vn 0.57334681 -0.80491667 0.15291367
vn 0.57334681 -0.80491667 0.15291367
vn 0.57334681 -0.80491667 0.15291367
vn 0.57334681 -0.80491667 0.15291367
vn 0.57334681 -0.80491667 0.15291367
vn 0.50017804 -0.74709669 -0.43779958
vn 0.50017804 -0.74709669 -0.43779958
vn 0.50017804 -0.74709669 -0.43779958
vn 0.50182930 -0.74711402 0.43587613
vn 0.50182930 -0.74711402 0.43587613
vn 0.50182930 -0.74711402 0.43587613
vn 0.50182930 -0.74711402 0.43587613
vn 0.50182930 -0.74711402 0.43587613
vn 0.50182930 -0.74711402 0.43587613
vn -0.24024477 0.96763109 -7.7282164e-2
vn 0.75246948 0.0000000e+0 -0.65862712
vn 0.75246948 0.0000000e+0 -0.65862712
vn 0.75246948 0.0000000e+0 -0.65862712
vn 0.75246948 0.0000000e+0 -0.65862712
vn -0.24024477 0.96763109 -7.7282164e-2
vn -0.23791048 0.96622021 9.9081297e-2
vn 0.75497577 0.0000000e+0 0.65575269
vn 0.75497577 0.0000000e+0 0.65575269
vn -0.24411643 0.96932252 2.8653381e-2
vn -0.99353074 0.0000000e+0 0.11356348
vn -0.24411643 0.96932252 2.8653381e-2
vn -0.99353074 0.0000000e+0 0.11356348
vn -0.99438488 0.0000000e+0 -0.10582399
vn -0.99438488 0.0000000e+0 -0.10582399
vn -0.24029589 0.96994589 -3.8247231e-2
vn -0.24029589 0.96994589 -3.8247231e-2
vn -0.99438488 0.0000000e+0 -0.10582399
vn -0.99438488 0.0000000e+0 -0.10582399
vn -0.24029589 0.96994589 -3.8247231e-2
vn -0.24029589 0.96994589 -3.8247231e-2
vn -0.99353074 0.0000000e+0 0.11356348
vn -0.99353074 0.0000000e+0 0.11356348
vn 0.0000000e+0 -1.00000000 -1.8233355e-17
vn 0.0000000e+0 -1.00000000 -1.8233355e-17
vn -0.99353074 0.0000000e+0 0.11356348
vn 0.0000000e+0 -1.00000000 -1.8233355e-17
vn 0.0000000e+0 -1.00000000 -1.8233355e-17
vn -0.99353074 0.0000000e+0 0.11356348
vn -0.99438488 0.0000000e+0 -0.10582399
vn 0.0000000e+0 -1.00000000 0.0000000e+0
vn 0.0000000e+0 -1.00000000 0.0000000e+0
vn -0.99438488 0.0000000e+0 -0.10582399
vn -0.72143644 0.0000000e+0 -0.69248066
vn -0.22644997 0.97274223 -4.9929564e-2
vn -0.72143644 0.0000000e+0 -0.69248066
vn -0.72143644 0.0000000e+0 -0.69248066
vn -0.72143644 0.0000000e+0 -0.69248066
vn 0.0000000e+0 -1.00000000 1.6904060e-17
vn -0.72143644 0.0000000e+0 -0.69248066
vn 0.0000000e+0 -1.00000000 1.6904060e-17
vn -0.72143644 0.0000000e+0 -0.69248066
vn -0.71816735 0.0000000e+0 0.69587043
vn 0.0000000e+0 -1.00000000 0.0000000e+0
vn -0.71816735 0.0000000e+0 0.69587043
vn -0.71816735 0.0000000e+0 0.69587043
vn -0.71816735 0.0000000e+0 0.69587043
vn -0.24288811 0.96694513 7.7604609e-2
vn -0.24288811 0.96694513 7.7604609e-2
vn -0.71816735 0.0000000e+0 0.69587043
vn -0.71816735 0.0000000e+0 0.69587043
g cylinder1_cylinder1_auv
usemtl cylinder1_auv
f 1//5 3//14 2//8
f 1/22/2 10/18/50 9/21/43
f 2//10 4//23 7//37
f 2/15/12 10/18/54 1/22/6
f 3//13 1//4 6//31
f 3/3/17 11/7/61 4/4/24
f 4//21 2//9 3//15
f 4/4/19 11/7/58 12/8/65
f 4/4/20 14/6/74 5/2/25
f 5//26 7//36 4//22
f 5/9/27 14/11/75 7/10/38
f 6//30 1//3 8//41
f 6/1/33 11/7/60 3/3/16
f 6/28/29 16/25/80 15/26/78
f 7/10/39 10/18/53 2/15/11
f 7/10/35 14/11/71 13/14/69
f 8/27/40 1/22/1 16/25/81
f 8/27/42 16/25/83 6/28/32
f 9/16/44 10/20/51 11/17/59
f 9/21/45 16/25/82 1/22/7
f 10/20/52 14/23/73 12/19/66
f 11/17/62 16/12/84 9/16/46
f 12/19/63 11/17/55 10/20/47
f 12/8/64 14/6/72 4/4/18
f 13/14/68 10/18/49 7/10/34
f 13/24/67 14/23/70 10/20/48
f 15/5/77 11/7/57 6/1/28
f 15/13/76 16/12/79 11/17/56
