<?xml version="1.0" encoding="UTF-8" standalone="no"?>
<!-- Created with Inkscape (http://www.inkscape.org/) -->

<svg
   xmlns:dc="http://purl.org/dc/elements/1.1/"
   xmlns:cc="http://creativecommons.org/ns#"
   xmlns:rdf="http://www.w3.org/1999/02/22-rdf-syntax-ns#"
   xmlns:svg="http://www.w3.org/2000/svg"
   xmlns="http://www.w3.org/2000/svg"
   xmlns:xlink="http://www.w3.org/1999/xlink"
   xmlns:sodipodi="http://sodipodi.sourceforge.net/DTD/sodipodi-0.dtd"
   xmlns:inkscape="http://www.inkscape.org/namespaces/inkscape"
   width="64px"
   height="64px"
   id="svg2985"
   version="1.1"
   inkscape:version="0.48.0 r9654"
   sodipodi:docname="New document 2">
  <defs
     id="defs2987">
    <linearGradient
       id="linearGradient3947">
      <stop
         style="stop-color:#8afffc;stop-opacity:1;"
         offset="0"
         id="stop3949" />
      <stop
         style="stop-color:#08e7ff;stop-opacity:1;"
         offset="1"
         id="stop3951" />
    </linearGradient>
    <linearGradient
       id="linearGradient3931">
      <stop
         style="stop-color:#0dfcff;stop-opacity:1;"
         offset="0"
         id="stop3933" />
      <stop
         style="stop-color:#ffffff;stop-opacity:1;"
         offset="1"
         id="stop3935" />
    </linearGradient>
    <linearGradient
       inkscape:collect="always"
       xlink:href="#linearGradient3931"
       id="linearGradient3937"
       x1="41.179436"
       y1="41.454544"
       x2="22.456928"
       y2="20.727272"
       gradientUnits="userSpaceOnUse"
       gradientTransform="matrix(1.0358969,0,0,1.0358969,-1.148703,-1.1487032)" />
    <radialGradient
       inkscape:collect="always"
       xlink:href="#linearGradient3947"
       id="radialGradient3953"
       cx="32"
       cy="32"
       fx="32"
       fy="32"
       r="29.1842"
       gradientTransform="matrix(1.0358969,0,0,0.99447318,-1.1487029,0.17685851)"
       gradientUnits="userSpaceOnUse" />
    <filter
       inkscape:collect="always"
       id="filter3969">
      <feGaussianBlur
         inkscape:collect="always"
         stdDeviation="0.57201373"
         id="feGaussianBlur3971" />
    </filter>
  </defs>
  <sodipodi:namedview
     id="base"
     pagecolor="#ffffff"
     bordercolor="#666666"
     borderopacity="1.0"
     inkscape:pageopacity="0.0"
     inkscape:pageshadow="2"
     inkscape:zoom="5.5"
     inkscape:cx="32.636364"
     inkscape:cy="41.090909"
     inkscape:current-layer="layer2"
     showgrid="true"
     inkscape:document-units="px"
     inkscape:grid-bbox="true"
     inkscape:snap-grids="false"
     inkscape:snap-to-guides="false"
     showguides="true"
     inkscape:guide-bbox="true"
     inkscape:window-width="1289"
     inkscape:window-height="848"
     inkscape:window-x="0"
     inkscape:window-y="25"
     inkscape:window-maximized="0">
    <inkscape:grid
       type="xygrid"
       id="grid2993" />
  </sodipodi:namedview>
  <metadata
     id="metadata2990">
    <rdf:RDF>
      <cc:Work
         rdf:about="">
        <dc:format>image/svg+xml</dc:format>
        <dc:type
           rdf:resource="http://purl.org/dc/dcmitype/StillImage" />
        <dc:title></dc:title>
      </cc:Work>
    </rdf:RDF>
  </metadata>
  <g
     inkscape:groupmode="layer"
     id="layer3"
     inkscape:label="Layer">
    <path
       style="fill:#000000;fill-opacity:1;stroke:#000000;stroke-width:2;stroke-miterlimit:4;stroke-opacity:1;stroke-dasharray:none;filter:url(#filter3969)"
       d="m 50.458207,4.1279836 c -3.322669,-0.5527067 -6.97344,0.5137793 -9.818554,2.505034 -2.845115,1.9912555 -4.920286,4.9374014 -4.81463,8.2970434 0.04192,1.333018 0.343319,2.634386 0.78851,3.890376 l -6.039531,5.660857 c -0.07563,0.06241 -0.141611,0.115203 -0.216238,0.185156 L 18.309588,35.961706 c -0.777752,-0.289539 -1.57407,-0.577737 -2.401664,-0.715402 -3.367923,-0.560235 -6.6436362,1.007367 -9.0910312,3.447393 -2.447392,2.44003 -4.100668,5.781959 -3.996432,9.096535 0.02133,0.678122 0.08931,1.306163 0.187476,1.926588 a 0.62231982,0.51037254 46.331325 0 0 0.998546,0.482001 l 7.5840522,-6.983432 c 0.165262,-0.151906 0.563814,-0.176909 1.1759,0.06924 0.612086,0.246152 1.353032,0.740374 2.043963,1.445651 l 3.474112,3.54736 c 0.690995,0.705348 1.178563,1.468752 1.397261,2.064648 0.218698,0.595898 0.168173,0.954375 0.003,1.106161 l -7.800284,7.168595 a 0.62231982,0.51037254 46.331325 0 0 0.412629,1.016339 c 0.421254,0.103256 0.830594,0.169754 1.244671,0.238633 3.32267,0.552707 6.973439,-0.513779 9.818555,-2.505033 2.845116,-1.991254 4.920285,-4.9374 4.814631,-8.29704 -0.04192,-1.333019 -0.343318,-2.634387 -0.788511,-3.890377 l 6.101316,-5.713757 0.15446,-0.132248 12.048176,-11.295257 c 0.777752,0.28954 1.57407,0.577739 2.401664,0.715403 3.367924,0.560235 6.643631,-1.007367 9.091031,-3.447394 2.4474,-2.440023 4.10067,-5.781958 3.99643,-9.096534 -0.0213,-0.678125 -0.0893,-1.306163 -0.18748,-1.926588 a 0.62231982,0.51037254 46.331325 0 0 -0.99854,-0.482003 l -7.58406,6.983426 c -0.165261,0.151906 -0.563814,0.176909 -1.1759,-0.06924 C 50.621473,20.469221 49.880527,19.975 49.189597,19.269722 l -3.474036,-3.54736 c -0.690997,-0.705346 -1.178564,-1.468752 -1.397262,-2.064649 -0.218698,-0.595898 -0.168173,-0.954376 -0.003,-1.106161 L 52.115505,5.3829556 A 0.62231982,0.51037254 46.331325 0 0 51.702878,4.3666175 C 51.281626,4.2633609 50.872285,4.1968629 50.458207,4.1279836 z"
       id="path3838-4"
       inkscape:connector-curvature="0"
       transform="matrix(1.0358969,0,0,1.0358969,-1.1487031,-1.1487029)" />
  </g>
  <g
     id="layer1"
     inkscape:label="Layer 1"
     inkscape:groupmode="layer">
    <path
       style="fill:url(#linearGradient3937);fill-opacity:1;stroke:none"
       d="M 51.120799,3.1274631 C 47.678857,2.5549159 43.897034,3.6596855 40.94979,5.7224202 38.002544,7.7851557 35.85288,10.83706 35.962328,14.317301 c 0.04342,1.380871 0.355643,2.728954 0.816816,4.03003 l -6.256333,5.864064 c -0.07834,0.06465 -0.146694,0.119339 -0.223999,0.191803 L 17.818143,36.103919 c -0.805672,-0.299932 -1.630575,-0.598475 -2.487877,-0.741083 -3.488821,-0.580346 -6.8821224,1.043529 -9.4173713,3.571144 -2.5352456,2.527621 -4.2478698,5.989515 -4.1398918,9.423073 0.022091,0.702465 0.092517,1.353051 0.1942061,1.995748 a 0.64465921,0.52869337 46.331325 0 0 1.0343912,0.499302 l 7.8562958,-7.234115 c 0.171194,-0.157359 0.584053,-0.18326 1.218111,0.07172 0.634058,0.254988 1.401602,0.766952 2.117336,1.497545 l 3.598822,3.6747 c 0.715799,0.730667 1.22087,1.521476 1.447418,2.138763 0.226549,0.617289 0.174209,0.988634 0.0031,1.145869 l -8.080291,7.425925 a 0.64465921,0.52869337 46.331325 0 0 0.427442,1.052823 c 0.436375,0.106963 0.860409,0.175847 1.289351,0.247198 3.441944,0.572548 7.223764,-0.532221 10.17101,-2.594956 2.947248,-2.062733 5.09691,-5.114637 4.987463,-8.594877 -0.04342,-1.380872 -0.355642,-2.728955 -0.816817,-4.030031 l 6.320335,-5.918863 0.160005,-0.136996 12.480668,-11.700722 c 0.805672,0.299934 1.630575,0.598478 2.487877,0.741084 3.488823,0.580346 6.882123,-1.043529 9.417372,-3.571145 2.535251,-2.527612 4.24787,-5.989513 4.139891,-9.423072 -0.0221,-0.702468 -0.09251,-1.353051 -0.194206,-1.995747 a 0.64465921,0.52869337 46.331325 0 0 -1.034391,-0.499304 l -7.856304,7.234108 c -0.171193,0.157359 -0.584053,0.18326 -1.218111,-0.07172 -0.634058,-0.254989 -1.401602,-0.766952 -2.117334,-1.497546 l -3.598743,-3.6747 c -0.715783,-0.730665 -1.220852,-1.521476 -1.447402,-2.138763 -0.226548,-0.617289 -0.174209,-0.988635 -0.0032,-1.145869 L 52.83759,4.4274848 A 0.64465921,0.52869337 46.331325 0 0 52.410151,3.3746632 C 51.973777,3.2677001 51.549742,3.1988149 51.120799,3.1274631 z"
       id="path3838"
       inkscape:connector-curvature="0" />
  </g>
  <g
     inkscape:groupmode="layer"
     id="layer2"
     inkscape:label="Layer 2">
    <path
       style="opacity:0.5;fill:url(#radialGradient3953);fill-opacity:1;stroke:none"
       d="m 51.1208,3.1274628 c -3.441941,-0.5725472 -7.223764,0.5322224 -10.171008,2.594957 -2.947246,2.0627355 -5.09691,5.1146392 -4.987462,8.5948812 0.04342,1.380871 0.355643,2.728954 0.816816,4.03003 l -6.256331,5.864064 c -0.07834,0.06465 -0.146696,0.119339 -0.224001,0.191803 L 17.818145,36.103919 C 17.012473,35.803987 16.18757,35.505444 15.330268,35.362836 11.841447,34.78249 8.4481454,36.406365 5.9128974,38.93398 c -2.5352459,2.527621 -4.2478706,5.989515 -4.1398918,9.423073 0.022086,0.702465 0.092516,1.353051 0.1942059,1.995748 a 0.64465921,0.52869337 46.331325 0 0 1.0343907,0.499302 l 7.8562958,-7.234115 c 0.171194,-0.157359 0.584053,-0.18326 1.218111,0.07172 0.634058,0.254988 1.401602,0.766952 2.117336,1.497545 l 3.598822,3.6747 c 0.715799,0.730667 1.22087,1.521476 1.447418,2.138763 0.226549,0.617289 0.17421,0.988634 0.0031,1.145869 l -8.080291,7.425925 a 0.64465921,0.52869337 46.331325 0 0 0.427442,1.052823 c 0.436375,0.106963 0.860409,0.175847 1.289351,0.247198 3.441944,0.572548 7.223764,-0.532221 10.171011,-2.594956 2.947247,-2.062733 5.096909,-5.114637 4.987462,-8.594877 -0.04342,-1.380872 -0.355642,-2.728955 -0.816817,-4.030031 l 6.320335,-5.918863 0.160005,-0.136996 12.480669,-11.700722 c 0.805671,0.299934 1.630574,0.598478 2.487876,0.741084 3.488827,0.580346 6.882125,-1.043529 9.417369,-3.571145 2.535254,-2.527612 4.247872,-5.989513 4.139889,-9.423072 -0.02207,-0.702468 -0.0925,-1.353051 -0.194199,-1.995747 a 0.64465921,0.52869337 46.331325 0 0 -1.034395,-0.499305 l -7.856305,7.234109 c -0.171192,0.157359 -0.584049,0.18326 -1.218111,-0.07172 -0.634052,-0.254989 -1.4016,-0.766952 -2.117331,-1.497546 l -3.598743,-3.6747 c -0.715802,-0.730665 -1.220871,-1.521476 -1.44742,-2.138764 -0.226548,-0.617289 -0.17421,-0.988635 -0.0031,-1.145869 L 52.837593,4.4274844 A 0.64465921,0.52869337 46.331325 0 0 52.410151,3.3746629 C 51.973779,3.2676998 51.549745,3.1988146 51.1208,3.1274628 z"
       id="path3838-9"
       inkscape:connector-curvature="0" />
  </g>
</svg>
