<?xml version="1.0" encoding="UTF-8" standalone="no"?>
<!-- Created with Inkscape (http://www.inkscape.org/) -->

<svg
   xmlns:dc="http://purl.org/dc/elements/1.1/"
   xmlns:cc="http://creativecommons.org/ns#"
   xmlns:rdf="http://www.w3.org/1999/02/22-rdf-syntax-ns#"
   xmlns:svg="http://www.w3.org/2000/svg"
   xmlns="http://www.w3.org/2000/svg"
   xmlns:xlink="http://www.w3.org/1999/xlink"
   xmlns:sodipodi="http://sodipodi.sourceforge.net/DTD/sodipodi-0.dtd"
   xmlns:inkscape="http://www.inkscape.org/namespaces/inkscape"
   width="64px"
   height="64px"
   id="svg2985"
   version="1.1"
   inkscape:version="0.48.0 r9654"
   sodipodi:docname="move2.svg">
  <defs
     id="defs2987">
    <linearGradient
       id="linearGradient3836">
      <stop
         id="stop3838"
         offset="0"
         style="stop-color:#ffedbd;stop-opacity:1;" />
      <stop
         style="stop-color:#fbf35e;stop-opacity:0.502"
         offset="0.68156403"
         id="stop3840" />
      <stop
         id="stop3842"
         offset="1"
         style="stop-color:#f8f900;stop-opacity:1;" />
    </linearGradient>
    <linearGradient
       id="linearGradient3789">
      <stop
         style="stop-color:#ffbe0b;stop-opacity:1;"
         offset="0"
         id="stop3791" />
      <stop
         style="stop-color:#feff40;stop-opacity:1;"
         offset="1"
         id="stop3793" />
    </linearGradient>
    <linearGradient
       inkscape:collect="always"
       xlink:href="#linearGradient3789"
       id="linearGradient3795"
       x1="50.101921"
       y1="50.308849"
       x2="0.5004831"
       y2="0.68281114"
       gradientUnits="userSpaceOnUse"
       gradientTransform="matrix(0.96175912,0,0,0.96175912,1.8548625,1.9149724)" />
    <linearGradient
       inkscape:collect="always"
       xlink:href="#linearGradient3789-5"
       id="linearGradient3795-8"
       x1="50.101921"
       y1="50.308849"
       x2="0.5004831"
       y2="0.68281114"
       gradientUnits="userSpaceOnUse"
       gradientTransform="translate(0.65625,0.71875)" />
    <linearGradient
       id="linearGradient3789-5">
      <stop
         style="stop-color:#ffedbd;stop-opacity:1;"
         offset="0"
         id="stop3791-7" />
      <stop
         id="stop3834"
         offset="0.5"
         style="stop-color:#fbf35e;stop-opacity:1;" />
      <stop
         style="stop-color:#f8f900;stop-opacity:1;"
         offset="1"
         id="stop3793-8" />
    </linearGradient>
    <radialGradient
       inkscape:collect="always"
       xlink:href="#linearGradient3836"
       id="radialGradient3832"
       cx="32"
       cy="32"
       fx="32"
       fy="32"
       r="31.125"
       gradientTransform="matrix(0.96175912,0,0,0.96272473,1.223708,1.1928079)"
       gradientUnits="userSpaceOnUse" />
    <linearGradient
       inkscape:collect="always"
       xlink:href="#linearGradient3789-9"
       id="linearGradient3795-9"
       x1="50.101921"
       y1="50.308849"
       x2="0.5004831"
       y2="0.68281114"
       gradientUnits="userSpaceOnUse"
       gradientTransform="translate(0.65625,0.71875)" />
    <linearGradient
       id="linearGradient3789-9">
      <stop
         style="stop-color:#ffbe0b;stop-opacity:1;"
         offset="0"
         id="stop3791-8" />
      <stop
         style="stop-color:#feff40;stop-opacity:1;"
         offset="1"
         id="stop3793-7" />
    </linearGradient>
    <filter
       inkscape:collect="always"
       id="filter3866">
      <feGaussianBlur
         inkscape:collect="always"
         stdDeviation="0.62281254"
         id="feGaussianBlur3868" />
    </filter>
  </defs>
  <sodipodi:namedview
     id="base"
     pagecolor="#ffffff"
     bordercolor="#666666"
     borderopacity="1.0"
     inkscape:pageopacity="0.0"
     inkscape:pageshadow="2"
     inkscape:zoom="5.5"
     inkscape:cx="52.220512"
     inkscape:cy="26.497209"
     inkscape:current-layer="layer2"
     showgrid="true"
     inkscape:document-units="px"
     inkscape:grid-bbox="true"
     inkscape:snap-grids="false"
     inkscape:snap-to-guides="false"
     inkscape:window-width="741"
     inkscape:window-height="839"
     inkscape:window-x="694"
     inkscape:window-y="25"
     inkscape:window-maximized="0">
    <inkscape:grid
       type="xygrid"
       id="grid2993" />
  </sodipodi:namedview>
  <metadata
     id="metadata2990">
    <rdf:RDF>
      <cc:Work
         rdf:about="">
        <dc:format>image/svg+xml</dc:format>
        <dc:type
           rdf:resource="http://purl.org/dc/dcmitype/StillImage" />
        <dc:title></dc:title>
      </cc:Work>
    </rdf:RDF>
  </metadata>
  <g
     inkscape:groupmode="layer"
     id="layer3"
     inkscape:label="Layer 0">
    <path
       style="fill:#000000;fill-opacity:1;stroke:#000000;stroke-width:2;stroke-miterlimit:4;stroke-opacity:1;stroke-dasharray:none;filter:url(#filter3866)"
       d="m 0.875,0.8437455 0,37.0624995 5.75,-5.75 0,-25.5624995 25.59375,0 5.75,-5.75 -37.09375,0 z m 10.1875,10.2187495 0,34.875005 5.40625,-5.406255 0,-24.0625 24.09375,0 5.40625,-5.40625 -34.90625,0 z m 10.15625,9.84375 0,34.531258 5.375,-5.374999 0,-23.781259 23.8125,0 5.375,-5.375 -34.5625,0 z m 9.71875,10.03125 0,30.531259 4.75,-4.750001 0,-21.031258 21.0625,0 4.75,-4.75 -30.5625,0 z m 9.6875,9.71875 0,22.500009 22.5,-22.500009 -22.5,0 z"
       id="rect2995-7"
       inkscape:connector-curvature="0"
       transform="matrix(0.96175912,0,0,0.96175912,1.223708,1.223708)" />
  </g>
  <g
     id="layer1"
     inkscape:label="Layer 1"
     inkscape:groupmode="layer">
    <path
       style="fill:url(#linearGradient3795);fill-opacity:1;stroke:none"
       d="m 2.0652473,2.0351923 0,35.6451977 5.5301149,-5.530115 0,-24.5849678 24.6150228,0 5.530115,-5.5301149 -35.6752527,0 z m 9.7979207,9.8279757 0,33.54135 5.199511,-5.19951 0,-23.142329 23.172384,0 5.19951,-5.199511 -33.571405,0 z m 9.767866,9.467317 0,33.210744 5.169456,-5.169455 0,-22.871834 22.901889,0 5.169455,-5.169455 -33.2408,0 z m 9.347097,9.647646 0,29.363708 4.568356,-4.568356 0,-20.226996 20.257051,0 4.568356,-4.568356 -29.393763,0 z m 9.317041,9.347096 0,21.639581 21.639581,-21.639581 -21.639581,0 z"
       id="rect2995"
       inkscape:connector-curvature="0" />
  </g>
  <g
     inkscape:groupmode="layer"
     id="layer2"
     inkscape:label="Layer 2">
    <path
       style="fill:url(#radialGradient3832);fill-opacity:1;stroke:none"
       d="m 2.0652477,2.0351923 0,35.6451977 5.530115,-5.530115 0,-24.5849673 24.6150233,0 5.530115,-5.5301154 -35.6752533,0 z m 9.7979213,9.8279757 0,33.54135 5.199511,-5.19951 0,-23.142329 23.172383,0 5.199511,-5.199511 -33.571405,0 z m 9.767866,9.467317 0,33.210744 5.169456,-5.169455 0,-22.871834 22.901889,0 5.169454,-5.169455 -33.240799,0 z m 9.347097,9.647646 0,29.363708 4.568356,-4.568356 0,-20.226996 20.25705,0 4.568356,-4.568356 -29.393763,0 z m 9.317041,9.347096 0,21.639581 21.63958,-21.639581 -21.639581,0 z"
       id="rect2995-5"
       inkscape:connector-curvature="0" />
  </g>
</svg>
