<?xml version="1.0" encoding="UTF-8" standalone="no"?>
<!-- Created with Inkscape (http://www.inkscape.org/) -->

<svg
   xmlns:dc="http://purl.org/dc/elements/1.1/"
   xmlns:cc="http://creativecommons.org/ns#"
   xmlns:rdf="http://www.w3.org/1999/02/22-rdf-syntax-ns#"
   xmlns:svg="http://www.w3.org/2000/svg"
   xmlns="http://www.w3.org/2000/svg"
   xmlns:xlink="http://www.w3.org/1999/xlink"
   xmlns:sodipodi="http://sodipodi.sourceforge.net/DTD/sodipodi-0.dtd"
   xmlns:inkscape="http://www.inkscape.org/namespaces/inkscape"
   width="64px"
   height="64px"
   id="svg6117"
   version="1.1"
   inkscape:version="0.48.0 r9654"
   sodipodi:docname="waitfinal.svg">
  <defs
     id="defs6119">
    <linearGradient
       id="linearGradient3966">
      <stop
         style="stop-color:#868686;stop-opacity:1;"
         offset="0"
         id="stop3968" />
      <stop
         style="stop-color:#ffffff;stop-opacity:1;"
         offset="1"
         id="stop3970" />
    </linearGradient>
    <linearGradient
       id="linearGradient3958">
      <stop
         style="stop-color:#ffffff;stop-opacity:1;"
         offset="0"
         id="stop3960" />
      <stop
         style="stop-color:#a4a4a4;stop-opacity:1;"
         offset="1"
         id="stop3962" />
    </linearGradient>
    <linearGradient
       inkscape:collect="always"
       xlink:href="#linearGradient3958"
       id="linearGradient3964"
       x1="32.058235"
       y1="2.1729503"
       x2="32.070835"
       y2="62.084179"
       gradientUnits="userSpaceOnUse" />
    <radialGradient
       inkscape:collect="always"
       xlink:href="#linearGradient3958"
       id="radialGradient3980"
       cx="32.734268"
       cy="26.320158"
       fx="32.734268"
       fy="26.320158"
       r="15.89073"
       gradientTransform="matrix(0.99997402,0.00720815,-0.00809056,1.122389,0.21379517,-10.058537)"
       gradientUnits="userSpaceOnUse" />
    <radialGradient
       inkscape:collect="always"
       xlink:href="#linearGradient3958"
       id="radialGradient3982"
       cx="32.348572"
       cy="26.098616"
       fx="32.348572"
       fy="26.098616"
       r="15.89073"
       gradientTransform="matrix(0.99997475,0.00710571,-0.00809056,1.1385701,0.21196903,-10.354657)"
       gradientUnits="userSpaceOnUse" />
    <radialGradient
       inkscape:collect="always"
       xlink:href="#linearGradient3958"
       id="radialGradient3990"
       cx="32"
       cy="32"
       fx="32"
       fy="32"
       r="24.626476"
       gradientTransform="matrix(1,0,0,1.214485,3.093588e-8,-6.8635186)"
       gradientUnits="userSpaceOnUse" />
    <linearGradient
       inkscape:collect="always"
       xlink:href="#linearGradient3958-0"
       id="linearGradient3964-0"
       x1="32.058235"
       y1="2.1729503"
       x2="32.070835"
       y2="62.084179"
       gradientUnits="userSpaceOnUse" />
    <linearGradient
       id="linearGradient3958-0">
      <stop
         style="stop-color:#ffffff;stop-opacity:1;"
         offset="0"
         id="stop3960-4" />
      <stop
         style="stop-color:#a4a4a4;stop-opacity:1;"
         offset="1"
         id="stop3962-5" />
    </linearGradient>
    <filter
       inkscape:collect="always"
       id="filter4059">
      <feGaussianBlur
         inkscape:collect="always"
         stdDeviation="0.54538695"
         id="feGaussianBlur4061" />
    </filter>
    <linearGradient
       inkscape:collect="always"
       xlink:href="#linearGradient3958"
       id="linearGradient3018"
       gradientUnits="userSpaceOnUse"
       x1="32.058235"
       y1="2.1729503"
       x2="32.070835"
       y2="62.084179"
       gradientTransform="matrix(0.88101679,0,0,0.86751579,3.7937896,0.28034532)" />
    <linearGradient
       inkscape:collect="always"
       xlink:href="#linearGradient3958"
       id="linearGradient3020"
       gradientUnits="userSpaceOnUse"
       x1="32.058235"
       y1="2.1729503"
       x2="32.070835"
       y2="62.084179"
       gradientTransform="matrix(0.88101677,0,0,0.86751579,3.7937902,8.1986581)" />
    <linearGradient
       inkscape:collect="always"
       xlink:href="#linearGradient3958"
       id="linearGradient3022"
       gradientUnits="userSpaceOnUse"
       x1="32.058235"
       y1="2.1729503"
       x2="32.070835"
       y2="62.084179"
       gradientTransform="translate(-2.5130463e-4,0)" />
    <linearGradient
       inkscape:collect="always"
       xlink:href="#linearGradient3958-5"
       id="linearGradient3022-4"
       gradientUnits="userSpaceOnUse"
       x1="32.058235"
       y1="2.1729503"
       x2="32.070835"
       y2="62.084179"
       gradientTransform="translate(-2.5130463e-4,0)" />
    <linearGradient
       id="linearGradient3958-5">
      <stop
         style="stop-color:#ffffff;stop-opacity:1;"
         offset="0"
         id="stop3960-2" />
      <stop
         style="stop-color:#a4a4a4;stop-opacity:1;"
         offset="1"
         id="stop3962-54" />
    </linearGradient>
    <filter
       inkscape:collect="always"
       id="filter3831">
      <feGaussianBlur
         inkscape:collect="always"
         stdDeviation="0.54536991"
         id="feGaussianBlur3833" />
    </filter>
  </defs>
  <sodipodi:namedview
     id="base"
     pagecolor="#787878"
     bordercolor="#666666"
     borderopacity="1.0"
     inkscape:pageopacity="0"
     inkscape:pageshadow="2"
     inkscape:zoom="7.7781746"
     inkscape:cx="5.2730388"
     inkscape:cy="34.561383"
     inkscape:current-layer="layer3"
     showgrid="true"
     inkscape:document-units="px"
     inkscape:grid-bbox="true"
     inkscape:snap-grids="false"
     inkscape:window-width="1440"
     inkscape:window-height="880"
     inkscape:window-x="-3"
     inkscape:window-y="-3"
     inkscape:window-maximized="1"
     showguides="true"
     inkscape:guide-bbox="true">
    <inkscape:grid
       type="xygrid"
       id="grid6125"
       empspacing="2"
       dotted="true"
       visible="true"
       enabled="true"
       snapvisiblegridlinesonly="true" />
  </sodipodi:namedview>
  <metadata
     id="metadata6122">
    <rdf:RDF>
      <cc:Work
         rdf:about="">
        <dc:format>image/svg+xml</dc:format>
        <dc:type
           rdf:resource="http://purl.org/dc/dcmitype/StillImage" />
        <dc:title></dc:title>
      </cc:Work>
    </rdf:RDF>
  </metadata>
  <g
     inkscape:groupmode="layer"
     id="layer3"
     inkscape:label="Layer 0">
    <path
       inkscape:connector-curvature="0"
       style="fill:#000000;fill-opacity:1;stroke:#000000;stroke-width:2;stroke-miterlimit:4;stroke-opacity:1;stroke-dasharray:none;display:inline;filter:url(#filter3831)"
       d="m 7.6560023,2.0937499 c -0.01912,0.00737 0.01878,0.023046 0,0.03125 -0.01878,0.0082 -0.01285,-0.00902 -0.03125,0 -0.01798,0.00982 -0.01372,0.020645 -0.03125,0.03125 -0.01705,0.011366 -0.01472,-0.012105 -0.03125,0 -0.01653,0.012105 0.01599,0.018429 0,0.03125 -0.01598,0.012821 -0.01584,-0.013512 -0.03125,0 -0.01541,0.013512 0.0148,0.017073 0,0.03125 -0.0148,0.014177 -0.01709,-0.014814 -0.03125,0 -0.01416,0.014814 0.01349,0.015827 0,0.03125 -0.01349,0.015423 -0.01845,-0.016002 -0.03125,0 -0.0128,0.016002 0.01209,0.014701 0,0.03125 -0.01208,0.016549 -0.0199,-0.017065 -0.03125,0 -0.01134,0.017065 0.01058,0.013702 0,0.03125 -0.0098,0.017996 0.009,0.01284 0,0.03125 -0.009,0.01841 -0.02307,-0.018788 -0.03125,0 -0.0082,0.018788 0.0074,0.01212 0,0.03125 -0.0065,0.019435 0.0056,0.011548 0,0.03125 -0.0056,0.019702 -0.02649,0.011319 -0.03125,0.03125 -0.0039,0.020121 0.003,0.010978 0,0.03125 -0.003,0.020272 0.0021,0.010866 0,0.03125 -0.0012,0.020457 2.98e-4,0.01076 0,0.03125 -2.98e-4,0.02049 -6.04e-4,0.010767 0,0.03125 0,11.9547781 6.8667387,22.1744871 16.4687497,25.9375001 1.024642,0.580799 1.834665,1.516144 1.9375,3.53125 -0.102212,2.002892 -0.898067,2.918587 -1.90625,3.5 -9.616387,3.754275 -16.4999997,13.940062 -16.4999997,25.90625 -6.04e-4,0.02048 -2.98e-4,0.01076 0,0.03125 2.98e-4,0.02049 -0.0012,0.01079 0,0.03125 0.0021,0.02038 -0.003,0.01098 0,0.03125 0.003,0.02027 -0.0039,0.01113 0,0.03125 0.0048,0.01993 0.02561,0.01155 0.03125,0.03125 0.0056,0.0197 -0.0065,0.01181 0,0.03125 0.0074,0.01913 -0.0082,0.01246 0,0.03125 0.0082,0.01879 0.02225,-0.01841 0.03125,0 0.009,0.01841 -0.0098,0.01325 0,0.03125 0.01058,0.01755 -0.01134,0.01418 0,0.03125 0.01135,0.01707 0.01917,-0.01655 0.03125,0 0.01209,0.01655 -0.0128,0.01525 0,0.03125 0.0128,0.016 0.01776,-0.01542 0.03125,0 0.01349,0.01542 -0.01416,0.01644 0,0.03125 0.01416,0.01481 0.01645,-0.01418 0.03125,0 0.0148,0.01418 -0.01541,0.01774 0,0.03125 0.01541,0.01351 0.01527,-0.01282 0.03125,0 0.01599,0.01282 -0.01653,0.01915 0,0.03125 0.01653,0.0121 0.0142,-0.01137 0.03125,0 0.01753,0.0106 0.01327,0.02143 0.03125,0.03125 0.0184,0.009 0.01247,-0.0082 0.03125,0 0.01878,0.0082 -0.01912,0.02388 0,0.03125 0.01912,0.0074 0.01182,-0.0065 0.03125,0 0.01943,0.0065 0.01156,-0.0057 0.03125,0 a 0.47041284,0.47041284 0 0 1 0.03125,0 0.47041284,0.47041284 0 0 1 0.03125,0 c 0.02352,0.0012 0.0077,0 0.03125,0 a 0.47041284,0.47041284 0 0 1 0.03125,0 l 4.4687497,0 c 0.02318,2.59e-4 0.0081,8.95e-4 0.03125,0 0.02316,-8.95e-4 0.0082,0.002 0.03125,0 0.02296,-0.0032 0.0085,0.0043 0.03125,0 0.02277,-0.0043 0.0087,0.0055 0.03125,0 0.02253,-0.0055 -0.02223,-0.02468 0,-0.03125 0.02223,-0.0066 0.0094,0.0077 0.03125,0 0.02187,-0.0077 0.0098,0.0088 0.03125,0 0.02146,-0.0088 0.01025,0.0098 0.03125,0 0.021,-0.0098 -0.02049,-0.02041 0,-0.03125 0.02049,-0.01084 0.01133,0.01185 0.03125,0 0.01992,-0.01185 -0.01931,-0.01843 0,-0.03125 0.01931,-0.01282 0.0126,0.01377 0.03125,0 0.01865,-0.01377 0.01331,0.01468 0.03125,0 0.01794,-0.01468 -0.01719,-0.0157 0,-0.03125 0.01719,-0.01555 0.01486,0.01639 0.03125,0 0.01639,-0.01639 -0.01555,-0.01406 0,-0.03125 0.01556,-0.01719 0.01657,0.01794 0.03125,0 0.01468,-0.01794 -0.01377,-0.0126 0,-0.03125 0.01377,-0.01865 -0.01282,-0.01194 0,-0.03125 0.01282,-0.01931 0.0194,0.01992 0.03125,0 0.01185,-0.01992 -0.01084,-0.01076 0,-0.03125 0.01084,-0.02049 0.02144,0.021 0.03125,0 0.0098,-0.021 -0.0087,-0.0098 0,-0.03125 0.0088,-0.02146 -0.0077,-0.0094 0,-0.03125 0.0077,-0.02187 -0.0066,-0.009 0,-0.03125 0.0066,-0.02223 0.02579,0.02253 0.03125,0 0.0055,-0.02253 -0.0043,-0.0085 0,-0.03125 0.0043,-0.02277 -0.0032,-0.0083 0,-0.03125 0.002,-0.02309 -8.94e-4,-0.0081 0,-0.03125 8.94e-4,-0.02316 2.59e-4,-0.0081 0,-0.03125 0.03881,-11.991095 8.681461,-21.625 19.34375,-21.625 10.662338,0 19.336153,9.634618 19.375,21.625 -2.59e-4,0.02318 -8.94e-4,0.0081 0,0.03125 8.94e-4,0.02316 -0.002,0.0082 0,0.03125 0.0032,0.02296 -0.0043,0.0085 0,0.03125 0.0043,0.02277 -0.0055,0.0087 0,0.03125 0.0055,0.02253 0.02468,-0.02223 0.03125,0 0.0066,0.02223 -0.0077,0.0094 0,0.03125 0.0077,0.02187 -0.0087,0.0098 0,0.03125 0.0087,0.02146 -0.0098,0.01025 0,0.03125 0.0098,0.021 0.02041,-0.02049 0.03125,0 0.01084,0.02049 -0.01185,0.01133 0,0.03125 0.01185,0.01992 0.01843,-0.01931 0.03125,0 0.01282,0.01931 -0.01377,0.0126 0,0.03125 0.01377,0.01865 -0.01468,0.01331 0,0.03125 0.01468,0.01794 0.0157,-0.01719 0.03125,0 0.01555,0.01719 -0.01639,0.01486 0,0.03125 0.01639,0.01639 0.01406,-0.01555 0.03125,0 0.01719,0.01555 -0.01794,0.01657 0,0.03125 0.01794,0.01468 0.0126,-0.01377 0.03125,0 0.01865,0.01377 0.01194,-0.01282 0.03125,0 0.01931,0.01282 -0.01992,0.0194 0,0.03125 0.01992,0.01185 0.01076,-0.01084 0.03125,0 0.02049,0.01084 -0.021,0.02144 0,0.03125 0.021,0.0098 0.0098,-0.0088 0.03125,0 0.02146,0.0088 0.0094,-0.0077 0.03125,0 0.02187,0.0077 0.009,-0.0066 0.03125,0 0.02223,0.0066 -0.02253,0.02579 0,0.03125 0.02253,0.0055 0.0085,-0.0043 0.03125,0 0.02277,0.0043 0.0083,-0.0032 0.03125,0 0.02309,0.002 0.0081,-8.95e-4 0.03125,0 0.02316,8.95e-4 0.0081,2.59e-4 0.03125,0 l 4.1875,0 c 0.02318,2.59e-4 0.0081,8.95e-4 0.03125,0 0.02316,-8.95e-4 0.0082,0.002 0.03125,0 0.02296,-0.0032 0.0085,0.0043 0.03125,0 0.02277,-0.0043 0.0087,0.0055 0.03125,0 0.02253,-0.0055 -0.02223,-0.02468 0,-0.03125 0.02223,-0.0066 0.0094,0.0077 0.03125,0 0.02187,-0.0077 0.0098,0.0088 0.03125,0 0.02146,-0.0088 0.01025,0.0098 0.03125,0 0.021,-0.0098 -0.02049,-0.02041 0,-0.03125 0.02049,-0.01084 0.01133,0.01185 0.03125,0 0.01992,-0.01185 -0.01931,-0.01843 0,-0.03125 0.01931,-0.01282 0.0126,0.01377 0.03125,0 0.01865,-0.01377 0.01331,0.01468 0.03125,0 0.01794,-0.01468 -0.01719,-0.0157 0,-0.03125 0.01719,-0.01555 0.01486,0.01639 0.03125,0 0.01639,-0.01639 -0.01555,-0.01406 0,-0.03125 0.01555,-0.01719 0.01657,0.01794 0.03125,0 0.01468,-0.01794 -0.01377,-0.0126 0,-0.03125 0.01377,-0.01865 -0.01282,-0.01194 0,-0.03125 0.01282,-0.01931 0.0194,0.01992 0.03125,0 0.01185,-0.01992 -0.01084,-0.01076 0,-0.03125 0.01084,-0.02049 0.02144,0.021 0.03125,0 0.0098,-0.021 -0.0087,-0.0098 0,-0.03125 0.0087,-0.02146 -0.0077,-0.0094 0,-0.03125 0.0077,-0.02187 -0.0066,-0.009 0,-0.03125 0.0066,-0.02223 0.02579,0.02253 0.03125,0 0.0055,-0.02253 -0.0043,-0.0085 0,-0.03125 0.0043,-0.02277 -0.0032,-0.0083 0,-0.03125 0.002,-0.02309 -8.94e-4,-0.0081 0,-0.03125 8.94e-4,-0.02316 2.59e-4,-0.0081 0,-0.03125 0,-12.009296 -6.923033,-22.247776 -16.59375,-25.96875 -0.950656,-0.585465 -1.683089,-1.482739 -1.78125,-3.40625 0.09657,-2.051132 0.905568,-2.979866 1.9375,-3.5625 9.587638,-3.771719 16.4375,-13.994133 16.4375,-25.9375001 2.59e-4,-0.023178 8.94e-4,-0.00809 0,-0.03125 -8.94e-4,-0.023162 0.002,-0.00816 0,-0.03125 -0.0032,-0.022959 0.0043,-0.00848 0,-0.03125 -0.0043,-0.022771 0.0055,-0.00872 0,-0.03125 -0.0055,-0.022528 -0.02468,0.022228 -0.03125,0 -0.0066,-0.022228 0.0077,-0.00938 0,-0.03125 -0.0077,-0.021874 0.0087,-0.00979 0,-0.03125 -0.0087,-0.021465 0.0098,-0.010247 0,-0.03125 -0.0098,-0.021003 -0.02041,0.020488 -0.03125,0 -0.01084,-0.020488 0.01185,-0.011327 0,-0.03125 -0.01185,-0.019923 -0.01843,0.019309 -0.03125,0 -0.01282,-0.019309 0.01377,-0.012603 0,-0.03125 -0.01377,-0.018647 0.01468,-0.013311 0,-0.03125 -0.01468,-0.017939 -0.0157,0.017186 -0.03125,0 -0.01555,-0.017186 0.01639,-0.014859 0,-0.03125 -0.01639,-0.016391 -0.01406,0.015555 -0.03125,0 -0.01719,-0.015555 0.01794,-0.01657 0,-0.03125 -0.01794,-0.01468 -0.0126,0.013769 -0.03125,0 -0.01865,-0.013769 -0.01194,0.012824 -0.03125,0 -0.01931,-0.012824 0.01992,-0.019403 0,-0.03125 -0.01992,-0.011847 -0.01076,0.010841 -0.03125,0 -0.02049,-0.010841 0.021,-0.021442 0,-0.03125 -0.021,-0.00981 -0.0098,0.00875 -0.03125,0 -0.02146,-0.00875 -0.0094,0.00767 -0.03125,0 -0.02187,-0.00767 -0.009,0.00657 -0.03125,0 -0.02223,-0.00657 0.02253,-0.025791 0,-0.03125 -0.02253,-0.00546 -0.0085,0.00433 -0.03125,0 -0.02277,-0.00433 -0.0083,0.00319 -0.03125,0 -0.02309,-0.00205 -0.0081,8.945e-4 -0.03125,0 -0.02316,-8.945e-4 -0.0081,-2.593e-4 -0.03125,0 l -4.1875,0 c -0.02318,-2.593e-4 -0.0081,-8.945e-4 -0.03125,0 -0.02316,8.945e-4 -0.0082,-0.00205 -0.03125,0 -0.02296,0.00319 -0.0085,-0.00433 -0.03125,0 -0.02277,0.00433 -0.0087,-0.00546 -0.03125,0 -0.02253,0.00546 0.02223,0.024676 0,0.03125 -0.02223,0.00657 -0.0094,-0.00767 -0.03125,0 -0.02187,0.00767 -0.0098,-0.00875 -0.03125,0 -0.02146,0.00875 -0.01025,-0.00981 -0.03125,0 -0.021,0.00981 0.02049,0.020409 0,0.03125 -0.02049,0.010841 -0.01133,-0.011847 -0.03125,0 -0.01992,0.011847 0.01931,0.018426 0,0.03125 -0.01931,0.012824 -0.0126,-0.013769 -0.03125,0 -0.01865,0.013769 -0.01331,-0.01468 -0.03125,0 -0.01794,0.01468 0.01719,0.015695 0,0.03125 -0.01719,0.015555 -0.01486,-0.016391 -0.03125,0 -0.01639,0.016391 0.01555,0.014064 0,0.03125 -0.01555,0.017186 -0.01657,-0.017939 -0.03125,0 -0.01468,0.017939 0.01377,0.012603 0,0.03125 -0.01377,0.018647 0.01282,0.011941 0,0.03125 -0.01282,0.019309 -0.0194,-0.019923 -0.03125,0 -0.01185,0.019923 0.01084,0.010762 0,0.03125 -0.01084,0.020488 -0.02144,-0.021003 -0.03125,0 -0.0098,0.021003 0.0087,0.00979 0,0.03125 -0.0087,0.021465 0.0077,0.00938 0,0.03125 -0.0077,0.021874 0.0066,0.00902 0,0.03125 -0.0066,0.022228 -0.02579,-0.022528 -0.03125,0 -0.0055,0.022528 0.0043,0.00848 0,0.03125 -0.0043,0.022771 0.0032,0.00829 0,0.03125 -0.002,0.023089 8.94e-4,0.00809 0,0.03125 -8.94e-4,0.023162 -2.59e-4,0.00807 0,0.03125 -0.03885,11.9903821 -8.712662,21.6562501 -19.375,21.6562501 -10.662289,0 -19.30494,-9.665155 -19.34375,-21.6562501 2.59e-4,-0.023178 8.94e-4,-0.00809 0,-0.03125 -8.94e-4,-0.023162 0.002,-0.00816 0,-0.03125 -0.0032,-0.022959 0.0043,-0.00848 0,-0.03125 -0.0043,-0.022771 0.0055,-0.00872 0,-0.03125 -0.0055,-0.022528 -0.02468,0.022228 -0.03125,0 -0.0066,-0.022228 0.0077,-0.00938 0,-0.03125 -0.0077,-0.021874 0.0088,-0.00979 0,-0.03125 -0.0087,-0.021465 0.0098,-0.010247 0,-0.03125 -0.0098,-0.021003 -0.02041,0.020488 -0.03125,0 -0.01084,-0.020488 0.01185,-0.011327 0,-0.03125 -0.01185,-0.019923 -0.01843,0.019309 -0.03125,0 -0.01282,-0.019309 0.01377,-0.012603 0,-0.03125 -0.01377,-0.018647 0.01468,-0.013311 0,-0.03125 -0.01468,-0.017939 -0.01569,0.017186 -0.03125,0 -0.01555,-0.017186 0.01639,-0.014859 0,-0.03125 -0.01639,-0.016391 -0.01406,0.015555 -0.03125,0 -0.01719,-0.015555 0.01794,-0.01657 0,-0.03125 -0.01794,-0.01468 -0.0126,0.013769 -0.03125,0 -0.01865,-0.013769 -0.01194,0.012824 -0.03125,0 -0.01931,-0.012824 0.01992,-0.019403 0,-0.03125 -0.01992,-0.011847 -0.01076,0.010841 -0.03125,0 -0.02049,-0.010841 0.021,-0.021442 0,-0.03125 -0.021,-0.00981 -0.0098,0.00875 -0.03125,0 -0.02146,-0.00875 -0.0094,0.00767 -0.03125,0 -0.02187,-0.00767 -0.009,0.00657 -0.03125,0 -0.02223,-0.00657 0.02253,-0.025791 0,-0.03125 -0.02253,-0.00546 -0.0085,0.00433 -0.03125,0 -0.02277,-0.00433 -0.0083,0.00319 -0.03125,0 -0.02309,-0.00205 -0.0081,8.945e-4 -0.03125,0 -0.02316,-8.945e-4 -0.0081,-2.593e-4 -0.03125,0 l -4.4687497,0 a 0.47041284,0.47041284 0 0 1 -0.03125,0 c -0.02355,0 -0.0077,-0.00119 -0.03125,0 a 0.47041284,0.47041284 0 0 1 -0.03125,0 0.47041284,0.47041284 0 0 1 -0.03125,0 c -0.01969,0.00566 -0.01182,-0.00652 -0.03125,0 -0.01943,0.00652 -0.01213,-0.00737 -0.03125,0 z m 10.6562497,0 a 0.45311652,0.44617281 0 0 0 -0.3125,0.4375 c 0.237184,8.6215721 6.385088,15.5625001 14,15.5625001 7.614988,0 13.761737,-6.940884 14,-15.5625001 a 0.45311652,0.44617281 0 0 0 -0.4375,-0.4375 l -27.125,0 a 0.45311652,0.44617281 0 0 0 -0.125,0 z m 13.6875,43.8125001 c -7.614911,0 -13.762815,6.940928 -14,15.5625 a 0.45311651,0.44617281 0 0 0 0.3125,0.4375 0.45311651,0.44617281 0 0 0 0.125,0 l 27.125,0 a 0.45311651,0.44617281 0 0 0 0.4375,-0.4375 c -0.238262,-8.621616 -6.385011,-15.5625 -14,-15.5625 z"
       id="path3016-7" />
  </g>
  <g
     id="layer1"
     inkscape:label="Layer 1"
     inkscape:groupmode="layer"
     style="display:inline"
     sodipodi:insensitive="true">
    <path
       style="fill:url(#linearGradient3022);fill-opacity:1;stroke:#000000;stroke-width:0;stroke-miterlimit:4;stroke-opacity:1;stroke-dasharray:none"
       d="m 7.65625,2.09375 c -0.019121,0.00737 0.018778,0.023046 0,0.03125 C 7.637472,2.1332 7.643399,2.11598 7.625,2.125 7.607016,2.13482 7.611284,2.145645 7.59375,2.15625 c -0.017051,0.011366 -0.014716,-0.012105 -0.03125,0 -0.016534,0.012105 0.015986,0.018429 0,0.03125 -0.015985,0.012821 -0.015844,-0.013512 -0.03125,0 -0.015406,0.013512 0.014796,0.017073 0,0.03125 C 7.516454,2.232927 7.514158,2.203936 7.5,2.21875 7.485842,2.233564 7.513493,2.234577 7.5,2.25 7.486507,2.265423 7.481551,2.233998 7.46875,2.25 c -0.012801,0.016002 0.012085,0.014701 0,0.03125 -0.012085,0.016549 -0.019905,-0.017065 -0.03125,0 -0.011345,0.017065 0.010583,0.013702 0,0.03125 -0.0098,0.017996 0.009,0.01284 0,0.03125 -0.009,0.01841 -0.023069,-0.018788 -0.03125,0 -0.00818,0.018788 0.00735,0.01212 0,0.03125 -0.0065,0.019435 0.00564,0.011548 0,0.03125 C 7.40061,2.425952 7.379764,2.417569 7.375,2.4375 c -0.00388,0.020121 0.00299,0.010978 0,0.03125 -0.00299,0.020272 0.0021,0.010866 0,0.03125 -0.0012,0.020457 2.979e-4,0.01076 0,0.03125 -2.979e-4,0.02049 -6.039e-4,0.010767 0,0.03125 0,11.954778 6.866739,22.174487 16.46875,25.9375 1.024642,0.580799 1.834665,1.516144 1.9375,3.53125 -0.102212,2.002892 -0.898067,2.918587 -1.90625,3.5 -9.616387,3.754275 -16.5,13.940062 -16.5,25.90625 -6.039e-4,0.02048 -2.979e-4,0.01076 0,0.03125 2.979e-4,0.02049 -0.0012,0.01079 0,0.03125 0.0021,0.02038 -0.00299,0.01098 0,0.03125 0.00299,0.02027 -0.00388,0.01113 0,0.03125 0.00476,0.01993 0.025614,0.01155 0.03125,0.03125 0.00564,0.0197 -0.0065,0.01181 0,0.03125 0.00735,0.01913 -0.00818,0.01246 0,0.03125 0.00818,0.01879 0.022251,-0.01841 0.03125,0 0.009,0.01841 -0.0098,0.01325 0,0.03125 0.010583,0.01755 -0.011345,0.01418 0,0.03125 0.011345,0.01707 0.019165,-0.01655 0.03125,0 0.012085,0.01655 -0.012801,0.01525 0,0.03125 0.012801,0.016 0.017757,-0.01542 0.03125,0 0.013493,0.01542 -0.014158,0.01644 0,0.03125 0.014158,0.01481 0.016454,-0.01418 0.03125,0 0.014796,0.01418 -0.015406,0.01774 0,0.03125 0.015406,0.01351 0.015265,-0.01282 0.03125,0 0.015986,0.01282 -0.016534,0.01915 0,0.03125 0.016534,0.0121 0.014199,-0.01137 0.03125,0 0.017534,0.0106 0.013266,0.02143 0.03125,0.03125 0.018399,0.009 0.012472,-0.0082 0.03125,0 0.018778,0.0082 -0.019121,0.02388 0,0.03125 0.019121,0.0074 0.011824,-0.0065 0.03125,0 0.019427,0.0065 0.011555,-0.0057 0.03125,0 a 0.47041284,0.47041284 0 0 1 0.03125,0 0.47041284,0.47041284 0 0 1 0.03125,0 c 0.023518,0.0012 0.0077,0 0.03125,0 a 0.47041284,0.47041284 0 0 1 0.03125,0 l 4.46875,0 c 0.02318,2.59e-4 0.0081,8.95e-4 0.03125,0 0.02316,-8.95e-4 0.0082,0.002 0.03125,0 0.02296,-0.0032 0.0085,0.0043 0.03125,0 0.02277,-0.0043 0.0087,0.0055 0.03125,0 0.02253,-0.0055 -0.02223,-0.02468 0,-0.03125 0.02223,-0.0066 0.0094,0.0077 0.03125,0 0.02187,-0.0077 0.0098,0.0088 0.03125,0 0.02146,-0.0088 0.01025,0.0098 0.03125,0 0.021,-0.0098 -0.02049,-0.02041 0,-0.03125 0.02049,-0.01084 0.01133,0.01185 0.03125,0 0.01992,-0.01185 -0.01931,-0.01843 0,-0.03125 0.01931,-0.01282 0.0126,0.01377 0.03125,0 0.01865,-0.01377 0.01331,0.01468 0.03125,0 0.01794,-0.01468 -0.01719,-0.0157 0,-0.03125 0.01719,-0.01555 0.01486,0.01639 0.03125,0 0.01639,-0.01639 -0.01555,-0.01406 0,-0.03125 0.01556,-0.01719 0.01657,0.01794 0.03125,0 0.01468,-0.01794 -0.01377,-0.0126 0,-0.03125 0.01377,-0.01865 -0.01282,-0.01194 0,-0.03125 0.01282,-0.01931 0.0194,0.01992 0.03125,0 0.01185,-0.01992 -0.01084,-0.01076 0,-0.03125 0.01084,-0.02049 0.02144,0.021 0.03125,0 0.0098,-0.021 -0.0087,-0.0098 0,-0.03125 0.0088,-0.02146 -0.0077,-0.0094 0,-0.03125 0.0077,-0.02187 -0.0066,-0.009 0,-0.03125 0.0066,-0.02223 0.02579,0.02253 0.03125,0 0.0055,-0.02253 -0.0043,-0.0085 0,-0.03125 0.0043,-0.02277 -0.0032,-0.0083 0,-0.03125 0.002,-0.02309 -8.94e-4,-0.0081 0,-0.03125 8.94e-4,-0.02316 2.59e-4,-0.0081 0,-0.03125 0.03881,-11.991095 8.681461,-21.625 19.34375,-21.625 10.662337,0 19.336153,9.634618 19.375,21.625 -2.59e-4,0.02318 -8.94e-4,0.0081 0,0.03125 8.94e-4,0.02316 -0.002,0.0082 0,0.03125 0.0032,0.02296 -0.0043,0.0085 0,0.03125 0.0043,0.02277 -0.0055,0.0087 0,0.03125 0.0055,0.02253 0.02468,-0.02223 0.03125,0 0.0066,0.02223 -0.0077,0.0094 0,0.03125 0.0077,0.02187 -0.0087,0.0098 0,0.03125 0.0087,0.02146 -0.0098,0.01025 0,0.03125 0.0098,0.021 0.02041,-0.02049 0.03125,0 0.01084,0.02049 -0.01185,0.01133 0,0.03125 0.01185,0.01992 0.01843,-0.01931 0.03125,0 0.01282,0.01931 -0.01377,0.0126 0,0.03125 0.01377,0.01865 -0.01468,0.01331 0,0.03125 0.01468,0.01794 0.0157,-0.01719 0.03125,0 0.01555,0.01719 -0.01639,0.01486 0,0.03125 0.01639,0.01639 0.01406,-0.01555 0.03125,0 0.01719,0.01555 -0.01794,0.01657 0,0.03125 0.01794,0.01468 0.0126,-0.01377 0.03125,0 0.01865,0.01377 0.01194,-0.01282 0.03125,0 0.01931,0.01282 -0.01992,0.0194 0,0.03125 0.01992,0.01185 0.01076,-0.01084 0.03125,0 0.02049,0.01084 -0.021,0.02144 0,0.03125 0.021,0.0098 0.0098,-0.0088 0.03125,0 0.02146,0.0088 0.0094,-0.0077 0.03125,0 0.02187,0.0077 0.009,-0.0066 0.03125,0 0.02223,0.0066 -0.02253,0.02579 0,0.03125 0.02253,0.0055 0.0085,-0.0043 0.03125,0 0.02277,0.0043 0.0083,-0.0032 0.03125,0 0.02309,0.002 0.0081,-8.95e-4 0.03125,0 0.02316,8.95e-4 0.0081,2.59e-4 0.03125,0 l 4.1875,0 c 0.02318,2.59e-4 0.0081,8.95e-4 0.03125,0 0.02316,-8.95e-4 0.0082,0.002 0.03125,0 0.02296,-0.0032 0.0085,0.0043 0.03125,0 0.02277,-0.0043 0.0087,0.0055 0.03125,0 0.02253,-0.0055 -0.02223,-0.02468 0,-0.03125 0.02223,-0.0066 0.0094,0.0077 0.03125,0 0.02187,-0.0077 0.0098,0.0088 0.03125,0 0.02146,-0.0088 0.01025,0.0098 0.03125,0 0.021,-0.0098 -0.02049,-0.02041 0,-0.03125 0.02049,-0.01084 0.01133,0.01185 0.03125,0 0.01992,-0.01185 -0.01931,-0.01843 0,-0.03125 0.01931,-0.01282 0.0126,0.01377 0.03125,0 0.01865,-0.01377 0.01331,0.01468 0.03125,0 0.01794,-0.01468 -0.01719,-0.0157 0,-0.03125 0.01719,-0.01555 0.01486,0.01639 0.03125,0 0.01639,-0.01639 -0.01555,-0.01406 0,-0.03125 0.01555,-0.01719 0.01657,0.01794 0.03125,0 0.01468,-0.01794 -0.01377,-0.0126 0,-0.03125 0.01377,-0.01865 -0.01282,-0.01194 0,-0.03125 0.01282,-0.01931 0.0194,0.01992 0.03125,0 0.01185,-0.01992 -0.01084,-0.01076 0,-0.03125 0.01084,-0.02049 0.02144,0.021 0.03125,0 0.0098,-0.021 -0.0087,-0.0098 0,-0.03125 0.0087,-0.02146 -0.0077,-0.0094 0,-0.03125 0.0077,-0.02187 -0.0066,-0.009 0,-0.03125 0.0066,-0.02223 0.02579,0.02253 0.03125,0 0.0055,-0.02253 -0.0043,-0.0085 0,-0.03125 0.0043,-0.02277 -0.0032,-0.0083 0,-0.03125 0.002,-0.02309 -8.94e-4,-0.0081 0,-0.03125 8.94e-4,-0.02316 2.59e-4,-0.0081 0,-0.03125 0,-12.009296 -6.923033,-22.247776 -16.59375,-25.96875 C 39.080594,34.883285 38.348161,33.986011 38.25,32.0625 38.34657,30.011368 39.155568,29.082634 40.1875,28.5 49.775138,24.728281 56.625,14.505867 56.625,2.5625 c 2.59e-4,-0.023178 8.94e-4,-0.00809 0,-0.03125 -8.94e-4,-0.023162 0.002,-0.00816 0,-0.03125 -0.0032,-0.022959 0.0043,-0.00848 0,-0.03125 -0.0043,-0.022771 0.0055,-0.00872 0,-0.03125 -0.0055,-0.022528 -0.02468,0.022228 -0.03125,0 -0.0066,-0.022228 0.0077,-0.00938 0,-0.03125 -0.0077,-0.021874 0.0087,-0.00979 0,-0.03125 -0.0087,-0.021465 0.0098,-0.010247 0,-0.03125 -0.0098,-0.021003 -0.02041,0.020488 -0.03125,0 -0.01084,-0.020488 0.01185,-0.011327 0,-0.03125 -0.01185,-0.019923 -0.01843,0.019309 -0.03125,0 -0.01282,-0.019309 0.01377,-0.012603 0,-0.03125 -0.01377,-0.018647 0.01468,-0.013311 0,-0.03125 -0.01468,-0.017939 -0.0157,0.017186 -0.03125,0 -0.01555,-0.017186 0.01639,-0.014859 0,-0.03125 -0.01639,-0.016391 -0.01406,0.015555 -0.03125,0 -0.01719,-0.015555 0.01794,-0.01657 0,-0.03125 -0.01794,-0.01468 -0.0126,0.013769 -0.03125,0 -0.01865,-0.013769 -0.01194,0.012824 -0.03125,0 -0.01931,-0.012824 0.01992,-0.019403 0,-0.03125 -0.01992,-0.011847 -0.01076,0.010841 -0.03125,0 -0.02049,-0.010841 0.021,-0.021442 0,-0.03125 -0.021,-0.00981 -0.0098,0.00875 -0.03125,0 -0.02146,-0.00875 -0.0094,0.00767 -0.03125,0 -0.02187,-0.00767 -0.009,0.00657 -0.03125,0 -0.02223,-0.00657 0.02253,-0.025791 0,-0.03125 -0.02253,-0.00546 -0.0085,0.00433 -0.03125,0 -0.02277,-0.00433 -0.0083,0.00319 -0.03125,0 -0.02309,-0.00205 -0.0081,8.945e-4 -0.03125,0 -0.02316,-8.945e-4 -0.0081,-2.593e-4 -0.03125,0 l -4.1875,0 c -0.02318,-2.593e-4 -0.0081,-8.945e-4 -0.03125,0 -0.02316,8.945e-4 -0.0082,-0.00205 -0.03125,0 -0.02296,0.00319 -0.0085,-0.00433 -0.03125,0 -0.02277,0.00433 -0.0087,-0.00546 -0.03125,0 -0.02253,0.00546 0.02223,0.024676 0,0.03125 -0.02223,0.00657 -0.0094,-0.00767 -0.03125,0 -0.02187,0.00767 -0.0098,-0.00875 -0.03125,0 -0.02146,0.00875 -0.01025,-0.00981 -0.03125,0 -0.021,0.00981 0.02049,0.020409 0,0.03125 -0.02049,0.010841 -0.01133,-0.011847 -0.03125,0 -0.01992,0.011847 0.01931,0.018426 0,0.03125 -0.01931,0.012824 -0.0126,-0.013769 -0.03125,0 -0.01865,0.013769 -0.01331,-0.01468 -0.03125,0 -0.01794,0.01468 0.01719,0.015695 0,0.03125 -0.01719,0.015555 -0.01486,-0.016391 -0.03125,0 -0.01639,0.016391 0.01555,0.014064 0,0.03125 -0.01555,0.017186 -0.01657,-0.017939 -0.03125,0 -0.01468,0.017939 0.01377,0.012603 0,0.03125 -0.01377,0.018647 0.01282,0.011941 0,0.03125 -0.01282,0.019309 -0.0194,-0.019923 -0.03125,0 -0.01185,0.019923 0.01084,0.010762 0,0.03125 -0.01084,0.020488 -0.02144,-0.021003 -0.03125,0 -0.0098,0.021003 0.0087,0.00979 0,0.03125 -0.0087,0.021465 0.0077,0.00938 0,0.03125 -0.0077,0.021874 0.0066,0.00902 0,0.03125 -0.0066,0.022228 -0.02579,-0.022528 -0.03125,0 -0.0055,0.022528 0.0043,0.00848 0,0.03125 -0.0043,0.022771 0.0032,0.00829 0,0.03125 -0.002,0.023089 8.94e-4,0.00809 0,0.03125 -8.94e-4,0.023162 -2.59e-4,0.00807 0,0.03125 -0.03885,11.990382 -8.712663,21.65625 -19.375,21.65625 -10.662289,0 -19.30494,-9.665155 -19.34375,-21.65625 2.59e-4,-0.023178 8.94e-4,-0.00809 0,-0.03125 -8.94e-4,-0.023162 0.002,-0.00816 0,-0.03125 -0.0032,-0.022959 0.0043,-0.00848 0,-0.03125 -0.0043,-0.022771 0.0055,-0.00872 0,-0.03125 -0.0055,-0.022528 -0.02468,0.022228 -0.03125,0 -0.0066,-0.022228 0.0077,-0.00938 0,-0.03125 -0.0077,-0.021874 0.0088,-0.00979 0,-0.03125 -0.0087,-0.021465 0.0098,-0.010247 0,-0.03125 -0.0098,-0.021003 -0.02041,0.020488 -0.03125,0 -0.01084,-0.020488 0.01185,-0.011327 0,-0.03125 -0.01185,-0.019923 -0.01843,0.019309 -0.03125,0 -0.01282,-0.019309 0.01377,-0.012603 0,-0.03125 -0.01377,-0.018647 0.01468,-0.013311 0,-0.03125 -0.01468,-0.017939 -0.01569,0.017186 -0.03125,0 -0.01555,-0.017186 0.01639,-0.014859 0,-0.03125 -0.01639,-0.016391 -0.01406,0.015555 -0.03125,0 -0.01719,-0.015555 0.01794,-0.01657 0,-0.03125 -0.01794,-0.01468 -0.0126,0.013769 -0.03125,0 -0.01865,-0.013769 -0.01194,0.012824 -0.03125,0 -0.01931,-0.012824 0.01992,-0.019403 0,-0.03125 -0.01992,-0.011847 -0.01076,0.010841 -0.03125,0 -0.02049,-0.010841 0.021,-0.021442 0,-0.03125 -0.021,-0.00981 -0.0098,0.00875 -0.03125,0 -0.02146,-0.00875 -0.0094,0.00767 -0.03125,0 -0.02187,-0.00767 -0.009,0.00657 -0.03125,0 -0.02223,-0.00657 0.02253,-0.025791 0,-0.03125 -0.02253,-0.00546 -0.0085,0.00433 -0.03125,0 -0.02277,-0.00433 -0.0083,0.00319 -0.03125,0 -0.02309,-0.00205 -0.0081,8.945e-4 -0.03125,0 -0.02316,-8.945e-4 -0.0081,-2.593e-4 -0.03125,0 l -4.46875,0 a 0.47041284,0.47041284 0 0 1 -0.03125,0 c -0.023548,0 -0.00773,-0.00119 -0.03125,0 a 0.47041284,0.47041284 0 0 1 -0.03125,0 0.47041284,0.47041284 0 0 1 -0.03125,0 c -0.019695,0.00566 -0.011823,-0.00652 -0.03125,0 -0.019426,0.00652 -0.012129,-0.00737 -0.03125,0 z m 10.65625,0 A 0.45311652,0.44617281 0 0 0 18,2.53125 c 0.237184,8.621572 6.385088,15.5625 14,15.5625 7.614988,0 13.761737,-6.940884 14,-15.5625 a 0.45311652,0.44617281 0 0 0 -0.4375,-0.4375 l -27.125,0 a 0.45311652,0.44617281 0 0 0 -0.125,0 z M 32,45.90625 c -7.614911,0 -13.762815,6.940928 -14,15.5625 a 0.45311651,0.44617281 0 0 0 0.3125,0.4375 0.45311651,0.44617281 0 0 0 0.125,0 l 27.125,0 A 0.45311651,0.44617281 0 0 0 46,61.46875 C 45.761738,52.847134 39.614989,45.90625 32,45.90625 z"
       id="path3016"
       inkscape:connector-curvature="0" />
  </g>
  <g
     inkscape:groupmode="layer"
     id="layer2"
     inkscape:label="Layer 2"
     style="display:inline"
     sodipodi:insensitive="true">
    <path
       style="opacity:0.5;fill:url(#radialGradient3990);fill-opacity:1;stroke:#000000;stroke-width:0;stroke-miterlimit:4;stroke-opacity:1;stroke-dasharray:none;display:inline"
       d="m 7.6560023,2.09375 c -0.01912,0.0074 0.01878,0.02305 0,0.03125 -0.01878,0.0082 -0.01285,-0.009 -0.03125,0 -0.01798,0.0098 -0.01372,0.02064 -0.03125,0.03125 -0.01705,0.01137 -0.01472,-0.01211 -0.03125,0 -0.01653,0.0121 0.01599,0.01843 0,0.03125 -0.01599,0.01282 -0.01584,-0.01351 -0.03125,0 -0.01541,0.01351 0.0148,0.01707 0,0.03125 -0.0148,0.01418 -0.01709,-0.01481 -0.03125,0 -0.01416,0.01481 0.01349,0.01583 0,0.03125 -0.01349,0.01542 -0.01845,-0.016 -0.03125,0 -0.0128,0.016 0.01208,0.0147 0,0.03125 -0.01208,0.01655 -0.01991,-0.01707 -0.03125,0 -0.01134,0.01706 0.01058,0.0137 0,0.03125 -0.0098,0.018 0.009,0.01284 0,0.03125 -0.009,0.01841 -0.02307,-0.01879 -0.03125,0 -0.0082,0.01879 0.0073,0.01212 0,0.03125 -0.0065,0.01943 0.0056,0.01155 0,0.03125 -0.0056,0.0197 -0.02649,0.01132 -0.03125,0.03125 -0.0039,0.02012 0.003,0.01098 0,0.03125 -0.003,0.02027 0.0021,0.01087 0,0.03125 -0.0012,0.02046 2.98e-4,0.01076 0,0.03125 -2.97e-4,0.02049 -6.03e-4,0.01077 0,0.03125 0,11.954778 6.8667387,22.174487 16.4687497,25.9375 1.024642,0.580799 1.834665,1.516144 1.9375,3.53125 -0.102212,2.002892 -0.898067,2.918587 -1.90625,3.5 -9.616387,3.754275 -16.4999997,13.940062 -16.4999997,25.90625 -6.03e-4,0.02048 -2.97e-4,0.01076 0,0.03125 2.98e-4,0.02049 -0.0012,0.01079 0,0.03125 0.0021,0.02038 -0.003,0.01098 0,0.03125 0.003,0.02027 -0.0039,0.01113 0,0.03125 0.0048,0.01993 0.02561,0.01155 0.03125,0.03125 0.0056,0.0197 -0.0065,0.01181 0,0.03125 0.0073,0.01913 -0.0082,0.01246 0,0.03125 0.0082,0.01879 0.02225,-0.01841 0.03125,0 0.009,0.01841 -0.0098,0.01325 0,0.03125 0.01058,0.01755 -0.01134,0.01418 0,0.03125 0.01134,0.01707 0.01917,-0.01655 0.03125,0 0.01208,0.01655 -0.0128,0.01525 0,0.03125 0.0128,0.016 0.01776,-0.01542 0.03125,0 0.01349,0.01542 -0.01416,0.01644 0,0.03125 0.01416,0.01481 0.01645,-0.01418 0.03125,0 0.0148,0.01418 -0.01541,0.01774 0,0.03125 0.01541,0.01351 0.01526,-0.01282 0.03125,0 0.01599,0.01282 -0.01653,0.01915 0,0.03125 0.01653,0.0121 0.0142,-0.01137 0.03125,0 0.01753,0.0106 0.01327,0.02143 0.03125,0.03125 0.0184,0.009 0.01247,-0.0082 0.03125,0 0.01878,0.0082 -0.01912,0.02388 0,0.03125 0.01912,0.0074 0.01182,-0.0065 0.03125,0 0.01943,0.0065 0.01156,-0.0057 0.03125,0 a 0.47041284,0.47041284 0 0 1 0.03125,0 0.47041284,0.47041284 0 0 1 0.03125,0 c 0.02352,0.0012 0.0077,0 0.03125,0 a 0.47041284,0.47041284 0 0 1 0.03125,0 l 4.4687497,0 c 0.02318,2.59e-4 0.0081,8.95e-4 0.03125,0 0.02316,-8.95e-4 0.0082,0.002 0.03125,0 0.02296,-0.0032 0.0085,0.0043 0.03125,0 0.02277,-0.0043 0.0087,0.0055 0.03125,0 0.02253,-0.0055 -0.02223,-0.02468 0,-0.03125 0.02223,-0.0066 0.0094,0.0077 0.03125,0 0.02187,-0.0077 0.0098,0.0088 0.03125,0 0.02146,-0.0088 0.01025,0.0098 0.03125,0 0.021,-0.0098 -0.02049,-0.02041 0,-0.03125 0.02049,-0.01084 0.01133,0.01185 0.03125,0 0.01992,-0.01185 -0.01931,-0.01843 0,-0.03125 0.01931,-0.01282 0.0126,0.01377 0.03125,0 0.01865,-0.01377 0.01331,0.01468 0.03125,0 0.01794,-0.01468 -0.01719,-0.0157 0,-0.03125 0.01719,-0.01555 0.01486,0.01639 0.03125,0 0.01639,-0.01639 -0.01555,-0.01406 0,-0.03125 0.01556,-0.01719 0.01657,0.01794 0.03125,0 0.01468,-0.01794 -0.01377,-0.0126 0,-0.03125 0.01377,-0.01865 -0.01282,-0.01194 0,-0.03125 0.01282,-0.01931 0.0194,0.01992 0.03125,0 0.01185,-0.01992 -0.01084,-0.01076 0,-0.03125 0.01084,-0.02049 0.02144,0.021 0.03125,0 0.0098,-0.021 -0.0087,-0.0098 0,-0.03125 0.0088,-0.02146 -0.0077,-0.0094 0,-0.03125 0.0077,-0.02187 -0.0066,-0.009 0,-0.03125 0.0066,-0.02223 0.02579,0.02253 0.03125,0 0.0055,-0.02253 -0.0043,-0.0085 0,-0.03125 0.0043,-0.02277 -0.0032,-0.0083 0,-0.03125 0.002,-0.02309 -8.94e-4,-0.0081 0,-0.03125 8.94e-4,-0.02316 2.59e-4,-0.0081 0,-0.03125 0.03881,-11.991095 8.681461,-21.625 19.34375,-21.625 10.662337,0 19.336153,9.634618 19.375,21.625 -2.59e-4,0.02318 -8.94e-4,0.0081 0,0.03125 8.94e-4,0.02316 -0.002,0.0082 0,0.03125 0.0032,0.02296 -0.0043,0.0085 0,0.03125 0.0043,0.02277 -0.0055,0.0087 0,0.03125 0.0055,0.02253 0.02468,-0.02223 0.03125,0 0.0066,0.02223 -0.0077,0.0094 0,0.03125 0.0077,0.02187 -0.0087,0.0098 0,0.03125 0.0087,0.02146 -0.0098,0.01025 0,0.03125 0.0098,0.021 0.02041,-0.02049 0.03125,0 0.01084,0.02049 -0.01185,0.01133 0,0.03125 0.01185,0.01992 0.01843,-0.01931 0.03125,0 0.01282,0.01931 -0.01377,0.0126 0,0.03125 0.01377,0.01865 -0.01468,0.01331 0,0.03125 0.01468,0.01794 0.0157,-0.01719 0.03125,0 0.01555,0.01719 -0.01639,0.01486 0,0.03125 0.01639,0.01639 0.01406,-0.01555 0.03125,0 0.01719,0.01555 -0.01794,0.01657 0,0.03125 0.01794,0.01468 0.0126,-0.01377 0.03125,0 0.01865,0.01377 0.01194,-0.01282 0.03125,0 0.01931,0.01282 -0.01992,0.0194 0,0.03125 0.01992,0.01185 0.01076,-0.01084 0.03125,0 0.02049,0.01084 -0.021,0.02144 0,0.03125 0.021,0.0098 0.0098,-0.0088 0.03125,0 0.02146,0.0088 0.0094,-0.0077 0.03125,0 0.02187,0.0077 0.009,-0.0066 0.03125,0 0.02223,0.0066 -0.02253,0.02579 0,0.03125 0.02253,0.0055 0.0085,-0.0043 0.03125,0 0.02277,0.0043 0.0083,-0.0032 0.03125,0 0.02309,0.002 0.0081,-8.95e-4 0.03125,0 0.02316,8.95e-4 0.0081,2.59e-4 0.03125,0 l 4.1875,0 c 0.02318,2.59e-4 0.0081,8.95e-4 0.03125,0 0.02316,-8.95e-4 0.0082,0.002 0.03125,0 0.02296,-0.0032 0.0085,0.0043 0.03125,0 0.02277,-0.0043 0.0087,0.0055 0.03125,0 0.02253,-0.0055 -0.02223,-0.02468 0,-0.03125 0.02223,-0.0066 0.0094,0.0077 0.03125,0 0.02187,-0.0077 0.0098,0.0088 0.03125,0 0.02146,-0.0088 0.01025,0.0098 0.03125,0 0.021,-0.0098 -0.02049,-0.02041 0,-0.03125 0.02049,-0.01084 0.01133,0.01185 0.03125,0 0.01992,-0.01185 -0.01931,-0.01843 0,-0.03125 0.01931,-0.01282 0.0126,0.01377 0.03125,0 0.01865,-0.01377 0.01331,0.01468 0.03125,0 0.01794,-0.01468 -0.01719,-0.0157 0,-0.03125 0.01719,-0.01555 0.01486,0.01639 0.03125,0 0.01639,-0.01639 -0.01555,-0.01406 0,-0.03125 0.01555,-0.01719 0.01657,0.01794 0.03125,0 0.01468,-0.01794 -0.01377,-0.0126 0,-0.03125 0.01377,-0.01865 -0.01282,-0.01194 0,-0.03125 0.01282,-0.01931 0.0194,0.01992 0.03125,0 0.01185,-0.01992 -0.01084,-0.01076 0,-0.03125 0.01084,-0.02049 0.02144,0.021 0.03125,0 0.0098,-0.021 -0.0087,-0.0098 0,-0.03125 0.0087,-0.02146 -0.0077,-0.0094 0,-0.03125 0.0077,-0.02187 -0.0066,-0.009 0,-0.03125 0.0066,-0.02223 0.02579,0.02253 0.03125,0 0.0055,-0.02253 -0.0043,-0.0085 0,-0.03125 0.0043,-0.02277 -0.0032,-0.0083 0,-0.03125 0.002,-0.02309 -8.94e-4,-0.0081 0,-0.03125 8.94e-4,-0.02316 2.59e-4,-0.0081 0,-0.03125 0,-12.009296 -6.923033,-22.247776 -16.59375,-25.96875 -0.950656,-0.585465 -1.683089,-1.482739 -1.78125,-3.40625 0.09657,-2.051132 0.905568,-2.979866 1.9375,-3.5625 9.587638,-3.771719 16.4375,-13.994133 16.4375,-25.9375 2.59e-4,-0.02318 8.94e-4,-0.0081 0,-0.03125 -8.94e-4,-0.02316 0.002,-0.0082 0,-0.03125 -0.0032,-0.02296 0.0043,-0.0085 0,-0.03125 -0.0043,-0.02277 0.0055,-0.0087 0,-0.03125 -0.0055,-0.02253 -0.02468,0.02223 -0.03125,0 -0.0066,-0.02223 0.0077,-0.0094 0,-0.03125 -0.0077,-0.02187 0.0087,-0.0098 0,-0.03125 -0.0087,-0.02147 0.0098,-0.01025 0,-0.03125 -0.0098,-0.021 -0.02041,0.02049 -0.03125,0 -0.01084,-0.02049 0.01185,-0.01133 0,-0.03125 -0.01185,-0.01992 -0.01843,0.01931 -0.03125,0 -0.01282,-0.01931 0.01377,-0.0126 0,-0.03125 -0.01377,-0.01865 0.01468,-0.01331 0,-0.03125 -0.01468,-0.01794 -0.0157,0.01719 -0.03125,0 -0.01555,-0.01719 0.01639,-0.01486 0,-0.03125 -0.01639,-0.01639 -0.01406,0.01555 -0.03125,0 -0.01719,-0.01556 0.01794,-0.01657 0,-0.03125 -0.01794,-0.01468 -0.0126,0.01377 -0.03125,0 -0.01865,-0.01377 -0.01194,0.01282 -0.03125,0 -0.01931,-0.01282 0.01992,-0.0194 0,-0.03125 -0.01992,-0.01185 -0.01076,0.01084 -0.03125,0 -0.02049,-0.01084 0.021,-0.02144 0,-0.03125 -0.021,-0.0098 -0.0098,0.0087 -0.03125,0 -0.02146,-0.0088 -0.0094,0.0077 -0.03125,0 -0.02187,-0.0077 -0.009,0.0066 -0.03125,0 -0.02223,-0.0066 0.02253,-0.02579 0,-0.03125 -0.02253,-0.0055 -0.0085,0.0043 -0.03125,0 -0.02277,-0.0043 -0.0083,0.0032 -0.03125,0 -0.02309,-0.0021 -0.0081,8.94e-4 -0.03125,0 -0.02316,-8.95e-4 -0.0081,-2.59e-4 -0.03125,0 l -4.1875,0 c -0.02318,-2.59e-4 -0.0081,-8.95e-4 -0.03125,0 -0.02316,8.94e-4 -0.0082,-0.0021 -0.03125,0 -0.02296,0.0032 -0.0085,-0.0043 -0.03125,0 -0.02277,0.0043 -0.0087,-0.0055 -0.03125,0 -0.02253,0.0055 0.02223,0.02468 0,0.03125 -0.02223,0.0066 -0.0094,-0.0077 -0.03125,0 -0.02187,0.0077 -0.0098,-0.0088 -0.03125,0 -0.02146,0.0087 -0.01025,-0.0098 -0.03125,0 -0.021,0.0098 0.02049,0.02041 0,0.03125 -0.02049,0.01084 -0.01133,-0.01185 -0.03125,0 -0.01992,0.01185 0.01931,0.01843 0,0.03125 -0.01931,0.01282 -0.0126,-0.01377 -0.03125,0 -0.01865,0.01377 -0.01331,-0.01468 -0.03125,0 -0.01794,0.01468 0.01719,0.01569 0,0.03125 -0.01719,0.01555 -0.01486,-0.01639 -0.03125,0 -0.01639,0.01639 0.01555,0.01406 0,0.03125 -0.01555,0.01719 -0.01657,-0.01794 -0.03125,0 -0.01468,0.01794 0.01377,0.0126 0,0.03125 -0.01377,0.01865 0.01282,0.01194 0,0.03125 -0.01282,0.01931 -0.0194,-0.01992 -0.03125,0 -0.01185,0.01992 0.01084,0.01076 0,0.03125 -0.01084,0.02049 -0.02144,-0.021 -0.03125,0 -0.0098,0.021 0.0087,0.0098 0,0.03125 -0.0087,0.02146 0.0077,0.0094 0,0.03125 -0.0077,0.02187 0.0066,0.009 0,0.03125 -0.0066,0.02223 -0.02579,-0.02253 -0.03125,0 -0.0055,0.02253 0.0043,0.0085 0,0.03125 -0.0043,0.02277 0.0032,0.0083 0,0.03125 -0.002,0.02309 8.94e-4,0.0081 0,0.03125 -8.94e-4,0.02316 -2.59e-4,0.0081 0,0.03125 -0.03885,11.990382 -8.712663,21.65625 -19.375,21.65625 -10.662289,0 -19.30494,-9.665155 -19.34375,-21.65625 2.59e-4,-0.02318 8.94e-4,-0.0081 0,-0.03125 -8.94e-4,-0.02316 0.002,-0.0082 0,-0.03125 -0.0032,-0.02296 0.0043,-0.0085 0,-0.03125 -0.0043,-0.02277 0.0055,-0.0087 0,-0.03125 -0.0055,-0.02253 -0.02468,0.02223 -0.03125,0 -0.0066,-0.02223 0.0077,-0.0094 0,-0.03125 -0.0077,-0.02187 0.0088,-0.0098 0,-0.03125 -0.0087,-0.02147 0.0098,-0.01025 0,-0.03125 -0.0098,-0.021 -0.02041,0.02049 -0.03125,0 -0.01084,-0.02049 0.01185,-0.01133 0,-0.03125 -0.01185,-0.01992 -0.01843,0.01931 -0.03125,0 -0.01282,-0.01931 0.01377,-0.0126 0,-0.03125 -0.01377,-0.01865 0.01468,-0.01331 0,-0.03125 -0.01468,-0.01794 -0.01569,0.01719 -0.03125,0 -0.01555,-0.01719 0.01639,-0.01486 0,-0.03125 -0.01639,-0.01639 -0.01406,0.01555 -0.03125,0 -0.01719,-0.01556 0.01794,-0.01657 0,-0.03125 -0.01794,-0.01468 -0.0126,0.01377 -0.03125,0 -0.01865,-0.01377 -0.01194,0.01282 -0.03125,0 -0.01931,-0.01282 0.01992,-0.0194 0,-0.03125 -0.01992,-0.01185 -0.01076,0.01084 -0.03125,0 -0.02049,-0.01084 0.021,-0.02144 0,-0.03125 -0.021,-0.0098 -0.0098,0.0087 -0.03125,0 -0.02146,-0.0088 -0.0094,0.0077 -0.03125,0 -0.02187,-0.0077 -0.009,0.0066 -0.03125,0 -0.02223,-0.0066 0.02253,-0.02579 0,-0.03125 -0.02253,-0.0055 -0.0085,0.0043 -0.03125,0 -0.02277,-0.0043 -0.0083,0.0032 -0.03125,0 -0.02309,-0.0021 -0.0081,8.94e-4 -0.03125,0 -0.02316,-8.95e-4 -0.0081,-2.59e-4 -0.03125,0 l -4.4687497,0 a 0.47041284,0.47041284 0 0 1 -0.03125,0 c -0.02355,0 -0.0077,-0.0012 -0.03125,0 a 0.47041284,0.47041284 0 0 1 -0.03125,0 0.47041284,0.47041284 0 0 1 -0.03125,0 c -0.01969,0.0057 -0.01182,-0.0065 -0.03125,0 -0.01943,0.0065 -0.01213,-0.0074 -0.03125,0 z"
       id="path3851-3"
       inkscape:connector-curvature="0" />
    <path
       sodipodi:type="inkscape:offset"
       inkscape:radius="0.51425946"
       inkscape:original="M 17.34375 1.875 C 17.60668 11.581148 24.393823 19.3125 32.71875 19.3125 C 41.043726 19.3125 47.860904 11.580152 48.125 1.875 L 17.34375 1.875 z "
       style="opacity:0.5;fill:url(#radialGradient3982);fill-opacity:1;stroke:#000000;stroke-width:0;stroke-miterlimit:4;stroke-opacity:1;stroke-dasharray:none;display:inline"
       id="path3849-0"
       d="m 17.1875,1.375 a 0.51431088,0.51431088 0 0 0 -0.34375,0.5 c 0.269217,9.93823 7.231678,17.9375 15.875,17.9375 8.64341,0 15.63581,-7.999219 15.90625,-17.9375 a 0.51431088,0.51431088 0 0 0 -0.5,-0.5 l -30.78125,0 a 0.51431088,0.51431088 0 0 0 -0.15625,0 z"
       transform="matrix(0.88101677,0,0,0.86751579,3.1605595,0.903858)" />
    <path
       sodipodi:type="inkscape:offset"
       inkscape:radius="0.51425946"
       inkscape:original="M 17.34375 1.875 C 17.60668 11.581148 24.393823 19.3125 32.71875 19.3125 C 41.043726 19.3125 47.860904 11.580152 48.125 1.875 L 17.34375 1.875 z "
       style="opacity:0.5;fill:url(#radialGradient3980);fill-opacity:1;stroke:#000000;stroke-width:0;stroke-miterlimit:4;stroke-opacity:1;stroke-dasharray:none;display:inline"
       id="path3849-4-7"
       d="m 17.1875,1.375 a 0.51431088,0.51431088 0 0 0 -0.34375,0.5 c 0.269217,9.93823 7.231678,17.9375 15.875,17.9375 8.64341,0 15.63581,-7.999219 15.90625,-17.9375 a 0.51431088,0.51431088 0 0 0 -0.5,-0.5 l -30.78125,0 a 0.51431088,0.51431088 0 0 0 -0.15625,0 z"
       transform="matrix(0.88101677,0,0,-0.86751579,3.1605595,63.096142)" />
  </g>
</svg>
