<?xml version="1.0" encoding="UTF-8" standalone="no"?>
<!-- Generator: Adobe Illustrator 12.0.0, SVG Export Plug-In . SVG Version: 6.00 Build 51448)  -->

<svg
   xmlns:dc="http://purl.org/dc/elements/1.1/"
   xmlns:cc="http://creativecommons.org/ns#"
   xmlns:rdf="http://www.w3.org/1999/02/22-rdf-syntax-ns#"
   xmlns:svg="http://www.w3.org/2000/svg"
   xmlns="http://www.w3.org/2000/svg"
   xmlns:xlink="http://www.w3.org/1999/xlink"
   xmlns:sodipodi="http://sodipodi.sourceforge.net/DTD/sodipodi-0.dtd"
   xmlns:inkscape="http://www.inkscape.org/namespaces/inkscape"
   height="412.769"
   id="Layer_1"
   inkscape:version="0.47 r22583"
   sodipodi:docname="rana01_architetto_franc_03r.svg"
   sodipodi:version="0.32"
   space="preserve"
   style="overflow:visible;enable-background:new 0 0 407.977 412.769;"
   version="1.1"
   viewBox="0 0 407.977 412.769"
   width="407.977"
   inkscape:output_extension="org.inkscape.output.svg.inkscape"
   inkscape:export-filename="C:\Users\Nubtron\Desktop\frog.png"
   inkscape:export-xdpi="66.180389"
   inkscape:export-ydpi="66.180389">
  <sodipodi:namedview
     bordercolor="#666666"
     borderopacity="1.0"
     id="base"
     inkscape:current-layer="Layer_1"
     inkscape:cx="164.59084"
     inkscape:cy="149.59546"
     inkscape:pageopacity="0.0"
     inkscape:pageshadow="2"
     inkscape:window-height="1028"
     inkscape:window-width="1618"
     inkscape:window-x="54"
     inkscape:window-y="-8"
     inkscape:zoom="1"
     pagecolor="#ffffff"
     showgrid="false"
     inkscape:window-maximized="1" />
  <metadata
     id="metadata3">
    <rdf:RDF>
      <cc:Work
         rdf:about="">
        <dc:title>Rana01</dc:title>
        <dc:description />
        <dc:subject>
          <rdf:Bag>
            <rdf:li>animal</rdf:li>
            <rdf:li>amphibian</rdf:li>
            <rdf:li>frog</rdf:li>
            <rdf:li>cartoon</rdf:li>
          </rdf:Bag>
        </dc:subject>
        <dc:publisher>
          <cc:Agent
             rdf:about="http://www.openclipart.org/">
            <dc:title>Open Clip Art Library</dc:title>
          </cc:Agent>
        </dc:publisher>
        <dc:creator>
          <cc:Agent>
            <dc:title>Architetto Francesco Rollandin</dc:title>
          </cc:Agent>
        </dc:creator>
        <dc:rights>
          <cc:Agent>
            <dc:title>Architetto Francesco Rollandin</dc:title>
          </cc:Agent>
        </dc:rights>
        <dc:date />
        <dc:format>image/svg+xml</dc:format>
        <dc:type
           rdf:resource="http://purl.org/dc/dcmitype/StillImage" />
        <cc:license
           rdf:resource="http://web.resource.org/cc/PublicDomain" />
        <dc:language>en</dc:language>
      </cc:Work>
      <cc:License
         rdf:about="http://web.resource.org/cc/PublicDomain">
        <cc:permits
           rdf:resource="http://web.resource.org/cc/Reproduction" />
        <cc:permits
           rdf:resource="http://web.resource.org/cc/Distribution" />
        <cc:permits
           rdf:resource="http://web.resource.org/cc/DerivativeWorks" />
      </cc:License>
    </rdf:RDF>
  </metadata>
  <defs
     id="defs150">
    <inkscape:perspective
       id="perspective79"
       inkscape:persp3d-origin="203.98849 : 137.58967 : 1"
       inkscape:vp_z="407.97699 : 206.38451 : 1"
       inkscape:vp_y="0 : 1000 : 0"
       inkscape:vp_x="0 : 206.38451 : 1"
       sodipodi:type="inkscape:persp3d" />
    <linearGradient
       y2="507.36218"
       x2="406"
       y1="779.36218"
       x1="419"
       gradientUnits="userSpaceOnUse"
       id="linearGradient3889"
       xlink:href="#linearGradient3697-2"
       inkscape:collect="always" />
    <filter
       inkscape:collect="always"
       id="filter3804-2"
       color-interpolation-filters="sRGB">
      <feGaussianBlur
         inkscape:collect="always"
         stdDeviation="3.9326923"
         id="feGaussianBlur3806-4" />
    </filter>
    <linearGradient
       id="linearGradient3697-2">
      <stop
         style="stop-color:#ff4700;stop-opacity:1;"
         offset="0"
         id="stop3699-1" />
      <stop
         style="stop-color:#ffcf00;stop-opacity:1;"
         offset="1"
         id="stop3701-9" />
    </linearGradient>
    <linearGradient
       inkscape:collect="always"
       xlink:href="#linearGradient3681-9"
       id="linearGradient3687-4"
       x1="70.653748"
       y1="760.85864"
       x2="119.07413"
       y2="714.96899"
       gradientUnits="userSpaceOnUse"
       gradientTransform="matrix(0.27028363,0,0,0.27028363,659.54316,931.38743)" />
    <linearGradient
       inkscape:collect="always"
       xlink:href="#linearGradient3681-9"
       id="linearGradient3689-8"
       x1="-731.22839"
       y1="210.15204"
       x2="-634.34595"
       y2="201.14511"
       gradientUnits="userSpaceOnUse"
       gradientTransform="matrix(0.27028363,0,0,0.27028363,-865.01451,-90.161152)" />
    <filter
       inkscape:collect="always"
       id="filter3768-1"
       x="-0.10756961"
       width="1.2151392"
       y="-0.17710955"
       height="1.3542191"
       color-interpolation-filters="sRGB">
      <feGaussianBlur
         inkscape:collect="always"
         stdDeviation="7.3057692"
         id="feGaussianBlur3770-9" />
    </filter>
    <linearGradient
       inkscape:collect="always"
       id="linearGradient3705-6">
      <stop
         style="stop-color:#ffff00;stop-opacity:1;"
         offset="0"
         id="stop3707-0" />
      <stop
         style="stop-color:#ffff00;stop-opacity:0;"
         offset="1"
         id="stop3709-4" />
    </linearGradient>
    <linearGradient
       inkscape:collect="always"
       xlink:href="#linearGradient3705-6"
       id="linearGradient3711-4"
       x1="366"
       y1="639.36218"
       x2="407"
       y2="788.36218"
       gradientUnits="userSpaceOnUse" />
    <linearGradient
       inkscape:collect="always"
       xlink:href="#linearGradient3671-6"
       id="linearGradient3677-0"
       x1="177"
       y1="507.36218"
       x2="487.85574"
       y2="502.36218"
       gradientUnits="userSpaceOnUse"
       gradientTransform="matrix(0.18583467,0.19626186,-0.19626186,0.18583467,109.55555,815.45124)" />
    <linearGradient
       inkscape:collect="always"
       xlink:href="#linearGradient3681-9"
       id="linearGradient3695-0"
       x1="342"
       y1="601.39856"
       x2="342"
       y2="546.36218"
       gradientUnits="userSpaceOnUse"
       gradientTransform="matrix(0.27028363,0,0,0.27028363,667.45145,481.11508)" />
    <linearGradient
       id="linearGradient3671-6">
      <stop
         style="stop-color:#bfbfbf;stop-opacity:1;"
         offset="0"
         id="stop3673-3" />
      <stop
         id="stop3679-4"
         offset="0.5"
         style="stop-color:#eeeeee;stop-opacity:1;" />
      <stop
         style="stop-color:#979797;stop-opacity:1;"
         offset="1"
         id="stop3675-0" />
    </linearGradient>
    <linearGradient
       inkscape:collect="always"
       xlink:href="#linearGradient3671-6"
       id="linearGradient3713-1"
       x1="290.08475"
       y1="392.52319"
       x2="417.25424"
       y2="393.56558"
       gradientUnits="userSpaceOnUse" />
    <linearGradient
       id="linearGradient3715-3">
      <stop
         style="stop-color:#adc5d5;stop-opacity:1;"
         offset="0"
         id="stop3717-0" />
      <stop
         style="stop-color:#dce6ed;stop-opacity:1;"
         offset="1"
         id="stop3719-9" />
    </linearGradient>
    <linearGradient
       inkscape:collect="always"
       xlink:href="#linearGradient3715-3"
       id="linearGradient3721-3"
       x1="384.9505"
       y1="443.67902"
       x2="325.76239"
       y2="348.5899"
       gradientUnits="userSpaceOnUse" />
    <linearGradient
       id="linearGradient3681-9">
      <stop
         style="stop-color:#b3b3b3;stop-opacity:1;"
         offset="0"
         id="stop3683-3" />
      <stop
         style="stop-color:#959595;stop-opacity:1;"
         offset="1"
         id="stop3685-1" />
    </linearGradient>
    <linearGradient
       inkscape:collect="always"
       xlink:href="#linearGradient3681-9"
       id="linearGradient3693-6"
       x1="340.5"
       y1="756.36578"
       x2="340.5"
       y2="617.30865"
       gradientUnits="userSpaceOnUse"
       gradientTransform="matrix(0.27028363,0,0,0.27028363,667.45145,481.11508)" />
    <linearGradient
       inkscape:collect="always"
       id="linearGradient3728-1">
      <stop
         style="stop-color:#ffffff;stop-opacity:1;"
         offset="0"
         id="stop3730-1" />
      <stop
         style="stop-color:#ffffff;stop-opacity:0;"
         offset="1"
         id="stop3732-6" />
    </linearGradient>
    <linearGradient
       inkscape:collect="always"
       xlink:href="#linearGradient3728-1"
       id="linearGradient3734-8"
       x1="300"
       y1="306.36218"
       x2="372"
       y2="452.36218"
       gradientUnits="userSpaceOnUse"
       gradientTransform="matrix(0.26806299,-0.03457563,0.03457563,0.26806299,-14.05717,859.56677)" />
    <inkscape:perspective
       sodipodi:type="inkscape:persp3d"
       inkscape:vp_x="0 : 64 : 1"
       inkscape:vp_y="0 : 1000 : 0"
       inkscape:vp_z="128 : 64 : 1"
       inkscape:persp3d-origin="64 : 42.666667 : 1"
       id="perspective3102" />
    <linearGradient
       y2="452.36218"
       x2="372"
       y1="306.36218"
       x1="300"
       gradientTransform="matrix(0.69016478,-0.46626059,0.41397574,0.64283002,-151.16869,158.06226)"
       gradientUnits="userSpaceOnUse"
       id="linearGradient3222"
       xlink:href="#linearGradient3728-1"
       inkscape:collect="always" />
    <linearGradient
       y2="617.30865"
       x2="340.5"
       y1="756.36578"
       x1="340.5"
       gradientTransform="matrix(0.78046293,0,0,0.81805275,73.749213,-165.41322)"
       gradientUnits="userSpaceOnUse"
       id="linearGradient3225"
       xlink:href="#linearGradient3681-9"
       inkscape:collect="always" />
    <linearGradient
       y2="546.36218"
       x2="342"
       y1="601.39856"
       x1="342"
       gradientTransform="matrix(0.78046293,0,0,0.81805275,73.749213,-165.41322)"
       gradientUnits="userSpaceOnUse"
       id="linearGradient3230"
       xlink:href="#linearGradient3681-9"
       inkscape:collect="always" />
    <linearGradient
       y2="502.36218"
       x2="487.85574"
       y1="507.36218"
       x1="177"
       gradientTransform="matrix(0.7410607,0.24484984,-0.31389868,0.75543229,133.49737,-129.61424)"
       gradientUnits="userSpaceOnUse"
       id="linearGradient3233"
       xlink:href="#linearGradient3671-6"
       inkscape:collect="always" />
    <linearGradient
       y2="201.14511"
       x2="-634.34595"
       y1="210.15204"
       x1="-731.22839"
       gradientTransform="matrix(0.76678443,0,0,0.82728318,-49.642708,-206.06671)"
       gradientUnits="userSpaceOnUse"
       id="linearGradient3237"
       xlink:href="#linearGradient3681-9"
       inkscape:collect="always" />
    <linearGradient
       y2="714.96899"
       x2="119.07413"
       y1="760.85864"
       x1="70.653748"
       gradientTransform="matrix(0.82608767,0,0,0.80620336,124.81958,-84.218409)"
       gradientUnits="userSpaceOnUse"
       id="linearGradient3240"
       xlink:href="#linearGradient3681-9"
       inkscape:collect="always" />
    <linearGradient
       y2="502.36218"
       x2="487.85574"
       y1="507.36218"
       x1="177"
       gradientTransform="matrix(0.7410607,0.24484984,-0.31389868,0.75543229,133.49737,-129.61424)"
       gradientUnits="userSpaceOnUse"
       id="linearGradient3233-648"
       xlink:href="#linearGradient3671-6-47"
       inkscape:collect="always" />
    <linearGradient
       id="linearGradient3671-6-47">
      <stop
         style="stop-color:#ff2a10;stop-opacity:1;"
         offset="0"
         id="stop3289" />
      <stop
         id="stop3291"
         offset="0.5"
         style="stop-color:#e98829;stop-opacity:1;" />
      <stop
         style="stop-color:#ff0707;stop-opacity:1;"
         offset="1"
         id="stop3293" />
    </linearGradient>
  </defs>
  <path
     d="m 300.614,62.973 c -5.029,1.626 -11.56,4.812 -13.362,10.23 -1.162,3.494 -5.495,17.774 3.771,13.795 8.337,-3.579 24.269,-16.347 9.591,-24.025"
     id="path5"
     style="fill:#f0f0f0;fill-rule:evenodd;stroke:#000000;stroke-width:0;stroke-linecap:square;stroke-miterlimit:10" />
  <path
     d="m 303.413,62.038 c 5.26,1.628 5.258,9.595 0,11.224 -3.11,-1.474 -4.607,-9.133 0,-11.224"
     id="path7"
     style="fill-rule:evenodd" />
  <path
     d="m 309.016,91.031 c 10.239,-6.48 22.717,-9.17 32.674,-15.899 10.982,-7.422 10.281,-20.935 11.202,-32.735 0.612,-7.854 2.555,-10.956 -1.478,-18.025 -3.258,-5.71 10.822,-4.411 13.165,-0.888 3.544,5.328 -6.086,4.547 -6.086,10.53 0,5.8 2.088,12.07 3.493,17.702 1.45,5.811 -1.369,9.829 4.909,10.323 5.163,0.406 12.823,-4.2 16.909,-6.929 2.742,-1.831 5.401,-3.312 8.355,-4.792 2.798,-1.401 2.287,-6.172 4.609,-7.921 5.808,-4.374 12.595,1.904 10.96,8.452 -2.03,8.134 -9.61,-1.388 -13.968,2.979 -3.874,3.881 -8.602,6.832 -12.862,10.08 -2.244,1.711 -9.57,7.013 -7.936,10.288 2.504,5.016 9.406,7.992 14.003,10.756 2.622,1.577 5.373,2.62 8.213,3.758 4.625,1.854 6.566,-2.252 10.459,-0.952 4.975,1.661 0.457,13.56 -4.236,12.383 -4.383,-1.098 -2.479,-3.776 -5.566,-6.304 -1.871,-1.532 -6.182,-1.226 -8.437,-2.355 -5.437,-2.724 -12.431,-9.096 -18.636,-9.803 -5.831,-0.664 -9.764,4.549 -14.972,5.854 -4.987,1.249 -11.663,5.139 -15.836,8.176 -10.141,7.38 -19.687,16.305 -30.808,22.447 0.002,-8.734 -0.129,-18.652 1.87,-27.125"
     id="path9"
     style="fill:#008000;fill-rule:evenodd" />
  <path
     d="m 235.265,103.19 c 11.439,-9.824 22.651,-21.983 37.964,-25.391 14.328,-3.189 31.182,3.343 45.122,7.621 5.827,1.788 12.137,1.439 12.137,7.95 0,6.065 -4.972,8.568 -10.234,11.206 -7.883,3.952 -12.687,8.287 -9.662,17.378 0.909,2.732 8.936,4.144 11.494,5.554 -11.757,1.045 -22.207,9.036 -23.338,20.576 -1.252,12.782 -2.314,25.171 -5.434,37.67 -3.149,12.62 -5.218,26.094 -6.703,39.024 -0.638,5.556 -0.659,10.969 -1.916,16.424 -1.31,5.684 -1.539,16.745 -5.587,21.09 -9.688,10.398 -18.693,19.538 -33.988,19.538 -14.372,0 -27.878,-1.307 -41.386,-6.57 -11.654,-4.541 -25.915,-8.746 -28.493,-22.182 -2.632,-13.714 -4.831,-26.805 -2.286,-40.835 3.793,-20.906 10.833,-39.143 22.941,-56.873 12.324,-18.046 26.272,-34.686 39.369,-52.18"
     id="path11"
     style="fill:#008000;fill-rule:evenodd" />
  <path
     d="m 237.132,105.997 c 12.107,-14.155 25.51,-21.682 43.565,-25.703 7.209,-1.606 17.317,2.822 24.643,4.045 8.35,1.394 16.088,3.432 24.214,5.757 -1.356,2.471 0.021,4.876 -0.935,7.482 -1.866,5.092 -9.836,6.883 -14.002,10.289 -1.767,1.444 -5.602,4.568 -5.602,6.824 0,1.617 0.28,9.076 2.334,9.076 2.612,0 8.778,2.078 10.735,3.741 -11.757,1.045 -22.207,9.036 -23.338,20.576 -1.252,12.782 -2.314,25.171 -5.434,37.67 -3.149,12.62 -5.218,26.094 -6.703,39.024 -0.638,5.556 -0.659,10.969 -1.916,16.424 -1.31,5.684 -1.539,16.745 -5.587,21.09 -9.788,10.507 -18.469,19.016 -33.746,19.78 -14.045,0.703 -26.541,-0.726 -39.762,-5.877 -12.997,-5.063 -25.094,-9.592 -27.991,-24.108 -2.585,-12.951 -4.585,-26.168 -1.46,-39.318 9.942,-41.831 33.703,-74.317 60.985,-106.772"
     id="path13"
     style="fill:#008700;fill-rule:evenodd" />
  <path
     d="m 238.066,107.867 c 12.269,-10.538 20.446,-21.15 37.498,-23.285 15.105,-1.892 30.723,1.94 45.646,4.433 15.119,2.525 1.374,12.164 -4.761,16.774 -4.683,3.519 -11.732,11.52 -6.5,17.978 1.837,2.268 9.13,1.557 12.136,3.741 -11.757,1.045 -22.207,9.036 -23.338,20.576 -1.252,12.782 -2.314,25.171 -5.434,37.67 -3.149,12.62 -5.218,26.094 -6.703,39.024 -0.638,5.556 -0.659,10.969 -1.916,16.424 -1.336,5.801 -1.563,16.518 -5.519,21.09 -9.367,10.83 -17.6,19.016 -32.882,19.78 -14.682,0.735 -27.146,-1.57 -41.112,-6.236 -6.645,-2.22 -11.896,-5.134 -17.98,-8.689 -6.862,-4.01 -6.5,-9.378 -7.343,-16.417 -1.472,-12.288 -3.375,-25.716 -0.487,-37.869 9.705,-40.837 33.987,-71.991 58.695,-104.994"
     id="path15"
     style="fill:#008f00;fill-rule:evenodd" />
  <path
     d="m 239.933,110.673 c 10.297,-12.037 19.298,-21.006 35.646,-23.053 7.62,-0.954 14.8,0.144 22.293,1.396 7.896,1.318 15.422,-2.031 23.279,0.146 12.159,3.369 1.636,13.677 -5.636,17.32 -5.591,2.801 -11.503,11.261 -5.566,17.285 2.559,2.596 8.878,1.374 12.136,3.741 -11.757,1.045 -22.207,9.036 -23.338,20.576 -1.252,12.782 -2.314,25.171 -5.434,37.67 -3.149,12.62 -5.218,26.094 -6.703,39.024 -0.638,5.556 -0.659,10.969 -1.916,16.424 -1.336,5.801 -1.563,16.518 -5.519,21.09 -9.037,10.447 -17.651,19.974 -32.438,20.754 -14.76,0.778 -27.34,-2.095 -41.245,-7.011 -5.843,-2.066 -11.029,-5.064 -16.49,-8.011 -6.192,-3.341 -5.752,-11.184 -6.485,-17.06 -1.641,-13.157 -1.546,-26.114 0.938,-39.187 7.476,-39.318 32.295,-70.417 56.478,-101.104"
     id="path17"
     style="fill:#009600;fill-rule:evenodd" />
  <path
     d="m 203.523,232.259 c -3.044,30.497 24.696,43.036 51.239,34.854 25.521,-7.867 28.294,-43.775 31.069,-66.026 0.955,-7.657 7.4,-33.333 -4.512,-37.311 -14.059,-4.694 -26.14,-2.428 -38.952,4.573 -22.526,12.31 -28.263,42.747 -38.844,63.91"
     id="path99"
     style="fill:#47b500;fill-rule:evenodd" />
  <path
     d="m 240.865,112.543 c 12.896,-12.917 20.63,-21.512 39.778,-21.512 7.59,0 14.931,0.936 22.494,0.936 7.892,0 14.394,-2.759 22.682,-0.936 -1.203,2.445 -0.933,4.784 -0.933,7.482 0,4.666 -10.814,7.094 -13.797,10.081 -4.856,4.865 -5.505,11.602 -0.207,15.172 3.263,2.199 7.733,1.22 11.202,3.741 -11.757,1.045 -22.207,9.036 -23.338,20.576 -1.252,12.782 -2.314,25.171 -5.434,37.67 -3.149,12.62 -5.218,26.094 -6.703,39.024 -1.229,10.704 -0.705,29.173 -7.512,37.697 -9.454,11.842 -17.881,19.855 -33.76,20.693 -14.796,0.78 -27.406,-2.122 -41.195,-7.302 -5.141,-1.932 -10.849,-5.22 -14.728,-9.106 -5.766,-5.776 -4.46,-13.622 -5.127,-21.633 -1.124,-13.51 2.136,-27.451 4.647,-40.664 6.646,-34.948 32.24,-63.734 51.931,-91.919"
     id="path19"
     style="fill:#009e00;fill-rule:evenodd" />
  <path
     d="m 207.259,232.259 c -1.272,11.461 1.31,23.472 12.136,29.929 12.021,7.17 23.954,5.691 36.987,2.428 23.235,-5.82 25.068,-43.098 27.605,-61.726 1.129,-8.29 7.143,-30.077 -4.688,-34.522 -12.572,-4.723 -25.381,-2.418 -36.566,4.969 -20.293,13.401 -25.248,38.446 -35.474,58.922"
     id="path101"
     style="fill:#5cba00;fill-rule:evenodd" />
  <path
     d="m 242.732,115.349 c 4.611,-5.39 9.538,-13.591 15.666,-17.273 7.622,-4.58 14.27,-4.238 22.922,-4.238 5.043,0 17.588,4.257 21.887,1.386 5.779,-3.861 15.258,-6.509 21.68,-3.256 -0.89,2.112 -0.803,4.502 -1.868,6.547 -2.637,5.06 -8.127,5.548 -12.136,9.353 -1.866,1.772 -7.163,15.899 -1.4,15.899 2.994,0 10.061,1.921 12.603,3.741 -11.757,1.045 -22.207,9.036 -23.338,20.576 -1.252,12.782 -2.314,25.171 -5.434,37.67 -3.149,12.62 -5.218,26.094 -6.703,39.024 -1.242,10.816 -0.761,28.761 -7.365,37.583 -3.21,4.288 -6.935,12.35 -11.926,14.537 -7.43,3.257 -13.063,5.832 -21.047,6.675 -14.253,1.503 -26.695,-2.622 -40.262,-6.869 -4.948,-1.549 -11.082,-5.021 -14.399,-9.009 -5.075,-6.102 -3.494,-14.454 -3.832,-22.239 -0.583,-13.422 1.347,-26.188 3.958,-39.268 6.632,-33.222 30.517,-64.852 50.994,-90.839"
     id="path21"
     style="fill:#0da600;fill-rule:evenodd" />
  <path
     d="m 210.992,232.259 c -1.386,11.107 1.741,21.437 11.932,27.562 10.979,6.599 21.587,5.283 33.643,1.988 21.341,-5.833 23.055,-39.458 25.583,-57.192 1.519,-10.649 6.7,-26.711 -6.242,-32.268 -9.932,-4.264 -23.402,-1.222 -32.24,4.729 -8.685,5.847 -15.594,15.256 -19.657,24.751 -2.26,5.28 -4.171,10.687 -6.43,15.967 -1.749,4.084 -6.567,10.433 -6.589,14.463"
     id="path103"
     style="fill:#70bf00;fill-rule:evenodd" />
  <path
     d="m 243.667,118.155 c 9.469,-10.841 17.56,-24.024 33.919,-22.205 6.944,0.772 15.272,3.951 22.095,3.498 6.905,-0.458 10.979,-6.49 17.702,-8.175 6.299,-1.579 5.91,2.615 4.702,6.305 -1.823,5.572 -7.352,6.431 -11.409,10.496 -3.248,3.254 -8.013,12.979 -1.66,16.16 4.058,2.033 9.07,0.427 13.069,3.273 -11.757,1.045 -22.207,9.036 -23.338,20.576 -1.252,12.782 -2.314,25.171 -5.434,37.67 -3.149,12.62 -5.218,26.094 -6.703,39.024 -1.242,10.816 -0.761,28.761 -7.365,37.583 -3.21,4.288 -6.935,12.35 -11.926,14.537 -7.508,3.291 -13.255,5.851 -21.318,6.802 -13.712,1.617 -26.248,-2.342 -39.259,-6.416 -27.476,-8.603 -14.831,-51.387 -10.761,-71.78 6.451,-32.32 28.599,-61.398 47.686,-87.348"
     id="path23"
     style="fill:#29ad00;fill-rule:evenodd" />
  <path
     d="m 214.726,232.259 c 0,10.246 1.445,18.489 10.271,24.317 9.005,5.947 17.866,6.426 28.314,3.572 23.796,-6.5 23.808,-33.439 27.009,-53.756 1.452,-9.218 6.154,-24.431 -5.346,-29.368 -10.373,-4.453 -20.375,-0.279 -29.856,4.47 -17.145,8.591 -23.391,34.842 -30.392,50.765"
     id="path105"
     style="fill:#85c400;fill-rule:evenodd" />
  <path
     d="m 245.533,120.025 c 8.823,-11.786 17.198,-24.748 33.92,-21.026 7.141,1.589 14.503,4.191 21.817,4.191 8.003,0 7.821,-10.367 15.213,-11.223 14.187,-1.643 -3.296,14.049 -6.741,16.351 -4.414,2.948 -5.041,12.065 -1.193,15.917 2.539,2.542 9.992,0.751 13.536,3.273 -11.757,1.045 -22.207,9.036 -23.338,20.576 -1.252,12.782 -2.314,25.171 -5.434,37.67 -3.149,12.62 -5.218,26.094 -6.703,39.024 -1.291,11.245 -0.937,28.314 -7.43,37.779 -3.706,5.4 -6.654,12.298 -12.601,15.276 -8.123,4.069 -13.055,6.024 -21.995,7.079 -12.185,1.437 -26.202,-2.19 -36.962,-8.07 -3.229,-1.765 -14.368,-6.192 -14.368,-11.26 0,-6.79 -0.605,-13.858 0.037,-20.616 1.238,-13.019 1.89,-26.914 6.053,-39.427 10.584,-31.811 26.389,-58.592 46.189,-85.514"
     id="path25"
     style="fill:#47b500;fill-rule:evenodd" />
  <path
     d="m 323.019,91.967 c -13.849,7.922 -23.717,9.911 -39.15,7.336 -4.583,-0.765 -18.895,-5.54 -21.876,-0.165 -4.477,8.07 -7.9,14.799 -8.921,24.005 -0.544,4.903 -1.349,17.401 5.474,18.54 7.099,1.186 15.702,-2.175 21.737,-6.208 10.323,-6.896 23.784,-7.506 35.268,-9.838 -8.86,-5.547 -11.765,-9.726 -3.529,-17.975 3.182,-3.189 16.838,-10.488 10.997,-15.695"
     id="path27"
     style="fill-rule:evenodd" />
  <path
     d="m 260.471,115.349 c 7.031,-1.947 11.028,-5.274 17.737,0 -0.477,-10.736 16.49,-4.032 14.003,3.741 -3.565,11.144 -30.192,6.666 -31.74,-3.741"
     id="path29"
     style="fill-rule:evenodd" />
  <path
     d="m 260.471,115.349 c 7.031,-1.947 11.028,-5.274 17.737,0 -0.472,-10.636 16.563,-4.258 13.069,3.741 -4.006,9.177 -29.371,6.135 -30.806,-3.741"
     id="path31"
     style="fill:#240000;fill-rule:evenodd" />
  <path
     d="m 260.471,115.349 c 7.031,-1.947 11.028,-5.274 17.737,0 -0.404,-9.119 13.42,-6.089 11.445,1.836 -2.217,8.898 -29.779,8.31 -29.182,-1.836"
     id="path33"
     style="fill:#470000;fill-rule:evenodd" />
  <path
     d="m 260.471,115.349 c 7.031,-1.947 11.028,-5.274 17.737,0 -0.373,-8.417 11.766,-6.942 9.578,1.836 -1.837,7.367 -27.27,6.965 -27.315,-1.836"
     id="path35"
     style="fill:#6b0000;fill-rule:evenodd" />
  <path
     d="m 260.471,115.349 c 7.031,-1.947 11.028,-5.274 17.737,0 -0.35,-7.889 11.4,-7.139 8.869,0.467 -2.432,7.311 -25.631,7.927 -26.606,-0.467"
     id="path37"
     style="fill:#910000;fill-rule:evenodd" />
  <path
     d="m 260.471,115.349 c 7.031,-1.947 11.028,-5.274 17.737,0 -0.381,-8.593 11.583,-5.715 7.918,-0.208 -3.608,5.423 -24.529,8.449 -25.655,0.208"
     id="path39"
     style="fill:#b50000;fill-rule:evenodd" />
  <path
     d="m 260.471,115.349 c 7.031,-1.947 11.028,-5.274 17.737,0 -0.317,-7.161 10.4,-7.306 7.469,-0.936 -2.695,5.855 -24.621,7.02 -25.206,0.936"
     id="path41"
     style="fill:#d90000;fill-rule:evenodd" />
  <path
     d="m 260.471,115.349 c 7.031,-1.947 11.028,-5.274 17.737,0 -0.194,-4.375 3.359,-6.62 7.469,-5.612 -0.573,10.006 -20.685,11.669 -25.206,5.612"
     id="path43"
     style="fill:#ff0000;fill-rule:evenodd" />
  <path
     d="m 270.739,65.779 c -11.023,-0.234 -21.509,26.198 -7.64,22.724 6.513,-1.631 9.721,-3.507 12.758,-9.595 2.542,-5.097 0.786,-11.499 -5.118,-13.129"
     id="path45"
     style="fill:#f0f0f0;fill-rule:evenodd;stroke:#000000;stroke-width:0;stroke-linecap:square;stroke-miterlimit:10" />
  <path
     d="m 245.533,98.514 c -21.776,2.422 -56.014,-15.888 -56.014,-41.118 0,-6.052 -6.074,-31.549 -0.203,-35.078 3.674,-2.208 11.077,-7.676 3.938,-11.253 -7.975,-3.996 -9.336,8.502 -9.336,13.285 0,5.932 -0.665,11.367 -2.108,17.147 -2.236,8.957 -9.796,-1.509 -12.828,-4.711 -3.768,-3.979 -7.873,-8.155 -10.708,-12.889 -3.423,-5.717 -8.897,-8.353 -8.897,-15.169 0,-6.178 -2.79,-12.796 -8.195,-5.577 -1.764,2.355 -3.065,4.529 -1.591,7.482 1.924,3.854 6.019,1.771 7.469,4.676 5.474,10.966 8.31,24.808 15.595,34.536 2.44,3.259 -12.707,12.339 -15.802,13.579 -2.782,1.115 -6.644,2.355 -9.646,2.355 -4.469,0 -5.089,-6.111 -9.302,-5.611 -7.558,0.897 -5.314,13.058 2.645,12.062 4.447,-0.557 8.09,0.468 12.293,0.097 3.797,-0.335 7.401,-3.516 11.202,-3.741 16.488,-0.977 30.412,17.015 38.189,29.256 8.963,14.11 11.816,32.303 15.025,48.372 4.779,-9.203 14.299,-15.263 21.471,-22.447 7.149,-7.162 11.25,-16.901 16.803,-25.253"
     id="path47"
     style="fill:#008000;fill-rule:evenodd" />
  <path
     d="m 218.461,232.259 c 0,21.44 18.123,31.672 37.964,25.045 19.617,-6.552 19.446,-34.227 22.388,-50.927 1.86,-10.558 4.358,-22.03 -8.131,-26.202 -8.106,-2.708 -19.773,1.982 -26.151,6.774 -8.235,6.188 -11.838,13.051 -16.297,21.985 -2.654,5.318 -9.874,17.643 -9.773,23.325"
     id="path107"
     style="fill:#9ccc00;fill-rule:evenodd" />
  <path
     d="m 283.809,243.482 c 14.516,2.327 102.306,18.154 74.16,46.355 -6.865,6.879 -11.405,10.04 -21.338,11.698 -9.667,1.614 -19.231,3.335 -28.82,5.357 -7.906,1.667 -16.109,2.318 -23.901,4.401 -7.04,1.881 -20.814,3.39 -25.307,9.815 13.269,8.865 33.297,9.179 48.89,12.107 16.904,3.175 33.97,8.56 45.867,21.563 5.437,5.942 10.162,14.799 16.337,19.643 2.276,1.785 9.251,3.057 7.935,7.014 -1.348,4.054 -4.608,6.432 -8.867,4.209 -3.843,-2.006 -2.816,-5.441 -5.378,-8.522 -2.783,-3.347 -5.105,-6.837 -8.593,-9.456 -7.318,-5.498 -12.159,-6.873 -21.506,-8.21 6.517,7.952 12.584,16.458 19.021,24.522 4.763,5.966 4.158,8.873 11.943,10.823 6.107,1.53 0.627,9.952 -3.234,10.726 -5.276,1.058 -9.962,-0.359 -8.401,-6.617 1.676,-6.723 -0.877,-8.766 -6.055,-12.916 -8.192,-6.565 -17.642,-11.966 -23.543,-20.927 -0.809,10.65 2.339,24.809 4.426,35.265 0.986,4.941 4.523,12.436 -3.958,12.436 -8.201,0 -8.037,-6.653 -3.064,-10.639 5.315,-4.258 -10.081,-23.84 -13.74,-26.773 -9.935,-7.962 -20.604,-14.774 -32.07,-20.215 -10.802,-5.125 -21.954,-9.417 -32.813,-14.39 -3.393,-1.554 -12.871,-4.874 -14.937,-8.418 -3.734,-6.408 3.225,-12.871 6.922,-17.036 6.936,-7.816 19.117,-11.713 28.087,-17.103 8.976,-5.394 19.721,-10.778 29.406,-13.561 -12.199,0 -47.841,12.744 -47.61,-7.482 0.233,-20.575 25.36,-25.204 40.141,-33.669"
     id="path49"
     style="fill:#008700;fill-rule:evenodd" />
  <path
     d="m 222.194,231.325 c 0,19.322 15.011,30.485 33.779,23.434 17.688,-6.645 18.562,-28.606 20.603,-44.964 0.919,-7.362 4.657,-21.108 -4.902,-24.299 -8.361,-2.792 -19.307,-0.524 -25.968,5.196 -12.315,10.576 -17.257,26.198 -23.512,40.633"
     id="path109"
     style="fill:#b0d100;fill-rule:evenodd" />
  <path
     d="m 282.875,244.417 c 13.629,2.969 98.579,19.086 72.293,45.421 -7.184,7.197 -11.338,9.368 -21.391,11.737 -9.299,2.191 -18.401,4.106 -27.833,5.599 -7.756,1.228 -15.275,3.397 -22.969,4.939 -7.369,1.476 -19.535,2.326 -24.373,8.997 13.269,8.865 33.297,9.179 48.89,12.107 16.904,3.175 33.97,8.56 45.867,21.563 5.609,6.132 10.232,14.176 16.337,19.643 1.567,1.404 8.384,3.779 7.002,6.546 -1.503,3.01 -4.186,5.367 -7.935,3.741 -5.285,-2.293 -8.571,-12.986 -13.971,-17.043 -7.318,-5.498 -12.159,-6.873 -21.506,-8.21 6.517,7.952 12.584,16.458 19.021,24.522 4.388,5.497 4.099,8.816 11.107,10.823 5.246,1.501 -0.149,8.118 -3.09,8.854 -4.26,1.067 -9.201,-0.12 -7.71,-5.353 1.796,-6.304 -1.233,-8.445 -6.055,-12.31 -8.192,-6.565 -17.642,-11.966 -23.543,-20.927 -0.809,10.65 2.339,24.809 4.426,35.265 1.056,5.287 4.226,11.39 -4.426,10.564 -11.236,-1.071 -0.081,-6.788 -1.141,-9.976 -4.099,-12.323 -6.462,-20.036 -16.597,-28.371 -9.84,-8.093 -20.441,-14.027 -31.81,-20.021 -10.564,-5.57 -22.086,-9.247 -33.16,-13.684 -5.281,-2.116 -11.699,-4.176 -13.207,-10.219 -1.285,-5.149 5.745,-12.074 9.094,-14.998 8.001,-6.985 18.864,-11.179 28.007,-16.836 4.904,-3.034 9.903,-4.493 14.971,-7.032 3.439,-1.723 9.267,-5.153 13.035,-5.126 -11.5,0 -48.544,12.378 -48.544,-6.605 0.003,-21.947 24.092,-24.141 39.211,-33.61"
     id="path51"
     style="fill:#008c00;fill-rule:evenodd" />
  <path
     d="m 225.93,231.325 c -0.987,15.971 12.649,25.591 27.834,21.788 17.723,-4.438 18.969,-24.154 20.711,-39.559 0.746,-6.596 4.614,-17.301 -1.868,-22.447 -6.404,-5.084 -18.479,-1.232 -24.272,2.806 -13.166,9.176 -14.314,24.962 -22.405,37.412"
     id="path111"
     style="fill:#c4d600;fill-rule:evenodd" />
  <path
     d="m 281.942,245.353 c 12.782,3.048 26.575,5.308 38.896,9.937 11.224,4.216 29.281,8.224 33.973,20.755 10.373,27.706 -45.603,29.507 -61.651,33.29 -7.093,1.671 -14.188,3.262 -21.312,4.791 -3.313,0.712 -16.823,4.595 -11.274,8.302 10.043,6.71 25.977,6.716 37.719,9.068 13.438,2.692 27.185,4.379 39.211,11.407 12.909,7.545 20.606,16.967 29.385,28.959 2.584,3.53 11.994,5.52 7.477,10.042 -6.115,6.121 -9.142,-2.569 -12.361,-6.441 -8.782,-10.562 -15.122,-14.061 -28.717,-16.005 5.647,6.892 10.886,14.331 16.455,21.308 1.846,2.313 6.803,12.022 8.692,12.653 4.79,1.601 8.296,4.953 1.927,8.128 -8.287,4.131 -5.516,-3.678 -6.536,-7.484 -1.287,-4.801 -6.887,-7.764 -10.473,-10.638 -7.234,-5.799 -15.095,-10.399 -20.334,-18.355 -0.809,10.65 2.339,24.809 4.426,35.265 0.751,3.761 3.745,10.207 -3.491,9.629 -8.181,-0.654 -1.67,-7.521 -2.353,-10.599 -2.586,-11.663 -5.684,-20.431 -15.035,-28.235 -10.306,-8.601 -21.246,-14.655 -33.2,-20.645 -10.19,-5.105 -21.53,-8.33 -32.119,-12.572 -4.904,-1.965 -11.815,-3.704 -13.208,-9.284 -1.164,-4.662 5.122,-12.157 8.16,-14.998 7.357,-6.88 18.643,-11.209 27.277,-16.397 9.405,-5.651 19.78,-8.575 29.669,-13.532 -11.356,1.626 -49.478,12.768 -49.478,-5.67 0,-21.636 23.443,-23.394 38.275,-32.679"
     id="path53"
     style="fill:#009400;fill-rule:evenodd" />
  <path
     d="m 229.663,231.325 c -1.42,14.211 11.498,22.766 24.705,18.981 16.161,-4.63 16.205,-21.653 18.318,-35.405 1.238,-8.06 4.159,-16.993 -4.714,-21.439 -5.781,-2.896 -15.357,2.178 -19.742,5.838 -10.039,8.38 -13.189,20.772 -18.567,32.025"
     id="path113"
     style="fill:#dede00;fill-rule:evenodd" />
  <path
     d="m 281.009,246.289 c 20.5,5.405 63.545,10.461 71.157,33.358 1.889,5.681 -2.691,11.287 -6.275,15.275 -5.16,5.743 -9.988,6.196 -17.716,7.562 -13.94,2.464 -27.647,5.824 -41.58,8.287 -5.86,1.036 -12.078,1.922 -17.722,3.793 -7.502,2.487 -13.004,4.72 -5.251,9.899 8.655,5.783 27.562,5.607 37.821,7.663 13.96,2.797 26.674,5.291 39.123,12.566 12.257,7.163 19.67,18.08 27.958,29.403 2.048,2.798 10.775,3.634 3.973,7.808 -5.508,3.379 -8.634,-4.205 -11.65,-7.833 -8.275,-9.951 -14.848,-12.796 -27.56,-14.613 5.647,6.892 10.886,14.331 16.455,21.308 2.814,3.525 4.989,9.394 7.817,12.361 2.362,2.479 9.173,4.104 0.468,7.016 -6.883,2.301 -3.214,-4.43 -4.64,-6.811 -2.758,-4.605 -6.546,-7.188 -10.765,-10.492 -7.049,-5.521 -14.546,-10.089 -19.604,-17.771 -0.749,9.869 2.043,23.325 3.977,33.013 0.709,3.552 4.11,10.69 -2.108,10.011 -3.547,-0.388 -3.032,-2.133 -3.735,-4.677 -0.191,-0.691 1.979,-1.305 1.729,-2.563 -0.415,-2.078 -0.829,-4.157 -1.244,-6.236 -4.94,-24.751 -29.047,-36.825 -49.963,-46.383 -10.938,-4.998 -22.371,-8.194 -33.296,-13.06 -2.972,-1.322 -13.157,-4.149 -10.144,-9.182 2.917,-4.873 6.213,-10.569 10.973,-13.749 8.47,-5.658 17.792,-10.032 25.967,-16.178 8.397,-6.313 19.931,-6.961 28.906,-12.366 -9.334,1.336 -50.412,11.981 -50.412,-3.741 -0.001,-23.46 21.034,-23.457 37.341,-33.668"
     id="path55"
     style="fill:#009900;fill-rule:evenodd" />
  <path
     d="m 351.025,263.125 c 2.546,0.953 3.701,6.777 0,6.546 -4.075,-0.255 -3.495,-6.439 0,-6.546"
     id="path127"
     style="fill:#29ad00;fill-rule:evenodd" />
  <path
     d="m 279.142,247.224 c 14.023,3.903 90.688,20.443 65.195,45.981 -11.809,11.83 -29.917,12.316 -45.897,15.141 -9.086,1.606 -36.463,3.54 -40.771,12.764 27.562,15.784 69.525,5.072 92.773,30.482 5.993,6.552 11.197,13.099 16.446,20.27 1.267,1.73 7.409,4.747 7.477,6.302 0.119,2.76 -4.539,4.201 -6.536,3.74 -4.188,-0.967 -10.453,-11.81 -14.004,-14.964 -6.306,-5.603 -12.197,-6.29 -20.538,-7.482 5.528,6.746 10.08,13.976 15.872,20.577 3.188,3.635 6.128,7.398 7.917,11.88 1.372,3.438 7.35,3.906 0.018,6.356 -5.645,1.886 -2.787,-3.405 -4.668,-6.547 -2.247,-3.752 -6.365,-6.192 -9.803,-8.885 -7.049,-5.521 -14.546,-10.089 -19.604,-17.771 -0.749,9.869 2.043,23.325 3.977,33.013 0.456,2.287 3.549,10.509 -2.108,7.673 -1.473,-0.738 -4.717,-2.315 -1.867,-3.741 2.028,-1.015 -0.385,-7.068 -0.796,-9.128 -4.753,-23.8 -29.467,-36.959 -49.269,-46.355 -10.034,-4.763 -21.123,-7.416 -31.623,-10.923 -3.867,-1.291 -12.482,-3.715 -12.603,-8.884 -0.104,-4.464 8.389,-10.734 10.72,-14.237 1.807,-2.717 9.455,-5.936 12.415,-7.714 4.587,-2.756 9.028,-5.488 13.309,-8.706 8.65,-6.503 20.604,-6.803 29.839,-12.366 -7.01,0 -51.345,11.653 -51.345,-1.813 0,-9.538 0.831,-18.249 10.234,-22.955 8.691,-4.35 17.121,-5.898 25.24,-11.708"
     id="path57"
     style="fill:#00a100;fill-rule:evenodd" />
  <path
     d="m 322.085,250.965 c 4.265,0.955 3.104,5.531 0,7.482 -2.467,-1.929 -3.063,-6.386 0,-7.482"
     id="path129"
     style="fill:#29ad00;fill-rule:evenodd" />
  <path
     d="m 278.208,249.093 c 13.361,3.151 87.197,20.205 63.329,44.112 -11.31,11.329 -27.847,11.888 -43.135,14.76 -8.555,1.606 -37.23,4.461 -40.733,13.145 28.16,16.127 67.308,5.702 92.042,30.482 6.507,6.521 11.731,12.828 17.178,20.27 1.79,2.445 10.137,11.343 0.007,9.107 -3.673,-0.811 -10.041,-11.338 -13.07,-14.029 -6.306,-5.603 -12.197,-6.29 -20.538,-7.482 4.978,6.074 8.386,13.077 14.004,18.706 4.576,4.584 7.882,14.096 13.07,16.834 -2.154,1.213 -5.271,2.554 -7.47,0.937 1.222,0.898 -1.362,-5.707 -1.429,-5.817 -1.304,-2.177 -4.496,-3.796 -6.506,-5.406 -7.719,-6.187 -16.365,-11.178 -21.938,-19.642 -0.749,9.869 2.043,23.325 3.977,33.013 0.978,4.896 3.142,6.27 -1.175,6.27 -2.206,0 -2.126,-9.115 -2.663,-11.535 -5.461,-24.606 -26.774,-36.412 -47.438,-46.764 -9.581,-4.801 -20.509,-7.629 -30.739,-10.704 -5.22,-1.568 -12.276,-2.532 -14.833,-7.655 -2.286,-4.579 7.085,-11.358 9.784,-14.064 7.087,-7.101 17.142,-11.474 25.241,-17.563 9.04,-6.796 21.284,-6.648 30.772,-12.366 -15.03,0 -39.581,11.788 -51.695,-0.351 -4.545,-4.555 1.857,-20.456 7.162,-22.581 9.176,-3.68 18.192,-6.748 26.796,-11.677"
     id="path59"
     style="fill:#14a600;fill-rule:evenodd" />
  <path
     d="m 334.222,253.771 c 3.143,0.721 3.953,6.485 0.934,6.546 -3.758,0.075 -3.593,-5.501 -0.934,-6.546"
     id="path141"
     style="fill:#008000;fill-rule:evenodd" />
  <path
     d="m 277.274,250.028 c 15.075,4.03 69.392,14.509 64.415,36.945 -3.33,15.015 -18.646,15.66 -31.15,18.792 -12.457,3.12 -25.204,4.911 -37.674,8.032 -1.73,0.434 -18.999,5.135 -14.517,7.702 7.076,4.052 14.038,5.079 22.048,6.768 12.605,2.658 25.35,4.635 37.955,7.34 13.197,2.833 25.049,9.663 34.541,19.174 3.895,3.901 20.806,21.007 17.737,24.318 -4.706,5.079 -11.309,-8.03 -14.038,-10.081 -8.158,-6.129 -12.882,-8.07 -23.305,-9.561 4.566,5.572 7.572,12.262 12.721,17.42 4.582,4.591 8.332,12.871 12.485,16.249 0,0.312 0,0.624 0,0.936 -1.924,1.111 -3.922,1.237 -5.602,0 0.312,0 0.622,0 0.934,0 -5.631,-12.532 -23.094,-17.281 -30.807,-28.993 -0.503,6.622 1.262,14.729 2.559,21.234 1.14,5.714 0.862,11.985 3.042,17.112 -6.114,-0.678 -6.046,-13.01 -7.273,-17.927 -2.345,-9.396 -8.706,-15.503 -14.646,-22.642 -11.004,-13.229 -34.225,-20.267 -50.069,-25.149 -6.684,-2.06 -22.451,-3.795 -25.55,-10.005 -3.401,-6.814 12.892,-16.542 17.253,-19.676 7.212,-5.182 14.438,-11.237 22.405,-14.965 8.44,-3.949 17.896,-5.135 26.14,-9.353 -15.156,0 -40.389,11.915 -52.629,-0.351 -4.582,-4.593 1.934,-20.084 6.92,-22.581 8.269,-4.141 17.604,-6.477 26.105,-10.738"
     id="path61"
     style="fill:#2ead00;fill-rule:evenodd" />
  <path
     d="m 312.75,247.224 c 3.271,0.732 3.889,7.399 0.934,7.481 -4.114,0.114 -3.075,-6.282 -0.934,-7.481"
     id="path143"
     style="fill:#008000;fill-rule:evenodd" />
  <path
     d="m 276.341,250.965 c 14.479,4.463 67.344,15.315 62.548,36.942 -3.379,15.243 -19.06,15.885 -31.845,18.447 -12.665,2.538 -25.391,4.634 -37.863,8.04 -3.435,0.938 -15.954,4.171 -9.211,8.032 6.61,3.786 14.128,4.512 21.56,6.079 13.026,2.747 26.194,4.819 39.222,7.616 12.719,2.73 24.79,11.292 33.799,20.318 4.722,4.73 8.384,10.018 12.339,15.421 2.838,3.877 5.752,5.045 0.94,6.302 -4.896,1.279 -9.816,-7.503 -14.004,-11.224 -6.306,-5.603 -12.197,-6.29 -20.538,-7.482 4.4,5.369 7.521,11.574 12.137,16.835 4.593,5.234 10.063,9.924 12.136,16.834 -1.409,0.021 -3.268,0.274 -4.668,0 0.312,0.312 0.622,0.624 0.934,0.936 -5.631,-12.532 -23.094,-17.281 -30.807,-28.993 -0.271,3.575 3.935,36.478 5.134,36.478 -3.853,0 -4.505,-13.157 -6.067,-17.771 -3.055,-9.021 -7.7,-16.406 -14.937,-22.446 -15.894,-13.267 -32.271,-19.229 -51.813,-25.253 -5.242,-1.616 -22.548,-2.688 -23.806,-9.353 -1.155,-6.118 12.883,-16.349 17.533,-19.145 7.452,-4.48 13.997,-10.934 21.676,-14.526 8.543,-3.997 19.145,-4.466 27.073,-9.353 -14.347,0 -39.83,10.54 -51.813,0.935 -5.466,-4.382 -2.066,-19.772 4.236,-22.932 8.489,-4.253 17.463,-6.409 26.105,-10.737"
     id="path63"
     style="fill:#47b500;fill-rule:evenodd" />
  <path
     d="m 130.707,182.689 c 0,-12.105 2.3,-23.188 17.271,-21.044 9.492,1.359 23.225,12.984 25.828,22.549 6.14,22.564 15.825,43.682 17.95,67.079 0.658,7.246 -0.929,7.646 -6.551,12.338 -4.802,4.008 -8.949,7.143 -15.565,5.817 -5.573,-1.116 -10.637,-2.84 -15.848,-5.077 -2.96,-1.271 -6.241,-1.964 -9.323,-2.891 -1.131,-0.34 -0.881,-4.898 -1.175,-6.373 -2.354,-11.794 -4.798,-24.017 -6.287,-35.94 -0.809,-6.483 -1.567,-12.795 -3.032,-19.154 -1.241,-5.387 -0.783,-12.53 -3.268,-17.304"
     id="path65"
     style="fill:#008000;fill-rule:evenodd" />
  <path
     d="m 130.707,182.689 c 0,-13.574 2.425,-22.309 17.91,-18.429 9.562,2.396 20.552,14.378 23.374,23.798 3.428,11.442 8.888,21.963 12.655,33.289 3.792,11.396 5.789,22.037 8.125,33.74 1.887,9.447 -18.719,15.272 -25.655,14.115 -5.268,-0.878 -9.939,-4.172 -14.938,-6.078 -8.417,-3.21 -7.509,-2.526 -9.335,-10.757 -2.456,-11.07 -4.34,-22.791 -5.837,-34.037 -0.844,-6.343 -1.695,-12.554 -3.032,-18.806 -1.099,-5.138 -0.822,-12.297 -3.267,-16.835"
     id="path67"
     style="fill:#008700;fill-rule:evenodd" />
  <path
     d="m 130.707,182.689 c 0,-13.578 4.671,-21.376 18.925,-15.257 9.174,3.939 17.818,14.228 21.494,23.432 8.511,21.312 19.848,42.437 21.944,65.543 0.658,7.257 -19.622,15.066 -25.896,12.971 -5.625,-1.879 -10.403,-3.5 -15.346,-6.802 -2.101,-1.402 -4.92,-2.019 -7.274,-2.902 -1.074,-0.403 -1.437,-6.4 -1.71,-7.774 -2.199,-11.014 -4.355,-22.442 -5.837,-33.569 -0.844,-6.343 -1.695,-12.554 -3.032,-18.806 -1.1,-5.139 -0.823,-12.298 -3.268,-16.836"
     id="path69"
     style="fill:#008f00;fill-rule:evenodd" />
  <path
     d="m 130.707,182.689 c 0,-13.936 4.913,-18.066 17.992,-12.451 8.549,3.671 19.321,16.4 21.944,25.163 3.403,11.368 8.708,22.306 14.591,32.615 2.375,4.162 12.532,27.042 7.468,30.847 -8.21,6.168 -17.565,13.486 -28.387,9.871 -5.185,-1.732 -10.056,-4.103 -14.937,-6.547 -6.7,-3.356 -5.414,-5.701 -6.985,-12.781 -2.383,-10.744 -4.272,-22.26 -5.636,-33.186 -1.2,-9.618 -1.486,-25.064 -6.05,-33.531"
     id="path71"
     style="fill:#009600;fill-rule:evenodd" />
  <path
     d="m 130.707,182.689 c 0,-5.916 -0.813,-11.084 5.325,-13.545 3.365,-1.349 11.328,1.235 13.83,3.742 8.287,8.301 17.083,17.026 20.521,28.509 3.306,11.043 10.842,19.855 15.957,30.102 3.542,7.095 11.448,24.147 4.542,29.527 -9.999,7.79 -17.983,10.268 -30.36,6.133 -4.909,-1.64 -9.977,-4.642 -14.411,-7.307 -3.375,-2.028 -3.438,-9.485 -4.201,-13.562 -1.9,-10.156 -3.789,-20.522 -5.152,-30.761 -1.26,-9.464 -1.576,-24.536 -6.051,-32.838"
     id="path73"
     style="fill:#009e00;fill-rule:evenodd" />
  <path
     d="m 130.707,182.689 c 0,-13.242 10.436,-14.797 19.432,-5.785 7.897,7.912 16.044,16.385 19.311,27.296 3.594,12.008 35.515,45.853 21.433,56.823 -9.611,7.488 -19.092,10.924 -30.801,5.894 -4.15,-1.783 -9.043,-3.716 -12.57,-6.601 -4.743,-3.879 -4.103,-7.459 -5.463,-14.271 -2.001,-10.023 -3.942,-20.39 -5.29,-30.518 -1.261,-9.464 -1.577,-24.536 -6.052,-32.838"
     id="path75"
     style="fill:#0da600;fill-rule:evenodd" />
  <path
     d="m 130.707,182.689 c 0,-13.879 10.635,-10.857 18.498,-2.979 7.897,7.913 16.043,16.385 19.311,27.296 2.997,10.007 10.857,19.042 17.495,27.019 3.87,4.651 5.608,9.447 7.05,15.225 1.92,7.691 3.113,9.313 -3.034,14.103 -8.222,6.406 -19.062,8.641 -28.946,4.396 -4.961,-2.131 -10.814,-4.217 -14.505,-8.365 -3.392,-3.813 -3.275,-7.755 -4.529,-13.405 -2.193,-9.891 -3.953,-20.408 -5.29,-30.449 -1.259,-9.467 -1.575,-24.539 -6.05,-32.841"
     id="path77"
     style="fill:#29ad00;fill-rule:evenodd" />
  <path
     d="m 130.707,182.689 c -2.225,-16.334 13.869,-3.876 19.137,1.403 8.167,8.182 13.511,17.714 18.17,28.214 4.107,9.256 12.64,16.624 18.706,24.63 3.333,4.398 5.23,7.748 6.535,13.092 2.164,8.863 2.116,9.16 -4.869,14.604 -6.311,4.917 -20.041,8.017 -27.552,3.715 -4.374,-2.504 -9.774,-4.474 -13.324,-8.028 -4.437,-4.442 -4.212,-8.944 -5.463,-15.208 -2.001,-10.024 -3.942,-20.39 -5.29,-30.518 -1.227,-9.219 -1.692,-23.819 -6.05,-31.904"
     id="path79"
     style="fill:#47b500;fill-rule:evenodd" />
  <path
     transform="matrix(0.7410607,0.24484984,-0.31389868,0.75543229,133.49737,-129.61424)"
     id="path3667"
     d="m 252,657.36218 -18,92 39,-26 -2,73 33,-41 49,48 17,-58 59,56 22,-45 11,11 -32,-114 -68,-31 -110,35 z"
     style="color:#000000;fill:url(#linearGradient3889);fill-opacity:1;stroke:none;stroke-width:1px;marker:none;visibility:visible;display:inline;overflow:visible;filter:url(#filter3804-2);enable-background:accumulate" />
  <rect
     transform="matrix(0.92527788,-0.37928993,-0.21378458,0.97688083,0,0)"
     y="453.88922"
     x="175.03481"
     height="87.171883"
     width="67.307518"
     id="rect3631"
     style="fill:#ff0000;fill-opacity:1;stroke:none" />
  <rect
     style="fill:#ff0000;stroke:none"
     id="rect3633"
     width="62.475639"
     height="89.451172"
     x="-598.52533"
     y="-84.388351"
     transform="matrix(-0.45757695,-0.88917002,-0.53760265,0.84319831,0,0)" />
  <path
     transform="matrix(0.7410607,0.24484984,-0.31389868,0.75543229,133.49737,-129.61424)"
     id="path3669"
     d="m 268,653.36218 -9,41 32,-22 -2,60 28,-36 20,31 30,-43 46,31 9,-67 -86,-15 -68,20 z"
     style="color:#000000;fill:url(#linearGradient3711-4);fill-opacity:1;stroke:none;stroke-width:1px;marker:none;visibility:visible;display:inline;overflow:visible;filter:url(#filter3768-1);enable-background:accumulate" />
  <path
     sodipodi:nodetypes="cczczcz"
     id="rect2831"
     d="m 177.16089,217.6119 c 40.98478,-48.15642 125.99912,-64.90324 125.99912,-64.90324 0,0 52.25135,62.10034 48.15211,122.44386 -4.09923,60.34355 -108.4156,208.17853 -108.4156,208.17853 0,0 -39.0143,-29.2143 -61.84394,-36.75738 -22.82969,-7.54308 -73.77206,-8.05083 -73.77206,-8.05083 0,0 28.89563,-172.75438 69.88044,-220.91079 z"
     style="fill:url(#linearGradient3233-648);fill-opacity:1.0;stroke:none" />
  <rect
     transform="matrix(0.94951426,0.31372388,-0.38371451,0.92345177,0,0)"
     y="295.44669"
     x="334.42371"
     height="130.88844"
     width="10.146019"
     id="rect3635"
     style="fill:#ff0000;stroke:none" />
  <rect
     transform="matrix(0.94951426,0.31372388,-0.38371451,0.92345177,0,0)"
     style="fill:#800000;stroke:none"
     id="rect3691"
     width="10.146019"
     height="88.349693"
     x="334.42371"
     y="337.98523" />
  <path
     d="m 156.847,197.654 c -2.127,25.558 -5.71,50.888 -7.836,76.434 -1.02,12.256 1.301,23.434 1.301,35.332 0,5.469 -9.086,9.307 -14.004,9.821 -5.898,0.617 -13.771,-2.683 -18.933,-5.44 C 94.118,301.376 75.856,278.395 60.236,257.53 53.251,248.2 45.976,238.244 37.351,230.389 33.38,226.773 28.899,221.917 24.281,219.165 16.366,214.448 13.64,218.229 5.61,218.229 c -4.048,0 -6.414,-2.355 -5.36,-6.582 1.186,-4.751 4.766,-4.642 9.152,-4.642 3.639,0 6.182,3.741 10.176,3.741 3.101,0 6.754,3.067 9.647,4.226 4.868,1.951 17.96,12.521 20.262,4.192 1.694,-6.13 -8.869,-16.087 -12.866,-19.29 -2.064,-1.655 -7.082,-6.414 -9.54,-6.898 -3.678,-0.725 -7.81,2.857 -11.479,1.386 -10.252,-4.11 2.79,-15.518 9.612,-10.739 1.655,1.16 0.448,4.474 2.888,4.823 2.089,0.299 4.484,0.273 6.389,1.227 3.306,1.656 7.48,3.256 10.123,5.904 5.526,5.537 11.31,14.033 17.942,17.976 -3.457,-7.399 -3.681,-15.739 -6.244,-23.441 -1.197,-3.599 -1.483,-7.519 -2.401,-11.199 -1.219,-4.885 -6.101,-4.351 -8.644,-8.175 -5.29,-7.954 9.305,-10.702 12.62,-3.014 0.795,1.843 -0.582,4.611 0,6.547 0.47,1.565 2.365,3.014 3.238,4.472 2.301,3.841 4.386,7.741 6.15,11.862 3.086,7.211 5.663,14.095 9.721,20.872 4.134,6.903 13.532,12.332 19.518,18.327 11.637,11.658 25.556,21.631 36.059,34.254 5.891,-5.373 0.24,-30.239 -0.934,-37.879 -2.076,-13.513 -1.868,-25.349 -1.868,-38.78 0,-3.803 -1.156,-13.542 1.417,-16.488 2.216,-2.537 10.416,-13.777 15.036,-9.15 9.101,9.114 8.439,23.863 10.623,35.893"
     id="path81"
     style="fill:#008700;fill-rule:evenodd" />
  <path
     d="m 155.913,197.654 c -2.119,25.473 -4.779,50.926 -6.902,76.434 -1.02,12.256 1.301,23.434 1.301,35.332 0,5.469 -9.086,9.307 -14.004,9.821 -5.898,0.617 -13.771,-2.683 -18.933,-5.44 C 94.118,301.376 75.856,278.395 60.236,257.53 53.251,248.2 45.976,238.244 37.351,230.389 c -3.971,-3.616 -8.452,-8.472 -13.07,-11.224 -7.897,-4.707 -10.429,-0.936 -18.395,-0.936 -6.728,0 -4.658,-12.749 5.324,-10.288 7.116,1.755 14.728,5.02 21.472,8.417 3.005,1.514 18.582,11.708 16.562,1.594 -1.583,-7.922 -8.08,-14.436 -14.228,-19.363 -1.81,-1.45 -5.902,-5.106 -7.935,-5.612 -3.871,-0.963 -8.597,1.084 -12.793,0.243 -6.865,-1.377 8.183,-16.467 11.41,-8.383 2.238,5.606 15.138,6.956 20.521,12.349 5.089,5.1 10.227,12.735 16.337,16.368 -3.373,-7.222 -4.159,-15.648 -5.456,-23.441 -0.606,-3.646 -2.276,-7.538 -3.189,-11.199 -1.061,-4.252 -4.557,-3.902 -6.777,-7.24 -5.979,-8.987 10.753,-9.148 10.753,-2.137 0,8.229 7.278,16.323 9.977,24.435 5.568,16.731 16.131,27.976 29.163,39.396 5.842,5.12 10.809,11.186 16.701,16.246 5.962,5.12 13.677,8.57 18.844,14.445 6.256,-7.304 -0.188,-27.876 -1.524,-36.582 -2.021,-13.159 -1.277,-25.227 -1.277,-38.275 0,-7.369 0.789,-31.928 14.938,-27.088 8.431,2.883 9.868,28.18 11.204,35.54"
     id="path83"
     style="fill:#008c00;fill-rule:evenodd" />
  <path
     d="m 154.045,197.654 c -2.117,25.445 -2.922,51.051 -5.035,76.434 -1.02,12.256 1.301,23.434 1.301,35.332 0,5.469 -9.086,9.307 -14.004,9.821 -5.898,0.617 -13.771,-2.683 -18.933,-5.44 C 94.117,301.376 75.855,278.395 60.235,257.53 53.25,248.2 45.975,238.244 37.35,230.389 c -3.971,-3.616 -8.452,-8.472 -13.07,-11.224 -1.163,-0.693 -7.028,-3.811 -8.402,-3.742 -3.883,0.194 -5.019,4.229 -9.335,1.871 -7.719,-4.218 1.241,-11.973 7.935,-7.949 5.594,3.361 13.449,3.439 19.173,7.741 5.364,4.032 17.369,9.753 15.144,-1.385 -1.459,-7.305 -9.914,-14.015 -15.383,-18.398 -1.073,-0.859 -5.915,-4.373 -6.953,-4.257 -1.937,0.216 -9.863,2.213 -11.514,-0.069 -3.521,-4.87 7.93,-13.104 11.652,-5.646 1.019,2.042 7.32,2.056 9.819,3.307 3.64,1.823 6.919,3.659 9.802,6.547 5.089,5.1 10.227,12.735 16.337,16.368 -3.112,-6.662 -3.938,-14.322 -5.135,-21.512 -0.62,-3.724 -0.79,-8.735 -2.334,-12.159 -1.957,-4.338 -4.618,-3.666 -7.019,-7.274 -2.426,-3.646 -0.692,-7.114 4.219,-6.755 6.143,0.45 3.998,5.013 5.601,8.418 3.645,7.744 7.476,14.199 10.269,22.447 2.289,6.757 5.677,15.975 10.619,20.926 5.378,5.389 10.598,11.289 15.659,16.992 6.06,6.829 12.986,12.635 19.846,18.648 2.502,2.194 4.966,4.821 7.817,6.535 3.475,2.088 7.273,1.886 10.475,4.238 5.708,-7.662 0.397,-25.671 -1.037,-34.292 -2.249,-13.515 -2.83,-26.048 -1.764,-39.596 0.526,-6.684 -0.696,-33.258 14.003,-27.124 8.955,3.739 9.569,26.878 10.271,34.609"
     id="path85"
     style="fill:#009400;fill-rule:evenodd" />
  <path
     d="m 153.111,197.654 c -2.103,25.28 -4.667,51.077 -4.667,76.434 0,12.007 1.868,23.63 1.868,35.332 0,5.469 -9.086,9.307 -14.004,9.821 -5.898,0.617 -13.771,-2.683 -18.933,-5.44 C 94.118,301.376 75.856,278.395 60.236,257.53 53.251,248.2 45.976,238.244 37.351,230.389 c -3.971,-3.616 -8.452,-8.472 -13.07,-11.224 -1.54,-0.918 -6.58,-3.575 -8.402,-3.742 -2.234,-0.204 -7.166,4.349 -8.868,0.936 -1.714,-3.437 -1.628,-5.771 1.607,-7.933 3.577,-2.388 5.302,1.386 8.194,2.321 6.892,2.229 12.857,5.335 19.604,8.418 6.539,2.988 15.349,6.063 12.136,-4.677 -2.028,-6.78 -9.903,-12.988 -15.141,-17.186 -1.183,-0.947 -5.918,-4.378 -7.107,-4.229 -1.813,0.228 -8.843,2.044 -10.426,-0.097 -1.479,-1.999 2.181,-6.65 3.734,-7.481 5.508,-2.947 5.379,2.507 8.49,2.952 17.074,2.442 21.284,17.277 34.454,25.107 -6.053,-9.678 -5.407,-25.414 -8.161,-36.442 -0.701,-2.809 -11.47,-6.883 -2.575,-9.855 5.132,-1.715 7.645,8.305 9.306,11.633 5.556,11.131 7.602,23.65 13.099,34.664 5.648,11.316 17.3,21.541 26.205,30.462 3.396,3.4 23.841,25.552 28.408,20.979 2.658,-2.66 4.393,-0.278 5.601,-5.611 0.531,-2.345 -0.679,-6 -0.934,-8.417 -0.737,-6.989 -1.288,-13.982 -1.826,-20.989 -0.909,-11.836 -4.989,-24.378 -2.6,-36.34 1.577,-7.897 -2.383,-29.652 10.995,-29.652 9.816,-0.003 11.654,26.038 13.037,33.668"
     id="path87"
     style="fill:#009900;fill-rule:evenodd" />
  <path
     d="m 151.245,197.654 c -2.103,25.28 -2.801,51.062 -2.801,76.434 0,12.007 1.868,23.63 1.868,35.332 0,5.469 -9.086,9.307 -14.004,9.821 -5.898,0.617 -13.771,-2.683 -18.933,-5.44 C 94.118,301.376 75.856,278.395 60.236,257.53 53.251,248.2 45.976,238.244 37.351,230.389 c -3.971,-3.616 -8.452,-8.472 -13.07,-11.224 -1.714,-1.021 -6.39,-3.438 -8.402,-3.742 -3.152,-0.478 -5.174,4.115 -7.468,-0.935 -5.815,-12.801 26.639,4.129 29.216,5.161 1.412,0.566 8.664,3.963 9.993,3.257 2.794,-1.483 1.669,-7.189 0.496,-9.148 -3.914,-6.536 -8.767,-11.697 -14.703,-16.455 -1.361,-1.091 -5.921,-4.385 -7.352,-4.18 -2.641,0.378 -8.502,2.109 -9.249,-2.017 -0.281,-1.554 5.163,-5.498 6.535,-5.611 3.726,-0.309 3.825,2.665 7.469,3.273 15.119,2.522 19.957,17.78 31.741,24.786 -3.154,-4.394 -2.432,-12.178 -3.493,-17.494 -1.262,-6.319 -2.172,-12.688 -3.734,-18.949 -0.071,-0.286 -11.928,-8.349 -2.109,-8.452 4.459,-0.047 8.1,10.619 9.832,14.088 5.473,10.967 6.602,23.805 12.574,34.547 6.493,11.679 16.389,21.095 25.738,30.462 2.405,2.41 28.408,25.731 28.408,20.944 0,-5.017 4.932,-7.863 4.2,-14.463 -0.698,-6.294 -1.241,-12.603 -1.767,-18.913 -1.096,-13.177 -3.368,-25.785 -3.368,-39.074 0,-7.284 -1.344,-30.367 9.336,-31.332 11.281,-1.018 11.617,25.452 13.071,32.736"
     id="path89"
     style="fill:#00a100;fill-rule:evenodd" />
  <path
     d="m 150.312,197.654 c -2.121,25.498 -1.868,50.858 -1.868,76.434 0,12.007 1.868,23.63 1.868,35.332 0,5.469 -9.086,9.307 -14.004,9.821 -5.898,0.617 -13.771,-2.683 -18.933,-5.44 C 94.118,301.376 75.856,278.395 60.236,257.53 53.251,248.2 45.976,238.244 37.351,230.389 c -3.971,-3.616 -8.452,-8.472 -13.07,-11.224 -3.711,-2.212 -14.004,-2.078 -14.004,-5.612 0,-11.324 24.782,5.068 29.597,6.998 1.078,0.432 6.87,2.82 7.745,2.355 2.794,-1.483 1.669,-7.189 0.496,-9.148 -3.914,-6.536 -8.767,-11.697 -14.703,-16.455 -1.241,-0.994 -4.956,-3.953 -6.331,-4.326 -1.67,-0.453 -8.402,2.749 -8.402,-0.935 0,-8.885 10.086,-3.616 14.062,-2.952 13.713,2.288 19.09,18.087 29.816,24.464 -3.154,-4.394 -2.432,-12.178 -3.493,-17.494 -1.262,-6.319 -2.172,-12.688 -3.734,-18.949 -0.399,-1.599 -9.796,-6.581 -0.243,-6.581 3.172,0 7.211,11.245 8.402,14.029 4.945,11.56 6.021,24.396 12.574,35.336 6.96,11.621 15.445,21.636 24.523,31.642 3.759,4.144 8.143,7.943 12.382,11.587 2.495,2.145 12.345,12.172 15.87,12.158 4.835,-0.019 3.408,-2.247 2.525,-5.784 -0.845,-3.386 0.917,-3.383 1.356,-6.462 0.971,-6.821 0.842,-13.334 0.221,-20.183 -1.133,-12.509 -4.102,-24.92 -4.102,-37.546 0,-6.042 0.934,-11.957 0.934,-17.908 0,-4.126 -1.122,-13.359 1.517,-16.665 13.305,-16.666 17.193,17.758 19.023,26.92"
     id="path91"
     style="fill:#14a600;fill-rule:evenodd" />
  <path
     d="m 148.444,197.654 c -2.122,25.504 0,50.944 0,76.434 0,12.007 1.868,23.63 1.868,35.332 0,5.469 -9.086,9.307 -14.004,9.821 -5.898,0.617 -13.771,-2.683 -18.933,-5.44 C 94.118,301.376 75.856,278.395 60.236,257.53 53.251,248.2 45.976,238.244 37.351,230.389 c -3.971,-3.616 -8.452,-8.472 -13.07,-11.224 -3.552,-2.117 -12.136,-1.899 -12.136,-5.612 0,-10.167 24.024,5.513 27.729,6.998 1.078,0.432 6.87,2.82 7.745,2.355 2.794,-1.483 1.669,-7.189 0.496,-9.148 -3.914,-6.536 -8.767,-11.697 -14.703,-16.455 -1.315,-1.054 -4.86,-3.872 -6.331,-4.326 -1.33,-0.411 -6.847,2.42 -7.469,-0.936 -1.281,-6.915 10.891,-3.325 13.128,-2.952 13.713,2.288 19.09,18.087 29.816,24.464 -3.154,-4.394 -2.432,-12.178 -3.493,-17.494 -1.27,-6.357 -1.226,-12.638 -2.8,-18.949 -0.857,-3.436 -6.988,-2.269 -1.176,-5.178 2.768,-1.386 7.635,10.359 8.402,12.626 3.947,11.654 5.292,25.594 11.203,36.476 5.835,10.742 15.076,21.429 23.338,30.397 8.445,9.166 17.465,20.438 28.769,26.102 11.374,5.698 4.192,-2.83 3.906,-8.799 -0.108,-2.259 2.15,-6.942 2.472,-9.525 0.468,-3.757 0.328,-7.507 0.328,-11.294 0,-11.806 -2.897,-24.02 -4.201,-35.767 -1.148,-10.344 -1.808,-25.022 0.709,-35.107 2.121,-8.5 8.34,-16.351 13.277,-3.983 3.119,7.808 3.513,16.377 5.154,24.596"
     id="path93"
     style="fill:#2ead00;fill-rule:evenodd" />
  <path
     d="m 147.51,197.654 c -1.965,23.61 -1.913,49.021 0.052,72.639 0.962,11.568 2.294,23.61 2.75,34.918 0.558,13.85 -17.76,16.698 -28.399,11.014 C 99.318,304.154 80.83,285.037 65.475,264.528 58.02,254.57 50.588,243.648 41.812,234.859 36.879,229.92 22.01,213.149 14.947,216.36 c -6.772,-11.665 14.928,-2.111 18.706,0.728 3.124,2.349 17.405,9.935 15.594,0.866 -1.382,-6.92 -6.642,-12.914 -11.894,-17.493 -2.52,-2.197 -5.226,-4.432 -8.403,-5.612 -0.705,-0.262 -7.36,-1.499 -7.468,-1.871 -1.654,-5.69 7.171,-4.57 9.336,-4.208 15.119,2.522 19.957,17.78 31.741,24.786 -2.007,-7.506 -2.123,-36.704 -9.336,-38.347 6.373,-8.429 11.742,15.65 12.862,19.017 1.896,5.699 2.833,11.689 4.928,17.287 2.303,6.153 4.842,10.914 7.674,16.59 6.354,12.729 15.196,22.558 24.824,32.945 3.384,3.651 25.302,27.139 30.931,24.524 5.251,-2.439 -3.183,-12.279 -2.653,-15.988 1.021,-7.162 1.748,-13.664 1.029,-20.869 -1.214,-12.185 -2.159,-24.392 -3.51,-36.563 -1.148,-10.344 -1.808,-25.022 0.709,-35.107 0.995,-3.986 1.693,-12.592 8.16,-9.318 3.957,2.003 5.319,11.963 6.258,15.728 1.173,4.708 2.124,9.437 3.075,14.199"
     id="path95"
     style="fill:#47b500;fill-rule:evenodd" />
  <path
     d="m 274.475,64.844 c 5.539,0.365 5.066,11.786 -0.934,10.288 -4.506,-1.125 -3.583,-9.144 0.934,-10.288"
     id="path97"
     style="fill-rule:evenodd" />
  <path
     d="m 202.59,147.149 c 0.875,2.039 -0.377,8.402 -4.667,6.546 -3.67,-1.587 2.276,-6.16 4.667,-6.546"
     id="path115"
     style="fill:#008000;fill-rule:evenodd" />
  <path
     d="m 189.52,164.919 c 1.513,1.263 0.708,5.612 -2.333,5.612 -1.105,0 0.016,-6.454 2.333,-5.612"
     id="path117"
     style="fill:#008000;fill-rule:evenodd" />
  <path
     d="m 188.587,180.818 c 6.068,7.636 -11.566,7 0,0"
     id="path119"
     style="fill:#29ad00;fill-rule:evenodd" />
  <path
     d="m 206.324,106.932 c 3.148,1.481 2.984,5.209 0,7.482 -3.104,-1.952 -4.262,-6.527 0,-7.482"
     id="path121"
     style="fill:#29ad00;fill-rule:evenodd" />
  <path
     d="m 329.554,80.744 c 3.717,0.833 3.655,5.352 0.934,7.482 -3.13,-1.966 -3.806,-6.007 -0.934,-7.482"
     id="path123"
     style="fill:#29ad00;fill-rule:evenodd" />
  <path
     d="m 342.623,74.196 c 4.168,1.015 2.839,5.104 0.934,7.483 -2.93,-1.277 -4.374,-6.144 -0.934,-7.483"
     id="path125"
     style="fill:#29ad00;fill-rule:evenodd" />
  <path
     d="m 207.259,90.096 c 3.465,1.18 3.35,5.542 0,7.482 -3.086,-2.575 -3.853,-6.311 0,-7.482"
     id="path131"
     style="fill:#29ad00;fill-rule:evenodd" />
  <path
     d="m 216.594,103.19 c 4.263,0.956 3.104,5.532 0,7.483 -2.468,-1.93 -3.064,-6.388 0,-7.483"
     id="path133"
     style="fill:#29ad00;fill-rule:evenodd" />
  <path
     d="m 166.181,174.272 c 2.548,0.953 3.703,6.779 0,6.546 -4.038,-0.254 -3.458,-5.772 0,-6.546"
     id="path135"
     style="fill:#29ad00;fill-rule:evenodd" />
  <path
     d="m 166.181,207.006 c 3.39,0.777 4.096,6.548 0,6.548 -2.73,0 -2.416,-5.596 0,-6.548"
     id="path137"
     style="fill:#29ad00;fill-rule:evenodd" />
  <path
     d="m 159.646,165.854 c 3.39,0.759 4.08,6.547 0,6.547 -2.693,0 -2.449,-5.594 0,-6.547"
     id="path139"
     style="fill:#008000;fill-rule:evenodd" />
  <path
     d="m 172.716,183.625 c 3.467,1.179 3.351,5.542 0,7.482 -2.467,-1.93 -3.063,-6.387 0,-7.482"
     id="path145"
     style="fill:#008000;fill-rule:evenodd" />
  <path
     d="m 197.922,158.372 c 4.104,9.698 -10.535,3.883 0,0"
     id="path147"
     style="fill:#0da600;fill-rule:evenodd" />
</svg>
