# Exported from Wings 3D 1.2
mtllib LTurret.mtl
o LTurret
#76 vertices, 66 faces
v 37.29255663 6.57889035 2.06119964
v 29.80332694 8.07869837 3.75113130
v 24.03000936 8.67513429 8.99583558
v 21.51955969 8.20838358 16.38999819
v 22.94465088 6.80351172 23.95235924
v 27.92343090 4.83695298 29.65659020
v 48.38438693 0.73940125 25.03961105
v 50.89483661 1.20615196 17.64544843
v 49.46974542 2.61102382 10.08308738
v 44.49096540 4.57758256 4.37885642
v 35.97916982 0.92512327 1.25839186
v 28.48994012 2.42493130 2.94832352
v 22.71662255 3.02136722 8.19302779
v 20.20617287 2.55461651 15.58719041
v 21.63126406 1.14974464 23.14955146
v 26.61004408 -0.81681410 28.85378242
v 33.80845285 -2.81812188 31.17143920
v 41.29768254 -4.31792991 29.48150754
v 47.07100012 -4.91436583 24.23680326
v 49.58144979 -4.44761512 16.84264065
v 48.15635860 -3.04274326 9.28027960
v 43.17757858 -1.07618452 3.57604864
v 37.54852511 13.93484484 16.49590853
v 38.26136018 13.79209108 16.33505854
v 38.94651451 13.60160388 16.55565626
v 39.42040157 13.41442414 17.09859272
v 39.55604368 13.28070653 17.81838853
v 38.76886616 0.16904313 18.74654463
v 37.17661955 0.33877794 20.19480981
v 35.10974016 0.75274012 20.66087037
v 33.12205728 1.29988430 20.02073724
v 36.89570699 13.81347084 18.41868888
v 36.76006488 13.94718846 17.69889307
v 36.99901289 13.99161443 16.99510662
v 38.19736912 11.18213326 5.57054833
v 32.19100690 12.38497930 6.92587352
v 27.56080621 12.86332091 11.13212634
v 25.54742557 12.48898684 17.06224476
v 26.69034870 11.36227960 23.12725833
v 49.10639766 6.87319707 18.06911586
v 47.96347452 7.99990431 12.00410229
v 43.97049295 9.57708442 7.42930906
v 40.56131646 8.69486362 19.21972587
v 34.95432341 9.81773119 20.48493410
v 30.68333028 9.78509950 27.70205155
v 47.09301702 6.49886301 23.99923427
v 38.53235101 14.25939526 12.60073405
v 35.94961525 14.77661905 13.18352388
v 33.95862896 14.98230594 14.99221260
v 33.09287528 14.82134229 17.54216351
v 33.58433223 14.33685818 20.15011935
v 43.22323328 12.40655269 17.97511809
v 42.73177633 12.89103681 15.36716225
v 41.01479425 13.56922425 13.40000116
v 39.31709567 13.23628056 18.52217498
v 37.36959405 13.62629111 18.96162534
v 42.35747960 12.24558904 20.52506900
v 35.30131431 13.65867074 22.11728043
v 38.57740950 11.87014711 4.98428441
v 44.35053333 10.26509826 6.84304515
v 41.35688734 14.37323999 13.03176593
v 38.87444409 15.06341100 12.23249882
v 37.66119005 7.06155280 1.33304270
v 44.85959881 5.06024501 3.65069948
v 31.88444922 13.21049264 6.49453926
v 27.25424853 13.68883425 10.70079208
v 35.80744508 15.67761432 12.92456181
v 33.81645879 15.88330121 14.73325052
v 23.59887555 9.31795972 8.44814471
v 29.37219312 8.72152380 3.20344044
v 27.12553201 1.39968583 29.16911591
v 34.32367409 -0.60152237 31.48650592
v 41.81248880 -2.10124730 29.79666790
v 47.58565807 -2.69769970 24.55232403
v 39.55785728 3.61400420 19.23333404
v 33.93074883 4.74090013 20.50308128
vt 3.9088677e-3 0.12941096
vt 4.0868814e-3 0.19041440
vt 6.8382793e-3 2.8762982e-2
vt 6.8458697e-3 7.0179039e-3
vt 1.1934406e-2 0.31451218
vt 1.6893320e-2 0.30543133
vt 1.8093556e-2 0.31326318
vt 1.9702799e-2 0.35999185
vt 2.6672709e-2 0.35831362
vt 2.9105843e-2 7.5957469e-2
vt 2.9523943e-2 0.24374438
vt 3.4027050e-2 0.41828824
vt 4.0405806e-2 0.42437782
vt 4.0761009e-2 0.41654085
vt 4.1999164e-2 0.26516883
vt 4.5029838e-2 0.13695512
vt 4.5029838e-2 0.18058652
vt 5.8191619e-2 2.8780908e-2
vt 5.8199209e-2 7.0358296e-3
vt 6.2288160e-2 0.41646433
vt 6.2699068e-2 0.42429858
vt 6.7033264e-2 0.21837242
vt 6.7033264e-2 9.9169217e-2
vt 6.9105098e-2 0.41778976
vt 7.3243621e-2 0.35819158
vt 8.0292823e-2 0.35956884
vt 8.0387799e-2 0.31306340
vt 8.1537778e-2 0.30522401
vt 8.6551007e-2 0.31417471
vt 9.1837044e-2 0.15049243
vt 9.1837044e-2 0.16925393
vt 9.6914481e-2 0.29778358
vt 9.8006519e-2 0.31868611
vt 9.9574269e-2 3.6450798e-2
vt 9.9931972e-2 0.30987590
vt 0.10129852 0.13424449
vt 0.10129852 0.18550187
vt 0.10238470 0.31769037
vt 0.10428807 0.36046859
vt 0.10514432 7.7353517e-2
vt 0.10688637 0.20153631
vt 0.10954496 2.8798834e-2
vt 0.10955255 7.0537553e-3
vt 0.11074967 0.35910409
vt 0.11542263 0.41386490
vt 0.11740199 0.15728410
vt 0.11740199 0.16246227
vt 0.11768627 0.12486374
vt 0.12001336 0.15279966
vt 0.12001336 0.16694670
vt 0.12048227 0.42034457
vt 0.12120219 0.41249996
vt 0.12152440 0.21341133
vt 0.12453638 0.15021058
vt 0.12975911 0.15021058
vt 0.13428213 0.15279966
vt 0.13428213 0.16694670
vt 0.13660922 0.12486374
vt 0.13689350 0.15728410
vt 0.13689350 0.16246227
vt 0.13899254 0.21341133
vt 0.14187088 0.41225815
vt 0.14277414 0.42008377
vt 0.14762152 0.41372047
vt 0.14915117 7.7353517e-2
vt 0.15299697 0.18550187
vt 0.15299697 0.13424449
vt 0.15353004 0.35863399
vt 0.15446722 0.20261557
vt 0.15472122 3.6450798e-2
vt 0.15995026 0.36007999
vt 0.16089830 2.8816759e-2
vt 0.16090589 7.0716810e-3
vt 0.16225887 0.31716572
vt 0.16245844 0.16925393
vt 0.16245844 0.15049243
vt 0.16302344 0.29765341
vt 0.16457428 0.30930947
vt 0.16659442 0.31834627
vt 0.18726222 9.9169217e-2
vt 0.18726222 0.21837242
vt 0.20926565 0.13695512
vt 0.20926565 0.18058652
vt 0.21225164 2.8834685e-2
vt 0.21225923 7.0896067e-3
vt 0.21845898 0.26589407
vt 0.22485884 0.24375118
vt 0.22526664 7.5943650e-2
vt 0.25015121 0.19028105
vt 0.25032698 0.12954384
vt 0.26360498 2.8852611e-2
vt 0.26361004 1.4355892e-2
vt 0.26361014 1.4355888e-2
vt 0.26361257 7.1075324e-3
vt 0.26361267 7.1075286e-3
vt 0.26452492 0.14302217
vt 0.26455416 0.13076106
vt 0.28154300 0.18700595
vt 0.31496348 1.4373714e-2
vt 0.31496601 7.1254543e-3
vt 0.32191140 0.22440350
vt 0.32782589 0.14704556
vt 0.32784032 0.13049972
vt 0.32816581 0.19226856
vt 0.34395963 0.22666642
vt 0.36076988 0.22666642
vt 0.36631682 1.4391639e-2
vt 0.36631935 7.1433800e-3
vt 0.37656370 0.19226856
vt 0.37743515 0.14699493
vt 0.37752680 0.13047574
vt 0.38281811 0.22440350
vt 0.41766515 2.8906467e-2
vt 0.41767016 1.4409665e-2
vt 0.41767021 1.4409748e-2
vt 0.41767269 7.1613057e-3
vt 0.41767274 7.1613882e-3
vt 0.42318651 0.18700595
vt 0.44067118 0.14294629
vt 0.44071676 0.12999227
vt 0.46901849 2.8924392e-2
vt 0.46902608 7.1793139e-3
vt 0.52037183 2.8942318e-2
vt 0.52037942 7.1972396e-3
vt 0.57172517 2.8960244e-2
vt 0.57173276 7.2151653e-3
vt 0.62307851 2.8978169e-2
vt 0.62308610 7.2330910e-3
vn -0.88050507 0.47401055 -4.9826808e-3
vn -0.78691273 0.38971230 0.47842730
vn 0.99657757 3.2546988e-2 7.5985815e-2
vn 0.90553963 0.11633369 -0.40800056
vn 0.22414387 0.96487737 0.13700796
vn 0.22414387 0.96487737 0.13700796
vn 0.22414387 0.96487737 0.13700796
vn 0.22414387 0.96487737 0.13700796
vn 0.22414387 0.96487737 0.13700796
vn 0.22391456 0.96518167 0.13522796
vn 0.22371028 0.96522258 0.13527406
vn 0.22414387 0.96487737 0.13700796
vn 0.22414387 0.96487737 0.13700796
vn 0.22414387 0.96487737 0.13700796
vn -0.53071585 0.84496864 6.6096003e-2
vn -0.45504850 0.78615887 0.41819264
vn 0.84071031 0.52666764 0.12580692
vn 0.77969842 0.58254247 -0.22959670
vn -0.18236367 6.4744941e-2 0.98109713
vn 0.58153015 -8.8233953e-2 0.80872582
vn -3.7814627e-2 0.99197266 0.12066608
vn -8.1379662e-3 0.96840702 0.24924208
vn 0.46538892 0.87357759 0.14239156
vn 0.44558009 0.89516707 1.1588908e-2
vn -0.19129447 -3.8977124e-2 0.98075849
vn 0.55075341 -0.18758111 0.81331667
vn 2.9426829e-2 0.30055393 -0.95331076
vn 2.9426829e-2 0.30055393 -0.95331076
vn 2.9426829e-2 0.30055393 -0.95331076
vn -0.72215568 -0.36112186 -0.58998489
vn -0.72215568 -0.36112186 -0.58998489
vn -0.30851359 0.36823055 -0.87705509
vn -0.30851359 0.36823055 -0.87705509
vn -0.30851359 0.36823055 -0.87705509
vn 0.22504362 -0.55080987 -0.80371877
vn 0.22504362 -0.55080987 -0.80371877
vn -0.79730418 0.42255066 -0.43099533
vn -0.79730418 0.42255066 -0.43099533
vn -0.79730418 0.42255066 -0.43099533
vn -0.87764791 -0.43090374 0.20989548
vn -0.87764791 -0.43090374 0.20989548
vn -0.65453679 0.32410888 0.68303369
vn 0.81691175 -0.23658486 0.52600646
vn -0.65453679 0.32410888 0.68303369
vn 0.81691175 -0.23658486 0.52600646
vn 0.94684035 3.4139098e-3 0.32168572
vn 0.94684035 3.4139098e-3 0.32168572
vn -0.54987693 3.7130950e-2 0.83441995
vn -0.54987693 3.7130950e-2 0.83441995
vn 0.64111167 0.13449065 -0.75557137
vn 0.64111167 0.13449065 -0.75557137
vn 0.64111167 0.13449065 -0.75557137
vn 0.65984046 -0.73880422 -0.13703609
vn 0.65984046 -0.73880422 -0.13703609
vn -0.22414387 -0.96487737 -0.13700796
vn 7.1820021e-2 0.12384846 -0.98969866
vn 7.1820021e-2 0.12384846 -0.98969866
vn -0.22414387 -0.96487737 -0.13700796
vn -0.42375507 0.22309331 -0.87787301
vn -0.42375507 0.22309331 -0.87787301
vn -0.22414387 -0.96487737 -0.13700796
vn -0.80578534 0.26256049 -0.53082198
vn -0.80578534 0.26256049 -0.53082198
vn -0.22414387 -0.96487737 -0.13700796
vn -0.97190607 0.23167480 -4.1537641e-2
vn -0.97190607 0.23167480 -4.1537641e-2
vn -0.22414387 -0.96487737 -0.13700796
vn -0.87760493 0.13871181 0.45887756
vn -0.87760493 0.13871181 0.45887756
vn -0.22414387 -0.96487737 -0.13700796
vn -0.54816055 8.5160565e-3 0.83632977
vn -0.54816055 8.5160565e-3 0.83632977
vn -0.22414387 -0.96487737 -0.13700796
vn -7.1847848e-2 -0.12399259 0.98967860
vn -7.1847848e-2 -0.12399259 0.98967860
vn -0.22414387 -0.96487737 -0.13700796
vn 0.42371704 -0.22323540 0.87785524
vn 0.42371704 -0.22323540 0.87785524
vn -0.22414387 -0.96487737 -0.13700796
vn 0.80576696 -0.26262416 0.53081838
vn 0.80576696 -0.26262416 0.53081838
vn -0.22414387 -0.96487737 -0.13700796
vn 0.97190600 -0.23167492 4.1538628e-2
vn 0.97190600 -0.23167492 4.1538628e-2
vn -0.22414387 -0.96487737 -0.13700796
vn 0.87760536 -0.13871204 -0.45887668
vn 0.87760536 -0.13871204 -0.45887668
vn -0.22414387 -0.96487737 -0.13700796
vn 0.54815100 -8.5814914e-3 -0.83633536
vn 0.54815100 -8.5814914e-3 -0.83633536
vn 0.22380238 0.96533003 0.13435189
vn -0.19778058 -9.2210727e-2 0.97589960
vn -0.19778058 -9.2210727e-2 0.97589960
vn 0.22380238 0.96533003 0.13435189
vn 0.22349596 0.96539139 0.13442104
vn 0.53460488 -0.23887969 0.81063810
vn 0.53460488 -0.23887969 0.81063810
vn 0.22349596 0.96539139 0.13442104
vn 1.8643901e-2 0.78738595 -0.61617836
vn 1.8643901e-2 0.78738595 -0.61617836
vn -0.91922631 0.35559982 -0.16903181
vn -0.91922631 0.35559982 -0.16903181
vn 1.8643901e-2 0.78738595 -0.61617836
vn 1.8643901e-2 0.78738595 -0.61617836
vn 0.82647213 6.0027766e-3 -0.56294563
vn 0.82647213 6.0027766e-3 -0.56294563
vn -0.51292357 0.84993549 -0.12049516
vn -0.51292357 0.84993549 -0.12049516
vn -0.60393091 0.17398052 0.77781632
vn -0.60393091 0.17398052 0.77781632
vn 0.68951564 0.60913262 -0.39182348
vn 0.68951564 0.60913262 -0.39182348
vn 0.88877134 -0.12495100 0.44099066
vn 0.88877134 -0.12495100 0.44099066
vn 0.82327731 -0.24827505 0.51046446
vn -0.36461933 0.73502829 0.57165212
vn 0.82327731 -0.24827505 0.51046446
vn -0.36461933 0.73502829 0.57165212
vn 0.81007717 0.49978124 0.30658390
vn -0.56590081 2.9924518e-2 0.82393009
vn 0.81007717 0.49978124 0.30658390
vn -0.56590081 2.9924518e-2 0.82393009
vn 0.18649247 0.98144557 -4.4555073e-2
vn 0.18649247 0.98144557 -4.4555073e-2
vn 0.18649247 0.98144557 -4.4555073e-2
vn -0.69139433 0.53640083 0.48399176
vn -0.69139433 0.53640083 0.48399176
vn 0.18649247 0.98144557 -4.4555073e-2
vn 0.18649247 0.98144557 -4.4555073e-2
vn 0.18649247 0.98144557 -4.4555073e-2
vn 0.97314942 0.20305599 0.10839036
vn 0.97314942 0.20305599 0.10839036
vn 5.3629891e-2 0.99526748 8.1033780e-2
vn 5.3629891e-2 0.99526748 8.1033780e-2
vn 5.3629891e-2 0.99526748 8.1033780e-2
vn 6.5259477e-2 0.30526862 0.95002751
vn 6.5259477e-2 0.30526862 0.95002751
vn 0.35420950 0.93507281 1.3208513e-2
vn 0.35420950 0.93507281 1.3208513e-2
vn 0.35420950 0.93507281 1.3208513e-2
vn 0.45067110 0.22808533 0.86306005
vn 0.45067110 0.22808533 0.86306005
vn 0.22414387 0.96487737 0.13700796
vn 0.22414387 0.96487737 0.13700796
vn -0.17998923 0.11584260 0.97682361
vn -0.17998923 0.11584260 0.97682361
vn 0.22414387 0.96487737 0.13700796
vn 0.22414387 0.96487737 0.13700796
vn 0.59654259 -3.9667202e-2 0.80160056
vn 0.59654259 -3.9667202e-2 0.80160056
vn 0.45686572 0.86446907 0.20968297
vn 0.45686572 0.86446907 0.20968297
vn -0.57954963 -6.4138208e-3 0.81491171
vn 2.3454062e-2 0.95126495 0.30748155
vn 0.81757819 -0.28620542 0.49965225
vn 2.3454062e-2 0.95126495 0.30748155
vn 0.38757459 0.70165356 -0.59788646
vn 0.38757459 0.70165356 -0.59788646
vn -0.91922631 0.35559982 -0.16903181
vn -0.91922631 0.35559982 -0.16903181
vn 0.38757459 0.70165356 -0.59788646
vn 0.38757459 0.70165356 -0.59788646
vn 0.88877134 -0.12495100 0.44099066
vn 0.88877134 -0.12495100 0.44099066
vn 0.36078499 0.84794703 -0.38835554
vn 0.45067110 0.22808533 0.86306005
vn 0.45067110 0.22808533 0.86306005
vn 0.36078499 0.84794703 -0.38835554
vn -0.69139433 0.53640083 0.48399176
vn -0.69139433 0.53640083 0.48399176
vn 0.38877548 0.50903505 -0.76794332
vn -0.72215568 -0.36112186 -0.58998489
vn -0.72215568 -0.36112186 -0.58998489
vn 0.38877548 0.50903505 -0.76794332
vn 0.65984046 -0.73880422 -0.13703609
vn 0.65984046 -0.73880422 -0.13703609
vn -0.31263511 0.84187894 -0.43988536
vn -0.31263511 0.84187894 -0.43988536
vn 0.82647213 6.0027766e-3 -0.56294563
vn 0.82647213 6.0027766e-3 -0.56294563
vn -0.31263511 0.84187894 -0.43988536
vn -0.31263511 0.84187894 -0.43988536
vn -0.60393091 0.17398052 0.77781632
vn -0.60393091 0.17398052 0.77781632
vn -0.14993832 0.95022549 -0.27311172
vn 0.97314942 0.20305599 0.10839036
vn 0.97314942 0.20305599 0.10839036
vn -0.14993832 0.95022549 -0.27311172
vn 6.5259477e-2 0.30526862 0.95002751
vn 6.5259477e-2 0.30526862 0.95002751
vn -0.45469089 0.67794930 -0.57761660
vn -0.87764791 -0.43090374 0.20989548
vn -0.87764791 -0.43090374 0.20989548
vn -0.45469089 0.67794930 -0.57761660
vn 0.22504362 -0.55080987 -0.80371877
vn 0.22504362 -0.55080987 -0.80371877
vn -0.54816055 8.5160565e-3 0.83632977
vn 0.80545538 -0.26301684 0.53109676
vn -0.54816055 8.5160565e-3 0.83632977
vn 0.22374486 0.96502985 0.13658558
vn 0.22394164 0.96495629 0.13678269
vn -7.1847848e-2 -0.12399259 0.98967860
vn -7.1847848e-2 -0.12399259 0.98967860
vn 0.22394164 0.96495629 0.13678269
vn 0.22424806 0.96489493 0.13671354
vn 0.42371704 -0.22323540 0.87785524
vn 0.42371704 -0.22323540 0.87785524
vn 0.22424806 0.96489493 0.13671354
vn 0.80576696 -0.26262416 0.53081838
vn 0.80576696 -0.26262416 0.53081838
vn -0.54792997 8.0147877e-3 0.83648581
vn 0.22435770 0.96490713 0.13644728
g LTurret_default
usemtl default
s 1
f 2/29/36 70/27/196 65/25/180 36/26/106
f 3/6/41 69/7/193 70/27/195 2/28/35
f 11//55 22//88 21//85 20//82 19//79 18//76 17//73 16//70 15//67 14//64 13//61 12//58
f 28/41/91 31/69/95 30/61/11 29/53/10
f 29/53/10 73/32/208 74/15/212 28/41/94
f 30/61/11 72/77/201 73/32/205 29/53/10
f 31/69/98 71/86/200 72/77/204 30/61/11
f 36/26/105 65/25/179 67/20/186 48/24/131
f 37/8/110 66/9/184 69/7/192 3/5/40
f 48/21/132 67/20/187 68/14/189 49/13/136
f 49/12/137 68/14/190 66/9/183 37/8/109
f 59/44/158 62/52/168 61/62/165 60/68/162
f 60/68/161 64/74/174 63/38/171 59/44/157
s 2
f 1/35/31 63/38/173 64/74/175 10/78/53
f 10/79/54 64/74/176 60/68/164 42/71/114
f 28/103/93 74/97/211 7/96/49 75/102/25
f 35/39/102 59/44/160 63/38/172 1/33/30
f 42/71/113 60/68/163 61/62/166 54/64/141
f 43/104/19 46/98/122 57/101/153 55/105/145
f 44/109/20 45/118/115 6/119/43 76/110/26
f 44/109/20 56/106/150 58/112/155 45/118/117
f 46/98/120 43/104/19 75/102/25 7/96/48
f 47/45/127 62/52/170 59/44/159 35/39/101
f 54/63/142 61/62/167 62/52/169 47/51/126
f 55/105/146 56/106/149 44/109/20 43/104/19
f 65/25/177 70/27/194 69/7/191 66/9/181
f 66/9/182 68/14/188 67/20/185 65/25/178
f 71/120/198 31/111/97 76/110/26 6/119/45
f 75/102/25 76/110/26 31/111/96 28/103/92
f 76/110/26 75/102/25 43/104/19 44/109/20
s 3
f 1/18/27 11/19/56 12/4/59 2/3/32
f 2/127/33 12/128/60 13/126/62 3/125/37
f 2/34/34 36/40/103 35/65/99 1/70/29
f 3/125/38 13/126/63 14/124/65 4/123/1
f 4/123/1 14/124/66 15/122/68 5/121/2
f 4/1/1 38/16/15 37/23/107 3/10/39
f 5/121/2 15/122/69 16/117/71 71/115/197 6/113/42
f 5/2/2 39/17/16 38/16/15 4/1/1
f 6/11/44 45/22/116 39/17/16 5/2/2
f 7/91/46 74/92/209 19/94/80 20/85/83 8/84/3
f 8/84/3 20/85/84 21/73/86 9/72/4
f 8/89/3 40/83/17 46/81/119 7/87/47
f 9/72/4 21/73/87 22/43/89 10/42/50
f 9/90/4 41/82/18 40/83/17 8/89/3
f 10/42/51 22/43/90 11/19/57 1/18/28
f 10/88/52 42/80/111 41/82/18 9/90/4
f 17/108/74 72/107/202 71/114/199 16/116/72
f 18/100/77 73/99/206 72/107/203 17/108/75
f 19/95/81 74/93/210 73/99/207 18/100/78
f 23/54/5 34/49/14 33/46/13 32/47/12 56/50/147 55/57/143 27/60/9 26/59/8 25/56/7 24/55/6
f 23/54/5 48/48/129 49/36/134 34/49/14
f 24/55/6 47/58/123 48/48/128 23/54/5
f 25/56/7 54/67/138 47/58/124 24/55/6
f 26/59/8 53/76/24 54/67/139 25/56/7
f 27/60/9 52/75/23 53/76/24 26/59/8
f 27/60/9 55/57/144 57/66/151 52/75/23
f 32/47/12 51/31/22 58/37/154 56/50/148
f 33/46/13 50/30/21 51/31/22 32/47/12
f 34/49/14 49/36/133 50/30/21 33/46/13
f 35/65/100 36/40/104 48/48/130 47/58/125
f 37/23/108 38/16/15 50/30/21 49/36/135
f 38/16/15 39/17/16 51/31/22 50/30/21
f 39/17/16 45/22/118 58/37/156 51/31/22
f 40/83/17 41/82/18 53/76/24 52/75/23
f 41/82/18 42/80/112 54/67/140 53/76/24
f 52/75/23 57/66/152 46/81/121 40/83/17
