# Exported from Wings 3D 1.2
mtllib UprightGun.mtl
o RearGun
#54 vertices, 48 faces
v -2.88737918 19.65457928 -56.04556616
v -1.57852609 20.95792452 -56.02225287
v 1.67096128 20.95792452 -56.02225287
v 2.97981437 19.65457928 -56.04556616
v 1.67096128 20.71107872 -42.22217031
v 2.97981437 19.40773347 -42.24548359
v -2.88737918 19.40773347 -42.24548359
v -1.57852609 20.71107872 -42.22217031
v 1.87112874 18.09800003 -42.26893320
v 0.95867317 19.67816667 -42.24066833
v -0.86623798 19.67816667 -42.24066833
v -1.77869355 18.09800003 -42.26893320
v -0.86623798 16.51783339 -42.29719806
v 0.95867317 16.51783339 -42.29719806
v -1.45400090 15.77992170 -56.11487321
v -2.89722243 17.22877862 -56.08895711
v 2.98965762 17.22877862 -56.08895711
v 1.54643609 15.77992170 -56.11487321
v -1.45400090 15.53307590 -42.31479064
v -1.55997622 16.07696268 -42.30508442
v -2.89722243 16.98193281 -42.28887455
v 2.98965762 16.98193281 -42.28887455
v 1.65241141 16.07696268 -42.30508442
v 1.54643609 15.53307590 -42.31479064
v 1.87112874 17.97014289 -35.12099254
v 0.95867317 19.55030953 -35.09272767
v -0.86623798 19.55030953 -35.09272767
v -1.77869355 17.97014289 -35.12099254
v -0.86623798 16.38997625 -35.14925740
v 0.95867317 16.38997625 -35.14925740
v 1.63126439 19.89225410 -32.50735082
v 2.54371996 18.31208746 -32.53561569
v 2.54371996 18.47144900 -41.43749386
v 1.63126439 20.05161564 -41.40922899
v -2.45128477 18.31208746 -32.53561569
v -1.53882920 19.89225410 -32.50735082
v -1.53882920 20.05161564 -41.40922899
v -2.45128477 18.47144900 -41.43749386
v 0.95867317 15.56714497 -32.58471522
v -0.86623798 15.56714497 -32.58471522
v -0.86623798 15.72650651 -41.48659339
v 0.95867317 15.72650651 -41.48659339
v 1.37805551 18.12296424 -32.84424516
v 0.87985476 18.98573523 -32.82881254
v 0.51261996 18.79903349 -34.24042830
v 1.01082070 17.93626251 -34.25586092
v -0.78741958 18.98573523 -32.82881254
v -1.28562032 18.12296424 -32.84424516
v -0.91838551 17.93626251 -34.25586092
v -0.42018477 18.79903349 -34.24042830
v -0.45198315 16.67926271 -32.86997330
v 0.54441834 16.67926271 -32.86997330
v 0.54441834 17.12852859 -34.27021333
v -0.45198315 17.12852859 -34.27021333
vt 0.17899852 0.33187516
vt 0.17906090 0.33185905
vt 0.17911217 0.33184592
vt 0.17911217 0.39092449
vt 0.17916346 0.39093754
vt 0.17922592 0.39095330
vt 0.19407911 0.33181711
vt 0.19414157 0.33183287
vt 0.19419286 0.33184592
vt 0.19419286 0.39092449
vt 0.19424413 0.39091136
vt 0.19430651 0.39089525
vt 0.24953904 0.22450794
vt 0.24954207 0.22450797
vt 0.24955163 0.22450674
vt 0.24957958 0.29747437
vt 0.24959568 0.29747519
vt 0.24959926 0.29747586
vt 0.25586950 0.21772545
vt 0.25587314 0.21772613
vt 0.25588571 0.21772694
vt 0.25590901 0.27631774
vt 0.25591568 0.27631657
vt 0.25591750 0.27631651
vt 0.25894680 0.29504437
vt 0.25896152 0.29504138
vt 0.25896551 0.29504102
vt 0.26175661 3.8487120e-2
vt 0.26187022 0.12740320
vt 0.26240267 0.28349284
vt 0.26241224 0.28348878
vt 0.26241527 0.28348802
vt 0.26532323 0.28341084
vt 0.26532850 0.28340313
vt 0.26533326 0.28339663
vt 0.26879511 0.29494602
vt 0.26879848 0.29495042
vt 0.26880217 0.29495498
vt 0.27170163 0.21763240
vt 0.27176511 0.21762931
vt 0.27180225 0.27622278
vt 0.27181016 0.21762724
vt 0.27181339 0.27622010
vt 0.27182351 0.27621832
vt 0.27741835 3.8456694e-2
vt 0.27749685 0.12737815
vt 0.27804925 0.22439875
vt 0.27810747 0.22440137
vt 0.27814772 0.22440310
vt 0.27816391 0.29737105
vt 0.27816866 0.29736898
vt 0.27817393 0.29736589
vt 0.28934647 3.8443775e-2
vt 0.28938816 0.12736967
vt 0.31029373 0.12735243
vt 0.31032421 3.8436666e-2
vt 0.32217322 0.12735862
vt 0.32225083 3.8449806e-2
vt 0.33776668 0.12737117
vt 0.33790524 3.8471297e-2
vt 0.35091151 0.12739957
vt 0.35109678 3.8507350e-2
vt 0.37019354 0.12745527
vt 0.37043684 3.8558068e-2
vt 0.38334011 0.12750538
vt 0.38361305 3.8603751e-2
vt 0.39645823 4.4731765e-2
vt 0.39648362 4.4538145e-2
vt 0.39648419 4.4536742e-2
vt 0.39649124 5.9618838e-2
vt 0.39649170 5.9617435e-2
vt 0.39650862 5.9812376e-2
vt 0.40151327 8.8521051e-2
vt 0.40159461 0.10857058
vt 0.40595735 4.8123043e-2
vt 0.40597318 4.7956671e-2
vt 0.40597364 4.7955649e-2
vt 0.40597734 5.6190729e-2
vt 0.40597774 5.6189708e-2
vt 0.40598487 5.6357056e-2
vt 0.41075657 9.7745476e-2
vt 0.41241071 0.11934288
vt 0.41256400 8.1041362e-2
vt 0.41343976 7.6546077e-2
vt 0.41810922 4.8081678e-2
vt 0.41812549 4.7950534e-2
vt 0.41812557 4.7950354e-2
vt 0.41812965 5.6184592e-2
vt 0.41812967 5.6184413e-2
vt 0.41813674 5.6315691e-2
vt 0.41829691 8.4685211e-2
vt 0.41829691 0.11080574
vt 0.42758547 4.4626359e-2
vt 0.42761158 4.4522425e-2
vt 0.42761161 4.4522627e-2
vt 0.42761911 5.9603320e-2
vt 0.42761920 5.9603117e-2
vt 0.42763586 5.9706969e-2
vt 0.43337761 8.4685211e-2
vt 0.43337761 0.11080574
vt 0.43823476 7.6546077e-2
vt 0.43911052 8.1041362e-2
vt 0.43926381 0.11934288
vt 0.44091796 9.7745476e-2
vt 0.45007991 0.10857058
vt 0.45016125 8.8521051e-2
vt 0.46565631 9.3457590e-2
vt 0.47319666 8.0397325e-2
vt 0.47319666 0.10651785
vt 0.48827736 8.0397325e-2
vt 0.48827736 0.10651785
vt 0.49581770 9.3457590e-2
vt 0.50116016 4.4381415e-2
vt 0.50118667 4.4485267e-2
vt 0.50118670 4.4485064e-2
vt 0.50119420 5.9565757e-2
vt 0.50119429 5.9565959e-2
vt 0.50121056 5.9462025e-2
vt 0.51052096 4.4350573e-2
vt 0.51054755 4.4479963e-2
vt 0.51054805 4.4480539e-2
vt 0.51055506 5.9560656e-2
vt 0.51055567 5.9561232e-2
vt 0.51057136 5.9431183e-2
vn -0.81156919 0.34751508 -0.46966873
vn -0.33576439 0.82131763 -0.46119370
vn 0.33576439 0.82131763 -0.46119370
vn 0.81156919 0.34751508 -0.46966873
vn -0.33734854 -0.80345574 -0.49056584
vn -0.81346267 -0.32548252 -0.48201620
vn 0.81346267 -0.32548252 -0.48201620
vn 0.33734854 -0.80345574 -0.49056584
vn 2.2017581e-5 -1.7858961e-2 0.99984052
vn -2.2017581e-5 -1.7858961e-2 0.99984052
vn 0.38174618 0.92411937 1.6529973e-2
vn 0.38174618 0.92411937 1.6529973e-2
vn -6.0799049e-6 -1.7899759e-2 0.99983979
vn -6.0799049e-6 -1.7899759e-2 0.99983979
vn 0.92271083 0.38543118 6.8943116e-3
vn 0.92271083 0.38543118 6.8943116e-3
vn -1.3375823e-5 -1.7888806e-2 0.99983998
vn -1.3375823e-5 -1.7888806e-2 0.99983998
vn -0.92271083 0.38543118 6.8943116e-3
vn -0.92271083 0.38543118 6.8943116e-3
vn 1.3375823e-5 -1.7888806e-2 0.99983998
vn 1.3375823e-5 -1.7888806e-2 0.99983998
vn -0.38174618 0.92411937 1.6529973e-2
vn -0.38174618 0.92411937 1.6529973e-2
vn 6.0799049e-6 -1.7899759e-2 0.99983979
vn 6.0799049e-6 -1.7899759e-2 0.99983979
vn 0.74958271 -7.9895916e-2 0.65707108
vn 0.74958271 -7.9895916e-2 0.65707108
vn 0.74958271 -7.9895916e-2 0.65707108
vn 0.49989049 -0.86594997 -1.5496562e-2
vn 0.74958271 -7.9895916e-2 0.65707108
vn 0.41958689 0.22654887 0.87898945
vn 0.41958689 0.22654887 0.87898945
vn 2.7214262e-14 0.99984006 1.7884409e-2
vn 0.41958689 0.22654887 0.87898945
vn -0.49989049 0.86594997 1.5496562e-2
vn -0.41958689 0.22654887 0.87898945
vn -0.41958689 0.22654887 0.87898945
vn 2.7214262e-14 0.99984006 1.7884409e-2
vn 0.49989049 0.86594997 1.5496562e-2
vn -0.41958689 0.22654887 0.87898945
vn -0.74958271 -7.9895916e-2 0.65707108
vn -0.74958271 -7.9895916e-2 0.65707108
vn -0.74958271 -7.9895916e-2 0.65707108
vn -0.74958271 -7.9895916e-2 0.65707108
vn -0.49989049 -0.86594997 -1.5496562e-2
vn -0.71997250 -0.48276774 0.49857288
vn -0.71997250 -0.48276774 0.49857288
vn -0.71997250 -0.48276774 0.49857288
vn -0.71997250 -0.48276774 0.49857288
vn -0.71997250 -0.48276774 0.49857288
vn 0.71997250 -0.48276774 0.49857288
vn 0.71997250 -0.48276774 0.49857288
vn 0.71997250 -0.48276774 0.49857288
vn 0.71997250 -0.48276774 0.49857288
vn 0.71997250 -0.48276774 0.49857288
vn -0.38362029 -0.92334321 -1.6516089e-2
vn 2.5730453e-5 -1.7846523e-2 0.99984074
vn 2.5730453e-5 -1.7846523e-2 0.99984074
vn -0.38362029 -0.92334321 -1.6516089e-2
vn -0.92503968 -0.37980973 -6.7937593e-3
vn 3.3026371e-5 -1.7858502e-2 0.99984052
vn 3.3026371e-5 -1.7858502e-2 0.99984052
vn -0.92503968 -0.37980973 -6.7937593e-3
vn 0.92503968 -0.37980973 -6.7937593e-3
vn -3.3026371e-5 -1.7858502e-2 0.99984052
vn -3.3026371e-5 -1.7858502e-2 0.99984052
vn 0.92503968 -0.37980973 -6.7937593e-3
vn 0.38362029 -0.92334321 -1.6516089e-2
vn -2.5730453e-5 -1.7846523e-2 0.99984074
vn -2.5730453e-5 -1.7846523e-2 0.99984074
vn 0.38362029 -0.92334321 -1.6516089e-2
vn -0.78826144 -0.46243710 0.40595053
vn 0.86602540 -0.49992003 -8.9422046e-3
vn 0.32387412 -0.94522136 4.0769395e-2
vn -0.78826144 -0.46243710 0.40595053
vn 0.32387412 -0.94522136 4.0769395e-2
vn -0.78826144 -0.46243710 0.40595053
vn 2.7214262e-14 0.99984006 1.7884409e-2
vn -0.65577591 0.75159206 7.1185160e-2
vn -0.65577591 0.75159206 7.1185160e-2
vn -0.78826144 -0.46243710 0.40595053
vn 0.78826144 -0.46243710 0.40595053
vn 2.7214262e-14 0.99984006 1.7884409e-2
vn 0.65577591 0.75159206 7.1185160e-2
vn 0.78826144 -0.46243710 0.40595053
vn 0.65577591 0.75159206 7.1185160e-2
vn 0.78826144 -0.46243710 0.40595053
vn -0.86602540 -0.49992003 -8.9422046e-3
vn -0.32387412 -0.94522136 4.0769395e-2
vn -0.32387412 -0.94522136 4.0769395e-2
vn 0.78826144 -0.46243710 0.40595053
vn 3.5119446e-14 0.90262825 0.43042100
vn -0.86602540 -0.49992003 -8.9422046e-3
vn -0.97977230 0.19054785 6.1137123e-2
vn 3.5119446e-14 0.90262825 0.43042100
vn -0.97977230 0.19054785 6.1137123e-2
vn 3.5119446e-14 0.90262825 0.43042100
vn 0.86602540 -0.49992003 -8.9422046e-3
vn 0.97977230 0.19054785 6.1137123e-2
vn 0.97977230 0.19054785 6.1137123e-2
vn 3.5119446e-14 0.90262825 0.43042100
vn 0.86602540 0.49991990 8.9495727e-3
vn -0.65577591 0.75159206 7.1185160e-2
vn -0.23021242 -0.15013289 0.96148966
vn -0.65577591 0.75159206 7.1185160e-2
vn 0.86602540 0.49991990 8.9495727e-3
vn 0.32387412 -0.94522136 4.0769395e-2
vn -0.23021242 -0.15013289 0.96148966
vn 0.32387412 -0.94522136 4.0769395e-2
vn 0.80498187 0.47127775 -0.36041847
vn 0.49989049 -0.86594997 -1.5496562e-2
vn 0.80498187 0.47127775 -0.36041847
vn 0.80498187 0.47127775 -0.36041847
vn 0.80498187 0.47127775 -0.36041847
vn -0.49989049 0.86594997 1.5496562e-2
vn -0.86602540 0.49991990 8.9495727e-3
vn -0.32387412 -0.94522136 4.0769395e-2
vn 0.23021242 -0.15013289 0.96148966
vn -0.32387412 -0.94522136 4.0769395e-2
vn -0.86602540 0.49991990 8.9495727e-3
vn 0.65577591 0.75159206 7.1185160e-2
vn 0.23021242 -0.15013289 0.96148966
vn 0.65577591 0.75159206 7.1185160e-2
vn -0.80498187 0.47127775 -0.36041847
vn 0.49989049 0.86594997 1.5496562e-2
vn -0.80498187 0.47127775 -0.36041847
vn -0.80498187 0.47127775 -0.36041847
vn -0.80498187 0.47127775 -0.36041847
vn -0.49989049 -0.86594997 -1.5496562e-2
vn -3.6119725e-14 -0.99983980 -1.7899145e-2
vn 0.97977230 0.19054785 6.1137123e-2
vn 8.4486808e-15 0.24845682 0.96864297
vn 0.97977230 0.19054785 6.1137123e-2
vn -3.6119725e-14 -0.99983980 -1.7899145e-2
vn -0.97977230 0.19054785 6.1137123e-2
vn 8.4486808e-15 0.24845682 0.96864297
vn -0.97977230 0.19054785 6.1137123e-2
vn -0.47373119 -0.81264045 -0.33940279
vn -0.47373119 -0.81264045 -0.33940279
vn -0.47373119 -0.81264045 -0.33940279
vn 0.47373119 -0.81264045 -0.33940279
vn 0.47373119 -0.81264045 -0.33940279
vn 0.47373119 -0.81264045 -0.33940279
vn -0.41620343 -0.88104364 0.22480393
vn -0.23021242 -0.15013289 0.96148966
vn -0.41620343 -0.88104364 0.22480393
vn -0.96748694 7.3692941e-2 0.24194706
vn -0.23021242 -0.15013289 0.96148966
vn -0.96748694 7.3692941e-2 0.24194706
vn -0.96748694 7.3692941e-2 0.24194706
vn -0.96748694 7.3692941e-2 0.24194706
vn -0.65292643 -0.36515780 -0.66358636
vn -0.41620343 -0.88104364 0.22480393
vn -0.65292643 -0.36515780 -0.66358636
vn -0.41620343 -0.88104364 0.22480393
vn 0.96748694 7.3692941e-2 0.24194706
vn 0.23021242 -0.15013289 0.96148966
vn 0.96748694 7.3692941e-2 0.24194706
vn 0.41620343 -0.88104364 0.22480393
vn 0.23021242 -0.15013289 0.96148966
vn 0.41620343 -0.88104364 0.22480393
vn 0.41620343 -0.88104364 0.22480393
vn 0.41620343 -0.88104364 0.22480393
vn 0.65292643 -0.36515780 -0.66358636
vn 0.96748694 7.3692941e-2 0.24194706
vn 0.65292643 -0.36515780 -0.66358636
vn 0.96748694 7.3692941e-2 0.24194706
vn -0.55130058 0.79441779 0.25488830
vn 8.4486808e-15 0.24845682 0.96864297
vn -0.55130058 0.79441779 0.25488830
vn 0.55130058 0.79441779 0.25488830
vn 8.4486808e-15 0.24845682 0.96864297
vn 0.55130058 0.79441779 0.25488830
vn 0.55130058 0.79441779 0.25488830
vn 0.55130058 0.79441779 0.25488830
vn 2.5808749e-14 0.76563824 -0.64327140
vn -0.55130058 0.79441779 0.25488830
vn 2.5808749e-14 0.76563824 -0.64327140
vn -0.55130058 0.79441779 0.25488830
g RearGun_default
usemtl default
s 1
f 1/46/1 16/29/6 21/28/61 7/45/19
f 2/54/2 1/46/1 7/45/20 8/53/24
f 2/54/2 8/53/23 5/56/11 3/55/3
f 3//3 4//4 17//7 18//8 15//5 16//6 1//1 2//2
f 3/55/3 5/56/12 6/58/16 4/57/4
f 4/57/4 6/58/15 22/60/65 17/59/7
f 11/9/39 27/10/84 26/4/79 10/3/34
f 15/63/5 19/64/60 21/66/64 16/65/6
f 17/59/7 22/60/68 24/62/72 18/61/8
f 18/61/8 24/62/69 19/64/57 15/63/5
f 31/98/105 44/90/149 43/85/146 32/93/109
f 35/96/119 48/89/161 47/87/158 36/95/123
f 39/97/133 52/88/173 51/86/170 40/94/137
s 2
f 25/67/76 46/75/155 45/80/153 26/72/82
f 26/111/78 27/109/83 28/107/88 29/108/93 30/110/98 25/112/73
f 27/69/86 50/77/167 49/79/165 28/71/92
f 29/68/96 54/76/179 53/78/177 30/70/102
s 3
f 5/103/13 10/100/32 9/104/27 6/105/17
f 6/105/18 9/104/28 14/99/53 23/102/10 22/106/66
f 7/74/21 12/81/42 11/92/38 8/82/26
f 8/82/25 11/92/37 10/100/33 5/103/14
f 9/1/29 25/6/74 30/12/99 14/7/54
f 10/124/35 34/118/115 33/113/113 9/119/31
f 12/81/43 7/74/22 21/73/62 20/83/9 13/91/47
f 12/122/45 38/116/129 37/115/127 11/120/41
f 13/91/48 20/83/9 19/84/58 24/101/70 23/102/10 14/99/52
f 13/2/49 29/5/94 28/11/89 12/8/44
f 13/40/50 41/48/140 40/51/136 29/43/95
f 14/123/55 42/117/143 41/114/141 13/121/51
f 20/83/9 21/73/63 19/84/59
f 24/101/71 22/106/67 23/102/10
f 30/22/100 39/16/132 42/15/144 14/21/56
f 30/22/101 53/30/176 52/25/174 39/16/134
f 32/93/107 33/113/111 34/118/114 31/98/103
f 36/95/121 37/115/125 38/116/128 35/96/117
f 40/94/135 41/114/139 42/117/142 39/97/131
f 40/51/138 51/37/171 54/34/180 29/43/97
f 52/88/172 53/78/175 54/76/178 51/86/169
s 4
f 9/42/30 33/49/112 32/50/108 25/44/75
f 11/39/40 37/47/126 36/52/122 27/41/85
f 26/23/80 31/17/104 34/14/116 10/20/36
f 26/23/81 45/31/152 44/26/150 31/17/106
f 28/24/90 35/18/118 38/13/130 12/19/46
f 28/24/91 49/32/164 48/27/162 35/18/120
f 32/50/110 43/36/147 46/35/156 25/44/77
f 36/52/124 47/38/159 50/33/168 27/41/87
f 44/90/148 45/80/151 46/75/154 43/85/145
f 48/89/160 49/79/163 50/77/166 47/87/157
