# Exported from Wings 3D 1.2
mtllib EMP-LFspike.mtl
o cylinder1_sep12
#10 vertices, 16 faces
v -1.76981378 0.25761176 -0.74815163
v -1.78198501 1.59529670 -0.70266933
v 0.49696434 0.10787108 -3.68735546
v 2.6796077e-4 7.1130227e-3 3.6323597e-4
v 1.8953480e-3 1.70462566 -5.6957057e-3
v 0.39191087 2.00060661 -3.69030774
v 8.48973401 0.51258664 -8.39714059
v 8.48794248 0.28829073 -8.39045091
v 8.02108320 0.30912195 -9.30526606
v 8.02263325 0.58659206 -9.31105306
vt 2.5049575e-2 0.46329993
vt 2.5632347e-2 0.70899961
vt 4.6251780e-2 0.45605449
vt 6.1997245e-2 0.72406110
vt 7.5489346e-2 0.65059158
vt 0.10359228 0.83599918
vt 0.10434376 0.88026819
vt 0.12227948 0.83601986
vt 0.12231847 0.88028808
vt 0.25587603 0.99360326
vt 0.25714517 0.73092000
vt 0.26363100 0.99393890
vt 0.29240230 0.99466002
vt 0.29818908 0.99708984
vt 0.31015581 0.73000601
vt 0.36094221 0.63929661
vt 0.39940773 0.67669983
vt 0.42406901 0.62905092
vt 0.44273962 0.69610172
vt 0.45831155 0.64418097
vn -0.12192615 -0.99158483 -4.3514827e-2
vn -0.39341807 -3.4816106e-2 0.91870020
vn -0.79145386 1.3575896e-2 -0.61107813
vn -0.37888209 -1.5576254e-2 0.92531386
vn -8.8421246e-2 0.99358837 7.0454518e-2
vn -0.79853394 -1.6016451e-2 -0.60173668
vn -0.37888209 -1.5576254e-2 0.92531386
vn -0.79853394 -1.6016451e-2 -0.60173668
vn -0.59733734 -3.4404111e-2 -0.80125181
vn -5.7558510e-2 -0.99772797 -3.5013039e-2
vn -5.7558510e-2 -0.99772797 -3.5013039e-2
vn -0.79853394 -1.6016451e-2 -0.60173668
vn -0.79853394 -1.6016451e-2 -0.60173668
vn 0.19434913 -4.0995980e-3 0.98092385
vn -3.6007481e-2 -0.99883454 -3.2140579e-2
vn 0.19434913 -4.0995980e-3 0.98092385
vn -3.6007481e-2 -0.99883454 -3.2140579e-2
vn 0.19434913 -4.0995980e-3 0.98092385
vn -3.6007481e-2 -0.99883454 -3.2140579e-2
vn 0.19434913 -4.0995980e-3 0.98092385
vn 0.20219419 3.3017221e-3 0.97933988
vn 7.5417293e-2 0.99328157 8.7772153e-2
vn 0.20219419 3.3017221e-3 0.97933988
vn 7.5417293e-2 0.99328157 8.7772153e-2
vn -0.59601740 -2.3925554e-2 -0.80261499
vn 0.10921900 0.99249139 5.5063990e-2
vn -0.59601740 -2.3925554e-2 -0.80261499
vn 0.10921900 0.99249139 5.5063990e-2
vn 0.10921900 0.99249139 5.5063990e-2
vn -0.80480501 -4.5592571e-2 -0.59178561
vn 0.89010657 -1.7579261e-2 -0.45541329
vn 0.70295593 8.7334341e-3 0.71117979
vn 0.20663776 0.97730998 4.6540689e-2
vn 0.89010657 -1.7579261e-2 -0.45541329
vn 0.70295593 8.7334341e-3 0.71117979
vn 0.20663776 0.97730998 4.6540689e-2
vn 0.70269030 1.5602814e-2 0.71132474
vn 7.0539407e-3 -0.99962757 -2.6362333e-2
vn 0.89033466 -2.0677040e-2 -0.45483695
vn 0.89010657 -1.7579261e-2 -0.45541329
vn 7.0539407e-3 -0.99962757 -2.6362333e-2
vn -0.59601740 -2.3925554e-2 -0.80261499
vn -0.59601740 -2.3925554e-2 -0.80261499
vn 0.89010657 -1.7579261e-2 -0.45541329
vn 7.0539407e-3 -0.99962757 -2.6362333e-2
vn 0.88986959 -1.4481306e-2 -0.45598509
vn -0.59462987 -1.3444283e-2 -0.80388716
vn 0.17519537 0.98448469 -9.8222625e-3
g cylinder1_sep12_AO-bake
usemtl AO-bake
s 1
f 2//8 3//13 1//3
f 6//30 3//12 2//6
f 8/9/39 9/8/44 7/7/34
f 10/6/46 7/7/31 9/8/40
s 2
f 1/20/2 4/19/20 2/18/7
f 4/19/16 7/13/35 5/17/21
f 5/17/23 2/18/4 4/19/18
f 6/15/27 9/10/43 3/11/9
f 7/13/32 4/19/14 8/14/37
f 9/10/42 6/15/25 10/12/47
s 3
f 2/16/5 5/17/24 6/15/29
f 3/5/11 4/2/19 1/4/1
f 3/5/10 9/3/45 4/2/17
f 5/17/22 7/13/36 6/15/28
f 8/1/38 4/2/15 9/3/41
f 10/12/48 6/15/26 7/13/33
