# Exported from Wings 3D 1.2
mtllib EMP-LWingTip.mtl
o cylinder1_sep14
#32 vertices, 58 faces
v 13.05340023 0.30577821 -3.62270939
v 13.05339562 6.5001659e-3 -3.61065022
v 13.03505236 0.31436743 -8.10841951
v 13.03504661 3.9738990e-3 -8.09649073
v -1.0534977e-3 1.1082972e-3 -13.18181841
v -1.0529142e-3 3.38555754 -13.17746698
v 7.8296888e-4 3.38111662 -2.04703926
v 1.1202020e-3 8.5299646e-3 -3.3028625e-3
v 1.1187246e-3 1.95789425 -1.1791418e-2
v 7.9197686e-4 7.4093048e-3 -1.99323739
v 7.8061202e-4 1.46465314 -2.06178884
v -1.0534610e-3 1.46908962 -13.18124301
v -6.8516434e-4 2.3658986e-3 -10.94871919
v -3.1587934e-4 3.6267492e-3 -8.70985055
v 5.3405663e-5 4.8875997e-3 -6.47098191
v 4.2269066e-4 6.1484502e-3 -4.23211327
v -6.9416395e-4 1.46822051 -11.00292893
v -3.2546996e-4 1.46732866 -8.76764391
v 4.3224035e-5 1.46643682 -6.53235889
v 4.1191803e-4 1.46554498 -4.29707387
v -1.71208550 6.1519448e-3 -4.22550505
v -1.72022554 4.8910939e-3 -6.46437241
v -1.72837228 3.6303083e-3 -8.70312393
v -1.73651232 2.3694575e-3 -10.94199128
v -1.70944606 0.56191373 -4.25485726
v -0.79554116 1.46555016 -4.29396633
v -1.71822933 0.56065367 -6.49230970
v -0.80513872 1.46859264 -6.52925104
v -1.72702894 0.55939370 -8.72962080
v -0.81473943 1.46733384 -8.76447883
v -1.73583131 0.55813367 -10.96702267
v -0.82433699 1.46607500 -10.99976112
vt 9.9928556e-2 0.59895036
vt 9.9934129e-2 0.64340040
vt 9.9953078e-2 0.64345262
vt 9.9953330e-2 0.64344754
vt 9.9986361e-2 0.64339512
vt 0.10001138 0.59888812
vt 0.10002910 0.59893550
vt 0.10005938 0.59888303
vt 0.12132799 0.64326839
vt 0.12134707 0.64332108
vt 0.12134719 0.64331594
vt 0.12138034 0.64326317
vt 0.14510752 0.61914879
vt 0.14516261 0.61913856
vt 0.14516779 0.61908801
vt 0.14517102 0.61908769
vt 0.14518342 0.59896823
vt 0.14526623 0.59890511
vt 0.14528370 0.59895322
vt 0.14531397 0.59889983
vt 0.17258276 0.83063766
vt 0.17258461 0.60194534
vt 0.18783166 0.88514216
vt 0.18783436 0.93245350
vt 0.18784130 0.93241720
vt 0.18785230 0.95311154
vt 0.18786583 0.88515016
vt 0.18791140 0.95307433
vt 0.18792767 0.99209506
vt 0.18794143 0.99205803
vt 0.18796564 0.90624518
vt 0.18802358 0.90625309
vt 0.20303738 0.87246681
vt 0.21361333 0.83034991
vt 0.21361360 0.78442256
vt 0.21361388 0.73849522
vt 0.21361421 0.69256787
vt 0.21361454 0.64664053
vt 0.21361487 0.60188373
vt 0.24455239 0.83029785
vt 0.24468675 0.64679377
vt 0.24471345 0.78429697
vt 0.24471386 0.69229526
vt 0.24482316 0.73874297
vt 0.24482397 0.87265589
vt 0.24482400 0.60188392
vt 0.24652353 0.88527466
vt 0.24655771 0.88522053
vt 0.24657759 0.93251000
vt 0.24658334 0.93253622
vt 0.24662901 0.95316795
vt 0.24665750 0.90637768
vt 0.24668811 0.95319334
vt 0.24670438 0.99215147
vt 0.24671546 0.90632347
vt 0.24671814 0.99217704
vt 0.32914283 0.94667468
vt 0.33894134 0.53866212
vt 0.35792307 0.96558484
vt 0.37354914 0.53844217
vt 0.39577380 0.99042501
vt 0.40824636 0.53822173
vt 0.41698509 0.32322810
vt 0.41720416 0.33604441
vt 0.44294358 0.53800128
vt 0.47764082 0.53778626
vt 0.48639396 0.32329075
vt 0.48675378 0.33558279
vt 0.50904597 0.66872555
vt 0.51233827 0.53757091
vt 0.51694256 0.67403944
vt 0.54317842 0.53755099
vt 0.62291177 0.67404636
vt 0.62857828 0.67161773
vt 0.65871638 0.99031114
vt 0.71680894 0.98209476
vt 0.75898333 0.96345773
vn -0.99999999 -3.9645067e-8 1.6494270e-4
vn 0.24684487 0.94972148 0.19260510
vn 0.79841311 2.4229603e-2 0.60162233
vn 0.24684487 0.94972148 0.19260510
vn 0.79841311 2.4229603e-2 0.60162233
vn 0.24684487 0.94972148 0.19260510
vn 0.79774103 1.3390935e-2 0.60285150
vn 0.79774103 1.3390935e-2 0.60285150
vn 0.79774103 1.3390935e-2 0.60285150
vn 1.3253486e-7 -0.99999984 5.6316403e-4
vn 0.79774103 1.3390935e-2 0.60285150
vn 1.3253486e-7 -0.99999984 5.6316403e-4
vn 1.3253486e-7 -0.99999984 5.6316403e-4
vn 1.3253486e-7 -0.99999984 5.6316403e-4
vn 0.82441543 -1.0568602e-2 -0.56588647
vn 0.82441543 -1.0568602e-2 -0.56588647
vn 0.82441543 -1.0568602e-2 -0.56588647
vn 0.82441543 -1.0568602e-2 -0.56588647
vn 0.22897146 0.97343270 9.2736379e-4
vn 0.82443291 -2.1749683e-2 -0.56554162
vn 0.82443291 -2.1749683e-2 -0.56554162
vn 1.3253486e-7 -0.99999984 5.6316403e-4
vn 1.3253486e-7 -0.99999984 5.6316403e-4
vn 1.3253486e-7 -0.99999984 5.6316403e-4
vn 1.3253486e-7 -0.99999984 5.6316403e-4
vn 0.36302977 -1.7297458e-2 -0.93161697
vn 0.36302977 -1.7297458e-2 -0.93161697
vn -0.99999999 -3.9645066e-8 1.6494270e-4
vn 1.3253486e-7 -0.99999984 5.6316403e-4
vn 0.36273853 1.1980815e-3 -0.93189019
vn 0.22917151 0.97338585 6.3894113e-4
vn -0.99999999 -3.9645066e-8 1.6494270e-4
vn 0.22917151 0.97338585 6.3894113e-4
vn -0.99999999 -3.9645066e-8 1.6494270e-4
vn -0.99999999 -3.9645066e-8 1.6494270e-4
vn -0.99999999 -3.9645066e-8 1.6494270e-4
vn 0.25250037 0.92314115 0.28992064
vn 0.25250037 0.92314115 0.28992064
vn -0.99999999 -3.9645066e-8 1.6494270e-4
vn -0.99999999 -3.9645066e-8 1.6494270e-4
vn -0.99999999 -3.9645066e-8 1.6494270e-4
vn -0.99999999 -3.9645066e-8 1.6494270e-4
vn 0.26638836 4.1973399e-3 0.96385664
vn 1.3253486e-7 -0.99999984 5.6316403e-4
vn -0.99999999 -3.9645067e-8 1.6494270e-4
vn -0.99999999 -3.9645067e-8 1.6494270e-4
vn 0.25368552 0.79271727 0.55429504
vn 0.26872910 2.1477391e-2 0.96297632
vn -0.99999999 -3.9645067e-8 1.6494270e-4
vn 0.26872910 2.1477391e-2 0.96297632
vn -0.99999999 -3.9645067e-8 1.6494270e-4
vn 1.3253486e-7 -0.99999984 5.6316403e-4
vn -0.99999999 -3.9645067e-8 1.6494270e-4
vn -0.99999999 -3.9645067e-8 1.6494270e-4
vn 1.3253486e-7 -0.99999984 5.6316403e-4
vn -0.99999999 -3.9645067e-8 1.6494270e-4
vn 0.36273853 1.1980815e-3 -0.93189019
vn -0.99999999 -3.9645066e-8 1.6494270e-4
vn -0.99999999 -3.9645066e-8 1.6494270e-4
vn -0.99999999 -3.9645066e-8 1.6494270e-4
vn -2.7920152e-3 -3.9073990e-2 -0.99923242
vn 1.3253486e-7 -0.99999984 5.6316403e-4
vn 1.3253486e-7 -0.99999984 5.6316403e-4
vn 1.3253486e-7 -0.99999984 5.6316403e-4
vn 1.3253486e-7 -0.99999984 5.6316403e-4
vn -2.7920152e-3 -3.9073990e-2 -0.99923242
vn -2.7920152e-3 -3.9073990e-2 -0.99923242
vn -0.99999999 -3.9645067e-8 1.6494270e-4
vn 2.8190356e-3 4.1581340e-2 0.99913115
vn 1.3253486e-7 -0.99999984 5.6316403e-4
vn 1.3253486e-7 -0.99999984 5.6316403e-4
vn 2.8190356e-3 4.1581340e-2 0.99913115
vn 2.8190356e-3 4.1581340e-2 0.99913115
vn 1.3253486e-7 -0.99999984 5.6316403e-4
vn -0.99999999 -3.9645067e-8 1.6494270e-4
vn -2.7899464e-3 -4.4078975e-2 -0.99902415
vn 1.3253486e-7 -0.99999984 5.6316403e-4
vn 1.3253486e-7 -0.99999984 5.6316403e-4
vn 1.3253486e-7 -0.99999984 5.6316403e-4
vn 1.3253486e-7 -0.99999984 5.6316403e-4
vn -0.99999999 -3.9645067e-8 1.6494270e-4
vn 1.3253486e-7 -0.99999984 5.6316403e-4
vn -2.7899464e-3 -4.4078975e-2 -0.99902415
vn -2.7899464e-3 -4.4078975e-2 -0.99902415
vn -0.99999999 -3.9645066e-8 1.6494270e-4
vn 2.7766463e-3 4.6616428e-2 0.99890900
vn 1.3253486e-7 -0.99999984 5.6316403e-4
vn 1.3253486e-7 -0.99999984 5.6316403e-4
vn 1.3253486e-7 -0.99999984 5.6316403e-4
vn 2.7766463e-3 4.6616428e-2 0.99890900
vn 2.7766463e-3 4.6616428e-2 0.99890900
vn -0.99999999 -3.9645067e-8 1.6494270e-4
vn -0.99999999 -3.9645067e-8 1.6494270e-4
vn -1.2995553e-3 0.99999915 -7.6493381e-5
vn -0.99999999 -3.9645067e-8 1.6494270e-4
vn -1.2995553e-3 0.99999915 -7.6493381e-5
vn -3.7471843e-3 -3.6956166e-2 -0.99930986
vn -0.99999999 -3.9645066e-8 1.6494270e-4
vn 3.8835283e-3 3.9453366e-2 0.99921387
vn -0.99999999 -3.9645066e-8 1.6494270e-4
vn -0.99999999 -3.9645066e-8 1.6494270e-4
vn 7.9005717e-6 0.99999992 3.9898245e-4
vn -0.99999999 -3.9645066e-8 1.6494270e-4
vn 1.3453437e-3 0.99999871 8.7428778e-4
vn -0.99999999 -3.9645066e-8 1.6494270e-4
vn -0.99999999 -3.9645066e-8 1.6494270e-4
vn -0.99999999 -3.9645066e-8 1.6494270e-4
vn -0.99999999 -3.9645066e-8 1.6494270e-4
vn 1.3453437e-3 0.99999871 8.7428778e-4
vn -3.9687139e-3 -4.1957184e-2 -0.99911153
vn -0.99999999 -3.9645066e-8 1.6494270e-4
vn 3.9005662e-3 4.4467619e-2 0.99900321
vn -0.99999999 -3.9645066e-8 1.6494270e-4
vn -0.99999999 -3.9645066e-8 1.6494270e-4
vn 8.0612224e-6 0.99999992 3.9898242e-4
vn -0.99999999 -3.9645066e-8 1.6494270e-4
vn -0.99998333 4.3653743e-3 3.7781544e-3
vn 1.3253486e-7 -0.99999984 5.6316403e-4
vn -0.99998333 4.3653743e-3 3.7781544e-3
vn 1.3253486e-7 -0.99999984 5.6316403e-4
vn 3.8535045e-3 5.2722225e-2 0.99860178
vn -3.8373379e-3 -5.0190873e-2 -0.99873227
vn 1.3253486e-7 -0.99999984 5.6316403e-4
vn -0.99998628 3.7744395e-3 3.6336090e-3
vn -0.99999085 1.9968242e-3 3.7838305e-3
vn 1.3253486e-7 -0.99999984 5.6316403e-4
vn -0.99999085 1.9968242e-3 3.7838305e-3
vn 3.8882473e-3 4.7612707e-2 0.99885830
vn 1.3253486e-7 -0.99999984 5.6316403e-4
vn -3.8720446e-3 -4.4988883e-2 -0.99897998
vn 1.3253486e-7 -0.99999984 5.6316403e-4
vn -0.99999243 1.3890621e-3 3.6349747e-3
vn -0.92181755 0.38760913 3.4003699e-3
vn -0.92181755 0.38760913 3.4003699e-3
vn 2.2146723e-3 4.7690745e-2 0.99885969
vn 2.2146723e-3 4.7690745e-2 0.99885969
vn 2.2381761e-3 4.3562851e-2 0.99904818
vn -0.38005724 0.92496038 2.1905831e-3
vn -0.38005724 0.92496038 2.1905831e-3
vn -0.38005724 0.92496038 2.1905831e-3
vn -0.38005724 0.92496038 2.1905831e-3
vn 2.2381761e-3 4.3562851e-2 0.99904818
vn -0.92219993 0.38669514 3.7634674e-3
vn -2.2005481e-3 -4.5139788e-2 -0.99897826
vn -0.92219993 0.38669514 3.7634674e-3
vn -0.92219993 0.38669514 3.7634674e-3
vn -0.92219993 0.38669514 3.7634674e-3
vn -2.2005481e-3 -4.5139788e-2 -0.99897826
vn -0.38008005 0.92494908 2.8908985e-3
vn -0.38008005 0.92494908 2.8908985e-3
vn -2.2662093e-3 -4.1022384e-2 -0.99915566
vn -2.2662093e-3 -4.1022384e-2 -0.99915566
vn -0.92290292 0.38501758 3.4140520e-3
vn 2.2867760e-3 4.2645253e-2 0.99908766
vn 2.2867760e-3 4.2645253e-2 0.99908766
vn -0.92290292 0.38501758 3.4140520e-3
vn 2.2843891e-3 3.8565065e-2 0.99925348
vn -0.38224971 0.92405814 1.3124679e-3
vn -0.38224971 0.92405814 1.3124679e-3
vn 2.2843891e-3 3.8565065e-2 0.99925348
vn -0.38224971 0.92405814 1.3124679e-3
vn -0.38224971 0.92405814 1.3124679e-3
vn -0.92306172 0.38463682 3.4027846e-3
vn -2.3144188e-3 -4.0132837e-2 -0.99919167
vn -0.92306172 0.38463682 3.4027846e-3
vn -0.92306172 0.38463682 3.4027846e-3
vn -0.92306172 0.38463682 3.4027846e-3
vn -2.3144188e-3 -4.0132837e-2 -0.99919167
vn -0.38295383 0.92376680 1.1240436e-3
vn -0.38295383 0.92376680 1.1240436e-3
vn -2.2519618e-3 -3.6116009e-2 -0.99934507
vn -2.2519618e-3 -3.6116009e-2 -0.99934507
g cylinder1_sep14_AO-bake
usemtl AO-bake
s 1
f 1/73/4 6/61/31 7/75/38
f 2/68/14 15/65/79 4/64/24
f 3/71/19 6/61/33 1/73/6
f 4/64/23 13/60/64 5/58/29
f 7/75/37 9/76/47 1/73/2
f 8/72/44 10/70/52 2/68/10
f 13/60/63 4/64/22 14/62/70
f 13/1/67 32/10/172 17/3/97
f 14/62/71 4/64/25 15/65/80
f 14/6/73 29/15/155 23/18/128
f 15/65/78 2/68/13 16/66/88
f 15/7/84 28/11/152 19/4/110
f 16/66/87 2/68/12 10/70/55
f 16/8/91 25/16/136 21/20/121
f 18/5/99 30/12/157 14/6/69
f 20/2/112 26/9/137 16/8/86
f 25/16/135 16/8/90 26/9/142
f 27/14/144 15/7/76 22/19/122
f 28/11/151 15/7/83 27/14/148
f 29/15/154 14/6/72 30/12/160
f 31/13/164 13/1/61 24/17/130
f 32/10/171 13/1/66 31/13/168
s 2
f 1/73/5 9/76/50 2/74/11
f 2/68/8 3/63/18 1/67/3
f 2/74/9 9/76/48 8/77/43
f 3/71/16 5/57/26 12/59/57 6/61/30
f 4/64/20 3/63/15 2/68/7
f 4/69/21 5/57/27 3/71/17
f 16/29/89 21/26/120 15/54/82
f 17/47/96 30/31/162 18/23/102
f 22/51/123 15/54/77 21/26/118
f 24/53/132 23/28/127 31/50/166
f 29/25/156 30/31/161 31/50/167
f 29/25/153 31/50/163 23/28/125
f 31/50/165 30/31/159 32/52/170
f 32/52/169 30/31/158 17/47/94
s 3
f 14/30/74 23/28/129 13/56/65
f 19/48/109 26/32/140 20/27/115
f 22/51/124 21/26/119 27/49/147
f 24/53/131 13/56/62 23/28/126
f 25/24/134 26/32/141 27/49/146
f 25/24/133 27/49/143 21/26/117
f 28/55/149 26/32/138 19/48/104
f 28/55/150 27/49/145 26/32/139
s 4
f 5/46/28 13/41/60 17/38/92 12/39/58
f 6/22/35 19/36/107 7/21/41
f 7/21/39 11/34/1 9/33/49
f 7/21/42 20/35/114 11/34/1
f 8/45/45 11/34/1 10/40/54
f 9/33/51 11/34/1 8/45/46
f 10/40/53 20/35/111 16/42/85
f 11/34/1 20/35/116 10/40/56
f 12/39/59 17/38/93 6/22/32
f 15/44/81 19/36/108 14/43/75
f 18/37/101 6/22/36 17/38/95
f 18/37/98 14/43/68 19/36/103
f 19/36/106 6/22/34 18/37/100
f 20/35/113 7/21/40 19/36/105
