# Exported from Wings 3D 1.2
mtllib EMP-LBspike.mtl
o cylinder1_sep13
#10 vertices, 16 faces
v -1.47148773 0.15845321 0.59417138
v -1.47148773 1.46315155 0.59417138
v 3.76613794 2.3637687e-2 -7.57079544
v 3.76613794 0.41355958 -7.57079544
v 4.07026162 1.7334695e-2 -7.10630128
v 4.07026162 0.30048885 -7.10630128
v -1.85353787 6.0401708e-3 -2.44930884
v -1.85353787 2.05826068 -2.44930884
v -9.3263213e-4 -2.7133470e-2 -4.6027214e-3
v -9.3263213e-4 1.46315155 -4.6027214e-3
vt 0.17196710 1.9815426e-2
vt 0.17347193 3.5538431e-2
vt 0.17648490 4.0920094e-2
vt 0.18142078 3.4635638e-2
vt 0.18297473 7.6195740e-3
vt 0.18298529 1.8638681e-2
vt 0.35699329 0.18525736
vt 0.38313246 0.15210111
vt 0.39573367 0.20950438
vt 0.39798797 6.4965025e-2
vt 0.39802727 6.9036152e-3
vt 0.41890853 0.18026029
vt 0.42790050 0.14820338
vt 0.92979078 0.50724272
vt 0.93143708 0.34514833
vt 0.94307940 0.34669726
vt 0.98379922 0.54248860
vt 0.99453255 0.51066334
vn -9.9965064e-2 -0.99303996 6.2278672e-2
vn 0.37711272 0.0000000e+0 0.92616737
vn 0.37711272 0.0000000e+0 0.92616737
vn -0.99221294 0.0000000e+0 0.12455316
vn 7.4262578e-2 0.98041874 0.18238466
vn -0.99221294 0.0000000e+0 0.12455316
vn 0.37711272 0.0000000e+0 0.92616737
vn -0.99221294 0.0000000e+0 0.12455316
vn 0.83662629 0.0000000e+0 -0.54777408
vn -0.67358611 0.0000000e+0 -0.73910875
vn -5.7835721e-3 -0.99993543 -9.7819606e-3
vn 0.83662629 0.0000000e+0 -0.54777408
vn 0.83662629 0.0000000e+0 -0.54777408
vn -0.67358611 0.0000000e+0 -0.73910875
vn 0.30289511 0.95284186 1.8626553e-2
vn -0.67358611 0.0000000e+0 -0.73910875
vn 0.30289511 0.95284186 1.8626553e-2
vn 0.83662629 0.0000000e+0 -0.54777408
vn 0.83662629 0.0000000e+0 -0.54777408
vn 0.86755395 0.0000000e+0 0.49734308
vn -5.6367607e-3 -0.99993808 -9.5952197e-3
vn -5.6367607e-3 -0.99993808 -9.5952197e-3
vn 0.86755395 0.0000000e+0 0.49734308
vn 0.83662629 0.0000000e+0 -0.54777408
vn 0.86755395 0.0000000e+0 0.49734308
vn 0.31460301 0.94889398 2.5003361e-2
vn -0.93818953 0.0000000e+0 -0.34612195
vn -3.7137804e-2 -0.99920661 1.4385317e-2
vn -3.7137804e-2 -0.99920661 1.4385317e-2
vn -0.93818953 0.0000000e+0 -0.34612195
vn -0.93818953 0.0000000e+0 -0.34612195
vn -3.7137804e-2 -0.99920661 1.4385317e-2
vn -0.93818953 0.0000000e+0 -0.34612195
vn -0.93818953 0.0000000e+0 -0.34612195
vn 0.18446917 0.97791415 9.8260111e-2
vn 0.18446917 0.97791415 9.8260111e-2
vn -0.93818953 0.0000000e+0 -0.34612195
vn 0.65823351 0.0000000e+0 0.75281382
vn -5.2820766e-2 -0.99825281 2.6481853e-2
vn -5.2820766e-2 -0.99825281 2.6481853e-2
vn 0.65823351 0.0000000e+0 0.75281382
vn 0.22871774 0.97068571 7.3874494e-2
vn 0.65823351 0.0000000e+0 0.75281382
vn 0.65823351 0.0000000e+0 0.75281382
vn 0.22871774 0.97068571 7.3874494e-2
vn 0.65823351 0.0000000e+0 0.75281382
vn 0.65823351 0.0000000e+0 0.75281382
vn 0.22871774 0.97068571 7.3874494e-2
g cylinder1_sep13_AO-bake
usemtl AO-bake
s 1
f 2/13/5 10/8/45 8/10/36
f 4/6/17 10/8/48 6/4/26
f 5/16/22 7/14/32 3/15/11
f 7/14/28 5/16/21 9/18/39
f 7/14/29 9/18/40 1/17/1
f 10/8/42 4/6/15 8/10/35
s 2
f 1/9/3 10/8/47 2/12/7
f 6/4/25 10/8/46 5/3/23
f 9/7/38 5/3/20 10/8/43
f 10/8/44 1/9/2 9/7/41
s 3
f 1//4 2//8 7//33
f 3/5/10 7/11/31 4/6/16
f 8/10/34 4/6/14 7/11/27
f 8//37 7//30 2//6
s 4
f 4/6/13 5/2/19 3/1/9
f 6/4/24 5/2/18 4/6/12
