<?xml version="1.0" encoding="UTF-8" standalone="no"?>
<!-- Created with Inkscape (http://www.inkscape.org/) -->
<svg
   xmlns:dc="http://purl.org/dc/elements/1.1/"
   xmlns:cc="http://creativecommons.org/ns#"
   xmlns:rdf="http://www.w3.org/1999/02/22-rdf-syntax-ns#"
   xmlns:svg="http://www.w3.org/2000/svg"
   xmlns="http://www.w3.org/2000/svg"
   xmlns:sodipodi="http://sodipodi.sourceforge.net/DTD/sodipodi-0.dtd"
   xmlns:inkscape="http://www.inkscape.org/namespaces/inkscape"
   width="128"
   height="128"
   id="svg3082"
   sodipodi:version="0.32"
   inkscape:version="0.46"
   version="1.0"
   sodipodi:docname="CopperCupX.svg"
   inkscape:output_extension="org.inkscape.output.svg.inkscape">
  <defs
     id="defs3084">
    <inkscape:perspective
       sodipodi:type="inkscape:persp3d"
       inkscape:vp_x="0 : 526.18109 : 1"
       inkscape:vp_y="0 : 1000 : 0"
       inkscape:vp_z="744.09448 : 526.18109 : 1"
       inkscape:persp3d-origin="372.04724 : 350.78739 : 1"
       id="perspective3090" />
    <inkscape:perspective
       id="perspective3099"
       inkscape:persp3d-origin="372.04724 : 350.78739 : 1"
       inkscape:vp_z="744.09448 : 526.18109 : 1"
       inkscape:vp_y="0 : 1000 : 0"
       inkscape:vp_x="0 : 526.18109 : 1"
       sodipodi:type="inkscape:persp3d" />
  </defs>
  <sodipodi:namedview
     id="base"
     pagecolor="#ffffff"
     bordercolor="#666666"
     borderopacity="1.0"
     gridtolerance="10000"
     guidetolerance="10"
     objecttolerance="10"
     inkscape:pageopacity="0.0"
     inkscape:pageshadow="2"
     inkscape:zoom="3.2260381"
     inkscape:cx="17.54824"
     inkscape:cy="64.476449"
     inkscape:document-units="px"
     inkscape:current-layer="layer6"
     showgrid="false"
     inkscape:window-width="1065"
     inkscape:window-height="667"
     inkscape:window-x="1456"
     inkscape:window-y="200" />
  <metadata
     id="metadata3087">
    <rdf:RDF>
      <cc:Work
         rdf:about="">
        <dc:format>image/svg+xml</dc:format>
        <dc:type
           rdf:resource="http://purl.org/dc/dcmitype/StillImage" />
      </cc:Work>
    </rdf:RDF>
  </metadata>
  <g
     inkscape:label="Layer 1"
     inkscape:groupmode="layer"
     id="layer1"
     style="opacity:1" />
  <g
     inkscape:groupmode="layer"
     id="layer6"
     style="opacity:1">
    <path
       style="fill:#c87137;fill-rule:evenodd;stroke:#784421;stroke-width:1px;stroke-linecap:butt;stroke-linejoin:miter;stroke-opacity:1"
       d="M 41.846995,112.81109 L 85.243878,112.81109 L 89.583566,109.09136 L 88.343655,103.82174 L 81.524145,101.34191 L 79.354301,97.002226 L 72.534791,92.972516 L 73.464724,90.182716 L 85.863833,88.632827 L 90.5135,81.193362 L 96.403077,78.71354 L 99.192876,72.823963 L 110.0421,72.823963 L 113.14187,68.484274 L 112.8319,58.564987 L 121.2013,54.845254 L 120.89132,41.206233 L 117.48156,38.416434 L 106.32236,38.726411 L 101.6727,30.357013 L 91.75341,31.906901 L 88.343655,29.427079 L 91.75341,24.777413 L 97.642987,19.817769 L 95.783121,15.788059 L 92.063388,14.858126 L 36.577373,14.858126 L 32.85764,15.788059 L 30.377818,20.127747 L 35.957418,24.467435 L 39.367173,29.117102 L 36.577373,31.906901 L 26.03813,30.357013 L 22.318397,38.106456 L 9.9192876,38.106456 L 6.8195102,41.516211 L 7.129488,54.535276 L 15.808865,59.184942 L 15.498887,68.794252 L 15.188909,69.724185 L 19.528597,73.753896 L 29.757863,73.13394 L 31.617729,78.403562 L 38.43724,81.503339 L 42.46695,88.632827 L 54.556082,90.182716 L 55.486015,93.282493 L 48.666505,96.692248 L 46.496661,101.34191 L 39.67715,104.13171 L 38.43724,109.09136 L 37.817284,110.64125 L 41.846995,112.81109 z"
       id="path3106" />
    <path
       style="fill:#ffffff;fill-rule:evenodd;stroke:#552200;stroke-width:1px;stroke-linecap:butt;stroke-linejoin:miter;stroke-opacity:1"
       d="M 34.407529,41.516211 L 30.067841,47.405788 L 24.798219,50.815543 L 25.728152,62.594697 L 32.237685,63.834608 L 39.367173,60.734831 L 38.747217,51.125521 L 40.297106,43.996033 L 37.507306,41.206233 L 34.407529,41.516211 z"
       id="path3108" />
    <path
       style="opacity:1;fill:#ffffff;fill-rule:evenodd;stroke:#552200;stroke-width:1px;stroke-linecap:butt;stroke-linejoin:miter;stroke-opacity:1"
       d="M 93.61328,41.361222 L 97.952968,47.250799 L 103.22259,50.660554 L 102.29266,62.439708 L 95.783124,63.679619 L 88.65364,60.579842 L 89.27359,50.970532 L 87.7237,43.841044 L 90.5135,41.051244 L 93.61328,41.361222 z"
       id="path3110" />
    <path
       style="fill:#aa4400;fill-rule:evenodd;stroke:#552200;stroke-width:1px;stroke-linecap:butt;stroke-linejoin:miter;stroke-opacity:1"
       d="M 36.267395,24.467435 L 91.75341,24.467435 L 88.033678,28.807124 L 39.367173,28.807124 L 36.267395,24.467435 z"
       id="path3112" />
    <path
       style="fill:#aa4400;fill-rule:evenodd;stroke:#552200;stroke-width:1px;stroke-linecap:butt;stroke-linejoin:miter;stroke-opacity:1"
       d="M 29.447885,72.823963 L 98.882898,72.823963 L 96.713054,78.403562 L 31.617729,78.403562 L 29.447885,72.823963 z"
       id="path3114" />
  </g>
</svg>
