<?xml version="1.0" encoding="UTF-8" standalone="no"?>
<!-- Created with Inkscape (http://www.inkscape.org/) -->

<svg
   xmlns:dc="http://purl.org/dc/elements/1.1/"
   xmlns:cc="http://creativecommons.org/ns#"
   xmlns:rdf="http://www.w3.org/1999/02/22-rdf-syntax-ns#"
   xmlns:svg="http://www.w3.org/2000/svg"
   xmlns="http://www.w3.org/2000/svg"
   xmlns:xlink="http://www.w3.org/1999/xlink"
   xmlns:sodipodi="http://sodipodi.sourceforge.net/DTD/sodipodi-0.dtd"
   xmlns:inkscape="http://www.inkscape.org/namespaces/inkscape"
   inkscape:version="0.48.0 r9654"
   version="1.1"
   id="svg2"
   height="64"
   width="64"
   sodipodi:docname="clusterbomb.svg"
   inkscape:export-filename="/home/awrapp/Documents/newstuff2/clusterbomb.png"
   inkscape:export-xdpi="90"
   inkscape:export-ydpi="90">
  <sodipodi:namedview
     id="base"
     pagecolor="#ffffff"
     bordercolor="#666666"
     borderopacity="1.0"
     inkscape:pageopacity="0.0"
     inkscape:pageshadow="2"
     inkscape:zoom="3.6203867"
     inkscape:cx="32.878789"
     inkscape:cy="13.859425"
     inkscape:document-units="px"
     inkscape:current-layer="layer3"
     showgrid="true"
     inkscape:snap-to-guides="false"
     inkscape:snap-grids="false"
     inkscape:window-width="788"
     inkscape:window-height="850"
     inkscape:window-x="0"
     inkscape:window-y="0"
     inkscape:window-maximized="0"
     showguides="true"
     inkscape:guide-bbox="true">
    <inkscape:grid
       type="xygrid"
       id="grid2985"
       empspacing="5"
       dotted="true"
       visible="true"
       enabled="true"
       snapvisiblegridlinesonly="true" />
  </sodipodi:namedview>
  <defs
     id="defs4">
    <linearGradient
       id="linearGradient4005">
      <stop
         id="stop4007"
         offset="0"
         style="stop-color:#ff5f04;stop-opacity:1;" />
      <stop
         id="stop4009"
         offset="1"
         style="stop-color:#ffd50d;stop-opacity:1;" />
    </linearGradient>
    <linearGradient
       id="linearGradient3997">
      <stop
         id="stop3999"
         offset="0"
         style="stop-color:#d3d3d3;stop-opacity:1;" />
      <stop
         id="stop4001"
         offset="1"
         style="stop-color:#ffffff;stop-opacity:1;" />
    </linearGradient>
    <linearGradient
       inkscape:collect="always"
       xlink:href="#linearGradient3997"
       id="linearGradient3969"
       x1="0.30333716"
       y1="63.968719"
       x2="0.091869958"
       y2="-0.38904682"
       gradientUnits="userSpaceOnUse" />
    <linearGradient
       inkscape:collect="always"
       xlink:href="#linearGradient4005"
       id="linearGradient3977"
       x1="0.067536414"
       y1="64.09269"
       x2="0.033374842"
       y2="-0.54129195"
       gradientUnits="userSpaceOnUse" />
  </defs>
  <metadata
     id="metadata7">
    <rdf:RDF>
      <cc:Work
         rdf:about="">
        <dc:format>image/svg+xml</dc:format>
        <dc:type
           rdf:resource="http://purl.org/dc/dcmitype/StillImage" />
        <dc:title></dc:title>
      </cc:Work>
    </rdf:RDF>
  </metadata>
  <g
     style="display:inline"
     inkscape:label="Layer 0"
     inkscape:groupmode="layer"
     id="layer1"
     transform="translate(0,-988.36218)" />
  <g
     style="display:inline"
     inkscape:label="Layer 1"
     id="layer3"
     inkscape:groupmode="layer">
    <path
       style="fill:url(#linearGradient3977);fill-opacity:1;fill-rule:evenodd;stroke:none"
       d="m 58.0625,0.90625 -3.65625,2.25 -0.46875,-2.0625 -2.90625,2.09375 -2.71875,-1.03125 -4.90625,3.9375 -5.5,0.3125 -2.625,4.1875 -8.8125,2.34375 -3.8125,3.75 L 20.25,14.875 18.96875,20.28125 18.8125,20.4375 12.28125,18.59375 12.5625,23.375 6.5,24.1875 7.1875,29.84375 0.90625,32.5 4.84375,37.15625 0.34375,40.5 6.5,44.25 l -2.96875,4.90625 5.15625,0.375 -0.59375,6.5625 5.625,-0.15625 1.03125,5.5625 4.59375,-2.875 5.21875,4.96875 3.5,-4.46875 3.59375,4.625 2.53125,-5.71875 6.65625,1.84375 0.53125,-6.65625 5.15625,0.125 -2.71875,-5.65625 6.875,-1.90625 -4.40625,-4.46875 2.4375,-2.75 2.9375,-0.71875 2.75,-11.21875 5.125,-3.96875 L 58.625,17.21875 63.1875,13.4375 60.96875,11.375 63.5625,7.3125 61.09375,7.1875 63.3125,4.0625 60,4.3125 61.15625,2.25 57.625,3.25 58.0625,0.90625 z"
       id="path3070"
       inkscape:connector-curvature="0" />
  </g>
  <g
     style="display:inline"
     inkscape:groupmode="layer"
     id="layer2"
     inkscape:label="Layer 2"
     sodipodi:insensitive="true">
    <path
       style="fill:url(#linearGradient3969);fill-opacity:1;fill-rule:evenodd;stroke:none"
       d="m 56.46875,2.8125 -27.75,14.75 4.75,1.96875 0.40625,5.125 L 56.46875,2.8125 z m 5.21875,4.84375 -21.65625,22.78125 5.15625,0.34375 2,4.78125 14.5,-27.90625 z m -35.0625,11.25 -1.25,1.875 L 23.53125,19 23.125,21.25 l -2.5,-0.21875 0.875,2.03125 -2,0.78125 1.4375,1.90625 -1.3125,1.8125 1.84375,0.15625 0.0625,2.25 1.96875,-0.5 0.9375,1.96875 1.21875,-1.875 1.875,1.75 0.40625,-2.25 2.5625,0.375 -0.96875,-2.1875 2.09375,-0.6875 -1.5625,-1.5 1.4375,-1.96875 -1.9375,-0.4375 -0.03125,-2.3125 -1.96875,0.59375 -0.9375,-2.03125 z m 16.03125,2.90625 -25.125,18.90625 5,1.1875 1.21875,5.03125 18.90625,-25.125 z m -29.75,5.875 L 12,29.71875 9.875,28.25 l -0.03125,2.28125 -2.53125,0.1875 1.21875,1.875 -1.875,1.0625 1.71875,1.6875 -1,1.96875 1.84375,-0.125 0.40625,2.21875 1.84375,-0.8125 1.25,1.8125 0.9375,-2.0625 2.09375,1.4375 0.0625,-2.28125 2.5625,-0.03125 -1.25,-2.03125 1.9375,-1 -1.78125,-1.21875 1.09375,-2.1875 -1.96875,-0.125 L 16,28.625 l -1.84375,0.90625 -1.25,-1.84375 z m 25.5625,4.71875 -0.5625,2.15625 -2.3125,-1.09375 0.3125,2.28125 -2.4375,0.5625 1.5,1.65625 -1.65625,1.375 1.9375,1.34375 -0.65625,2.125 1.8125,-0.40625 0.78125,2.125 1.6875,-1.125 1.53125,1.59375 0.5625,-2.1875 2.3125,1.0625 -0.34375,-2.28125 2.5625,-0.4375 -1.59375,-1.78125 1.75,-1.3125 -1.96875,-0.9375 0.75,-2.3125 L 42.46875,35 41.6875,32.8125 40,34.03125 l -1.53125,-1.625 z m -22.78125,10 -0.9375,2.03125 -2.125,-1.46875 -0.03125,2.28125 -2.5,0.1875 1.1875,1.875 -1.875,1.0625 1.71875,1.65625 -1,2 1.84375,-0.125 0.40625,2.21875 1.875,-0.8125 1.21875,1.8125 0.9375,-2.0625 2.125,1.40625 0.03125,-2.28125 2.59375,-0.03125 -1.28125,-2 1.9375,-1 -1.78125,-1.25 1.09375,-2.15625 -1.9375,-0.15625 -0.40625,-2.25 -1.875,0.90625 -1.21875,-1.84375 z m 14.25,3.34375 -0.53125,2.1875 -2.34375,-1.0625 0.375,2.25 -2.4375,0.65625 1.53125,1.625 -1.625,1.40625 2,1.3125 -0.625,2.125 1.8125,-0.46875 0.8125,2.09375 1.65625,-1.125 1.5625,1.53125 0.53125,-2.1875 2.34375,1 -0.40625,-2.25 L 37.125,54.3125 35.5,52.59375 37.21875,51.25 35.25,50.34375 35.9375,48.03125 33.96875,48.25 33.15625,46.09375 31.5,47.34375 29.9375,45.75 z"
       id="path3000"
       inkscape:connector-curvature="0" />
  </g>
</svg>
