<?xml version="1.0" encoding="UTF-8" standalone="no"?>
<!-- Created with Inkscape (http://www.inkscape.org/) -->

<svg
   xmlns:dc="http://purl.org/dc/elements/1.1/"
   xmlns:cc="http://creativecommons.org/ns#"
   xmlns:rdf="http://www.w3.org/1999/02/22-rdf-syntax-ns#"
   xmlns:svg="http://www.w3.org/2000/svg"
   xmlns="http://www.w3.org/2000/svg"
   xmlns:xlink="http://www.w3.org/1999/xlink"
   xmlns:sodipodi="http://sodipodi.sourceforge.net/DTD/sodipodi-0.dtd"
   xmlns:inkscape="http://www.inkscape.org/namespaces/inkscape"
   width="32"
   height="32"
   id="svg2"
   version="1.1"
   inkscape:version="0.48.0 r9654"
   sodipodi:docname="rocket.svg"
   inkscape:export-filename="/home/awrapp/Documents/new stuff/rocket.png"
   inkscape:export-xdpi="180"
   inkscape:export-ydpi="180">
  <defs
     id="defs4">
    <linearGradient
       id="linearGradient4011">
      <stop
         style="stop-color:#ff3e3e;stop-opacity:1;"
         offset="0"
         id="stop4013" />
      <stop
         style="stop-color:#cf0000;stop-opacity:1;"
         offset="1"
         id="stop4015" />
    </linearGradient>
    <linearGradient
       id="linearGradient3847">
      <stop
         style="stop-color:#ffffff;stop-opacity:1;"
         offset="0"
         id="stop3849" />
      <stop
         style="stop-color:#d5d5d5;stop-opacity:1;"
         offset="1"
         id="stop3851" />
    </linearGradient>
    <linearGradient
       id="linearGradient3833">
      <stop
         style="stop-color:#00cabe;stop-opacity:1;"
         offset="0"
         id="stop3835" />
      <stop
         style="stop-color:#77fff7;stop-opacity:1;"
         offset="1"
         id="stop3837" />
    </linearGradient>
    <linearGradient
       inkscape:collect="always"
       xlink:href="#linearGradient3833"
       id="linearGradient3839"
       x1="17.196539"
       y1="15.95355"
       x2="27.383678"
       y2="15.95355"
       gradientUnits="userSpaceOnUse" />
    <linearGradient
       inkscape:collect="always"
       xlink:href="#linearGradient3833"
       id="linearGradient3841"
       x1="4.4563073"
       y1="15.894665"
       x2="14.643446"
       y2="15.894665"
       gradientUnits="userSpaceOnUse" />
    <linearGradient
       inkscape:collect="always"
       xlink:href="#linearGradient3833"
       id="linearGradient3844"
       gradientUnits="userSpaceOnUse"
       x1="0.17059311"
       y1="32.055378"
       x2="0.089874499"
       y2="0.180379" />
    <linearGradient
       inkscape:collect="always"
       xlink:href="#linearGradient3847"
       id="linearGradient3859"
       x1="0.15624999"
       y1="0.48883924"
       x2="0.058035642"
       y2="31.560268"
       gradientUnits="userSpaceOnUse" />
    <linearGradient
       inkscape:collect="always"
       xlink:href="#linearGradient3847"
       id="linearGradient3003"
       gradientUnits="userSpaceOnUse"
       x1="0.15624999"
       y1="0.48883924"
       x2="0.058035642"
       y2="31.560268" />
    <linearGradient
       inkscape:collect="always"
       xlink:href="#linearGradient3847"
       id="linearGradient3005"
       gradientUnits="userSpaceOnUse"
       x1="0.15624999"
       y1="0.48883924"
       x2="0.058035642"
       y2="31.560268" />
    <linearGradient
       inkscape:collect="always"
       xlink:href="#linearGradient3847"
       id="linearGradient4334"
       x1="0.13336332"
       y1="0.19611481"
       x2="-0.096969061"
       y2="32.071114"
       gradientUnits="userSpaceOnUse" />
    <linearGradient
       inkscape:collect="always"
       xlink:href="#linearGradient4011"
       id="linearGradient4342"
       x1="0.093162484"
       y1="1020.2015"
       x2="0.031836919"
       y2="1052.4336"
       gradientUnits="userSpaceOnUse" />
  </defs>
  <sodipodi:namedview
     id="base"
     pagecolor="#ffffff"
     bordercolor="#666666"
     borderopacity="1.0"
     inkscape:pageopacity="0.0"
     inkscape:pageshadow="2"
     inkscape:zoom="11.2"
     inkscape:cx="15.967553"
     inkscape:cy="10.578382"
     inkscape:document-units="px"
     inkscape:current-layer="layer1"
     showgrid="true"
     inkscape:snap-grids="false"
     inkscape:snap-to-guides="false"
     inkscape:window-width="1440"
     inkscape:window-height="853"
     inkscape:window-x="0"
     inkscape:window-y="-3"
     inkscape:window-maximized="1">
    <inkscape:grid
       type="xygrid"
       id="grid3040"
       empspacing="5"
       dotted="true"
       visible="true"
       enabled="true"
       snapvisiblegridlinesonly="true" />
  </sodipodi:namedview>
  <metadata
     id="metadata7">
    <rdf:RDF>
      <cc:Work
         rdf:about="">
        <dc:format>image/svg+xml</dc:format>
        <dc:type
           rdf:resource="http://purl.org/dc/dcmitype/StillImage" />
        <dc:title></dc:title>
      </cc:Work>
    </rdf:RDF>
  </metadata>
  <g
     inkscape:label="Layer 1"
     inkscape:groupmode="layer"
     id="layer1"
     transform="translate(0,-1020.3622)">
    <path
       style="fill:url(#linearGradient4342);fill-opacity:1;fill-rule:evenodd;stroke:none;display:inline"
       d="m 2.8108845,1031.9524 c -1.3105009,1.3106 -1.3651159,3.4166 -0.6629715,5.6453 0.6404957,2.033 2.0022462,4.2564 3.8371989,6.3686 -0.6911396,0.2182 -1.3956882,0.5921 -2.0290947,1.2254 -0.6531399,0.6532 -1.1025619,1.4061 -1.3259431,2.1295 -0.2233812,0.7237 -0.2326762,1.5354 0.3214408,2.0894 0.5541169,0.5542 1.3658141,0.5449 2.0893648,0.3216 0.7235508,-0.2235 1.4764051,-0.6728 2.1295449,-1.326 0.6334065,-0.6334 1.0073134,-1.3379 1.2254929,-2.0291 2.1121255,1.8348 4.3355515,3.1966 6.3685445,3.8371 2.228674,0.7023 4.334803,0.6476 5.645304,-0.663 0.822726,-0.8226 1.044237,-2.0266 1.004502,-3.2945 1.267262,0.039 2.472041,-0.1818 3.294768,-1.0047 0.859876,-0.8598 1.079731,-2.1135 1.004502,-3.4554 1.35199,0.073 2.615666,-0.1646 3.475578,-1.0245 1.3105,-1.3106 1.365116,-3.4167 0.662971,-5.6454 -0.649753,-2.0623 -2.020319,-4.3298 -3.897469,-6.469 l 2.712157,-2.7122 c 0.610196,-0.6101 0.610196,-1.64 0,-2.2499 -0.610196,-0.6104 -1.63989,-0.6104 -2.250086,0 l -2.712156,2.7121 c -2.139273,-1.8772 -4.406616,-3.2478 -6.468995,-3.8975 -2.228673,-0.7022 -4.334803,-0.6476 -5.645303,0.663 -0.859911,0.8598 -1.097546,2.1236 -1.024592,3.4755 -1.3418923,-0.075 -2.5956114,0.1446 -3.4554885,1.0045 -0.8227269,0.8227 -1.0437521,2.0275 -1.0045024,3.2948 -1.2681233,-0.04 -2.472042,0.1817 -3.2947676,1.0045 z m 2.4710758,2.4711 c 0.3208518,-0.3209 0.8109167,-0.4652 1.4263932,-0.5023 0.7034593,1.8931 1.9406917,3.9131 3.6362985,5.8462 l -2.6117061,2.6118 c -1.3289941,-1.5798 -2.3037882,-3.2188 -2.7322463,-4.6208 -0.4800636,-1.5707 -0.3283275,-2.7253 0.2812607,-3.3349 z m 4.29927,-4.2994 c 0.3568159,-0.3567 0.9179117,-0.5231 1.6473837,-0.5223 0.684304,1.7584 1.845728,3.5985 3.375128,5.3842 -1.840095,-1.5684 -3.74629,-2.7429 -5.544853,-3.4153 0.034267,-0.627 0.1986163,-1.1227 0.5223413,-1.4466 z m 4.4800807,-4.4799 c 0.609594,-0.6096 1.76414,-0.7614 3.334948,-0.2814 1.40195,0.4285 3.040938,1.4034 4.62071,2.7323 l -2.812606,2.8126 c -1.873998,-1.6526 -3.812132,-2.895 -5.665394,-3.6162 -8.54e-4,-0.7294 0.165526,-1.2906 0.522342,-1.6473 z m -4.1385505,9.1208 c 1.0691165,0.5046 2.1578615,1.2088 3.2746785,2.1497 l -1.125042,1.125 c -0.942316,-1.118 -1.645938,-2.2065 -2.1496365,-3.2747 z m 4.6207115,-4.1385 c 0.974484,0.4909 1.971245,1.1262 2.973327,1.9689 l -0.984412,0.9843 c -0.844033,-1.0001 -1.492699,-1.9836 -1.988915,-2.9532 z m -4.5604404,14.0027 2.6117054,-2.6116 c 1.933135,1.6955 3.953199,2.9327 5.846203,3.6363 -0.0371,0.6153 -0.181395,1.1054 -0.502251,1.4263 -0.609588,0.6097 -1.764137,0.7614 -3.334947,0.2813 -1.401953,-0.4284 -3.040941,-1.4032 -4.6207104,-2.7323 z m 4.3394504,-4.3394 1.125042,-1.125 c 0.94084,1.1168 1.64509,2.2056 2.149636,3.2747 -1.068244,-0.5037 -2.156665,-1.2074 -3.274678,-2.1497 z m 4.45999,-4.46 0.984412,-0.9844 c 0.842466,1.002 1.477794,1.9989 1.968825,2.9733 -0.969601,-0.4962 -1.953082,-1.1448 -2.953237,-1.9889 z m 2.671975,-2.672 2.812608,-2.8125 c 1.329008,1.5798 2.303791,3.2187 2.732246,4.6207 0.480058,1.5708 0.328334,2.7254 -0.281261,3.3349 -0.35682,0.3569 -0.917912,0.5233 -1.647384,0.5224 -0.721244,-1.8532 -1.963615,-3.7914 -3.616209,-5.6654 z m -4.078278,4.6006 c 1.785721,1.5294 3.625795,2.6908 5.384132,3.3751 8.59e-4,0.7296 -0.165521,1.2906 -0.522341,1.6475 -0.323728,0.3237 -0.819457,0.4881 -1.446483,0.5223 -0.672313,-1.7985 -1.846849,-3.7047 -3.415308,-5.5449 z"
       id="path4156"
       inkscape:connector-curvature="0" />
  </g>
  <g
     inkscape:groupmode="layer"
     id="layer2"
     inkscape:label="Layer 2"
     style="display:inline"
     sodipodi:insensitive="true">
    <g
       id="g4314"
       style="fill:url(#linearGradient4334);fill-opacity:1;stroke:none">
      <path
         inkscape:connector-curvature="0"
         id="path4067"
         d="M 3.2930458,12.072422 C 1.2619475,14.10352 2.6788066,18.903692 6.447183,23.222397 l 0.7433317,-0.743331 c -2.9369276,-3.475068 -4.017814,-7.272793 -2.3907155,-8.899891 1.8201125,-1.820113 6.3401958,-0.249339 10.1052928,3.515758 3.765098,3.765098 5.335872,8.285181 3.515758,10.105293 -1.627097,1.627099 -5.424822,0.546213 -8.89989,-2.390715 l -0.7433316,0.743332 c 4.3187066,3.768377 9.1188776,5.185236 11.1499756,3.154136 2.222924,-2.222923 0.299087,-7.736932 -4.29927,-12.335287 C 11.029978,11.773336 5.5159698,9.8494974 3.2930458,12.072422 z"
         style="fill:url(#linearGradient4334);fill-opacity:1;fill-rule:evenodd;stroke:none" />
      <path
         inkscape:connector-curvature="0"
         id="path4067-1"
         d="M 7.5923157,7.7731516 C 6.9153434,8.4501238 6.6366318,9.4367984 6.6882635,10.605848 c 0.5369918,0.06395 1.099514,0.167461 1.6674739,0.34153 0.071936,-0.672632 0.3202983,-1.2444395 0.7433318,-1.667473 1.8201138,-1.8201132 6.3401958,-0.249339 10.1052938,3.515758 3.765096,3.765097 5.33587,8.28518 3.515758,10.105293 -0.423033,0.423034 -0.99484,0.671396 -1.667474,0.743332 0.177669,0.570708 0.314601,1.127408 0.38171,1.667474 1.151702,0.0434 2.123175,-0.234709 2.792517,-0.904052 2.222925,-2.222925 0.299087,-7.736931 -4.29927,-12.335288 C 15.329248,7.4740656 9.8152403,5.5502268 7.5923157,7.7731516 z M 7.3914152,13.559085 c 0.6816484,1.711263 1.8230897,3.565024 3.3751278,5.343953 l 0.622791,-0.622792 c 0.03322,-0.03322 0.06525,-0.07066 0.100451,-0.10045 C 10.280381,16.748859 9.4186255,15.266849 8.8981687,13.900615 8.3488213,13.709559 7.8452792,13.60816 7.3914152,13.559085 z m 5.7055728,7.674398 c 1.790988,1.562558 3.663275,2.695345 5.384133,3.375127 -0.05154,-0.443323 -0.156145,-0.933531 -0.341531,-1.466573 -0.0027,-0.0079 -0.01732,-0.0123 -0.02009,-0.02009 -1.372962,-0.519066 -2.859774,-1.39507 -4.29927,-2.611707 -0.02979,0.03519 -0.06722,0.06722 -0.10045,0.100451 l -0.622792,0.622791 z"
         style="fill:url(#linearGradient4334);fill-opacity:1;fill-rule:evenodd;stroke:none;display:inline" />
      <path
         inkscape:connector-curvature="0"
         id="path4067-3"
         d="m 12.072397,3.2930712 c -0.684665,0.684663 -0.964,1.6864484 -0.904053,2.8728766 0.531323,0.0756 1.088326,0.2216601 1.647384,0.401801 0.05841,-0.7155114 0.319919,-1.3244214 0.763422,-1.7679241 1.820112,-1.8201126 6.340196,-0.249339 10.105293,3.5157581 3.765097,3.7650972 5.335871,8.2851812 3.515758,10.1052932 -0.455524,0.455525 -1.087157,0.693575 -1.828194,0.743332 0.177203,0.561609 0.290813,1.114713 0.361621,1.647383 1.231035,0.08206 2.26924,-0.179875 2.973327,-0.883962 2.222923,-2.222924 0.319177,-7.757022 -4.27918,-12.3553779 C 19.829419,2.9738948 14.29532,1.0701471 12.072397,3.2930712 z m -0.180812,5.8462035 c 0.684574,1.6948783 1.820494,3.5250333 3.355039,5.2836823 l 0.723241,-0.723242 C 14.796453,12.311362 13.944955,10.873394 13.41843,9.5410756 13.34916,9.5151247 13.285833,9.4844712 13.217529,9.4607155 12.744292,9.296129 12.29463,9.1978797 11.891585,9.1392747 z m 5.685484,7.6141273 c 1.729894,1.509455 3.5317,2.626592 5.203322,3.314858 -0.05612,-0.419694 -0.148413,-0.868617 -0.321441,-1.366123 -0.01617,-0.04649 -0.04308,-0.0937 -0.06027,-0.140631 -1.315096,-0.529026 -2.731309,-1.375928 -4.09837,-2.531346 l -0.723241,0.723242 z"
         style="fill:url(#linearGradient4334);fill-opacity:1;fill-rule:evenodd;stroke:none;display:inline" />
      <path
         transform="matrix(0.67763186,-0.67763186,0.67763186,0.67763186,-6.7159083,16.705)"
         d="m 5,16.241072 a 3.125,1.6517857 0 1 1 -6.25,0 3.125,1.6517857 0 1 1 6.25,0 z"
         sodipodi:ry="1.6517857"
         sodipodi:rx="3.125"
         sodipodi:cy="16.241072"
         sodipodi:cx="1.875"
         id="path4115"
         style="fill:url(#linearGradient4334);fill-opacity:1;fill-rule:evenodd;stroke:none"
         sodipodi:type="arc" />
    </g>
  </g>
  <g
     inkscape:groupmode="layer"
     id="layer3"
     inkscape:label="Layer 3"
     style="display:inline" />
</svg>
