<?xml version="1.0" encoding="UTF-8" standalone="no"?>
<!-- Created with Inkscape (http://www.inkscape.org/) -->

<svg
   xmlns:dc="http://purl.org/dc/elements/1.1/"
   xmlns:cc="http://creativecommons.org/ns#"
   xmlns:rdf="http://www.w3.org/1999/02/22-rdf-syntax-ns#"
   xmlns:svg="http://www.w3.org/2000/svg"
   xmlns="http://www.w3.org/2000/svg"
   xmlns:xlink="http://www.w3.org/1999/xlink"
   xmlns:sodipodi="http://sodipodi.sourceforge.net/DTD/sodipodi-0.dtd"
   xmlns:inkscape="http://www.inkscape.org/namespaces/inkscape"
   width="32"
   height="32"
   id="svg2"
   version="1.1"
   inkscape:version="0.48.0 r9654"
   sodipodi:docname="autorepair.svg"
   inkscape:export-filename="/home/awrapp/Documents/new stuff/autorepair.png"
   inkscape:export-xdpi="90"
   inkscape:export-ydpi="90">
  <defs
     id="defs4">
    <linearGradient
       id="linearGradient3847">
      <stop
         style="stop-color:#ffffff;stop-opacity:1;"
         offset="0"
         id="stop3849" />
      <stop
         style="stop-color:#d5d5d5;stop-opacity:1;"
         offset="1"
         id="stop3851" />
    </linearGradient>
    <linearGradient
       id="linearGradient3833">
      <stop
         style="stop-color:#00cabe;stop-opacity:1;"
         offset="0"
         id="stop3835" />
      <stop
         style="stop-color:#77fff7;stop-opacity:1;"
         offset="1"
         id="stop3837" />
    </linearGradient>
    <linearGradient
       inkscape:collect="always"
       xlink:href="#linearGradient3833"
       id="linearGradient3839"
       x1="17.196539"
       y1="15.95355"
       x2="27.383678"
       y2="15.95355"
       gradientUnits="userSpaceOnUse" />
    <linearGradient
       inkscape:collect="always"
       xlink:href="#linearGradient3833"
       id="linearGradient3841"
       x1="4.4563073"
       y1="15.894665"
       x2="14.643446"
       y2="15.894665"
       gradientUnits="userSpaceOnUse" />
    <linearGradient
       inkscape:collect="always"
       xlink:href="#linearGradient3833"
       id="linearGradient3844"
       gradientUnits="userSpaceOnUse"
       x1="0.17059311"
       y1="32.055378"
       x2="0.089874499"
       y2="0.180379" />
    <linearGradient
       inkscape:collect="always"
       xlink:href="#linearGradient3847"
       id="linearGradient3859"
       x1="0.15624999"
       y1="0.48883924"
       x2="0.058035642"
       y2="31.560268"
       gradientUnits="userSpaceOnUse" />
    <linearGradient
       inkscape:collect="always"
       xlink:href="#linearGradient3833"
       id="linearGradient5011"
       x1="0.082345895"
       y1="31.906734"
       x2="-0.083394065"
       y2="-0.039339755"
       gradientUnits="userSpaceOnUse" />
    <linearGradient
       inkscape:collect="always"
       xlink:href="#linearGradient3847"
       id="linearGradient5019"
       x1="-0.068687506"
       y1="0.0056857299"
       x2="0.16489926"
       y2="32.07803"
       gradientUnits="userSpaceOnUse" />
    <radialGradient
       inkscape:collect="always"
       xlink:href="#linearGradient3947"
       id="radialGradient3953"
       cx="32"
       cy="32"
       fx="32"
       fy="32"
       r="29.1842"
       gradientTransform="matrix(1.0358969,0,0,0.99447318,-1.1487029,0.17685851)"
       gradientUnits="userSpaceOnUse" />
    <linearGradient
       id="linearGradient3947">
      <stop
         style="stop-color:#8afffc;stop-opacity:1;"
         offset="0"
         id="stop3949" />
      <stop
         style="stop-color:#08e7ff;stop-opacity:1;"
         offset="1"
         id="stop3951" />
    </linearGradient>
    <linearGradient
       inkscape:collect="always"
       xlink:href="#linearGradient3847"
       id="linearGradient4138"
       x1="32.352486"
       y1="0.21623118"
       x2="31.84613"
       y2="32.414845"
       gradientUnits="userSpaceOnUse" />
    <linearGradient
       inkscape:collect="always"
       xlink:href="#linearGradient3833"
       id="linearGradient4147"
       x1="0.12184446"
       y1="31.651028"
       x2="0.18447584"
       y2="0.21003039"
       gradientUnits="userSpaceOnUse"
       gradientTransform="translate(-4.230685e-8,1020.3622)" />
  </defs>
  <sodipodi:namedview
     id="base"
     pagecolor="#000000"
     bordercolor="#666666"
     borderopacity="1.0"
     inkscape:pageopacity="0"
     inkscape:pageshadow="2"
     inkscape:zoom="7.919596"
     inkscape:cx="16.057269"
     inkscape:cy="12.619307"
     inkscape:document-units="px"
     inkscape:current-layer="layer1"
     showgrid="true"
     inkscape:snap-grids="false"
     inkscape:snap-to-guides="false"
     inkscape:window-width="1440"
     inkscape:window-height="853"
     inkscape:window-x="0"
     inkscape:window-y="-3"
     inkscape:window-maximized="1">
    <inkscape:grid
       type="xygrid"
       id="grid3040"
       empspacing="5"
       dotted="true"
       visible="true"
       enabled="true"
       snapvisiblegridlinesonly="true" />
  </sodipodi:namedview>
  <metadata
     id="metadata7">
    <rdf:RDF>
      <cc:Work
         rdf:about="">
        <dc:format>image/svg+xml</dc:format>
        <dc:type
           rdf:resource="http://purl.org/dc/dcmitype/StillImage" />
        <dc:title></dc:title>
      </cc:Work>
    </rdf:RDF>
  </metadata>
  <g
     inkscape:label="Layer 1"
     inkscape:groupmode="layer"
     id="layer1"
     transform="translate(0,-1020.3622)"
     style="display:inline">
    <path
       style="fill:url(#linearGradient4147);fill-opacity:1;stroke:#000000;stroke-width:0;stroke-miterlimit:4;stroke-opacity:1;stroke-dasharray:none"
       d="m 23.289535,1022.2165 c -0.999156,0.062 -1.96959,0.3395 -2.863748,0.7811 l -1.446337,-0.6075 -1.041363,2.5166 c -0.246081,0.2857 -0.475939,0.6001 -0.665315,0.9257 -0.918324,-0.1107 -1.823718,-0.1 -2.719115,0.029 l -1.446337,-3.5001 -5.148961,2.1406 1.4752641,3.558 c -0.6586172,0.5217 -1.265935,1.1164 -1.7934583,1.7934 l -3.5290632,-1.4463 -2.1405792,5.1489 3.5290631,1.4464 c -0.092828,0.732 -0.1170911,1.4776 -0.057854,2.1984 -0.7292145,0.3553 -1.4067665,0.8588 -1.9670188,1.4174 -0.053902,0.054 -0.092153,0.1182 -0.1446337,0.1736 l -1.2727769,0.5207 0.2892675,0.7231 c -0.6775096,1.0882 -1.0829613,2.351 -1.0413629,3.6737 0.00957,0.3041 0.047684,0.5857 0.08678,0.8678 0,-0.036 0.0038,0.209 0,0.1736 -0.0038,-0.035 0.036343,0.1788 0.028927,0.1446 a 1.193411,1.193411 0 0 0 0,0.029 c -0.00589,-0.025 0.036598,0.1399 0.028927,0.1158 -0.00767,-0.024 0.0382,0.081 0.028927,0.058 -0.00927,-0.023 0.06853,0.1374 0.057854,0.1157 -0.010677,-0.022 0.069727,0.107 0.057854,0.087 -0.011873,-0.02 0.070717,0.1054 0.057853,0.087 -0.012864,-0.019 0.071512,0.1039 0.057854,0.087 -0.013658,-0.017 0.043199,0.1023 0.028927,0.087 -0.014273,-0.015 0.072581,0.072 0.057853,0.058 -0.014727,-0.014 0.1018246,0.07 0.08678,0.058 -0.015044,-0.013 0.1020274,0.069 0.08678,0.058 -0.015247,-0.011 0.073211,0.039 0.057854,0.029 -0.015358,-0.01 0.1021776,0.067 0.08678,0.058 -0.015397,-0.01 0.1021652,0.065 0.08678,0.058 -0.015385,-0.01 0.1021178,0.035 0.08678,0.029 -0.030675,-0.013 0.175022,0.067 0.1446337,0.058 -0.030388,-0.01 0.1747488,0.034 0.1446337,0.029 -0.030115,-0.01 0.2035312,0.031 0.1735605,0.029 -0.029971,0 0.1746464,0 0.1446338,0 -0.030013,0 0.2038044,0 0.1735604,0 -0.030244,0 0.2041747,-0.037 0.1735605,-0.029 -0.030614,0.01 0.2045751,-0.07 0.1735605,-0.058 -0.015507,0.01 0.073441,-0.065 0.057854,-0.058 -0.015587,0.01 0.1024153,-0.037 0.08678,-0.029 -0.015635,0.01 0.1024148,-0.067 0.08678,-0.058 -0.015634,0.01 0.1023466,-0.04 0.08678,-0.029 a 1.193411,1.193411 0 0 0 0.115707,-0.1157 l 2.9505282,-2.6902 0.1735605,-0.087 c 0.085335,0.052 0.1420675,0.1113 0.231414,0.2025 l 1.5909711,1.6489 c 0.1029916,0.105 0.113144,0.171 0.1735604,0.2603 l -3.0951619,2.8059 a 1.193411,1.193411 0 0 0 -0.08678,0.087 c 0.014246,-0.016 -0.04256,0.075 -0.028927,0.058 0.013633,-0.017 -0.070696,0.076 -0.057853,0.058 0.012843,-0.018 -0.069716,0.1068 -0.057854,0.087 0.00593,-0.01 -0.013889,0.03 -0.028927,0.058 -0.015038,0.027 -0.034268,0.069 -0.028927,0.058 -0.017839,0.032 -0.035202,0.07 -0.028927,0.058 -0.00948,0.021 -0.032506,0.038 -0.028927,0.029 0.00438,-0.011 0.010456,0.029 0,0.058 -0.00728,0.016 -0.032113,0.037 -0.028927,0.029 -0.00332,0.01 -0.00182,0.034 0,0.029 -0.00474,0.015 -0.01905,0.03 -0.028927,0.058 -0.00429,0.015 -0.0018,0.036 0,0.029 -0.00242,0.01 -0.00161,0.034 0,0.029 -0.00579,0.031 -0.03209,0.077 -0.028927,0.058 -0.00284,0.011 -0.00139,0.036 0,0.029 0.0059,-0.03 -0.032154,0.146 -0.028927,0.1157 0.00323,-0.03 -4.495e-4,0.1753 0,0.1447 4.495e-4,-0.03 0.00234,0.175 0,0.1446 -0.00234,-0.03 0.00503,0.1454 0,0.1157 -0.00418,-0.025 0.03493,0.1112 0.028927,0.087 -0.006,-0.024 0.036614,0.1392 0.028927,0.1157 -0.00769,-0.023 0.038128,0.1092 0.028927,0.087 -0.0092,-0.022 0.068382,0.1079 0.057853,0.087 -0.010529,-0.021 0.069515,0.1353 0.057854,0.1157 -0.011661,-0.02 0.070456,0.1049 0.057854,0.087 -0.012602,-0.018 0.071213,0.075 0.057854,0.058 -0.01336,-0.017 0.071802,0.073 0.057853,0.058 a 1.193411,1.193411 0 0 0 0.028927,0.058 c -0.020957,-0.02 0.1372728,0.1042 0.115707,0.087 -0.021566,-0.017 0.1086464,0.1013 0.08678,0.087 -0.0035,0 0.02492,0 0.028927,0 -0.015784,-0.011 0.07374,0.068 0.057854,0.058 0.013568,0.01 0.035072,0.032 0.028927,0.029 0.027205,0.016 0.067647,0.034 0.057854,0.029 -0.01114,-0.01 0.031227,0.015 0.057854,0.029 0.011411,0.01 0.033694,0 0.028927,0 -0.015891,-0.01 0.1026128,0.035 0.08678,0.029 -0.015833,-0.01 0.07361,0.063 0.057854,0.058 -0.015756,-0.01 0.1024553,0 0.08678,0 -0.015675,0 0.036818,0.018 0.08678,0.029 0.032839,0.01 0.055023,-0.01 0.08678,0 0.2161116,0.049 0.4169479,0.089 0.578535,0.1157 1.4935336,0.2484 3.0107679,-0.062 4.3390119,-0.7231 l 1.417411,0.5785 1.012436,-2.4299 c 0.273983,-0.3131 0.518341,-0.6507 0.723169,-1.0124 0.866837,0.103 1.727322,0.1082 2.57448,0 l 1.446337,3.5291 5.177888,-2.1406 -1.475264,-3.5291 c 0.694452,-0.5379 1.331262,-1.14 1.880239,-1.8513 l 3.529063,1.4464 2.140579,-5.1779 -3.529063,-1.4464 c 0.09038,-0.7124 0.111687,-1.4384 0.05785,-2.1405 -7.26e-4,-0.01 7.52e-4,-0.019 0,-0.029 0.724821,-0.3549 1.409608,-0.8328 1.967019,-1.3885 0.08272,-0.082 0.152025,-0.1742 0.231414,-0.2603 l 1.185997,-0.4918 -0.289268,-0.6942 c 0.66481,-1.0723 1.082523,-2.3071 1.041363,-3.6158 -0.0095,-0.3038 -0.04664,-0.6312 -0.08678,-0.9257 0,0.024 -0.0017,-0.1104 0,-0.087 5.63e-4,0.01 0.0019,-0.012 0,-0.029 6.15e-4,0.01 0.0011,-0.024 0,-0.029 -0.0017,-0.017 -0.0011,-0.037 0,-0.029 -0.0088,-0.052 -0.03411,-0.1396 -0.02893,-0.1157 0.0077,0.036 -0.0401,-0.1781 -0.02893,-0.1446 0.01117,0.034 -0.07203,-0.1758 -0.05785,-0.1446 0.01417,0.031 -0.103391,-0.1441 -0.08678,-0.1157 a 1.193411,1.193411 0 0 0 -0.115707,-0.1736 c 0.01868,0.023 -0.07751,-0.1064 -0.05785,-0.087 0.01966,0.02 -0.107057,-0.1039 -0.08678,-0.087 0.02028,0.017 -0.136322,-0.1013 -0.115707,-0.087 0.02061,0.014 -0.136454,-0.041 -0.115707,-0.029 0.02075,0.012 -0.107516,-0.068 -0.08678,-0.058 0.02074,0.01 -0.136347,-0.066 -0.115707,-0.058 0.02064,0.01 -0.107287,-0.064 -0.08678,-0.058 0.02051,0.01 -0.136081,-0.034 -0.115707,-0.029 0.02037,0 -0.135973,0 -0.115707,0 0.02026,0 -0.135912,-0.031 -0.115707,-0.029 0.0202,0 -0.135906,-2e-4 -0.115707,0 0.0202,2e-4 -0.107034,0 -0.08678,0 0.02025,0 -0.136071,0 -0.115707,0 0.01078,0 -0.02331,0.023 -0.05785,0.029 -0.0307,0.01 -0.06751,0 -0.05785,0 -0.01536,0 -0.03449,7e-4 -0.02893,0 a 1.193411,1.193411 0 0 0 -0.202488,0.058 1.193411,1.193411 0 0 0 -0.462828,0.2314 l -2.863748,2.6613 -0.289267,0.1157 c -0.07187,-0.044 -0.12501,-0.094 -0.202487,-0.1736 l -1.590971,-1.6488 c -0.102991,-0.1051 -0.113134,-0.171 -0.173561,-0.2603 l 3.037309,-2.7481 0.05785,-0.058 c -0.0149,0.013 0.101312,-0.072 0.08678,-0.058 -0.01453,0.015 0.04294,-0.1029 0.02893,-0.087 -0.01401,0.016 0.07118,-0.1043 0.05785,-0.087 -0.01333,0.018 0.07031,-0.1059 0.05785,-0.087 -0.01246,0.019 0.06925,-0.079 0.05785,-0.058 -0.0114,0.021 0.06799,-0.1087 0.05785,-0.087 -0.01014,0.022 0.0376,-0.1099 0.02893,-0.087 -0.0087,0.023 0.06489,-0.1399 0.05785,-0.1158 -0.007,0.024 0.0052,-0.1406 0,-0.1157 -0.0052,0.025 0.03226,-0.1412 0.02893,-0.1157 -0.0033,0.026 0.0013,-0.1126 0,-0.087 -0.0013,0.026 0.02824,-0.1417 0.02893,-0.1158 4.8e-4,0.018 -0.02683,-0.022 -0.02893,-0.058 3.01e-4,0.01 0.001,-0.019 0,-0.029 0.002,0.019 0.0043,-0.054 0,-0.087 7.16e-4,0.01 0.0016,-0.02 0,-0.029 0.0035,0.019 -0.02257,-0.057 -0.02893,-0.087 0.0014,0.01 0.0035,-0.015 0,-0.029 -0.0082,-0.034 -0.03345,-0.074 -0.02893,-0.058 0.0065,0.023 -0.0369,-0.1091 -0.02893,-0.087 0.008,0.022 -0.03825,-0.1079 -0.02893,-0.087 0.0093,0.021 -0.06836,-0.1067 -0.05785,-0.087 0.01051,0.02 -0.04044,-0.1055 -0.02893,-0.087 0.01152,0.019 -0.07021,-0.1041 -0.05785,-0.087 0.01235,0.017 -0.07088,-0.1027 -0.05785,-0.087 0.01303,0.016 -0.0714,-0.072 -0.05785,-0.058 0.01355,0.014 -0.07179,-0.071 -0.05785,-0.058 0.01394,0.013 -0.07207,-0.07 -0.05785,-0.058 0.01422,0.012 -0.10118,-0.069 -0.08678,-0.058 0.0108,0.01 -0.03671,-0.014 -0.05785,-0.029 0.0039,0 0.0078,-0.024 0,-0.029 0.01109,0.01 -0.02699,-0.011 -0.05785,-0.029 0.01588,0.01 -0.102689,-0.067 -0.08678,-0.058 0.01591,0.01 -0.102665,-0.037 -0.08678,-0.029 0.01589,0.01 -0.102607,-0.035 -0.08678,-0.029 0.01583,0.01 -0.0736,-0.063 -0.05785,-0.058 0.01575,0.01 -0.10245,0 -0.08678,0 0.01567,0 -0.03683,-0.018 -0.08678,-0.029 -0.0328,-0.01 -0.05505,-0.022 -0.08678,-0.029 -0.215933,-0.049 -0.416333,-0.06 -0.578535,-0.087 -0.480365,-0.08 -0.968083,-0.1164 -1.446337,-0.087 z m -7.318467,7.7524 c 0.22533,0 0.438674,0.01 0.665315,0.029 l -2.082726,1.9671 -0.02893,0.029 0,0.029 c -0.05374,0.052 -0.138267,0.1061 -0.115707,0.087 l -4.7729137,4.4547 c -0.032252,-0.8836 0.1311484,-1.7906 0.4917547,-2.6612 1.009807,-2.4381 3.360792,-3.9157 5.843203,-3.9341 z m 6.392811,6.2193 c 0.02175,0.8634 -0.110953,1.725 -0.462828,2.5744 -1.097868,2.6507 -3.794286,4.1948 -6.508518,3.9341 l 2.053799,-1.9381 a 1.193411,1.193411 0 0 0 0.05785,-0.058 l 0,-0.029 a 1.193411,1.193411 0 0 0 0.08678,-0.029 l 4.772913,-4.4547 z"
       id="path3903"
       inkscape:connector-curvature="0" />
  </g>
  <g
     inkscape:groupmode="layer"
     id="layer2"
     inkscape:label="Layer 2"
     style="display:inline">
    <path
       style="fill:url(#linearGradient4138);fill-opacity:1;stroke:none;display:inline"
       d="m 24.537878,3.1071242 c -1.536909,-0.255656 -3.225583,0.23765 -4.541597,1.1587104 -1.316017,0.9210603 -2.275893,2.2838084 -2.227022,3.8378197 0.01939,0.6165923 0.158803,1.2185432 0.364729,1.7995045 l -2.793602,2.6184452 c -0.03499,0.02887 -0.0655,0.05329 -0.100022,0.08564 L 9.6674465,17.831896 C 9.3076956,17.697973 8.9393569,17.564666 8.5565507,17.500987 6.9987082,17.24185 5.4835189,17.96695 4.3514693,19.095591 c -1.132047,1.128642 -1.8967758,2.67446 -1.8485608,4.207626 0.00987,0.313668 0.041311,0.60417 0.086714,0.891149 a 0.28785573,0.23607421 46.331325 0 0 0.46188,0.22295 l 3.5080243,-3.230205 c 0.07644,-0.07027 0.2607935,-0.08184 0.5439155,0.03204 0.283122,0.113858 0.6258485,0.342462 0.9454403,0.668688 l 1.6069597,1.640842 c 0.3196219,0.32626 0.5451482,0.679375 0.6463062,0.955008 0.10116,0.275635 0.07779,0.441449 0.0014,0.511658 l -3.6080379,3.315849 a 0.28785573,0.23607421 46.331325 0 0 0.1908629,0.470111 c 0.194852,0.04776 0.3841927,0.07851 0.5757259,0.11038 1.5369101,0.255656 3.2255841,-0.237649 4.5415991,-1.158709 1.316017,-0.921059 2.275891,-2.283809 2.227021,-3.837819 -0.01939,-0.616591 -0.158802,-1.218543 -0.364728,-1.799504 l 2.82218,-2.642915 0.07145,-0.06118 5.572918,-5.224653 c 0.359751,0.133929 0.72809,0.267236 1.110896,0.330912 1.557844,0.259139 3.073034,-0.465961 4.20508,-1.594602 1.132052,-1.128638 1.896776,-2.674461 1.848559,-4.2076259 -0.0099,-0.3136686 -0.0413,-0.60417 -0.08672,-0.8911496 A 0.28785573,0.23607421 46.331325 0 0 28.948501,7.5814897 l -3.508029,3.2302023 c -0.07644,0.07027 -0.260792,0.08183 -0.543915,-0.03203 -0.283164,-0.113856 -0.625893,-0.34246 -0.945484,-0.668688 L 22.344149,8.4701364 C 22.024525,8.1438769 21.799001,7.79076 21.697841,7.5151259 21.596682,7.2394916 21.620052,7.0736772 21.69643,7.0034681 L 25.304477,3.6876145 A 0.28785573,0.23607421 46.331325 0 0 25.113614,3.2175049 C 24.918763,3.1697469 24.729422,3.1389842 24.537888,3.1071242 z"
       id="path3838-9-3"
       inkscape:connector-curvature="0" />
  </g>
  <g
     inkscape:groupmode="layer"
     id="layer3"
     inkscape:label="Layer 3"
     style="display:inline" />
</svg>
