<?xml version="1.0" encoding="UTF-8" standalone="no"?>
<!-- Created with Inkscape (http://www.inkscape.org/) -->

<svg
   xmlns:dc="http://purl.org/dc/elements/1.1/"
   xmlns:cc="http://creativecommons.org/ns#"
   xmlns:rdf="http://www.w3.org/1999/02/22-rdf-syntax-ns#"
   xmlns:svg="http://www.w3.org/2000/svg"
   xmlns="http://www.w3.org/2000/svg"
   xmlns:xlink="http://www.w3.org/1999/xlink"
   xmlns:sodipodi="http://sodipodi.sourceforge.net/DTD/sodipodi-0.dtd"
   xmlns:inkscape="http://www.inkscape.org/namespaces/inkscape"
   width="32"
   height="32"
   id="svg2"
   version="1.1"
   inkscape:version="0.48.0 r9654"
   sodipodi:docname="areacloak.svg"
   inkscape:export-filename="/home/awrapp/Documents/new stuff/cloak.png"
   inkscape:export-xdpi="180"
   inkscape:export-ydpi="180"
   style="display:inline">
  <defs
     id="defs4">
    <linearGradient
       id="linearGradient3847">
      <stop
         style="stop-color:#ffffff;stop-opacity:1;"
         offset="0"
         id="stop3849" />
      <stop
         style="stop-color:#d5d5d5;stop-opacity:1;"
         offset="1"
         id="stop3851" />
    </linearGradient>
    <linearGradient
       id="linearGradient3833">
      <stop
         style="stop-color:#00cabe;stop-opacity:1;"
         offset="0"
         id="stop3835" />
      <stop
         style="stop-color:#77fff7;stop-opacity:1;"
         offset="1"
         id="stop3837" />
    </linearGradient>
    <linearGradient
       inkscape:collect="always"
       xlink:href="#linearGradient3833"
       id="linearGradient3839"
       x1="17.196539"
       y1="15.95355"
       x2="27.383678"
       y2="15.95355"
       gradientUnits="userSpaceOnUse" />
    <linearGradient
       inkscape:collect="always"
       xlink:href="#linearGradient3833"
       id="linearGradient3841"
       x1="4.4563074"
       y1="15.894665"
       x2="14.643446"
       y2="15.894665"
       gradientUnits="userSpaceOnUse" />
    <linearGradient
       inkscape:collect="always"
       xlink:href="#linearGradient3847"
       id="linearGradient3859"
       x1="0.15624999"
       y1="0.48883924"
       x2="0.058035642"
       y2="31.560268"
       gradientUnits="userSpaceOnUse" />
    <linearGradient
       inkscape:collect="always"
       xlink:href="#linearGradient3833"
       id="linearGradient4240"
       x1="-2.8373458"
       y1="28.346626"
       x2="-3.0493455"
       y2="-5.2325339"
       gradientUnits="userSpaceOnUse" />
    <linearGradient
       inkscape:collect="always"
       xlink:href="#linearGradient3833"
       id="linearGradient4248"
       x1="0.22211048"
       y1="1052.4336"
       x2="-0.0078228405"
       y2="1020.2908"
       gradientUnits="userSpaceOnUse"
       gradientTransform="matrix(1.3727969,0,0,1.3727969,-5.9647514,-386.35266)" />
    <linearGradient
       inkscape:collect="always"
       xlink:href="#linearGradient3847"
       id="linearGradient4256"
       x1="-2.8744497"
       y1="-5.0470133"
       x2="-3.0122397"
       y2="28.532146"
       gradientUnits="userSpaceOnUse" />
    <linearGradient
       inkscape:collect="always"
       xlink:href="#linearGradient3847"
       id="linearGradient4272"
       x1="0.058035716"
       y1="0.46428573"
       x2="0.15625001"
       y2="32.25"
       gradientUnits="userSpaceOnUse"
       gradientTransform="matrix(1.3727969,0,0,1.3727969,-5.9647514,-5.964751)" />
  </defs>
  <sodipodi:namedview
     id="base"
     pagecolor="#ffffff"
     bordercolor="#666666"
     borderopacity="1.0"
     inkscape:pageopacity="0.0"
     inkscape:pageshadow="2"
     inkscape:zoom="5.6"
     inkscape:cx="17.365029"
     inkscape:cy="5.9044664"
     inkscape:document-units="px"
     inkscape:current-layer="layer1"
     showgrid="true"
     inkscape:snap-grids="false"
     inkscape:snap-to-guides="false"
     inkscape:window-width="720"
     inkscape:window-height="850"
     inkscape:window-x="720"
     inkscape:window-y="0"
     inkscape:window-maximized="0">
    <inkscape:grid
       type="xygrid"
       id="grid3040"
       empspacing="5"
       dotted="true"
       visible="true"
       enabled="true"
       snapvisiblegridlinesonly="true" />
  </sodipodi:namedview>
  <metadata
     id="metadata7">
    <rdf:RDF>
      <cc:Work
         rdf:about="">
        <dc:format>image/svg+xml</dc:format>
        <dc:type
           rdf:resource="http://purl.org/dc/dcmitype/StillImage" />
        <dc:title></dc:title>
      </cc:Work>
    </rdf:RDF>
  </metadata>
  <g
     inkscape:label="Layer 1"
     inkscape:groupmode="layer"
     id="layer1"
     transform="translate(0,-1020.3622)"
     style="display:inline">
    <path
       inkscape:connector-curvature="0"
       style="fill:url(#linearGradient4248);fill-opacity:1;fill-rule:evenodd;stroke:none;display:inline"
       d="m 15.826304,1021.8959 c -0.244519,0 -0.46998,0.085 -0.694787,0.1493 -0.860094,0.2386 -1.556917,0.8478 -1.83622,1.6873 l -0.297765,0 -1.141434,0 c -1.159952,0 -2.0843573,0.9243 -2.0843573,2.0844 l 0,2.0346 -5.0620109,0 c -1.1224817,-4e-4 -2.03473,0.9119 -2.03473,2.0345 l 0,2.4814 c 0,0.6684 0.3473882,1.2193 0.8436685,1.588 l 0,7.3944 c 0,0.6816 0.5591176,1.2409 1.240689,1.2409 l 2.0843576,0 c 0.6815713,0 1.2406895,-0.5593 1.2406895,-1.2409 l 0,-6.9478 1.8362189,0 0,4.2185 c 0,1.1295 0.7411687,2.0682 1.7865927,2.3323 -0.244141,0.3847 -0.39702,0.8888 -0.39702,1.3896 l 0,3.9702 -0.794042,0 c -0.897752,0 -1.5880821,0.6904 -1.5880821,1.5881 l 0,1.2903 c 0,0.8978 0.6903301,1.6379 1.5880821,1.6379 l 3.573184,0 c 0.897753,0 1.63771,-0.7401 1.63771,-1.6379 l 0,-0.397 c 0.0809,-0.2482 0.148882,-0.5158 0.148882,-0.7941 l 0,-5.6575 c 0,-0.1991 -0.05376,-0.4046 -0.09925,-0.5955 l 0.446648,0 c -0.04549,0.1909 -0.09925,0.3964 -0.09925,0.5955 l 0,5.6575 c 0,0.2783 0.06798,0.5459 0.148882,0.7941 l 0,0.397 c 0,0.8978 0.739957,1.6379 1.63771,1.6379 l 3.573184,0 c 0.897752,0 1.588082,-0.7401 1.588082,-1.6379 l 0,-1.2903 c 0,-0.8977 -0.69033,-1.5881 -1.588082,-1.5881 l -0.794042,0 0,-3.9702 c 0,-0.5008 -0.152884,-1.0049 -0.39702,-1.3896 1.045424,-0.2641 1.786593,-1.2028 1.786593,-2.3323 l 0,-4.2185 1.836219,0 0,6.9478 c 0,0.6816 0.559118,1.2409 1.240689,1.2409 l 2.084358,0 c 0.681572,0 1.240688,-0.5593 1.240688,-1.2409 l 0,-7.3944 c 0.496282,-0.3687 0.843669,-0.9196 0.843669,-1.588 l 0,-2.4814 c 0,-1.1226 -0.912248,-2.0349 -2.034729,-2.0349 l -5.062012,0 0,-2.0346 c 0,-1.16 -0.924406,-2.0843 -2.084357,-2.0843 l -1.141434,0 -0.297765,0 c -0.279303,-0.8395 -0.976126,-1.4489 -1.836221,-1.6873 -0.219706,-0.074 -0.453658,-0.1345 -0.694786,-0.1494 l -0.148882,0 -0.19851,0 z"
       id="rect3856" />
  </g>
  <g
     inkscape:groupmode="layer"
     id="layer3"
     inkscape:label="Layer 3"
     style="display:inline">
    <path
       style="fill:url(#linearGradient4272);fill-opacity:1;fill-rule:evenodd;stroke:none"
       d="m 15.8284,2.3149305 c -0.107998,0 -0.241601,0.020124 -0.471899,0.0858 -0.622305,0.1726291 -1.136871,0.6639415 -1.329897,1.2440972 a 0.77528558,0.77528558 0 0 1 -0.729298,0.5147989 l -0.3003,0 -0.257399,0 1.501497,2.6168942 3.431992,0 1.501497,-2.6168942 -0.1716,0 -0.300299,0 A 0.77528558,0.77528558 0 0 1 17.973395,3.6448275 C 17.780361,3.0646477 17.26564,2.5732147 16.643498,2.4007303 a 0.77528558,0.77528558 0 0 1 -0.0429,0 c -0.134009,-0.045216 -0.264453,-0.072609 -0.428999,-0.0858 l -0.0429,0 -0.0858,0 -0.2145,0 z m -4.59029,1.9733956 c -0.417889,0.2021954 -0.686398,0.624923 -0.686398,1.1582974 l 0,2.0591954 A 0.77528558,0.77528558 0 0 1 9.7795135,8.2780172 l -2.6597941,0 1.1582974,1.9733958 3.4319922,0 1.715996,-2.9600936 -1.715996,-3.0029933 -0.471899,0 z m 9.00898,0 -1.715996,2.9600934 1.715996,2.9600935 3.431992,0 1.115398,-1.9304958 -2.573994,0 A 0.77528558,0.77528558 0 0 1 21.448287,7.5058189 l 0,-2.0591954 c 0,-0.5332448 -0.268512,-0.9560593 -0.686398,-1.1582974 l -0.514799,0 z m -6.005986,3.4319924 -1.715997,2.9600935 1.715997,2.960093 3.431992,0 1.715996,-2.960093 -1.715996,-2.9600935 -3.431992,0 z M 4.7173248,8.2780172 C 4.0066255,8.2777564 3.4303276,8.8306435 3.4303276,9.5221144 l 0,2.4881946 c 0,0.388742 0.2129704,0.687667 0.5576988,0.943798 a 0.77528558,0.77528558 0 0 1 0.3002993,0.643498 l 0,0.0858 1.4156969,0 1.7159961,-2.960093 -1.4156968,-2.4452948 -1.2869971,0 z m 21.3212522,0 -1.458597,2.5310948 1.715997,2.960093 1.415696,0 0,-0.1716 a 0.77528558,0.77528558 0 0 1 0.3003,-0.643498 c 0.344728,-0.256131 0.557699,-0.555056 0.557699,-0.943798 l 0,-2.4881946 c 0,-0.6914709 -0.575952,-1.2440972 -1.286998,-1.2440972 l -1.244097,0 z m -17.7605602,2.8742938 -1.7159962,3.002993 0.7292984,1.244097 0,-1.372797 a 0.77528558,0.77528558 0 0 1 0.7721983,-0.772198 l 1.8446959,0 a 0.77528558,0.77528558 0 0 1 0.7721978,0.772198 l 0,3.088794 1.029598,0 1.715996,-2.960094 -1.715996,-3.002993 -3.4319922,0 z m 11.9690732,0 -1.715996,2.960093 1.715996,2.960094 1.072498,0 0,-3.045894 a 0.77528558,0.77528558 0 0 1 0.772198,-0.772198 l 1.844696,0 a 0.77528558,0.77528558 0 0 1 0.772198,0.772198 l 0,1.286998 0.686399,-1.201198 -1.715997,-2.960093 -3.431992,0 z m -15.9587643,3.431992 0,5.963087 1.4156969,0 1.5872964,-2.745594 0,-0.428999 -1.5872964,-2.788494 -1.4156969,0 z m 9.9527783,0 -1.715997,2.960094 1.715997,2.960093 3.431992,0 1.715996,-2.960093 -1.715996,-2.960094 -3.431992,0 z m 12.054873,0.1287 -1.587297,2.745594 0,0.428999 1.587297,2.745594 1.415696,0 0,-5.920187 -1.415696,0 z m -15.615566,3.303293 0,0.257399 c 0,0.783469 0.485489,1.363573 1.201198,1.544396 a 0.77528558,0.77528558 0 0 1 0.471899,1.201198 c -0.158249,0.249331 -0.2574,0.589498 -0.2574,0.943798 l 0,1.329897 1.329897,-2.273695 -1.715996,-3.002993 -1.029598,0 z m 9.566679,0 -1.715996,2.960093 1.372797,2.359495 0,-1.372797 c 0,-0.354294 -0.09914,-0.69446 -0.2574,-0.943798 a 0.77528558,0.77528558 0 0 1 0.471899,-1.201198 c 0.715709,-0.180823 1.201198,-0.760927 1.201198,-1.544396 l 0,-0.257399 -1.072498,0 z m -12.955771,1.715996 -0.7292984,1.286997 0.2573995,0.428999 0.0429,0 c 0.2550504,0 0.428999,-0.184302 0.428999,-0.471899 l 0,-1.244097 z m 17.417361,0.0429 0,1.201197 c 0,0.287597 0.173949,0.471899 0.428999,0.471899 l 0.2574,-0.471899 -0.686399,-1.201197 z m -10.467576,1.673096 -1.715997,2.960093 1.715997,2.960094 0.857998,0 0,-5.405388 c 0,-0.09441 -0.0401,-0.194261 -0.0858,-0.386099 a 0.77528558,0.77528558 0 0 1 0,-0.1287 l -0.772198,0 z m 2.745593,0 a 0.77528558,0.77528558 0 0 1 0,0.1287 c -0.0457,0.191838 -0.0858,0.291687 -0.0858,0.386099 l 0,5.405388 0.772198,0 1.715996,-2.960094 -1.715996,-2.960093 -0.686399,0 z m 2.917194,4.032591 -1.372797,2.359495 1.072498,1.844695 1.887595,0 c 0.476141,0 0.815099,-0.357111 0.815099,-0.857998 l 0,-1.286997 c 0,-0.500689 -0.314341,-0.815098 -0.815099,-0.815098 l -0.815098,0 a 0.77528558,0.77528558 0 0 1 -0.772198,-0.772198 l 0,-0.471899 z m -7.807783,0.0858 0,0.386099 a 0.77528558,0.77528558 0 0 1 -0.772198,0.772198 l -0.815098,0 c -0.500757,0 -0.8150983,0.31441 -0.8150983,0.815098 l 0,1.286997 c 0,0.500886 0.3389583,0.857998 0.8150983,0.857998 l 1.887596,0 1.029597,-1.801795 -1.329897,-2.316595 z m 2.144996,2.745594 -0.815099,1.372796 0.643499,0 c 0.476142,0 0.900898,-0.406498 0.900898,-0.857998 l 0,-0.386099 a 0.77528558,0.77528558 0 0 1 0,-0.128699 l -0.729298,0 z m 2.788493,0 a 0.77528558,0.77528558 0 0 1 0,0.128699 l 0,0.386099 c 0,0.4515 0.424756,0.857998 0.900898,0.857998 l 0.557699,0 -0.815098,-1.372796 -0.643499,0 z"
       id="path3225"
       inkscape:connector-curvature="0" />
  </g>
</svg>
