<?xml version="1.0" encoding="UTF-8" standalone="no"?>
<!-- Created with Inkscape (http://www.inkscape.org/) -->

<svg
   xmlns:dc="http://purl.org/dc/elements/1.1/"
   xmlns:cc="http://creativecommons.org/ns#"
   xmlns:rdf="http://www.w3.org/1999/02/22-rdf-syntax-ns#"
   xmlns:svg="http://www.w3.org/2000/svg"
   xmlns="http://www.w3.org/2000/svg"
   xmlns:xlink="http://www.w3.org/1999/xlink"
   xmlns:sodipodi="http://sodipodi.sourceforge.net/DTD/sodipodi-0.dtd"
   xmlns:inkscape="http://www.inkscape.org/namespaces/inkscape"
   width="64px"
   height="64px"
   id="svg5262"
   version="1.1"
   inkscape:version="0.48.0 r9654"
   sodipodi:docname="damage.svg"
   inkscape:export-filename="/home/awrapp/Documents/new stuff/finished/module_dmg_booster.png"
   inkscape:export-xdpi="90"
   inkscape:export-ydpi="90">
  <defs
     id="defs5264">
    <linearGradient
       id="linearGradient5151">
      <stop
         id="stop5159"
         offset="0"
         style="stop-color:#04fff2;stop-opacity:1;" />
      <stop
         style="stop-color:#00b3bd;stop-opacity:1;"
         offset="1"
         id="stop5155" />
    </linearGradient>
    <linearGradient
       id="linearGradient5141">
      <stop
         style="stop-color:#cacaca;stop-opacity:1;"
         offset="0"
         id="stop5143" />
      <stop
         style="stop-color:#ffffff;stop-opacity:1;"
         offset="1"
         id="stop5145" />
    </linearGradient>
    <linearGradient
       inkscape:collect="always"
       xlink:href="#linearGradient5141"
       id="linearGradient5147"
       x1="31.875"
       y1="60.75"
       x2="31.875"
       y2="2.75"
       gradientUnits="userSpaceOnUse"
       gradientTransform="matrix(0.85012189,0,0,0.85012189,4.7960994,-0.27082101)" />
    <radialGradient
       inkscape:collect="always"
       xlink:href="#linearGradient5151"
       id="radialGradient5157"
       cx="32"
       cy="32"
       fx="32"
       fy="32"
       r="25.875"
       gradientTransform="matrix(0.85012189,0,0,0.9507458,4.7328129,-3.474222)"
       gradientUnits="userSpaceOnUse" />
    <linearGradient
       inkscape:collect="always"
       xlink:href="#linearGradient5141"
       id="linearGradient5541"
       gradientUnits="userSpaceOnUse"
       gradientTransform="matrix(0.85012189,0,0,0.85012189,4.7960994,-0.27082101)"
       x1="31.875"
       y1="60.75"
       x2="31.875"
       y2="2.75" />
    <radialGradient
       inkscape:collect="always"
       xlink:href="#linearGradient5151"
       id="radialGradient5563"
       gradientUnits="userSpaceOnUse"
       gradientTransform="matrix(0.84035382,0,0,0.93982154,5.1079001,-3.6689786)"
       cx="32"
       cy="32"
       fx="32"
       fy="32"
       r="25.875" />
    <radialGradient
       inkscape:collect="always"
       xlink:href="#linearGradient5151-0"
       id="radialGradient5563-0"
       gradientUnits="userSpaceOnUse"
       gradientTransform="matrix(0.84035382,0,0,0.93982154,5.1078999,-3.6689786)"
       cx="32"
       cy="32"
       fx="32"
       fy="32"
       r="25.875" />
    <linearGradient
       id="linearGradient5151-0">
      <stop
         id="stop5159-5"
         offset="0"
         style="stop-color:#ff8484;stop-opacity:1;" />
      <stop
         style="stop-color:#ff0000;stop-opacity:1;"
         offset="1"
         id="stop5155-0" />
    </linearGradient>
    <filter
       inkscape:collect="always"
       id="filter5605">
      <feGaussianBlur
         inkscape:collect="always"
         stdDeviation="0.51665071"
         id="feGaussianBlur5607" />
    </filter>
    <linearGradient
       inkscape:collect="always"
       xlink:href="#linearGradient5141"
       id="linearGradient3781"
       x1="-0.12610124"
       y1="64.528999"
       x2="0.20735021"
       y2="0.10395958"
       gradientUnits="userSpaceOnUse" />
    <linearGradient
       inkscape:collect="always"
       xlink:href="#linearGradient5151"
       id="linearGradient3789"
       x1="1.6022998"
       y1="-0.16642469"
       x2="1.5789803"
       y2="60.818138"
       gradientUnits="userSpaceOnUse" />
  </defs>
  <sodipodi:namedview
     id="base"
     pagecolor="#ffffff"
     bordercolor="#666666"
     borderopacity="1.0"
     inkscape:pageopacity="0.0"
     inkscape:pageshadow="2"
     inkscape:zoom="7.900655"
     inkscape:cx="46.571759"
     inkscape:cy="29.856813"
     inkscape:current-layer="layer4"
     showgrid="true"
     inkscape:document-units="px"
     inkscape:grid-bbox="true"
     showguides="true"
     inkscape:snap-grids="false"
     inkscape:snap-to-guides="false"
     inkscape:window-width="1440"
     inkscape:window-height="853"
     inkscape:window-x="0"
     inkscape:window-y="-3"
     inkscape:window-maximized="1"
     inkscape:guide-bbox="true">
    <inkscape:grid
       type="xygrid"
       id="grid5270" />
  </sodipodi:namedview>
  <metadata
     id="metadata5267">
    <rdf:RDF>
      <cc:Work
         rdf:about="">
        <dc:format>image/svg+xml</dc:format>
        <dc:type
           rdf:resource="http://purl.org/dc/dcmitype/StillImage" />
        <dc:title></dc:title>
      </cc:Work>
    </rdf:RDF>
  </metadata>
  <g
     inkscape:groupmode="layer"
     id="layer4"
     inkscape:label="Layer 0"
     style="display:inline">
    <path
       sodipodi:type="star"
       style="fill:url(#linearGradient3789);fill-opacity:1;fill-rule:evenodd;stroke:none"
       id="path3005"
       sodipodi:sides="16"
       sodipodi:cx="32.022659"
       sodipodi:cy="30.205334"
       sodipodi:r1="25.906027"
       sodipodi:r2="30.123287"
       sodipodi:arg1="1.0471976"
       sodipodi:arg2="1.2435471"
       inkscape:flatsided="false"
       inkscape:rounded="0"
       inkscape:randomized="0"
       d="m 44.975672,52.640612 -3.2702,6.08937 -6.301399,-2.840251 -5.351571,4.374394 -4.734817,-5.035491 -6.618215,1.993455 -2.447402,-6.464123 -6.8772953,-0.690969 0.2126086,-6.908651 -6.0893703,-3.270199 2.8402509,-6.3014 -4.3743935,-5.351571 5.0354908,-4.734817 -1.993455,-6.618215 6.4641228,-2.447401 0.690969,-6.8772959 6.908651,0.2126086 3.270199,-6.0893703 6.3014,2.840251 5.351571,-4.37439361 4.734817,5.03549091 6.618215,-1.9934551 2.447401,6.464123 6.877296,0.6909694 -0.212609,6.90865 6.089371,3.2702 -2.840251,6.301399 4.374393,5.351571 -5.035491,4.734817 1.993455,6.618215 -6.464123,2.447402 -0.690969,6.877295 z"
       inkscape:transform-center-x="-0.21422098"
       inkscape:transform-center-y="0.42795663"
       transform="matrix(1.0501891,0,0,1.0501891,-1.61961,0.29914005)" />
  </g>
  <g
     id="layer1"
     inkscape:label="Layer 1"
     inkscape:groupmode="layer"
     style="display:inline">
    <path
       style="fill:url(#linearGradient3781);fill-opacity:1.0;stroke:#000000;stroke-width:0;stroke-miterlimit:4;stroke-opacity:1;stroke-dasharray:none"
       d="m 31.92189,7.1372255 c -5.007467,0 -9.536438,1.4017047 -12.888124,3.8534185 -0.805663,0.589339 -1.465356,1.250223 -2.108965,1.952746 -2.008362,2.192179 -3.254578,4.842429 -3.254578,7.680802 l 0.104147,0 a 2.5871141,2.5871141 0 0 0 0,0.598842 c 0.0487,0.20701 0.06417,0.215952 0.130183,0.364512 -0.01036,0.06106 0.01037,0.140978 0,0.208294 -8e-4,0.03531 5.41e-4,0.09714 0,0.130182 -0.003,0.05093 2.24e-4,0.107617 0,0.130184 0.0062,0.05204 -0.0035,0.07225 0,0.104146 -0.183638,1.369714 -0.364659,3.754606 0.572805,8.253607 0.234413,1.125074 0.711375,2.014614 1.275795,2.681772 0.301535,0.356454 0.541525,0.557026 0.702988,0.702988 -0.04386,-0.03964 0.05759,0.05748 0.104147,0.104146 l 0,0.130183 0,0.23433 -0.104147,5.571836 a 2.5871141,2.5871141 0 0 0 1.978783,2.577625 l 4.530371,1.041464 c 0.071,0.21031 0.123242,0.341895 0.260366,0.598843 0.250876,0.470225 0.594526,1.037795 1.171648,1.614269 1.106135,1.104896 3.376041,2.396008 6.613301,2.447443 0.34448,0.0057 0.586677,-0.108499 0.91128,-0.130184 0.361943,0.02764 0.680535,0.136323 1.067502,0.130184 3.237259,-0.05142 5.50716,-1.342547 6.613301,-2.447443 0.577118,-0.576474 0.92076,-1.144044 1.171647,-1.614269 0.137085,-0.25694 0.189406,-0.388524 0.260366,-0.598843 l 4.530371,-1.041464 a 2.5871141,2.5871141 0 0 0 1.978783,-2.577625 l -0.104147,-5.571836 0,-0.23433 0,-0.130183 c 0.04656,-0.04667 0.148052,-0.143867 0.104147,-0.104146 0.161455,-0.145951 0.401434,-0.346517 0.702989,-0.702988 0.564419,-0.667158 1.041359,-1.556698 1.275793,-2.681772 0.93748,-4.499001 0.756455,-6.883893 0.572806,-8.253607 0.0036,-0.03186 -0.0062,-0.05214 0,-0.104146 -2.24e-4,-0.02303 0.0031,-0.07926 0,-0.130184 -5.39e-4,-0.033 7.78e-4,-0.09518 0,-0.130182 -0.01036,-0.06731 0.01036,-0.147235 0,-0.208294 0.06609,-0.14856 0.08152,-0.157424 0.130183,-0.364512 a 2.5871141,2.5871141 0 0 0 0,-0.598842 l 0.104146,0 c 0,-2.838373 -1.246215,-5.488623 -3.254577,-7.680802 -0.638404,-0.705578 -1.30787,-1.35967 -2.108965,-1.952746 -0.02609,-0.0188 -0.07797,0.0188 -0.104147,0 -1.648557,-1.2058905 -3.558805,-2.1588851 -5.702018,-2.8119539 -0.03492,-0.010362 -0.09556,0.00998 -0.130183,0 C 36.844431,7.5247805 34.425624,7.1372255 31.92189,7.1372255 z M 22.31438,25.206635 c 0.315236,-0.0064 0.676298,-0.0058 1.041465,0 4.628258,0.07333 7.147791,1.902419 6.509154,4.165859 -1.051164,3.72551 -4.001327,4.161315 -6.352935,4.139823 -6.209569,-0.05678 -3.354878,-0.459989 -4.426225,-4.139823 -0.757377,-2.601436 -1.500024,-4.070423 3.228541,-4.165859 z m 18.329777,0 c 5.84266,-0.09252 5.077878,1.39099 4.270005,4.165859 -1.071346,3.67983 1.783348,4.083052 -4.426225,4.139823 -2.351609,0.02148 -5.301766,-0.414317 -6.352934,-4.139823 -0.638637,-2.263443 1.880892,-4.092531 6.509154,-4.165859 z m -8.826413,8.279645 c 1.342032,0 3.176468,4.839817 3.176468,7.134032 0,2.294215 -1.782367,1.223721 -3.124395,1.223721 -1.342026,0 -2.864027,1.148608 -2.864027,-1.145611 0,-2.294215 1.469927,-7.212142 2.811954,-7.212142 z M 18.825473,44.083182 c 0.0067,-10e-4 -0.03274,0.02737 -0.02604,0.02604 0.0067,-0.0013 -0.03266,0.0017 -0.02604,0 0.0066,-0.0017 -0.03257,0.002 -0.02604,0 0.0065,-0.002 -0.03247,0.0024 -0.02604,0 0.0064,-0.0024 -0.0063,0.02865 0,0.02604 0.0063,-0.0026 -0.03221,0.0029 -0.02604,0 0.0062,-0.0029 -0.03206,0.02926 -0.02604,0.02604 0.006,-0.0033 -0.03189,0.0035 -0.02604,0 0.0058,-0.0035 -0.03171,0.02983 -0.02604,0.02604 0.0056,-0.0038 -0.03152,0.004 -0.02604,0 0.0052,-0.0043 -0.03109,0.0046 -0.02604,0 0.0051,-0.0046 -0.0048,0.03086 0,0.02604 0.0048,-0.0048 -0.03062,0.03109 -0.02604,0.02604 0.0046,-0.0051 -0.0043,0.03131 0,0.02604 0.0043,-0.0052 -0.0301,0.0055 -0.02604,0 0.004,-0.0055 -0.0038,0.03171 0,0.02604 0.0038,-0.0056 -0.02954,0.03189 -0.02604,0.02604 0.0035,-0.0058 -0.0033,0.03206 0,0.02604 0.0033,-0.006 -0.02895,0.0062 -0.02604,0 0.0029,-0.0062 -0.0026,0.03234 0,0.02604 0.0026,-0.0063 -0.02834,0.03247 -0.02604,0.02604 0.0024,-0.0064 -0.002,0.03257 0,0.02604 0.002,-0.0065 -0.0017,0.03266 0,0.02604 0.0017,-0.0066 -0.0013,0.03274 0,0.02604 0.0013,-0.0067 -0.02704,0.0067 -0.02604,0 10e-4,-0.0067 -6.69e-4,0.03284 0,0.02604 6.7e-4,-0.0068 -3.34e-4,0.03285 0,0.02604 3.35e-4,-0.0068 0,0.03287 0,0.02604 -3.34e-4,-0.0068 6.7e-4,0.03284 0,0.02604 -6.69e-4,-0.0068 10e-4,0.0328 0,0.02604 0.0011,0.01597 0.02494,0.01008 0.02604,0.02604 -0.0017,-0.0066 0.002,0.03257 0,0.02604 -0.002,-0.0065 0.0024,0.03247 0,0.02604 0.521288,7.221443 6.394866,12.940198 13.565077,12.940198 7.170211,0 13.044076,-5.719662 13.565076,-12.940198 -0.0024,0.0064 0.002,-0.03257 0,-0.02604 -0.002,0.0065 0.0017,-0.03266 0,-0.02604 0.0011,-0.01595 0.02499,-0.01006 0.02604,-0.02604 -10e-4,0.0067 6.69e-4,-0.03284 0,-0.02604 -6.69e-4,0.0068 3.35e-4,-0.03285 0,-0.02604 0,0.0068 -3.34e-4,-0.03285 0,-0.02604 3.35e-4,0.0068 -6.69e-4,-0.03284 0,-0.02604 6.69e-4,0.0068 -10e-4,-0.0328 0,-0.02604 0.001,0.0067 -0.02737,-0.0067 -0.02604,0 0.0013,0.0067 -0.0017,-0.03266 0,-0.02604 0.0017,0.0066 -0.002,-0.03257 0,-0.02604 0.002,0.0065 -0.0024,-0.03247 0,-0.02604 0.0024,0.0064 -0.02865,-0.03234 -0.02604,-0.02604 0.0026,0.0063 -0.003,-0.03221 0,-0.02604 0.0029,0.0062 -0.02926,-0.006 -0.02604,0 0.0033,0.006 -0.0035,-0.03189 0,-0.02604 0.0035,0.0058 -0.02983,-0.03171 -0.02604,-0.02604 0.0038,0.0056 -0.004,-0.03152 0,-0.02604 0.004,0.0055 -0.03037,-0.0052 -0.02604,0 0.0043,0.0052 -0.0046,-0.03109 0,-0.02604 0.0046,0.0051 -0.03086,-0.03086 -0.02604,-0.02604 0.0048,0.0048 -0.0051,-0.03062 0,-0.02604 0.0051,0.0046 -0.03131,-0.0043 -0.02604,0 0.0055,0.004 -0.03171,-0.0038 -0.02604,0 0.0056,0.0038 -0.03189,-0.02954 -0.02604,-0.02604 0.0058,0.0035 -0.03206,-0.0033 -0.02604,0 0.006,0.0033 -0.03221,-0.02895 -0.02604,-0.02604 0.0062,0.0029 -0.03234,-0.0026 -0.02604,0 0.0063,0.0026 -0.0064,-0.02834 0,-0.02604 0.0064,0.0024 -0.03257,-0.002 -0.02604,0 0.0065,0.002 -0.03266,-0.0017 -0.02604,0 0.0066,0.0017 -0.03274,-0.0013 -0.02604,0 0.0067,0.0013 -0.0328,-0.02704 -0.02604,-0.02604 0.0067,10e-4 -0.03284,-6.69e-4 -0.02604,0 0.0068,3.35e-4 -0.03287,0 -0.02604,0 l -0.05207,0 -2.603662,0 -0.02604,0 c 0.0068,6.69e-4 -0.03285,-3.35e-4 -0.02604,0 0.0068,0 -0.03285,3.35e-4 -0.02604,0 0.0068,-3.35e-4 -0.03284,6.69e-4 -0.02604,0 0.0068,-6.69e-4 -0.0328,10e-4 -0.02604,0 0.0067,-10e-4 -0.0067,0.02737 0,0.02604 0.0067,-0.0013 -0.03266,0.0017 -0.02604,0 0.0066,-0.0017 -0.03257,0.002 -0.02604,0 0.0065,-0.002 -0.03247,0.0024 -0.02604,0 0.0064,-0.0024 -0.03234,0.02865 -0.02604,0.02604 0.0063,-0.0026 -0.03221,0.0029 -0.02604,0 0.0062,-0.0029 -0.03206,0.02926 -0.02604,0.02604 0.0058,-0.0035 -0.03171,0.02983 -0.02604,0.02604 0.0056,-0.0038 -0.03151,0.004 -0.02604,0 0.0052,-0.0043 -0.03109,0.0046 -0.02604,0 0.0051,-0.0046 -0.03086,0.03086 -0.02604,0.02604 0.0048,-0.0048 -0.03062,0.03109 -0.02604,0.02604 0.0046,-0.0051 -0.0043,0.03131 0,0.02604 0.004,-0.0055 -0.0038,0.03171 0,0.02604 0.0038,-0.0056 -0.02954,0.03189 -0.02604,0.02604 0.0035,-0.0058 -0.0033,0.03206 0,0.02604 0.0033,-0.006 -0.02895,0.0062 -0.02604,0 0.0029,-0.0062 -0.0026,0.03234 0,0.02604 0.0026,-0.0063 -0.02834,0.03247 -0.02604,0.02604 0.0024,-0.0064 -0.002,0.03257 0,0.02604 0.002,-0.0065 -0.0017,0.03266 0,0.02604 0.0017,-0.0066 -0.0013,0.03274 0,0.02604 0.0013,-0.0067 -0.02704,0.0067 -0.02604,0 0.001,-0.0067 -6.69e-4,0.03284 0,0.02604 6.69e-4,-0.0068 -3.35e-4,0.03285 0,0.02604 -0.003,0.01396 0.0031,0.03814 0,0.05207 -1.037336,4.688092 -5.084237,8.149461 -9.945987,8.149461 -4.861749,0 -8.905902,-3.462242 -9.945987,-8.149461 -6.69e-4,0.0068 3.35e-4,-0.03285 0,-0.02604 0,0.0068 -3.35e-4,-0.03285 0,-0.02604 3.35e-4,0.0068 -6.69e-4,-0.03284 0,-0.02604 6.69e-4,0.0068 -0.001,-0.0328 0,-0.02604 10e-4,0.0067 -0.02737,-0.0067 -0.02604,0 0.0013,0.0067 -0.0017,-0.03266 0,-0.02604 0.0017,0.0066 -0.002,-0.03257 0,-0.02604 0.002,0.0065 -0.0024,-0.03247 0,-0.02604 0.0024,0.0064 -0.02865,-0.03234 -0.02604,-0.02604 0.0026,0.0063 -0.0029,-0.03221 0,-0.02604 0.003,0.0062 -0.02925,-0.006 -0.02604,0 0.0033,0.006 -0.0035,-0.03189 0,-0.02604 0.0035,0.0058 -0.02983,-0.03171 -0.02604,-0.02604 0.0038,0.0056 -0.004,-0.03152 0,-0.02604 0.0043,0.0052 -0.0046,-0.03109 0,-0.02604 0.0046,0.0051 -0.03086,-0.03086 -0.02604,-0.02604 0.0048,0.0048 -0.03109,-0.03062 -0.02604,-0.02604 0.0051,0.0046 -0.03131,-0.0043 -0.02604,0 0.0055,0.004 -0.03171,-0.0038 -0.02604,0 0.0056,0.0038 -0.03189,-0.02954 -0.02604,-0.02604 0.006,0.0033 -0.03221,-0.02895 -0.02604,-0.02604 0.0062,0.0029 -0.03234,-0.0026 -0.02604,0 0.0063,0.0026 -0.03247,-0.02834 -0.02604,-0.02604 0.0064,0.0024 -0.03257,-0.002 -0.02604,0 0.0065,0.002 -0.03266,-0.0017 -0.02604,0 0.0066,0.0017 -0.03274,-0.0013 -0.02604,0 0.0067,0.0013 -0.0067,-0.02704 0,-0.02604 0.0067,0.001 -0.03283,-6.69e-4 -0.02604,0 0.0068,6.69e-4 -0.03286,-3.35e-4 -0.02604,0 0.0068,0 -0.03286,3.35e-4 -0.02604,0 l -0.05207,0 -2.603661,0 -0.02604,0 c 0.0068,6.69e-4 -0.03286,-3.35e-4 -0.02604,0 0.0068,3.35e-4 -0.03287,0 -0.02604,0 0.0068,-6.69e-4 -0.0328,0.001 -0.02604,0 z"
       id="path4985"
       inkscape:connector-curvature="0" />
  </g>
  <g
     inkscape:groupmode="layer"
     id="layer5"
     inkscape:label="Layer 2"
     style="display:inline" />
</svg>
