<?xml version="1.0" encoding="UTF-8" standalone="no"?>
<!-- Created with Inkscape (http://www.inkscape.org/) -->

<svg
   xmlns:dc="http://purl.org/dc/elements/1.1/"
   xmlns:cc="http://creativecommons.org/ns#"
   xmlns:rdf="http://www.w3.org/1999/02/22-rdf-syntax-ns#"
   xmlns:svg="http://www.w3.org/2000/svg"
   xmlns="http://www.w3.org/2000/svg"
   xmlns:xlink="http://www.w3.org/1999/xlink"
   xmlns:sodipodi="http://sodipodi.sourceforge.net/DTD/sodipodi-0.dtd"
   xmlns:inkscape="http://www.inkscape.org/namespaces/inkscape"
   width="32"
   height="32"
   id="svg2"
   version="1.1"
   inkscape:version="0.48.0 r9654"
   sodipodi:docname="jammer.svg"
   inkscape:export-filename="/home/awrapp/Documents/new stuff/jammer.png"
   inkscape:export-xdpi="90"
   inkscape:export-ydpi="90">
  <defs
     id="defs4">
    <linearGradient
       id="linearGradient3847">
      <stop
         style="stop-color:#ffffff;stop-opacity:1;"
         offset="0"
         id="stop3849" />
      <stop
         style="stop-color:#d5d5d5;stop-opacity:1;"
         offset="1"
         id="stop3851" />
    </linearGradient>
    <linearGradient
       id="linearGradient3833">
      <stop
         style="stop-color:#00cabe;stop-opacity:1;"
         offset="0"
         id="stop3835" />
      <stop
         style="stop-color:#77fff7;stop-opacity:1;"
         offset="1"
         id="stop3837" />
    </linearGradient>
    <linearGradient
       inkscape:collect="always"
       xlink:href="#linearGradient3833"
       id="linearGradient3839"
       x1="17.196539"
       y1="15.95355"
       x2="27.383678"
       y2="15.95355"
       gradientUnits="userSpaceOnUse" />
    <linearGradient
       inkscape:collect="always"
       xlink:href="#linearGradient3833"
       id="linearGradient3841"
       x1="4.4563073"
       y1="15.894665"
       x2="14.643446"
       y2="15.894665"
       gradientUnits="userSpaceOnUse" />
    <linearGradient
       inkscape:collect="always"
       xlink:href="#linearGradient3833"
       id="linearGradient3844"
       gradientUnits="userSpaceOnUse"
       x1="0.17059311"
       y1="32.055378"
       x2="0.089874499"
       y2="0.180379" />
    <linearGradient
       inkscape:collect="always"
       xlink:href="#linearGradient3847"
       id="linearGradient3859"
       x1="0.15624999"
       y1="0.48883924"
       x2="0.058035642"
       y2="31.560268"
       gradientUnits="userSpaceOnUse" />
    <linearGradient
       inkscape:collect="always"
       xlink:href="#linearGradient3847"
       id="linearGradient4714"
       x1="32"
       y1="0"
       x2="32"
       y2="32"
       gradientUnits="userSpaceOnUse" />
    <linearGradient
       inkscape:collect="always"
       xlink:href="#linearGradient3847-3"
       id="linearGradient4714-0"
       x1="32"
       y1="0"
       x2="32"
       y2="32"
       gradientUnits="userSpaceOnUse" />
    <linearGradient
       id="linearGradient3847-3">
      <stop
         style="stop-color:#ffffff;stop-opacity:1;"
         offset="0"
         id="stop3849-9" />
      <stop
         style="stop-color:#d5d5d5;stop-opacity:1;"
         offset="1"
         id="stop3851-1" />
    </linearGradient>
    <linearGradient
       inkscape:collect="always"
       xlink:href="#linearGradient3833"
       id="linearGradient3812"
       x1="-0.24655786"
       y1="32.633793"
       x2="-0.015823357"
       y2="-0.44870439"
       gradientUnits="userSpaceOnUse"
       gradientTransform="matrix(1.0315989,0,0,1.0315989,-0.50558259,-0.27119979)" />
    <linearGradient
       inkscape:collect="always"
       xlink:href="#linearGradient3833"
       id="linearGradient3836"
       x1="9.9214334"
       y1="25.199707"
       x2="9.9368916"
       y2="6.6850219"
       gradientUnits="userSpaceOnUse"
       gradientTransform="matrix(1.0315989,0,0,1.0315989,-0.53718126,-0.36586616)" />
    <linearGradient
       inkscape:collect="always"
       xlink:href="#linearGradient3833"
       id="linearGradient3838"
       x1="7.0900078"
       y1="29.279589"
       x2="7.111649"
       y2="3.359031"
       gradientUnits="userSpaceOnUse"
       gradientTransform="matrix(1.0315989,0,0,1.0315989,-0.53718134,-0.32261932)" />
    <linearGradient
       inkscape:collect="always"
       xlink:href="#linearGradient3833"
       id="linearGradient3840"
       x1="0.48334607"
       y1="38.799313"
       x2="0.51941556"
       y2="-4.4016151"
       gradientUnits="userSpaceOnUse"
       gradientTransform="matrix(1.0315989,0,0,1.0315989,-0.53718129,-0.22170998)" />
    <linearGradient
       inkscape:collect="always"
       xlink:href="#linearGradient3833"
       id="linearGradient3872"
       x1="-0.43441015"
       y1="31.590797"
       x2="-0.41899166"
       y2="-0.55121142"
       gradientUnits="userSpaceOnUse"
       gradientTransform="matrix(1.0315989,0,0,1.0315989,-0.50558241,-0.25317942)" />
  </defs>
  <sodipodi:namedview
     id="base"
     pagecolor="#000000"
     bordercolor="#666666"
     borderopacity="1.0"
     inkscape:pageopacity="0"
     inkscape:pageshadow="2"
     inkscape:zoom="15.839192"
     inkscape:cx="8.894025"
     inkscape:cy="13.900409"
     inkscape:document-units="px"
     inkscape:current-layer="layer2"
     showgrid="true"
     inkscape:snap-grids="false"
     inkscape:snap-to-guides="false"
     inkscape:window-width="1440"
     inkscape:window-height="853"
     inkscape:window-x="0"
     inkscape:window-y="-3"
     inkscape:window-maximized="1">
    <inkscape:grid
       type="xygrid"
       id="grid3040"
       empspacing="5"
       dotted="true"
       visible="true"
       enabled="true"
       snapvisiblegridlinesonly="true" />
  </sodipodi:namedview>
  <metadata
     id="metadata7">
    <rdf:RDF>
      <cc:Work
         rdf:about="">
        <dc:format>image/svg+xml</dc:format>
        <dc:type
           rdf:resource="http://purl.org/dc/dcmitype/StillImage" />
        <dc:title></dc:title>
      </cc:Work>
    </rdf:RDF>
  </metadata>
  <g
     inkscape:label="Layer 1"
     inkscape:groupmode="layer"
     id="layer1"
     transform="translate(0,-1020.3622)"
     style="display:none"
     sodipodi:insensitive="true" />
  <g
     inkscape:groupmode="layer"
     id="layer2"
     inkscape:label="Layer 2"
     style="display:inline">
    <path
       sodipodi:type="arc"
       style="fill:none;stroke:url(#linearGradient3840);stroke-width:1.73205078;stroke-miterlimit:4;stroke-opacity:1;stroke-dasharray:none"
       id="path4616"
       sodipodi:cx="17"
       sodipodi:cy="15"
       sodipodi:rx="6"
       sodipodi:ry="8"
       d="m 23,15 a 6,8 0 1 1 -12,0 6,8 0 1 1 12,0 z"
       transform="matrix(0.94632318,0,0,0.70974239,-0.08749428,3.6027478)" />
    <path
       sodipodi:type="arc"
       style="fill:none;stroke:url(#linearGradient3838);stroke-width:1.0798254;stroke-miterlimit:4;stroke-opacity:1;stroke-dasharray:none;display:inline"
       id="path4616-3"
       sodipodi:cx="17"
       sodipodi:cy="15"
       sodipodi:rx="6"
       sodipodi:ry="8"
       d="m 23,15 a 6,8 0 1 1 -12,0 6,8 0 1 1 12,0 z"
       transform="matrix(1.5772053,0,0,1.182904,-10.81249,-3.4946761)" />
    <path
       sodipodi:type="arc"
       style="fill:none;stroke:url(#linearGradient3836);stroke-width:0.77130395;stroke-miterlimit:4;stroke-opacity:1;stroke-dasharray:none;display:inline"
       id="path4616-4"
       sodipodi:cx="17"
       sodipodi:cy="15"
       sodipodi:rx="6"
       sodipodi:ry="8"
       d="m 23,15 a 6,8 0 1 1 -12,0 6,8 0 1 1 12,0 z"
       transform="matrix(2.2080873,0,0,1.6560655,-21.537484,-10.592098)" />
    <path
       sodipodi:type="arc"
       style="fill:none;stroke:url(#linearGradient3872);stroke-width:3;stroke-miterlimit:4;stroke-opacity:1;stroke-dasharray:none"
       id="path4687"
       sodipodi:cx="16"
       sodipodi:cy="14"
       sodipodi:rx="2"
       sodipodi:ry="2"
       d="m 18,14 a 2,2 0 1 1 -4,0 2,2 0 1 1 4,0 z"
       transform="matrix(0.94632318,0,0,0.94632318,0.85882887,1.0003591)" />
    <path
       sodipodi:type="inkscape:offset"
       inkscape:radius="0.4552696"
       inkscape:original="M 9.1875 6.625 L 9.1875 21.25 L 12.125 21.25 L 12.125 15.40625 L 14.09375 15.40625 L 14.09375 24.1875 L 12.125 27.125 L 12.125 29.0625 L 10.1875 32 L 21.875 32 L 19.9375 29.0625 L 19.9375 27.125 L 17.96875 24.1875 L 17.96875 15.40625 L 19.9375 15.40625 L 19.9375 21.25 L 22.875 21.25 L 22.875 6.625 L 19.9375 6.625 L 19.9375 12.46875 L 12.125 12.46875 L 12.125 6.625 L 9.1875 6.625 z "
       style="fill:url(#linearGradient3812);fill-opacity:1;stroke:none;display:inline"
       id="path3036"
       d="M 9.1875,6.15625 A 0.45531513,0.45531513 0 0 0 8.71875,6.625 l 0,14.625 a 0.45531513,0.45531513 0 0 0 0.46875,0.46875 l 2.9375,0 A 0.45531513,0.45531513 0 0 0 12.59375,21.25 l 0,-5.375 1.03125,0 0,8.1875 -1.875,2.8125 a 0.45531513,0.45531513 0 0 0 -0.09375,0.25 l 0,1.84375 L 9.8125,31.75 a 0.45531513,0.45531513 0 0 0 0.375,0.71875 l 11.6875,0 A 0.45531513,0.45531513 0 0 0 22.25,31.75 l -1.84375,-2.78125 0,-1.84375 a 0.45531513,0.45531513 0 0 0 -0.09375,-0.25 l -1.875,-2.8125 0,-8.1875 1.03125,0 0,5.375 a 0.45531513,0.45531513 0 0 0 0.46875,0.46875 l 2.9375,0 A 0.45531513,0.45531513 0 0 0 23.34375,21.25 l 0,-14.625 A 0.45531513,0.45531513 0 0 0 22.875,6.15625 l -2.9375,0 A 0.45531513,0.45531513 0 0 0 19.46875,6.625 l 0,5.375 -6.875,0 0,-5.375 A 0.45531513,0.45531513 0 0 0 12.125,6.15625 l -2.9375,0 z"
       transform="matrix(0.96936902,0,0,0.96936902,0.4900959,0.26289267)" />
  </g>
  <g
     inkscape:groupmode="layer"
     id="layer3"
     inkscape:label="Layer 3"
     style="display:inline">
    <path
       style="fill:url(#linearGradient4714);fill-opacity:1;stroke:none"
       d="m 9.365881,6.6849624 0,14.1770226 2.847521,0 0,-5.66475 1.908446,0 0,8.512271 -1.908446,2.847522 0,1.878152 -1.878152,2.847522 11.3295,0 -1.878152,-2.847522 0,-1.878152 -1.908446,-2.847522 0,-8.512271 1.908446,0 0,5.66475 2.847521,0 0,-14.1770226 -2.847521,0 0,5.6647506 -7.573196,0 0,-5.6647506 -2.847521,0 z"
       id="rect4568"
       inkscape:connector-curvature="0" />
  </g>
</svg>
