<?xml version="1.0" encoding="UTF-8" standalone="no"?>
<!-- Created with Inkscape (http://www.inkscape.org/) -->

<svg
   xmlns:dc="http://purl.org/dc/elements/1.1/"
   xmlns:cc="http://creativecommons.org/ns#"
   xmlns:rdf="http://www.w3.org/1999/02/22-rdf-syntax-ns#"
   xmlns:svg="http://www.w3.org/2000/svg"
   xmlns="http://www.w3.org/2000/svg"
   xmlns:xlink="http://www.w3.org/1999/xlink"
   xmlns:sodipodi="http://sodipodi.sourceforge.net/DTD/sodipodi-0.dtd"
   xmlns:inkscape="http://www.inkscape.org/namespaces/inkscape"
   width="32"
   height="32"
   id="svg2"
   version="1.1"
   inkscape:version="0.48.0 r9654"
   sodipodi:docname="weaponmod_disruptor_ammo.svg"
   inkscape:export-filename="/home/awrapp/Documents/new stuff/weaponmod_disruptor_ammo.png"
   inkscape:export-xdpi="180"
   inkscape:export-ydpi="180">
  <defs
     id="defs4">
    <linearGradient
       id="linearGradient3847">
      <stop
         style="stop-color:#ffffff;stop-opacity:1;"
         offset="0"
         id="stop3849" />
      <stop
         style="stop-color:#d5d5d5;stop-opacity:1;"
         offset="1"
         id="stop3851" />
    </linearGradient>
    <linearGradient
       id="linearGradient3833">
      <stop
         style="stop-color:#6a00c6;stop-opacity:1;"
         offset="0"
         id="stop3835" />
      <stop
         style="stop-color:#b04fff;stop-opacity:1;"
         offset="1"
         id="stop3837" />
    </linearGradient>
    <linearGradient
       inkscape:collect="always"
       xlink:href="#linearGradient3833"
       id="linearGradient3839"
       x1="17.196539"
       y1="15.95355"
       x2="27.383678"
       y2="15.95355"
       gradientUnits="userSpaceOnUse" />
    <linearGradient
       inkscape:collect="always"
       xlink:href="#linearGradient3833"
       id="linearGradient3841"
       x1="4.4563073"
       y1="15.894665"
       x2="14.643446"
       y2="15.894665"
       gradientUnits="userSpaceOnUse" />
    <linearGradient
       inkscape:collect="always"
       xlink:href="#linearGradient3833"
       id="linearGradient3844"
       gradientUnits="userSpaceOnUse"
       x1="0.17059311"
       y1="32.055378"
       x2="0.089874499"
       y2="0.180379" />
    <linearGradient
       inkscape:collect="always"
       xlink:href="#linearGradient3847"
       id="linearGradient3859"
       x1="0.15624999"
       y1="0.48883924"
       x2="0.058035642"
       y2="31.560268"
       gradientUnits="userSpaceOnUse" />
    <linearGradient
       inkscape:collect="always"
       xlink:href="#linearGradient3833"
       id="linearGradient5011"
       x1="0.082345895"
       y1="31.906734"
       x2="-0.083394065"
       y2="-0.039339755"
       gradientUnits="userSpaceOnUse" />
    <linearGradient
       inkscape:collect="always"
       xlink:href="#linearGradient3847"
       id="linearGradient5019"
       x1="-0.068687506"
       y1="0.0056857299"
       x2="0.16489926"
       y2="32.07803"
       gradientUnits="userSpaceOnUse" />
    <linearGradient
       inkscape:collect="always"
       xlink:href="#linearGradient3847"
       id="linearGradient4021"
       x1="0.0070711928"
       y1="0.03875218"
       x2="-0.01627879"
       y2="31.921692"
       gradientUnits="userSpaceOnUse" />
    <linearGradient
       inkscape:collect="always"
       xlink:href="#linearGradient3833-1"
       id="linearGradient4029-6"
       x1="0.16719507"
       y1="31.846767"
       x2="0.076134875"
       y2="-0.036171541"
       gradientUnits="userSpaceOnUse" />
    <linearGradient
       id="linearGradient3833-1">
      <stop
         style="stop-color:#00cabe;stop-opacity:1;"
         offset="0"
         id="stop3835-0" />
      <stop
         style="stop-color:#77fff7;stop-opacity:1;"
         offset="1"
         id="stop3837-4" />
    </linearGradient>
    <linearGradient
       inkscape:collect="always"
       xlink:href="#linearGradient3847"
       id="linearGradient3900"
       x1="-0.017991496"
       y1="0.053842373"
       x2="0.0087829465"
       y2="32.063049"
       gradientUnits="userSpaceOnUse" />
    <linearGradient
       inkscape:collect="always"
       xlink:href="#linearGradient3847"
       id="linearGradient4270"
       x1="0.22321428"
       y1="0.27231571"
       x2="-0.18747708"
       y2="33.129459"
       gradientUnits="userSpaceOnUse" />
    <linearGradient
       inkscape:collect="always"
       xlink:href="#linearGradient3833"
       id="linearGradient4278"
       x1="0.18737996"
       y1="32.422398"
       x2="0.026812449"
       y2="0.27953926"
       gradientUnits="userSpaceOnUse" />
  </defs>
  <sodipodi:namedview
     id="base"
     pagecolor="#000000"
     bordercolor="#666666"
     borderopacity="1.0"
     inkscape:pageopacity="0"
     inkscape:pageshadow="2"
     inkscape:zoom="5.6"
     inkscape:cx="13.673898"
     inkscape:cy="8.166031"
     inkscape:document-units="px"
     inkscape:current-layer="layer1"
     showgrid="true"
     inkscape:snap-grids="false"
     inkscape:snap-to-guides="false"
     inkscape:window-width="733"
     inkscape:window-height="850"
     inkscape:window-x="707"
     inkscape:window-y="0"
     inkscape:window-maximized="0">
    <inkscape:grid
       type="xygrid"
       id="grid3040"
       empspacing="5"
       dotted="true"
       visible="true"
       enabled="true"
       snapvisiblegridlinesonly="true" />
  </sodipodi:namedview>
  <metadata
     id="metadata7">
    <rdf:RDF>
      <cc:Work
         rdf:about="">
        <dc:format>image/svg+xml</dc:format>
        <dc:type
           rdf:resource="http://purl.org/dc/dcmitype/StillImage" />
        <dc:title />
      </cc:Work>
    </rdf:RDF>
  </metadata>
  <g
     inkscape:label="Layer 1"
     inkscape:groupmode="layer"
     id="layer1"
     transform="translate(0,-1020.3622)"
     style="display:inline">
    <path
       style="fill:url(#linearGradient4278);fill-opacity:1;fill-rule:evenodd;stroke:none"
       d="m 15.8125,1.8125 a 1.5113336,2.4693683 0 0 0 0,0.03125 1.5113336,2.4693683 0 0 0 -1.1875,1.3125 l -2.90625,9.25 -0.0625,0.1875 A 1.5113336,2.4693683 0 0 0 11.5,13.75 l 0,4.65625 0,2.21875 0,3.34375 c 0,1.183335 0.446656,1.938672 0.71875,2.25 0.272094,0.311328 0.484197,0.402995 0.6875,0.5 0.406606,0.194009 0.788547,0.25 1.21875,0.25 l 3.71875,0 c 0.430203,0 0.812144,-0.05599 1.21875,-0.25 0.203303,-0.097 0.415406,-0.188672 0.6875,-0.5 0.272094,-0.311328 0.71875,-1.066665 0.71875,-2.25 l 0,-3.34375 0,-2.21875 0,-4.65625 a 1.5113336,2.4693683 0 0 0 -0.25,-1.40625 1.5113336,2.4693683 0 0 0 0,-0.03125 L 17.3125,3.15625 a 1.5113336,2.4693683 0 0 0 -1.5,-1.34375 z M 5.75,5.03125 A 1.5113336,2.4693683 0 0 0 4.5625,6.375 l -2.90625,9.25 -0.0625,0.1875 a 1.5113336,2.4693683 0 0 0 -0.15625,1.125 l 0,4.65625 0,2.25 0,3.34375 c 0,1.183335 0.4466559,1.938672 0.71875,2.25 0.2720941,0.311328 0.484197,0.402995 0.6875,0.5 0.4066059,0.194009 0.7885466,0.25 1.21875,0.25 l 3.71875,0 c 0.4302034,0 0.8121442,-0.05599 1.21875,-0.25 0.2033031,-0.097 0.4154059,-0.188672 0.6875,-0.5 0.2720941,-0.311328 0.71875,-1.066665 0.71875,-2.25 l 0,-3.34375 0,-2.25 0,-4.65625 a 1.5113336,2.4693683 0 0 0 -0.25,-1.375 1.5113336,2.4693683 0 0 0 0,-0.03125 L 7.25,6.375 A 1.5113336,2.4693683 0 0 0 5.75,5.03125 z m 20.15625,0 A 1.5113336,2.4693683 0 0 0 24.75,6.375 l -2.90625,9.25 -0.09375,0.1875 a 1.5113336,2.4693683 0 0 0 -0.15625,1.125 l 0,4.65625 0,2.25 0,3.34375 c 0,1.183335 0.446656,1.938672 0.71875,2.25 0.272094,0.311328 0.484197,0.402995 0.6875,0.5 0.406606,0.194009 0.788547,0.25 1.21875,0.25 l 3.71875,0 c 0.430203,0 0.812144,-0.05599 1.21875,-0.25 0.203303,-0.097 0.415406,-0.188672 0.6875,-0.5 0.272094,-0.311328 0.71875,-1.066665 0.71875,-2.25 l 0,-3.34375 0,-2.25 0,-4.65625 a 1.5113336,2.4693683 0 0 0 -0.25,-1.375 1.5113336,2.4693683 0 0 0 0,-0.03125 L 27.4375,6.375 A 1.5113336,2.4693683 0 0 0 25.90625,5.03125 z"
       transform="translate(0,1020.3622)"
       id="path4063"
       inkscape:connector-curvature="0" />
  </g>
  <g
     inkscape:groupmode="layer"
     id="layer2"
     inkscape:label="Layer 2"
     style="display:inline"
     sodipodi:insensitive="true">
    <path
       style="fill:url(#linearGradient4270);fill-opacity:1;fill-rule:evenodd;stroke:none;display:inline"
       d="M 15.96875,3.3125 A 1.249998,2.2429081 0 0 0 15.84375,3.34375 1.249998,2.2429081 0 0 0 14.875,4.5625 l -2.40625,8.375 -0.0625,0.1875 A 1.249998,2.2429081 0 0 0 12.25,14.15625 l 0,4.21875 0,2.03125 0,3.03125 c 0,1.0748 0.399955,1.7797 0.625,2.0625 0.225044,0.2828 0.394352,0.38075 0.5625,0.46875 0.336297,0.1765 0.675437,0.21875 1.03125,0.21875 l 3.03125,0 c 0.355813,0 0.694954,-0.04215 1.03125,-0.21875 0.168149,-0.088 0.337457,-0.18595 0.5625,-0.46875 0.225046,-0.2828 0.59375,-0.9877 0.59375,-2.0625 l 0,-3.03125 0,-2.03125 0,-4.21875 A 1.249998,2.2429081 0 0 0 19.46875,12.875 l -2.375,-8.3125 a 1.249998,2.2429081 0 0 0 -1.125,-1.25 z M 5.90625,6.53125 A 1.249998,2.2429081 0 0 0 5.78125,6.5625 1.249998,2.2429081 0 0 0 4.8125,7.78125 l -2.40625,8.375 -0.0625,0.1875 A 1.249998,2.2429081 0 0 0 2.1875,17.375 l 0,4.21875 0,2.03125 0,3.03125 c 0,1.0748 0.399955,1.7797 0.625,2.0625 0.225044,0.2828 0.394352,0.3495 0.5625,0.4375 0.336297,0.1765 0.675437,0.21875 1.03125,0.21875 l 3.03125,0 c 0.355813,0 0.694954,-0.04215 1.03125,-0.21875 0.168149,-0.088 0.337457,-0.1547 0.5625,-0.4375 0.225046,-0.2828 0.59375,-0.9877 0.59375,-2.0625 l 0,-3.03125 0,-2.03125 0,-4.21875 a 1.249998,2.2429081 0 0 0 -0.21875,-1.28125 1.249998,2.2429081 0 0 0 0,-0.03125 l -2.375,-8.28125 a 1.249998,2.2429081 0 0 0 -1.125,-1.25 z m 20.15625,0 a 1.249998,2.2429081 0 0 0 -0.09375,0.03125 1.249998,2.2429081 0 0 0 -1,1.21875 l -2.40625,8.375 -0.0625,0.1875 A 1.249998,2.2429081 0 0 0 22.375,17.375 l 0,4.21875 0,2.03125 0,3.03125 c 0,1.0748 0.368705,1.7797 0.59375,2.0625 0.225044,0.2828 0.394352,0.3495 0.5625,0.4375 0.336297,0.1765 0.675437,0.21875 1.03125,0.21875 l 3.03125,0 c 0.355813,0 0.694954,-0.04215 1.03125,-0.21875 0.168149,-0.088 0.337457,-0.1547 0.5625,-0.4375 0.225046,-0.2828 0.625,-0.9877 0.625,-2.0625 l 0,-3.03125 0,-2.03125 0,-4.21875 a 1.249998,2.2429081 0 0 0 -0.21875,-1.28125 1.249998,2.2429081 0 0 0 0,-0.03125 L 27.1875,7.78125 a 1.249998,2.2429081 0 0 0 -1.125,-1.25 z m -10.03125,5.125 a 0.1538395,0.16894466 0 0 1 0.03125,0 l 0.25,0 a 0.1538395,0.16894466 0 0 1 0.03125,0 l 0.28125,0 a 0.1538395,0.16894466 0 0 1 0.03125,0 0.1538395,0.16894466 0 0 1 0.03125,0 0.1538395,0.16894466 0 0 1 0.03125,0.03125 0.1538395,0.16894466 0 0 1 0.03125,0.03125 0.1538395,0.16894466 0 0 1 0.03125,0.03125 0.1538395,0.16894466 0 0 1 0,0.03125 0.1538395,0.16894466 0 0 1 0,0.03125 0.1538395,0.16894466 0 0 1 0,0.03125 c -0.01825,0.3371 -0.28365,0.6068 -0.59375,0.8125 -0.3101,0.2055 -0.680249,0.36505 -1.125,0.40625 -0.329455,0.03 -0.629663,0.1076 -0.84375,0.25 -0.214087,0.1424 -0.336748,0.3081 -0.34375,0.4375 -0.01861,0.3436 0.183286,0.6564 0.59375,0.875 0.410464,0.2186 1.007059,0.34425 1.6875,0.28125 0.869372,-0.081 1.646762,0.0683 2.21875,0.375 0.571989,0.3071 0.969682,0.7805 0.9375,1.375 -0.0322,0.5948 -0.461194,1.12985 -1.0625,1.53125 -0.601304,0.4013 -1.381474,0.6696 -2.25,0.75 -0.680953,0.063 -1.335022,0.3244 -1.78125,0.625 -0.446228,0.3006 -0.668853,0.6556 -0.6875,1 -0.01861,0.3435 0.152035,0.62525 0.5625,0.84375 0.410465,0.2187 1.00706,0.34435 1.6875,0.28125 0.869373,-0.081 1.646761,0.03725 2.21875,0.34375 0.571989,0.3071 0.969683,0.81185 0.9375,1.40625 -0.01825,0.337 -0.252399,0.607 -0.5625,0.8125 -0.310099,0.2055 -0.680252,0.36495 -1.125,0.40625 -0.329455,0.03 -0.660912,0.13885 -0.875,0.28125 -0.214088,0.1423 -0.305498,0.3083 -0.3125,0.4375 a 0.1538395,0.16894466 0 0 1 0,0.03125 A 0.1538395,0.16894466 0 0 1 16.03125,25.4375 0.1538395,0.16894466 0 0 1 16,25.46875 0.1538395,0.16894466 0 0 1 15.96875,25.5 a 0.1538395,0.16894466 0 0 1 0,0.03125 0.1538395,0.16894466 0 0 1 -0.03125,0 0.1538395,0.16894466 0 0 1 -0.03125,0 l -0.28125,0.03125 -0.25,0.03125 a 0.1538395,0.16894466 0 0 1 -0.03125,0 0.1538395,0.16894466 0 0 1 -0.03125,0 0.1538395,0.16894466 0 0 1 -0.03125,0 0.1538395,0.16894466 0 0 1 0,-0.03125 A 0.1538395,0.16894466 0 0 1 15.25,25.53125 0.1538395,0.16894466 0 0 1 15.21875,25.5 0.1538395,0.16894466 0 0 1 15.1875,25.46875 a 0.1538395,0.16894466 0 0 1 0,-0.03125 0.1538395,0.16894466 0 0 1 0,-0.03125 c 0.01825,-0.337 0.2524,-0.6068 0.5625,-0.8125 0.310099,-0.2054 0.711501,-0.36515 1.15625,-0.40625 0.32759,-0.031 0.629373,-0.1011 0.84375,-0.25 0.214377,-0.1491 0.336736,-0.33915 0.34375,-0.46875 0.01862,-0.3437 -0.214657,-0.6631 -0.625,-0.875 -0.410341,-0.2121 -0.974878,-0.28185 -1.65625,-0.21875 -0.869375,0.081 -1.646761,-0.09845 -2.21875,-0.40625 -0.571989,-0.3071 -0.969682,-0.7807 -0.9375,-1.375 0.0322,-0.5948 0.461194,-1.12995 1.0625,-1.53125 0.601306,-0.4013 1.381476,-0.6694 2.25,-0.75 0.680099,-0.063 1.328164,-0.28585 1.78125,-0.59375 0.453085,-0.3079 0.700199,-0.68875 0.71875,-1.03125 0.0185,-0.3418 -0.20765,-0.68705 -0.625,-0.90625 -0.41735,-0.219 -0.975887,-0.3131 -1.65625,-0.25 -0.868598,0.081 -1.646655,-0.0751 -2.21875,-0.375 -0.572093,-0.2996 -0.969677,-0.74945 -0.9375,-1.34375 0.01843,-0.3403 0.246363,-0.6075 0.5625,-0.8125 0.316138,-0.2049 0.711631,-0.36505 1.15625,-0.40625 0.327433,-0.031 0.667562,-0.13295 0.875,-0.28125 0.207441,-0.1479 0.274033,-0.3042 0.28125,-0.4375 a 0.1538395,0.16894466 0 0 1 0,-0.03125 0.1538395,0.16894466 0 0 1 0,-0.03125 0.1538395,0.16894466 0 0 1 0,-0.03125 0.1538395,0.16894466 0 0 1 0.03125,0 0.1538395,0.16894466 0 0 1 0,-0.03125 0.1538395,0.16894466 0 0 1 0.03125,0 0.1538395,0.16894466 0 0 1 0,-0.03125 A 0.1538395,0.16894466 0 0 1 16,11.6875 0.1538395,0.16894466 0 0 1 16.03125,11.65625 z M 6.25,14.84375 a 0.1538395,0.16894466 0 0 1 0.03125,0 l 0.28125,0 a 0.1538395,0.16894466 0 0 1 0.03125,0 0.1538395,0.16894466 0 0 1 0.03125,0.03125 0.1538395,0.16894466 0 0 1 0.03125,0.03125 0.1538395,0.16894466 0 0 1 0.03125,0.03125 0.1538395,0.16894466 0 0 1 0.03125,0.03125 0.1538395,0.16894466 0 0 1 0,0.03125 0.1538395,0.16894466 0 0 1 0,0.0625 C 6.7005,15.3996 6.4351,15.6693 6.125,15.875 5.8149,16.0805 5.444751,16.24005 5,16.28125 c -0.329455,0.03 -0.629663,0.1076 -0.84375,0.25 -0.214087,0.1424 -0.336748,0.3081 -0.34375,0.4375 -0.01861,0.3436 0.183286,0.6564 0.59375,0.875 0.410464,0.2186 1.007059,0.313 1.6875,0.25 0.869372,-0.081 1.646762,0.09955 2.21875,0.40625 0.571989,0.3071 0.969682,0.7805 0.9375,1.375 -0.0322,0.5948 -0.461194,1.12985 -1.0625,1.53125 -0.601304,0.4013 -1.381474,0.6696 -2.25,0.75 -0.680953,0.063 -1.335022,0.29315 -1.78125,0.59375 -0.446228,0.3006 -0.668853,0.6556 -0.6875,1 -0.01861,0.3435 0.152035,0.6565 0.5625,0.875 0.410465,0.2187 1.00706,0.34435 1.6875,0.28125 0.869373,-0.081 1.646761,0.03725 2.21875,0.34375 0.571989,0.3071 0.969683,0.81185 0.9375,1.40625 -0.01825,0.337 -0.252399,0.607 -0.5625,0.8125 -0.310099,0.2055 -0.6802516,0.36495 -1.125,0.40625 -0.329455,0.03 -0.660912,0.13885 -0.875,0.28125 C 6.098412,28.29855 6.007002,28.46455 6,28.59375 A 0.1538395,0.16894466 0 0 1 6,28.625 0.1538395,0.16894466 0 0 1 5.96875,28.65625 0.1538395,0.16894466 0 0 1 5.9375,28.6875 a 0.1538395,0.16894466 0 0 1 -0.03125,0.03125 0.1538395,0.16894466 0 0 1 0,0.03125 0.1538395,0.16894466 0 0 1 -0.03125,0 0.1538395,0.16894466 0 0 1 -0.03125,0 l -0.28125,0.03125 -0.25,0.03125 a 0.1538395,0.16894466 0 0 1 -0.03125,0 0.1538395,0.16894466 0 0 1 -0.03125,0 0.1538395,0.16894466 0 0 1 -0.03125,0 0.1538395,0.16894466 0 0 1 0,-0.03125 A 0.1538395,0.16894466 0 0 1 5.1875,28.75 0.1538395,0.16894466 0 0 1 5.15625,28.71875 0.1538395,0.16894466 0 0 1 5.125,28.6875 a 0.1538395,0.16894466 0 0 1 0,-0.03125 0.1538395,0.16894466 0 0 1 0,-0.03125 c 0.01825,-0.337 0.2524,-0.6068 0.5625,-0.8125 0.310099,-0.2054 0.711501,-0.36515 1.15625,-0.40625 0.32759,-0.031 0.629373,-0.1011 0.84375,-0.25 C 7.901877,27.00715 8.024236,26.8171 8.03125,26.6875 8.04987,26.3438 7.816593,26.0244 7.40625,25.8125 6.9959086,25.6004 6.431372,25.4994 5.75,25.5625 4.880625,25.6435 4.103239,25.4953 3.53125,25.1875 2.959261,24.8804 2.561568,24.4068 2.59375,23.8125 c 0.0322,-0.5948 0.461194,-1.12995 1.0625,-1.53125 0.601306,-0.4013 1.381476,-0.6694 2.25,-0.75 C 6.586349,21.46825 7.2344136,21.2454 7.6875,20.9375 8.140585,20.6296 8.387699,20.24875 8.40625,19.90625 8.42475,19.56445 8.1986,19.2192 7.78125,19 7.3639,18.781 6.805363,18.6869 6.125,18.75 5.256402,18.831 4.478345,18.6749 3.90625,18.375 3.334157,18.0754 2.936573,17.62555 2.96875,17.03125 2.98718,16.69095 3.215113,16.42375 3.53125,16.21875 3.847388,16.01385 4.242881,15.8537 4.6875,15.8125 5.014933,15.7815 5.355062,15.6483 5.5625,15.5 5.769941,15.3521 5.836533,15.22705 5.84375,15.09375 a 0.1538395,0.16894466 0 0 1 0,-0.03125 0.1538395,0.16894466 0 0 1 0,-0.03125 0.1538395,0.16894466 0 0 1 0,-0.03125 0.1538395,0.16894466 0 0 1 0.03125,0 0.1538395,0.16894466 0 0 1 0,-0.03125 0.1538395,0.16894466 0 0 1 0.03125,0 0.1538395,0.16894466 0 0 1 0,-0.03125 A 0.1538395,0.16894466 0 0 1 5.9375,14.90625 0.1538395,0.16894466 0 0 1 5.96875,14.875 0.1538395,0.16894466 0 0 1 6,14.875 l 0.25,-0.03125 z m 20.1875,0 0.28125,0 a 0.1538395,0.16894466 0 0 1 0.03125,0 0.1538395,0.16894466 0 0 1 0.03125,0 0.1538395,0.16894466 0 0 1 0,0.03125 0.1538395,0.16894466 0 0 1 0.03125,0.03125 0.1538395,0.16894466 0 0 1 0.03125,0.03125 0.1538395,0.16894466 0 0 1 0.03125,0.03125 0.1538395,0.16894466 0 0 1 0,0.03125 0.1538395,0.16894466 0 0 1 0,0.0625 c -0.01825,0.3371 -0.2524,0.6068 -0.5625,0.8125 -0.3101,0.2055 -0.711499,0.36505 -1.15625,0.40625 -0.329455,0.03 -0.629663,0.1076 -0.84375,0.25 -0.214087,0.1424 -0.336748,0.3081 -0.34375,0.4375 -0.01861,0.3436 0.214536,0.6564 0.625,0.875 0.410464,0.2186 0.975809,0.313 1.65625,0.25 0.869372,-0.081 1.646762,0.09955 2.21875,0.40625 0.571989,0.3071 0.969682,0.7805 0.9375,1.375 -0.0322,0.5948 -0.461194,1.12985 -1.0625,1.53125 -0.601304,0.4013 -1.381474,0.6696 -2.25,0.75 -0.680953,0.063 -1.303772,0.29315 -1.75,0.59375 -0.446228,0.3006 -0.700103,0.6556 -0.71875,1 -0.01861,0.3435 0.183285,0.6565 0.59375,0.875 0.410465,0.2187 0.97581,0.34435 1.65625,0.28125 0.869373,-0.081 1.646761,0.03725 2.21875,0.34375 0.571989,0.3071 0.969683,0.81185 0.9375,1.40625 -0.01825,0.337 -0.252399,0.607 -0.5625,0.8125 -0.310099,0.2055 -0.680252,0.36495 -1.125,0.40625 -0.329455,0.03 -0.660912,0.13885 -0.875,0.28125 -0.214088,0.1423 -0.305498,0.3083 -0.3125,0.4375 a 0.1538395,0.16894466 0 0 1 0,0.03125 0.1538395,0.16894466 0 0 1 -0.03125,0.03125 0.1538395,0.16894466 0 0 1 0,0.03125 0.1538395,0.16894466 0 0 1 -0.03125,0 0.1538395,0.16894466 0 0 1 -0.03125,0.03125 0.1538395,0.16894466 0 0 1 0,0.03125 0.1538395,0.16894466 0 0 1 -0.03125,0 0.1538395,0.16894466 0 0 1 -0.03125,0 l -0.25,0.03125 -0.28125,0.03125 a 0.1538395,0.16894466 0 0 1 -0.03125,0 0.1538395,0.16894466 0 0 1 -0.03125,0 A 0.1538395,0.16894466 0 0 1 25.375,28.78125 0.1538395,0.16894466 0 0 1 25.34375,28.75 0.1538395,0.16894466 0 0 1 25.3125,28.71875 0.1538395,0.16894466 0 0 1 25.28125,28.6875 a 0.1538395,0.16894466 0 0 1 0,-0.03125 0.1538395,0.16894466 0 0 1 0,-0.03125 c 0.01825,-0.337 0.28365,-0.6068 0.59375,-0.8125 0.310099,-0.2054 0.680251,-0.36515 1.125,-0.40625 0.32759,-0.031 0.629373,-0.1011 0.84375,-0.25 0.214377,-0.1491 0.336736,-0.33915 0.34375,-0.46875 0.01862,-0.3437 -0.183407,-0.6631 -0.59375,-0.875 -0.410341,-0.2121 -1.006128,-0.3131 -1.6875,-0.25 -0.869375,0.081 -1.646761,-0.0672 -2.21875,-0.375 -0.571989,-0.3071 -0.969682,-0.7807 -0.9375,-1.375 0.0322,-0.5948 0.461194,-1.12995 1.0625,-1.53125 0.601306,-0.4013 1.381476,-0.6694 2.25,-0.75 0.680099,-0.063 1.328164,-0.28585 1.78125,-0.59375 0.453085,-0.3079 0.700199,-0.68875 0.71875,-1.03125 C 28.581,19.56445 28.3861,19.2192 27.96875,19 27.5514,18.781 26.961613,18.6869 26.28125,18.75 25.412652,18.831 24.634595,18.6749 24.0625,18.375 23.490407,18.0754 23.092823,17.62555 23.125,17.03125 c 0.01843,-0.3403 0.246363,-0.6075 0.5625,-0.8125 0.316138,-0.2049 0.711631,-0.36505 1.15625,-0.40625 0.327433,-0.031 0.667562,-0.1642 0.875,-0.3125 C 25.926191,15.3521 25.992783,15.22705 26,15.09375 A 0.1538395,0.16894466 0 0 1 26,15.0625 0.1538395,0.16894466 0 0 1 26,15.03125 0.1538395,0.16894466 0 0 1 26,15 a 0.1538395,0.16894466 0 0 1 0.03125,0 0.1538395,0.16894466 0 0 1 0,-0.03125 0.1538395,0.16894466 0 0 1 0.03125,0 0.1538395,0.16894466 0 0 1 0,-0.03125 0.1538395,0.16894466 0 0 1 0.03125,0 0.1538395,0.16894466 0 0 1 0,-0.03125 0.1538395,0.16894466 0 0 1 0.03125,-0.03125 0.1538395,0.16894466 0 0 1 0.03125,0 l 0.28125,-0.03125 z"
       id="path4063-0-8"
       inkscape:connector-curvature="0" />
  </g>
  <g
     inkscape:groupmode="layer"
     id="layer3"
     inkscape:label="Layer 3"
     style="display:inline" />
</svg>
