<?xml version="1.0" encoding="UTF-8" standalone="no"?>
<!-- Created with Inkscape (http://www.inkscape.org/) -->

<svg
   xmlns:dc="http://purl.org/dc/elements/1.1/"
   xmlns:cc="http://creativecommons.org/ns#"
   xmlns:rdf="http://www.w3.org/1999/02/22-rdf-syntax-ns#"
   xmlns:svg="http://www.w3.org/2000/svg"
   xmlns="http://www.w3.org/2000/svg"
   xmlns:xlink="http://www.w3.org/1999/xlink"
   xmlns:sodipodi="http://sodipodi.sourceforge.net/DTD/sodipodi-0.dtd"
   xmlns:inkscape="http://www.inkscape.org/namespaces/inkscape"
   width="32"
   height="32"
   id="svg2"
   version="1.1"
   inkscape:version="0.48.0 r9654"
   sodipodi:docname="weaponmod_napalm_warhead.svg"
   inkscape:export-filename="/home/awrapp/Documents/new stuff/weaponmod_napalm_warhead.png"
   inkscape:export-xdpi="180"
   inkscape:export-ydpi="180">
  <defs
     id="defs4">
    <linearGradient
       id="linearGradient3847">
      <stop
         style="stop-color:#ffffff;stop-opacity:1;"
         offset="0"
         id="stop3849" />
      <stop
         style="stop-color:#d5d5d5;stop-opacity:1;"
         offset="1"
         id="stop3851" />
    </linearGradient>
    <linearGradient
       id="linearGradient3833">
      <stop
         style="stop-color:#6a00c6;stop-opacity:1;"
         offset="0"
         id="stop3835" />
      <stop
         style="stop-color:#b04fff;stop-opacity:1;"
         offset="1"
         id="stop3837" />
    </linearGradient>
    <linearGradient
       inkscape:collect="always"
       xlink:href="#linearGradient3833"
       id="linearGradient3839"
       x1="17.196539"
       y1="15.95355"
       x2="27.383678"
       y2="15.95355"
       gradientUnits="userSpaceOnUse" />
    <linearGradient
       inkscape:collect="always"
       xlink:href="#linearGradient3833"
       id="linearGradient3841"
       x1="4.4563073"
       y1="15.894665"
       x2="14.643446"
       y2="15.894665"
       gradientUnits="userSpaceOnUse" />
    <linearGradient
       inkscape:collect="always"
       xlink:href="#linearGradient3833"
       id="linearGradient3844"
       gradientUnits="userSpaceOnUse"
       x1="0.17059311"
       y1="32.055378"
       x2="0.089874499"
       y2="0.180379" />
    <linearGradient
       inkscape:collect="always"
       xlink:href="#linearGradient3847"
       id="linearGradient3859"
       x1="0.15624999"
       y1="0.48883924"
       x2="0.058035642"
       y2="31.560268"
       gradientUnits="userSpaceOnUse" />
    <linearGradient
       inkscape:collect="always"
       xlink:href="#linearGradient3833"
       id="linearGradient5011"
       x1="0.082345895"
       y1="31.906734"
       x2="-0.083394065"
       y2="-0.039339755"
       gradientUnits="userSpaceOnUse" />
    <linearGradient
       inkscape:collect="always"
       xlink:href="#linearGradient3847"
       id="linearGradient5019"
       x1="-0.068687506"
       y1="0.0056857299"
       x2="0.16489926"
       y2="32.07803"
       gradientUnits="userSpaceOnUse" />
    <linearGradient
       inkscape:collect="always"
       xlink:href="#linearGradient3847"
       id="linearGradient4021"
       x1="0.0070711928"
       y1="0.03875218"
       x2="-0.01627879"
       y2="31.921692"
       gradientUnits="userSpaceOnUse" />
    <linearGradient
       inkscape:collect="always"
       xlink:href="#linearGradient3833-1"
       id="linearGradient4029-6"
       x1="0.16719507"
       y1="31.846767"
       x2="0.076134875"
       y2="-0.036171541"
       gradientUnits="userSpaceOnUse" />
    <linearGradient
       id="linearGradient3833-1">
      <stop
         style="stop-color:#00cabe;stop-opacity:1;"
         offset="0"
         id="stop3835-0" />
      <stop
         style="stop-color:#77fff7;stop-opacity:1;"
         offset="1"
         id="stop3837-4" />
    </linearGradient>
    <linearGradient
       inkscape:collect="always"
       xlink:href="#linearGradient3847"
       id="linearGradient3900"
       x1="-0.017991496"
       y1="0.053842373"
       x2="0.0087829465"
       y2="32.063049"
       gradientUnits="userSpaceOnUse" />
    <linearGradient
       inkscape:collect="always"
       xlink:href="#linearGradient3847"
       id="linearGradient4025"
       x1="-0.014194898"
       y1="0.10858576"
       x2="0.10999951"
       y2="32.054661"
       gradientUnits="userSpaceOnUse" />
    <linearGradient
       inkscape:collect="always"
       xlink:href="#linearGradient3833"
       id="linearGradient4034"
       x1="0.013469695"
       y1="32.160637"
       x2="-0.092565008"
       y2="0.21456404"
       gradientUnits="userSpaceOnUse" />
  </defs>
  <sodipodi:namedview
     id="base"
     pagecolor="#000000"
     bordercolor="#666666"
     borderopacity="1.0"
     inkscape:pageopacity="0"
     inkscape:pageshadow="2"
     inkscape:zoom="7.9195959"
     inkscape:cx="14.754015"
     inkscape:cy="14.85287"
     inkscape:document-units="px"
     inkscape:current-layer="layer1"
     showgrid="true"
     inkscape:snap-grids="false"
     inkscape:snap-to-guides="false"
     inkscape:window-width="733"
     inkscape:window-height="850"
     inkscape:window-x="707"
     inkscape:window-y="0"
     inkscape:window-maximized="0">
    <inkscape:grid
       type="xygrid"
       id="grid3040"
       empspacing="5"
       dotted="true"
       visible="true"
       enabled="true"
       snapvisiblegridlinesonly="true" />
  </sodipodi:namedview>
  <metadata
     id="metadata7">
    <rdf:RDF>
      <cc:Work
         rdf:about="">
        <dc:format>image/svg+xml</dc:format>
        <dc:type
           rdf:resource="http://purl.org/dc/dcmitype/StillImage" />
        <dc:title></dc:title>
      </cc:Work>
    </rdf:RDF>
  </metadata>
  <g
     inkscape:label="Layer 1"
     inkscape:groupmode="layer"
     id="layer1"
     transform="translate(0,-1020.3622)"
     style="display:inline">
    <path
       style="fill:url(#linearGradient4034);fill-opacity:1;fill-rule:evenodd;stroke:none"
       d="M 15.03125 3.125 A 0.52067277 0.52067277 0 0 0 14.65625 3.78125 C 14.989677 5.12775 15.830374 6.2543 15.9375 7.1875 C 15.991063 7.6542 15.919724 8.0633 15.53125 8.5625 C 15.142776 9.0618 14.400393 9.6357 13.125 10.25 A 0.52067277 0.52067277 0 0 0 13.09375 10.28125 C 12.769136 9.67135 12.704593 9.08275 12.90625 8.40625 C 13.163148 7.54445 13.710373 6.619 13.96875 5.6875 A 0.52067277 0.52067277 0 0 0 13.3125 5.0625 C 12.165205 5.4591 10.856241 6.0423 9.78125 6.8125 C 8.783044 7.5278 7.9495269 8.4548 7.75 9.5625 C 6.7643671 10.2509 5.9017469 11.1162 5.5 12.1875 C 5.5734725 11.795 5.6763624 11.40085 5.75 10.96875 A 0.52067277 0.52067277 0 0 0 5 10.40625 C 3.4361876 11.22405 2.6280142 13.0378 2.4375 14.625 C 2.3422429 15.4185 2.3910276 16.16745 2.6875 16.78125 C 2.9574879 17.34025 3.5457374 17.7378 4.21875 17.75 C 5.1164564 17.973274 5.7257489 18.296093 6.15625 18.6875 C 6.1622045 18.737776 6.1737921 18.799394 6.15625 18.8125 C 6.015913 18.917348 2.9736665 19.16554 2.875 19.28125 C 2.7763335 19.39696 4.553636 20.627368 4.5 20.75 C 4.446364 20.872632 1.7880289 21.655872 1.78125 21.78125 C 1.7744711 21.906628 4.3346911 22.751146 4.375 22.875 C 4.4153089 22.998854 2.5389759 24.194387 2.625 24.3125 C 2.7110241 24.430613 5.6836901 24.766651 5.8125 24.875 C 5.9413098 24.983349 5.0827909 26.405105 5.25 26.5 C 5.4172091 26.594895 8.4563357 26.39054 8.65625 26.46875 C 8.8561643 26.54696 9.0866884 28.066138 9.3125 28.125 C 9.5383117 28.183862 12.224731 27.431241 12.46875 27.46875 C 12.712769 27.506259 14.058583 28.860121 14.3125 28.875 C 14.566417 28.889879 16.494832 27.727008 16.75 27.71875 C 17.005168 27.710492 19.252271 28.749863 19.5 28.71875 C 19.74773 28.687637 20.705645 27.24041 20.9375 27.1875 C 21.169355 27.13459 24.041915 27.697904 24.25 27.625 C 24.458085 27.552096 24.291521 26.059166 24.46875 25.96875 C 24.645979 25.878334 27.703413 25.886098 27.84375 25.78125 C 27.984087 25.676402 26.745084 24.30321 26.84375 24.1875 C 26.942416 24.07179 29.821364 23.560132 29.875 23.4375 C 29.928636 23.314868 27.743221 22.250378 27.75 22.125 C 27.756779 21.999622 30.040309 20.998854 30 20.875 C 29.959691 20.751146 27.148524 20.149363 27.0625 20.03125 C 26.976476 19.913137 28.37881 18.577099 28.25 18.46875 C 28.221279 18.444591 28.006463 18.395319 27.75 18.375 C 27.885427 18.370867 28.009897 18.371713 28.15625 18.375 A 0.52067277 0.52067277 0 0 0 28.5625 18.15625 C 30.488023 15.52845 30.685727 12.3945 29.375 10.5625 A 0.52067277 0.52067277 0 0 0 28.4375 10.65625 C 28.418625 10.117254 28.331365 9.6008491 28.09375 9.15625 C 27.304635 7.67985 25.630085 6.7541 24.0625 5.875 A 0.52067277 0.52067277 0 0 0 23.3125 6.40625 C 23.495032 7.66665 24.344804 8.60245 24.625 9.34375 C 24.765098 9.71435 24.806032 9.974 24.65625 10.3125 C 24.561549 10.5266 24.30364 10.80275 23.96875 11.09375 C 23.817113 10.58535 23.556138 10.10215 23.15625 9.71875 C 22.559477 9.14655 21.772982 8.68705 20.96875 8.28125 C 21.03297 7.71335 20.971594 7.1599 20.71875 6.6875 C 20.400475 6.0929 19.89681 5.58735 19.3125 5.15625 C 18.143879 4.29415 16.618591 3.64985 15.34375 3.15625 A 0.52067277 0.52067277 0 0 0 15.09375 3.125 A 0.52067277 0.52067277 0 0 0 15.03125 3.125 z M 19.46875 10.78125 C 19.517712 11.06075 19.4939 11.3132 19.375 11.5625 C 19.161196 12.0109 18.52736 12.5759 16.96875 13.1875 A 0.52067277 0.52067277 0 0 0 16.84375 13.28125 C 16.786933 13.32355 16.76874 13.36485 16.71875 13.40625 C 16.624534 13.28055 16.521947 13.15785 16.40625 13.03125 C 16.870085 12.54195 17.491076 12.12895 18.375 11.78125 A 0.52067277 0.52067277 0 0 0 18.5 11.6875 C 18.917748 11.3729 19.164153 11.08435 19.46875 10.78125 z M 28.34375 11.8125 C 28.305064 12.5342 28.247992 13.2474 27.96875 13.8125 C 27.72141 14.313174 27.251404 14.704497 26.4375 15 A 0.52067277 0.52067277 0 0 0 26.46875 14.96875 C 27.497291 13.79715 28.081012 12.764 28.34375 11.8125 z M 10.78125 13.90625 C 10.910631 13.95425 11.042851 14.0126 11.15625 14.0625 C 11.154902 14.1374 11.186108 14.20705 11.1875 14.28125 C 11.071771 14.15175 10.87128 14.03895 10.78125 13.90625 z "
       transform="translate(0,1020.3622)"
       id="path3033" />
  </g>
  <g
     inkscape:groupmode="layer"
     id="layer2"
     inkscape:label="Layer 2"
     style="display:inline"
     sodipodi:insensitive="true">
    <path
       style="fill:#808080;fill-opacity:1;fill-rule:evenodd;stroke:none;display:inline"
       inkscape:transform-center-y="-2.9925945"
       d="m 35.316243,2.4562578 c 1.460532,-3.6265 0.817526,-6.9154 -1.775403,-9.5061999 -4.87316,-4.9822999 -0.300646,-7.8229999 2.777356,-9.4405999 0.105335,3.5035 -1.415027,7.0937998 1.648194,8.7409999 3.175693,2.1131999 1.346526,5.5522999 1.065477,8.8012999 z"
       id="path3021-7-9-8-7-0"
       inkscape:connector-curvature="0"
       sodipodi:nodetypes="cccccc"
       inkscape:transform-center-x="0.46590966" />
    <path
       style="fill:url(#linearGradient4025);fill-opacity:1;fill-rule:evenodd;stroke:none;display:inline"
       d="m 15.119742,3.6154698 c 0.589658,2.3813368 3.490021,4.523606 -1.78125,7.0625002 -0.160367,0.140813 -0.303639,0.26729 -0.4375,0.40625 -1.67512,-1.8913619 0.075,-3.949062 0.53125,-5.5937502 -2.223519,0.7684123 -5.0787187,2.3258431 -5.2500003,4.3125 -2.1587331,1.4381222 -3.7563496,3.8386792 -0.875,6.1562502 -3.3594303,-1.478122 -2.3868877,-3.436146 -2.09375,-5.15625 -2.6812278,1.402079 -3.1342443,6.642254 -0.875,6.40625 1.3827203,0.344011 2.3101174,0.936798 2.75,1.78125 -0.5227615,0.07509 -1.0270541,0.148629 -1.0625,0.1875 -0.076892,0.08432 0.9818579,1.066353 0.9375,1.15625 -0.044358,0.0899 -1.8646867,0.688839 -1.875,0.78125 -0.010313,0.09241 1.6634174,0.814472 1.6875,0.90625 0.024083,0.09178 -1.2451584,1.00573 -1.1875,1.09375 0.057658,0.08802 2.1607293,0.449986 2.25,0.53125 0.089271,0.08126 -0.4303429,1.14701 -0.3125,1.21875 0.1178429,0.07174 2.3263478,0.03398 2.46875,0.09375 0.1424023,0.05977 0.4628883,1.141728 0.6250003,1.1875 0.0124,0.0035 0.09235,0.0015 0.125,0 -0.209049,-0.942129 -0.393409,-1.884977 -0.25,-2.71875 -0.04299,-0.0442 -0.07961,-0.08015 -0.125,-0.125 -3.0806258,-3.114637 0.272954,-4.676273 2.21875,-5.6875 -0.703793,1.379395 -1.425873,2.864216 -0.84375,4.03125 0.06429,-0.04175 0.11733,-0.08461 0.1875,-0.125 3.310765,-1.338295 1.990122,-3.726362 0.71875,-5.90625 2.511898,1.142014 6.851892,2.857533 2.875,6.375 -0.731577,0.632368 -1.218483,1.194952 -1.5,1.78125 0.03053,0.05422 0.06893,0.10042 0.09375,0.15625 0.271333,-0.450055 0.699762,-0.833309 1.34375,-1.15625 3.483218,-1.160064 2.37268,-3.850205 1.28125,-6.3125 2.220551,1.315297 5.910494,3.279883 3.3125,6.21875 2.958409,-1.714989 1.203879,-2.627438 0.4375,-4.5 1.866232,1.270447 5.465053,1.919074 1.65625,5.90625 -0.762123,0.47098 -1.331922,1.049817 -1.78125,1.6875 0.68236,0.08929 1.668181,0.225186 1.78125,0.1875 0.154832,-0.05161 0.273164,-1.153905 0.40625,-1.21875 0.133086,-0.06484 2.361942,-0.111624 2.46875,-0.1875 0.106808,-0.07588 -0.576892,-1.134428 -0.5,-1.21875 0.07689,-0.08432 2.111892,-0.535103 2.15625,-0.625 0.04436,-0.0899 -1.354063,-0.938839 -1.34375,-1.03125 0.01031,-0.09241 1.586583,-0.845722 1.5625,-0.9375 -0.02408,-0.09178 -1.942342,-0.66198 -2,-0.75 -0.05766,-0.08802 0.870521,-1.074986 0.78125,-1.15625 -0.02834,-0.0258 -0.305929,-0.08784 -0.625,-0.125 0.650689,-0.658024 1.678306,-0.968576 3.0625,-0.9375 1.815253,-2.477343 1.938176,-5.395412 0.8125,-6.96875 -0.18671,1.909053 0.399106,4.86364 -4.53125,5.09375 -0.748499,0.237356 -1.285037,0.521606 -1.65625,0.875 0.562323,-1.074425 1.658428,-1.80951 3.28125,-2.21875 4.066657,-4.6322442 0.908569,-6.5274536 -2.21875,-8.2812502 0.301219,2.0799343 3.258212,3.535198 -0.28125,5.7500002 0.372821,-1.472061 -1.309756,-2.6378102 -3.09375,-3.5000002 0.685031,-2.4013837 -2.784547,-3.9275223 -5.3125,-4.90625 z m 4.625,6.15625 c 0.53919,1.3194082 0.639791,2.6061292 -2.59375,3.8750002 -0.182306,0.135722 -0.353694,0.271086 -0.5,0.40625 -0.212425,-0.354389 -0.553178,-0.725171 -0.96875,-1.09375 0.537771,-0.710683 1.37242,-1.275228 2.5,-1.71875 0.685377,-0.516226 1.192984,-1.007952 1.5625,-1.4687502 z M 9.7134917,12.55297 c 0.2448144,0.2054 0.4999383,0.414862 0.8125003,0.625 0.418927,0.147084 0.786207,0.320303 1.125,0.5 -0.05356,0.615421 0.0053,1.218305 0.125,1.8125 -1.307443,-0.862415 -1.8777754,-1.891497 -2.0625003,-2.9375 z m 11.4375003,1.84375 c -0.431594,0.786812 -0.800023,1.569703 -1.09375,2.34375 -0.18493,-0.230058 -0.361271,-0.455687 -0.4375,-0.46875 -0.08391,-0.01438 -0.54961,0.110305 -1.03125,0.25 0.336385,-0.953601 1.22025,-1.656659 2.5625,-2.125 z M 9.5884917,17.36547 c 0.073284,0.06598 0.1532435,0.118695 0.21875,0.1875 -0.032406,-0.0014 -0.06119,0.0013 -0.09375,0 -0.041679,-0.06224 -0.076417,-0.125463 -0.125,-0.1875 z"
       id="path3021-7-9-8-7-0-4"
       inkscape:connector-curvature="0" />
  </g>
  <g
     inkscape:groupmode="layer"
     id="layer3"
     inkscape:label="Layer 3"
     style="display:inline" />
</svg>
