<?xml version="1.0" encoding="UTF-8" standalone="no"?>
<!-- Created with Inkscape (http://www.inkscape.org/) -->

<svg
   xmlns:dc="http://purl.org/dc/elements/1.1/"
   xmlns:cc="http://creativecommons.org/ns#"
   xmlns:rdf="http://www.w3.org/1999/02/22-rdf-syntax-ns#"
   xmlns:svg="http://www.w3.org/2000/svg"
   xmlns="http://www.w3.org/2000/svg"
   xmlns:xlink="http://www.w3.org/1999/xlink"
   xmlns:sodipodi="http://sodipodi.sourceforge.net/DTD/sodipodi-0.dtd"
   xmlns:inkscape="http://www.inkscape.org/namespaces/inkscape"
   width="32"
   height="32"
   id="svg2"
   version="1.1"
   inkscape:version="0.48.0 r9654"
   sodipodi:docname="weaponmod_high_frequency_beam.svg"
   inkscape:export-filename="/home/awrapp/Documents/new stuff/weaponmod_high_frequency_beam.png"
   inkscape:export-xdpi="180"
   inkscape:export-ydpi="180">
  <defs
     id="defs4">
    <linearGradient
       id="linearGradient3847">
      <stop
         style="stop-color:#ffffff;stop-opacity:1;"
         offset="0"
         id="stop3849" />
      <stop
         style="stop-color:#d5d5d5;stop-opacity:1;"
         offset="1"
         id="stop3851" />
    </linearGradient>
    <linearGradient
       id="linearGradient3833">
      <stop
         style="stop-color:#6a00c6;stop-opacity:1;"
         offset="0"
         id="stop3835" />
      <stop
         style="stop-color:#b04fff;stop-opacity:1;"
         offset="1"
         id="stop3837" />
    </linearGradient>
    <linearGradient
       inkscape:collect="always"
       xlink:href="#linearGradient3833"
       id="linearGradient3839"
       x1="17.196539"
       y1="15.95355"
       x2="27.383678"
       y2="15.95355"
       gradientUnits="userSpaceOnUse" />
    <linearGradient
       inkscape:collect="always"
       xlink:href="#linearGradient3833"
       id="linearGradient3841"
       x1="4.4563073"
       y1="15.894665"
       x2="14.643446"
       y2="15.894665"
       gradientUnits="userSpaceOnUse" />
    <linearGradient
       inkscape:collect="always"
       xlink:href="#linearGradient3833"
       id="linearGradient3844"
       gradientUnits="userSpaceOnUse"
       x1="0.17059311"
       y1="32.055378"
       x2="0.089874499"
       y2="0.180379" />
    <linearGradient
       inkscape:collect="always"
       xlink:href="#linearGradient3847"
       id="linearGradient3859"
       x1="0.15624999"
       y1="0.48883924"
       x2="0.058035642"
       y2="31.560268"
       gradientUnits="userSpaceOnUse" />
    <linearGradient
       inkscape:collect="always"
       xlink:href="#linearGradient3833"
       id="linearGradient5011"
       x1="0.082345895"
       y1="31.906734"
       x2="-0.083394065"
       y2="-0.039339755"
       gradientUnits="userSpaceOnUse" />
    <linearGradient
       inkscape:collect="always"
       xlink:href="#linearGradient3847"
       id="linearGradient5019"
       x1="-0.068687506"
       y1="0.0056857299"
       x2="0.16489926"
       y2="32.07803"
       gradientUnits="userSpaceOnUse" />
    <linearGradient
       inkscape:collect="always"
       xlink:href="#linearGradient3847"
       id="linearGradient4021"
       x1="0.0070711928"
       y1="0.03875218"
       x2="-0.01627879"
       y2="31.921692"
       gradientUnits="userSpaceOnUse" />
    <linearGradient
       inkscape:collect="always"
       xlink:href="#linearGradient3833-1"
       id="linearGradient4029-6"
       x1="0.16719507"
       y1="31.846767"
       x2="0.076134875"
       y2="-0.036171541"
       gradientUnits="userSpaceOnUse" />
    <linearGradient
       id="linearGradient3833-1">
      <stop
         style="stop-color:#00cabe;stop-opacity:1;"
         offset="0"
         id="stop3835-0" />
      <stop
         style="stop-color:#77fff7;stop-opacity:1;"
         offset="1"
         id="stop3837-4" />
    </linearGradient>
    <linearGradient
       inkscape:collect="always"
       xlink:href="#linearGradient3847"
       id="linearGradient3900"
       x1="-0.017991496"
       y1="0.053842373"
       x2="0.0087829465"
       y2="32.063049"
       gradientUnits="userSpaceOnUse" />
    <linearGradient
       inkscape:collect="always"
       xlink:href="#linearGradient3847"
       id="linearGradient4040"
       x1="-0.014446386"
       y1="0.012368602"
       x2="0.38569817"
       y2="32.589787"
       gradientUnits="userSpaceOnUse" />
    <linearGradient
       inkscape:collect="always"
       xlink:href="#linearGradient3833"
       id="linearGradient4048"
       x1="0.093212232"
       y1="1052.7032"
       x2="-0.19861265"
       y2="1020.5047"
       gradientUnits="userSpaceOnUse" />
  </defs>
  <sodipodi:namedview
     id="base"
     pagecolor="#000000"
     bordercolor="#666666"
     borderopacity="1.0"
     inkscape:pageopacity="0"
     inkscape:pageshadow="2"
     inkscape:zoom="7.9195959"
     inkscape:cx="25.166868"
     inkscape:cy="10.941039"
     inkscape:document-units="px"
     inkscape:current-layer="layer1"
     showgrid="true"
     inkscape:snap-grids="false"
     inkscape:snap-to-guides="false"
     inkscape:window-width="733"
     inkscape:window-height="850"
     inkscape:window-x="707"
     inkscape:window-y="0"
     inkscape:window-maximized="0">
    <inkscape:grid
       type="xygrid"
       id="grid3040"
       empspacing="5"
       dotted="true"
       visible="true"
       enabled="true"
       snapvisiblegridlinesonly="true" />
  </sodipodi:namedview>
  <metadata
     id="metadata7">
    <rdf:RDF>
      <cc:Work
         rdf:about="">
        <dc:format>image/svg+xml</dc:format>
        <dc:type
           rdf:resource="http://purl.org/dc/dcmitype/StillImage" />
        <dc:title></dc:title>
      </cc:Work>
    </rdf:RDF>
  </metadata>
  <g
     inkscape:label="Layer 1"
     inkscape:groupmode="layer"
     id="layer1"
     transform="translate(0,-1020.3622)"
     style="display:inline">
    <path
       style="fill:url(#linearGradient4048);fill-opacity:1;fill-rule:evenodd;stroke:none;display:inline"
       d="m 30.767166,1023.8583 c 0.311248,0.3112 0.289151,0.8157 -0.0221,1.127 l -1.524699,1.5247 c -0.02628,0.1254 -0.02973,0.2585 -0.06629,0.3756 -0.275856,0.8837 -0.81685,1.7007 -1.546796,2.4307 -0.729946,0.7299 -1.547022,1.2709 -2.43068,1.5468 -0.11569,0.036 -0.249402,0.057 -0.37565,0.066 l -0.397748,0.3977 c -0.0096,0.1263 -0.03017,0.26 -0.06629,0.3757 -0.275846,0.8836 -0.81685,1.7007 -1.546796,2.4306 -0.729946,0.73 -1.547012,1.271 -2.430679,1.5468 -0.11811,0.037 -0.249324,0.051 -0.375651,0.066 l -0.662912,0.6629 c -0.01529,0.1264 -0.02942,0.2576 -0.06629,0.3757 -0.275856,0.8837 -0.81685,1.7007 -1.546796,2.4307 -0.729947,0.7299 -1.547022,1.2709 -2.43068,1.5468 -0.111588,0.035 -0.230343,0.039 -0.353553,0.044 l -0.30936,0.3093 c -0.005,0.1232 -0.0094,0.242 -0.04419,0.3536 -0.275856,0.8836 -0.81685,1.7007 -1.546796,2.4307 -0.729946,0.7299 -1.547022,1.2709 -2.43068,1.5468 -0.117126,0.037 -0.250235,0.04 -0.375651,0.066 l -0.7954945,0.7955 c 0.243662,0.187 0.488802,0.3759 0.486136,0.3978 -0.0054,0.044 -1.0659039,0.5993 -1.0827569,0.6408 -0.01577,0.039 0.3803009,1.1168 0.3535529,1.1491 -0.02859,0.034 -1.2450219,-0.07 -1.2816309,-0.044 -0.03425,0.024 -0.247328,1.1584 -0.287262,1.1711 -0.04269,0.014 -1.015919,-0.7532 -1.06066,-0.7513 -0.04186,0 -0.821345,0.8285 -0.861787,0.8176 -0.04323,-0.012 -0.447467,-1.1707 -0.486136,-1.1932 -0.03618,-0.021 -1.165133,0.252 -1.193242,0.2209 -0.03005,-0.033 0.263386,-1.2196 0.243068,-1.2595 -0.01901,-0.037 -1.1201,-0.4227 -1.126952,-0.464 -0.0073,-0.044 0.879401,-0.8836 0.883884,-0.9281 0.0042,-0.042 -0.70159,-0.9559 -0.68501,-0.9944 0.01772,-0.041 1.209578,-0.2743 1.237437,-0.3094 0.02606,-0.033 -0.05685,-1.1919 -0.0221,-1.2153 0.0324,-0.022 0.811454,0.277 1.06066,0.3536 l 0.464039,-0.4641 c 0.143332,-0.255 0.288417,-0.4857 0.309359,-0.4861 0.0044,-10e-5 0.07214,0.071 0.08839,0.088 l 0.596622,-0.5966 c 0.02848,-0.1497 0.04519,-0.3036 0.08839,-0.442 0.275856,-0.8836 0.81685,-1.7007 1.546796,-2.4307 0.7299459,-0.7299 1.5470214,-1.2709 2.4306794,-1.5468 0.124663,-0.039 0.25939,-0.039 0.397748,-0.044 l 0.265165,-0.2651 c 0.0054,-0.1384 0.0053,-0.2731 0.04419,-0.3978 0.275856,-0.8836 0.81685,-1.7007 1.546796,-2.4307 0.729947,-0.7299 1.547022,-1.2709 2.43068,-1.5467 0.139528,-0.044 0.291172,-0.074 0.441942,-0.088 l 0.574524,-0.5746 c 0.01487,-0.1507 0.04484,-0.3024 0.08839,-0.4419 0.275847,-0.8837 0.81685,-1.7007 1.546796,-2.4307 0.729947,-0.7299 1.547013,-1.2709 2.43068,-1.5468 0.129256,-0.04 0.277872,-0.057 0.419845,-0.066 l 0.353553,-0.3535 c 0.0095,-0.142 0.02593,-0.2906 0.06629,-0.4199 0.275856,-0.8836 0.81685,-1.7007 1.546796,-2.4306 0.729946,-0.73 1.54702,-1.271 2.43068,-1.5468 0.138384,-0.043 0.292331,-0.06 0.441941,-0.088 l 1.480505,-1.4805 c 0.311248,-0.3113 0.815704,-0.3334 1.126952,-0.022 l 2.010835,2.0108 z"
       id="rect3026-3"
       inkscape:connector-curvature="0" />
  </g>
  <g
     inkscape:groupmode="layer"
     id="layer2"
     inkscape:label="Layer 2"
     style="display:inline"
     sodipodi:insensitive="true">
    <path
       style="fill:url(#linearGradient4040);fill-opacity:1;fill-rule:evenodd;stroke:none;display:inline"
       d="m 28.03125,3.1875 c -0.09681,0 -0.207065,0.050815 -0.28125,0.125 L 26.6875,4.375 c -0.690153,0.045847 -1.55203,0.4895298 -2.3125,1.25 -0.748233,0.7482327 -1.192092,1.6274839 -1.25,2.3125 l -1.25,1.28125 c -0.694156,0.040065 -1.577878,0.4528778 -2.34375,1.21875 -0.76047,0.76047 -1.208118,1.652276 -1.25,2.34375 l -1.5,1.5 c -0.03269,0.002 -0.06005,-0.004 -0.09375,0 -0.673941,0.08019 -1.525743,0.525743 -2.25,1.25 -0.76047,0.76047 -1.208118,1.652276 -1.25,2.34375 l -1.09375,1.09375 c -0.03269,0.002 -0.06005,-0.004 -0.09375,0 -0.673941,0.08019 -1.525743,0.525743 -2.25,1.25 C 8.9895297,20.97922 8.541882,21.871026 8.5,22.5625 L 6.59375,24.46875 C 6.4846355,24.328808 6.2699008,23.999572 6.25,24 6.227167,24.000491 5.9278697,24.555139 5.90625,24.5625 5.88314,24.5704 5.2702485,24.330113 5.25,24.34375 5.231057,24.35651 5.295458,24.982119 5.28125,25 c -0.015187,0.01911 -0.6778384,0.165081 -0.6875,0.1875 -0.00904,0.02097 0.3772857,0.508526 0.375,0.53125 -0.00244,0.02429 -0.4727429,0.475916 -0.46875,0.5 0.00374,0.02253 0.5833876,0.229648 0.59375,0.25 0.011077,0.02175 -0.1413796,0.669398 -0.125,0.6875 0.015324,0.01694 0.6365294,-0.136519 0.65625,-0.125 0.02108,0.01231 0.2264341,0.649877 0.25,0.65625 0.022046,0.006 0.4771824,-0.436529 0.5,-0.4375 0.02439,-0.001 0.5392298,0.41363 0.5625,0.40625 C 6.95927,27.64935 7.0750798,27.013153 7.09375,27 7.113707,26.98594 7.7656636,27.05004 7.78125,27.03125 7.795831,27.01367 7.5851549,26.427409 7.59375,26.40625 7.60294,26.38363 8.184546,26.086733 8.1875,26.0625 8.19016,26.04068 7.7572624,25.701469 7.71875,25.65625 l 1.9375,-1.9375 c 0.691474,-0.04188 1.58328,-0.48953 2.34375,-1.25 0.76047,-0.76047 1.208118,-1.652276 1.25,-2.34375 l 1.09375,-1.09375 c 0.691474,-0.04188 1.58328,-0.48953 2.34375,-1.25 0.748399,-0.748399 1.19621,-1.626093 1.25,-2.3125 l 1.53125,-1.53125 c 0.686407,-0.05379 1.564101,-0.501601 2.3125,-1.25 0.748399,-0.748399 1.19621,-1.626093 1.25,-2.3125 l 1.25,-1.25 c 0.689015,-0.048634 1.554815,-0.4923154 2.3125,-1.25 0.748399,-0.7483992 1.192253,-1.6274116 1.25,-2.3125 L 28.9375,4.46875 c 0.14837,-0.1483699 0.14837,-0.3828801 0,-0.53125 l -0.625,-0.625 C 28.23832,3.238315 28.128065,3.1875 28.03125,3.1875 z m -19.125,0.09375 c -0.427748,0 -0.75,0.60205 -0.75,1.34375 l 0.75,4.09375 L 9.6875,4.625 c 0,-0.7417 -0.353502,-1.34375 -0.78125,-1.34375 z m -7.0625,13.4375 C 1.768766,16.722491 1.6941967,16.725392 1.625,16.75 1.0714253,16.946746 0.96674487,17.760351 1.375,18.5625 L 4.625,22.65625 3.375,17.875 C 3.0177767,17.17312 2.3686377,16.692564 1.84375,16.71875 z m -0.8125,6.09375 c -0.16352525,0.02316 -0.31099734,0.12126 -0.375,0.25 -0.12800532,0.25748 0.0662963,0.596707 0.4375,0.78125 L 3.375,24.40625 1.5625,22.9375 C 1.3768981,22.845229 1.1947753,22.789337 1.03125,22.8125 z m 9.875,3.5 1.96875,1.125 c 0.383505,0.103891 0.759401,-0.06363 0.84375,-0.375 0.08435,-0.311372 -0.147745,-0.614859 -0.53125,-0.71875 L 10.90625,26.3125 z m -1.5,1.28125 L 11.84375,31 c 0.536149,0.5125 1.204431,0.6842 1.5,0.375 0.29557,-0.3092 0.09865,-0.9875 -0.4375,-1.5 l -3.5,-2.28125 z M 3.625,27.65625 1.09375,28.6875 c -0.39636087,0.276755 -0.55968274,0.735501 -0.375,1 0.18468264,0.264499 0.6348888,0.245504 1.03125,-0.03125 l 1.875,-2 z m 2.875,1.375 -0.59375,2 c 0,0.362891 0.2711558,0.65625 0.59375,0.65625 0.3225943,0 0.59375,-0.293359 0.59375,-0.65625 l -0.59375,-2 z"
       id="rect3026"
       inkscape:connector-curvature="0" />
    <path
       style="fill:#b3b3b3;fill-opacity:1;fill-rule:evenodd;stroke:none;display:inline"
       d="m 15.467991,-12.598869 c -1.023619,0 -1.84375,1.27561 -1.84375,2.8437498 l 1.84375,8.6562495 1.84375,-8.6562495 c 0,-1.5681398 -0.820131,-2.8437498 -1.84375,-2.8437498 z"
       id="path3138"
       inkscape:connector-curvature="0" />
  </g>
  <g
     inkscape:groupmode="layer"
     id="layer3"
     inkscape:label="Layer 3"
     style="display:inline" />
</svg>
