<?xml version="1.0" encoding="UTF-8" standalone="no"?>
<!-- Created with Inkscape (http://www.inkscape.org/) -->

<svg
   xmlns:dc="http://purl.org/dc/elements/1.1/"
   xmlns:cc="http://creativecommons.org/ns#"
   xmlns:rdf="http://www.w3.org/1999/02/22-rdf-syntax-ns#"
   xmlns:svg="http://www.w3.org/2000/svg"
   xmlns="http://www.w3.org/2000/svg"
   xmlns:xlink="http://www.w3.org/1999/xlink"
   xmlns:sodipodi="http://sodipodi.sourceforge.net/DTD/sodipodi-0.dtd"
   xmlns:inkscape="http://www.inkscape.org/namespaces/inkscape"
   width="32"
   height="32"
   id="svg2"
   version="1.1"
   inkscape:version="0.48.0 r9654"
   sodipodi:docname="weaponmod_standoff_rocket.svg"
   inkscape:export-filename="/home/awrapp/Documents/new stuff/weaponmod_standoff_rocket.png"
   inkscape:export-xdpi="180"
   inkscape:export-ydpi="180">
  <defs
     id="defs4">
    <linearGradient
       id="linearGradient3847">
      <stop
         style="stop-color:#ffffff;stop-opacity:1;"
         offset="0"
         id="stop3849" />
      <stop
         style="stop-color:#d5d5d5;stop-opacity:1;"
         offset="1"
         id="stop3851" />
    </linearGradient>
    <linearGradient
       id="linearGradient3833">
      <stop
         style="stop-color:#6a00c6;stop-opacity:1;"
         offset="0"
         id="stop3835" />
      <stop
         style="stop-color:#b04fff;stop-opacity:1;"
         offset="1"
         id="stop3837" />
    </linearGradient>
    <linearGradient
       inkscape:collect="always"
       xlink:href="#linearGradient3833"
       id="linearGradient3839"
       x1="17.196539"
       y1="15.95355"
       x2="27.383678"
       y2="15.95355"
       gradientUnits="userSpaceOnUse" />
    <linearGradient
       inkscape:collect="always"
       xlink:href="#linearGradient3833"
       id="linearGradient3841"
       x1="4.4563073"
       y1="15.894665"
       x2="14.643446"
       y2="15.894665"
       gradientUnits="userSpaceOnUse" />
    <linearGradient
       inkscape:collect="always"
       xlink:href="#linearGradient3833"
       id="linearGradient3844"
       gradientUnits="userSpaceOnUse"
       x1="0.17059311"
       y1="32.055378"
       x2="0.089874499"
       y2="0.180379" />
    <linearGradient
       inkscape:collect="always"
       xlink:href="#linearGradient3847"
       id="linearGradient3859"
       x1="0.15624999"
       y1="0.48883924"
       x2="0.058035642"
       y2="31.560268"
       gradientUnits="userSpaceOnUse" />
    <linearGradient
       inkscape:collect="always"
       xlink:href="#linearGradient3833"
       id="linearGradient5011"
       x1="0.082345895"
       y1="31.906734"
       x2="-0.083394065"
       y2="-0.039339755"
       gradientUnits="userSpaceOnUse" />
    <linearGradient
       inkscape:collect="always"
       xlink:href="#linearGradient3847"
       id="linearGradient5019"
       x1="-0.068687506"
       y1="0.0056857299"
       x2="0.16489926"
       y2="32.07803"
       gradientUnits="userSpaceOnUse" />
    <linearGradient
       inkscape:collect="always"
       xlink:href="#linearGradient3847"
       id="linearGradient4021"
       x1="0.0070711928"
       y1="0.03875218"
       x2="-0.01627879"
       y2="31.921692"
       gradientUnits="userSpaceOnUse" />
    <linearGradient
       inkscape:collect="always"
       xlink:href="#linearGradient3833-1"
       id="linearGradient4029-6"
       x1="0.16719507"
       y1="31.846767"
       x2="0.076134875"
       y2="-0.036171541"
       gradientUnits="userSpaceOnUse" />
    <linearGradient
       id="linearGradient3833-1">
      <stop
         style="stop-color:#00cabe;stop-opacity:1;"
         offset="0"
         id="stop3835-0" />
      <stop
         style="stop-color:#77fff7;stop-opacity:1;"
         offset="1"
         id="stop3837-4" />
    </linearGradient>
    <linearGradient
       inkscape:collect="always"
       xlink:href="#linearGradient3847"
       id="linearGradient3900"
       x1="-0.017991496"
       y1="0.053842373"
       x2="0.0087829465"
       y2="32.063049"
       gradientUnits="userSpaceOnUse" />
    <linearGradient
       id="linearGradient3847-4">
      <stop
         style="stop-color:#ffffff;stop-opacity:1;"
         offset="0"
         id="stop3849-3" />
      <stop
         style="stop-color:#d5d5d5;stop-opacity:1;"
         offset="1"
         id="stop3851-0" />
    </linearGradient>
    <linearGradient
       inkscape:collect="always"
       xlink:href="#linearGradient3840"
       id="linearGradient3846"
       x1="0.068830729"
       y1="31.892859"
       x2="0.14545596"
       y2="-0.071426563"
       gradientUnits="userSpaceOnUse" />
    <linearGradient
       id="linearGradient3840">
      <stop
         style="stop-color:#6b00c6;stop-opacity:1;"
         offset="0"
         id="stop3842" />
      <stop
         style="stop-color:#ae4fff;stop-opacity:1;"
         offset="1"
         id="stop3844" />
    </linearGradient>
    <linearGradient
       y2="-0.071426563"
       x2="0.14545596"
       y1="31.892859"
       x1="0.068830729"
       gradientUnits="userSpaceOnUse"
       id="linearGradient3024"
       xlink:href="#linearGradient3840"
       inkscape:collect="always"
       gradientTransform="translate(-7.3375043e-8,1020.3622)" />
    <linearGradient
       inkscape:collect="always"
       xlink:href="#linearGradient3847-4-6"
       id="linearGradient3856-8"
       x1="-0.017939515"
       y1="-0.16037276"
       x2="-0.031249816"
       y2="32.07177"
       gradientUnits="userSpaceOnUse"
       gradientTransform="translate(-6.8912247e-8,1020.3622)" />
    <linearGradient
       id="linearGradient3847-4-6">
      <stop
         style="stop-color:#ffffff;stop-opacity:1;"
         offset="0"
         id="stop3849-3-8" />
      <stop
         style="stop-color:#d5d5d5;stop-opacity:1;"
         offset="1"
         id="stop3851-0-8" />
    </linearGradient>
    <linearGradient
       y2="32.07177"
       x2="-0.031249816"
       y1="-0.16037276"
       x1="-0.017939515"
       gradientUnits="userSpaceOnUse"
       id="linearGradient3068"
       xlink:href="#linearGradient3847-4-6"
       inkscape:collect="always" />
    <linearGradient
       inkscape:collect="always"
       xlink:href="#linearGradient3833"
       id="linearGradient3909"
       x1="0.22027855"
       y1="32.230614"
       x2="-0.0625"
       y2="-0.090813771"
       gradientUnits="userSpaceOnUse" />
  </defs>
  <sodipodi:namedview
     id="base"
     pagecolor="#000000"
     bordercolor="#666666"
     borderopacity="1.0"
     inkscape:pageopacity="0"
     inkscape:pageshadow="2"
     inkscape:zoom="5.6"
     inkscape:cx="17.8118"
     inkscape:cy="-3.2662844"
     inkscape:document-units="px"
     inkscape:current-layer="layer3"
     showgrid="true"
     inkscape:snap-grids="false"
     inkscape:snap-to-guides="false"
     inkscape:window-width="712"
     inkscape:window-height="844"
     inkscape:window-x="720"
     inkscape:window-y="0"
     inkscape:window-maximized="0">
    <inkscape:grid
       type="xygrid"
       id="grid3040"
       empspacing="5"
       dotted="true"
       visible="true"
       enabled="true"
       snapvisiblegridlinesonly="true" />
  </sodipodi:namedview>
  <metadata
     id="metadata7">
    <rdf:RDF>
      <cc:Work
         rdf:about="">
        <dc:format>image/svg+xml</dc:format>
        <dc:type
           rdf:resource="http://purl.org/dc/dcmitype/StillImage" />
        <dc:title></dc:title>
      </cc:Work>
    </rdf:RDF>
  </metadata>
  <g
     inkscape:groupmode="layer"
     id="layer3"
     inkscape:label="Layer 0"
     style="display:inline">
    <path
       style="fill:url(#linearGradient3909);fill-opacity:1;fill-rule:evenodd;stroke:none"
       d="M 25.9375 1.78125 L 19.21875 7.1875 L 21.15625 2.25 L 17.4375 7.53125 L 17.34375 7.40625 L 17.0625 8.09375 L 16.46875 8.9375 L 15.03125 8.28125 L 15.03125 10.0625 L 13.25 10.0625 L 14 11.6875 L 13.96875 11.71875 L 13.40625 11.59375 L 13.40625 11.9375 L 13.0625 12.09375 L 12.59375 9.5625 A 0.83076888 0.83076888 0 0 0 11.6875 8.90625 A 0.83076888 0.83076888 0 0 0 11.3125 9.03125 L 7.3125 11.75 A 0.83076888 0.83076888 0 0 0 6.9375 12.375 L 6.4375 17.8125 A 0.83076888 0.83076888 0 0 0 6.5625 18.34375 L 4.96875 19.53125 C 3.4768273 20.34205 2.1694072 21.59705 1.375 24.03125 C 1.38275 24.04125 1.398485 24.02325 1.40625 24.03125 C 0.75682777 25.80065 0.50737237 27.9237 1.0625 30.5625 A 0.83076888 0.83076888 0 0 0 1.65625 31.1875 C 4.9470945 32.1226 8.002419 31.4561 10.625 29.625 C 10.64719 29.609 10.66555 29.5775 10.6875 29.5625 A 0.83076888 0.83076888 0 0 0 10.78125 29.5 C 11.773725 28.7579 12.517079 27.7734 13.0625 26.5625 C 13.0642 26.5525 13.0611 26.53825 13.0625 26.53125 L 14.15625 25.0625 A 0.83076888 0.83076888 0 0 0 14.5625 25.125 L 20.03125 24.5 A 0.83076888 0.83076888 0 0 0 20.625 24.125 L 23.25 20.0625 A 0.83076888 0.83076888 0 0 0 22.6875 18.78125 L 20.5625 18.40625 L 20.65625 17.875 L 21.53125 17.5 L 21.40625 17.34375 L 22.53125 17.59375 L 22.15625 15.875 L 22.21875 15.84375 L 23.90625 15.5 L 23.40625 14.8125 L 29.90625 9.3125 L 24.46875 12.0625 L 29.9375 5.09375 L 23.03125 10.53125 L 22.75 10.5 L 29.28125 2.21875 L 20.40625 9.1875 L 20.34375 9 L 25.9375 1.78125 z "
       id="path3855" />
  </g>
  <g
     inkscape:label="Layer 1"
     inkscape:groupmode="layer"
     id="layer1"
     transform="translate(0,-1020.3622)"
     style="display:inline" />
  <g
     inkscape:groupmode="layer"
     id="layer2"
     inkscape:label="Layer 2"
     style="display:inline"
     sodipodi:insensitive="true">
    <path
       style="fill:url(#linearGradient3068);fill-opacity:1;stroke:none;display:inline"
       d="M 11.979971,9.4838333 7.9866253,12.185177 7.469838,17.658448 12.77864,13.665102 11.979971,9.4838333 z m 1.573848,4.8154687 c -0.399202,0.01203 -0.705718,0.188975 -0.939611,0.422825 -0.0029,0.0075 -0.02061,-0.0075 -0.02349,0 l -8.057164,6.130999 c 0.7535259,-0.376446 2.6315261,0.611348 4.3926823,2.37248 1.7611547,1.761207 2.7724597,3.662679 2.3960067,4.416172 l 5.99002,-8.432972 c 0.0043,0 -0.0043,-0.0203 0,-0.0233 0.623715,-0.623676 0.87913,-1.422872 -1.010082,-3.312091 -1.180757,-1.180752 -2.083026,-1.593655 -2.748362,-1.573885 z m 5.050409,4.345738 -3.899385,5.402763 5.449743,-0.634275 2.630911,-4.040327 -4.181269,-0.728161 z M 3.8758263,21.651795 c -0.1191269,0.02781 -0.2274092,0.08644 -0.3053736,0.164394 -1.400995,2.086764 -2.2757114,4.532609 -1.4798872,8.315559 3.0991249,0.880678 5.8412467,0.271209 8.3155565,-1.47985 C 11.029837,28.028146 10.016777,25.984003 8.127567,24.094784 6.4745062,22.441745 4.7097153,21.45583 3.8758263,21.651795 z"
       id="path3000"
       inkscape:connector-curvature="0" />
  </g>
</svg>
