<?xml version="1.0" encoding="UTF-8" standalone="no"?>
<!-- Created with Inkscape (http://www.inkscape.org/) -->

<svg
   xmlns:dc="http://purl.org/dc/elements/1.1/"
   xmlns:cc="http://creativecommons.org/ns#"
   xmlns:rdf="http://www.w3.org/1999/02/22-rdf-syntax-ns#"
   xmlns:svg="http://www.w3.org/2000/svg"
   xmlns="http://www.w3.org/2000/svg"
   xmlns:xlink="http://www.w3.org/1999/xlink"
   xmlns:sodipodi="http://sodipodi.sourceforge.net/DTD/sodipodi-0.dtd"
   xmlns:inkscape="http://www.inkscape.org/namespaces/inkscape"
   width="64"
   height="64"
   id="svg2"
   version="1.1"
   inkscape:version="0.48.0 r9654"
   sodipodi:docname="weaponmod_autoflechette.svg"
   inkscape:export-filename="/home/awrapp/Documents/new stuff/weaponmod_autoflechette.png"
   inkscape:export-xdpi="90"
   inkscape:export-ydpi="90">
  <defs
     id="defs4">
    <linearGradient
       id="linearGradient4011">
      <stop
         style="stop-color:#a63eff;stop-opacity:1;"
         offset="0"
         id="stop4013" />
      <stop
         style="stop-color:#6b00c6;stop-opacity:1;"
         offset="1"
         id="stop4015" />
    </linearGradient>
    <linearGradient
       id="linearGradient3847">
      <stop
         style="stop-color:#ffffff;stop-opacity:1;"
         offset="0"
         id="stop3849" />
      <stop
         style="stop-color:#d5d5d5;stop-opacity:1;"
         offset="1"
         id="stop3851" />
    </linearGradient>
    <linearGradient
       id="linearGradient3833">
      <stop
         style="stop-color:#00cabe;stop-opacity:1;"
         offset="0"
         id="stop3835" />
      <stop
         style="stop-color:#77fff7;stop-opacity:1;"
         offset="1"
         id="stop3837" />
    </linearGradient>
    <linearGradient
       inkscape:collect="always"
       xlink:href="#linearGradient3833"
       id="linearGradient3839"
       x1="17.196539"
       y1="15.95355"
       x2="27.383678"
       y2="15.95355"
       gradientUnits="userSpaceOnUse" />
    <linearGradient
       inkscape:collect="always"
       xlink:href="#linearGradient3833"
       id="linearGradient3841"
       x1="4.4563074"
       y1="15.894665"
       x2="14.643446"
       y2="15.894665"
       gradientUnits="userSpaceOnUse" />
    <linearGradient
       inkscape:collect="always"
       xlink:href="#linearGradient3833"
       id="linearGradient3844"
       gradientUnits="userSpaceOnUse"
       x1="0.17059311"
       y1="32.055378"
       x2="0.089874499"
       y2="0.180379" />
    <linearGradient
       inkscape:collect="always"
       xlink:href="#linearGradient3847"
       id="linearGradient3859"
       x1="0.15624999"
       y1="0.48883924"
       x2="0.058035642"
       y2="31.560268"
       gradientUnits="userSpaceOnUse" />
    <linearGradient
       inkscape:collect="always"
       xlink:href="#linearGradient3847"
       id="linearGradient3003"
       gradientUnits="userSpaceOnUse"
       x1="0.15624999"
       y1="0.48883924"
       x2="0.058035642"
       y2="31.560268" />
    <linearGradient
       inkscape:collect="always"
       xlink:href="#linearGradient3847"
       id="linearGradient3005"
       gradientUnits="userSpaceOnUse"
       x1="0.15624999"
       y1="0.48883924"
       x2="0.058035642"
       y2="31.560268" />
    <linearGradient
       inkscape:collect="always"
       xlink:href="#linearGradient3847"
       id="linearGradient4334"
       x1="0.13336332"
       y1="0.19611481"
       x2="-0.096969061"
       y2="32.071114"
       gradientUnits="userSpaceOnUse" />
    <linearGradient
       inkscape:collect="always"
       xlink:href="#linearGradient4011"
       id="linearGradient4038"
       x1="20.963491"
       y1="1029.1227"
       x2="28.50215"
       y2="1037.5878"
       gradientUnits="userSpaceOnUse" />
    <linearGradient
       inkscape:collect="always"
       xlink:href="#linearGradient3847"
       id="linearGradient3831"
       x1="0.086500034"
       y1="-32.142857"
       x2="0.34207052"
       y2="33.57143"
       gradientUnits="userSpaceOnUse" />
    <linearGradient
       inkscape:collect="always"
       xlink:href="#linearGradient4011"
       id="linearGradient3840"
       x1="-0.083622858"
       y1="988.2193"
       x2="-0.20209278"
       y2="1055.7194"
       gradientUnits="userSpaceOnUse"
       gradientTransform="translate(-0.63134561,0.5050732)" />
    <linearGradient
       gradientTransform="translate(-2.8392279e-7,1020.3622)"
       inkscape:collect="always"
       xlink:href="#linearGradient3847-2"
       id="linearGradient3831-0"
       x1="0.086500034"
       y1="-32.142857"
       x2="0.34207052"
       y2="33.57143"
       gradientUnits="userSpaceOnUse" />
    <linearGradient
       id="linearGradient3847-2">
      <stop
         style="stop-color:#ffffff;stop-opacity:1;"
         offset="0"
         id="stop3849-8" />
      <stop
         style="stop-color:#d5d5d5;stop-opacity:1;"
         offset="1"
         id="stop3851-3" />
    </linearGradient>
    <linearGradient
       inkscape:collect="always"
       xlink:href="#linearGradient4011-0"
       id="linearGradient3840-8"
       x1="-0.083622858"
       y1="988.2193"
       x2="-0.20209278"
       y2="1055.7194"
       gradientUnits="userSpaceOnUse"
       gradientTransform="translate(-0.63134569,0.505079)" />
    <linearGradient
       id="linearGradient4011-0">
      <stop
         style="stop-color:#ff3e3e;stop-opacity:1;"
         offset="0"
         id="stop4013-4" />
      <stop
         style="stop-color:#cf0000;stop-opacity:1;"
         offset="1"
         id="stop4015-0" />
    </linearGradient>
    <linearGradient
       y2="1055.7194"
       x2="-0.20209278"
       y1="988.2193"
       x1="-0.083622858"
       gradientTransform="translate(-0.63134529,0.50507948)"
       gradientUnits="userSpaceOnUse"
       id="linearGradient3026"
       xlink:href="#linearGradient4011-0"
       inkscape:collect="always" />
    <linearGradient
       inkscape:collect="always"
       xlink:href="#linearGradient4011"
       id="linearGradient3842"
       x1="0.045525413"
       y1="-0.3248814"
       x2="0.20842361"
       y2="64.829956"
       gradientUnits="userSpaceOnUse" />
  </defs>
  <sodipodi:namedview
     id="base"
     pagecolor="#ffffff"
     bordercolor="#666666"
     borderopacity="1.0"
     inkscape:pageopacity="0.0"
     inkscape:pageshadow="2"
     inkscape:zoom="3.959798"
     inkscape:cx="57.289892"
     inkscape:cy="21.246394"
     inkscape:document-units="px"
     inkscape:current-layer="layer4"
     showgrid="true"
     inkscape:snap-grids="false"
     inkscape:snap-to-guides="false"
     inkscape:window-width="720"
     inkscape:window-height="850"
     inkscape:window-x="720"
     inkscape:window-y="0"
     inkscape:window-maximized="0">
    <inkscape:grid
       type="xygrid"
       id="grid3040"
       empspacing="5"
       dotted="true"
       visible="true"
       enabled="true"
       snapvisiblegridlinesonly="true" />
  </sodipodi:namedview>
  <metadata
     id="metadata7">
    <rdf:RDF>
      <cc:Work
         rdf:about="">
        <dc:format>image/svg+xml</dc:format>
        <dc:type
           rdf:resource="http://purl.org/dc/dcmitype/StillImage" />
        <dc:title></dc:title>
      </cc:Work>
    </rdf:RDF>
  </metadata>
  <g
     inkscape:groupmode="layer"
     id="layer4"
     inkscape:label="Layer 0">
    <path
       style="fill:url(#linearGradient3842);fill-opacity:1;stroke:none"
       d="m 34.593279,2.9696368 c -14.990586,0 -27.1562499,12.1656642 -27.1562499,27.1562502 0,14.990586 12.1656639,27.15625 27.1562499,27.15625 14.990586,0 27.15625,-12.165664 27.15625,-27.15625 0,-4.892161 -1.291448,-9.476223 -3.5625,-13.4375 l 4.71875,-4.9375 -18.25,-4.4062502 5.28125,18.0000002 3.8125,-4 c 1.22649,2.674086 1.90625,5.64407 1.90625,8.78125 0,11.637428 -9.425072,21.0625 -21.0625,21.0625 -11.637428,0 -21.0625,-9.425072 -21.0625,-21.0625 0,-11.637428 9.425072,-21.0624998 21.0625,-21.0624998 1.444011,0 2.856645,0.16105 4.21875,0.4375 l 1,-6.0000004 c -1.691442,-0.330164 -3.431125,-0.53125 -5.21875,-0.53125 z"
       id="path3788"
       inkscape:connector-curvature="0" />
  </g>
  <g
     inkscape:label="Layer 1"
     inkscape:groupmode="layer"
     id="layer1"
     transform="translate(0,-988.3622)"
     style="display:inline">
    <path
       inkscape:connector-curvature="0"
       style="fill:url(#linearGradient3840);fill-opacity:1;fill-rule:evenodd;stroke:none"
       d="m 39.331415,993.97071 c -0.196105,-0.0205 -0.412503,-0.0157 -0.613757,0.0299 -0.33508,0.0645 -0.567495,0.19461 -0.736511,0.30693 l -26.299576,17.43076 -0.398943,-1.0126 -0.828575,1.565 -1.9947175,-1.1966 -0.2455018,2.1787 -2.2402214,-0.4298 1.1661415,1.8414 -2.0560932,1.1968 1.9333401,1.2275 -0.5216931,1.6879 1.9640279,-0.4297 0.6444473,2.3017 1.5650872,-1.4424 1.534396,1.381 0.153444,-2.2403 2.117469,0.091 -0.613759,-1.6265 27.128151,-18.01384 c 0.943723,-0.62662 1.175762,-1.8845 0.552384,-2.82335 l -0.767201,-1.13532 c -0.330119,-0.49743 -0.854014,-0.82527 -1.442334,-0.89008 z m 4.633881,11.72309 c -0.61449,0 -1.067558,0.2388 -1.442332,0.6137 l -22.279454,22.2795 -0.644448,-0.9822 -0.521695,1.7186 -2.178843,-0.798 0.153443,2.2097 -2.301595,0.061 1.534397,1.5651 -1.810589,1.6266 2.178844,0.8286 -0.184127,1.7797 1.841277,-0.8284 1.135455,2.1788 1.258208,-1.7493 1.810587,1.0436 -0.306879,-2.2405 2.117468,-0.3681 -0.951326,-1.5344 22.985277,-22.9852 c 0.777642,-0.7777 0.777642,-2.0765 0,-2.8541 a 1.2646634,1.2646634 0 0 0 0,-0.03 l -0.982015,-0.9514 0,0.03 c -0.0056,-0.016 -0.02486,0.015 -0.03069,0 -0.313808,-0.3071 -0.777708,-0.6137 -1.38096,-0.6137 z m -11.170415,1.3808 c -0.370545,0.027 -0.763888,0.1495 -1.104766,0.4295 l -24.396922,20.0087 -0.5216942,-1.0127 -0.6751344,1.6571 -2.0867814,-1.0127 -0.061383,2.2095 -2.2709085,-0.1842 1.3502699,1.7186 -1.9333402,1.4117 2.0560937,1.0127 -0.3375684,1.7492 1.9026532,-0.6444 0.8899513,2.2709 1.4116433,-1.6265 1.687839,1.2275 -0.09206,-2.2402 2.1174687,-0.1527 -0.7671986,-1.5651 25.1641206,-20.6222 c 0.840859,-0.6887 1.024236,-1.9783 0.306881,-2.8541 a 1.2646634,1.2646634 0 0 0 -0.03069,-0.03 l -0.85926,-1.013 c -0.0097,-0.015 -0.02081,-0.019 -0.03069,-0.031 -0.362139,-0.4233 -0.848742,-0.656 -1.350271,-0.706 -0.111614,-0.015 -0.244739,-0.015 -0.368256,0 z m 22.555646,6.1068 c -0.131672,0 -0.273746,0.016 -0.398945,0.03 -0.462555,0.085 -0.957374,0.3771 -1.288893,0.8593 l -17.860388,25.962 -0.797886,-0.8285 -0.214815,1.7799 -2.301598,-0.3682 0.583072,2.1482 -2.270909,0.4602 1.810589,1.2582 -1.473022,1.9332 2.270908,0.3991 0.153445,1.7799 1.657148,-1.1355 1.50371,1.9334 0.920638,-1.964 1.964028,0.7365 -0.70582,-2.179 1.994716,-0.7364 -1.196831,-1.289 18.443459,-26.8212 c 0.652571,-0.9492 0.360319,-2.1957 -0.552383,-2.8233 l -1.135454,-0.767 c -0.314655,-0.2165 -0.709754,-0.3542 -1.104766,-0.3685 z m -9.237074,1.6573 c -0.504941,0.023 -1.013975,0.2408 -1.380958,0.6444 l -21.174686,23.3229 -0.705824,-0.9822 -0.460318,1.7495 -2.240221,-0.6752 0.276192,2.2094 -2.332284,0.1527 1.626462,1.5038 -1.718527,1.7184 2.209532,0.7059 -0.09206,1.8107 1.810589,-0.9208 1.227519,2.1483 1.19683,-1.8414 1.871964,0.982 -0.398943,-2.2404 2.086781,-0.4601 -1.043392,-1.5037 21.849823,-24.0287 c 0.751182,-0.8262 0.682027,-2.1224 -0.122752,-2.8542 l -1.012703,-0.9206 c -0.446581,-0.4059 -1.012486,-0.5435 -1.473021,-0.5215 z"
       id="path3964" />
  </g>
  <g
     inkscape:groupmode="layer"
     id="layer2"
     inkscape:label="Layer 2"
     style="display:inline"
     transform="translate(0,32)">
    <path
       inkscape:connector-curvature="0"
       style="fill:url(#linearGradient3831);fill-opacity:1;fill-rule:evenodd;stroke:none;display:inline"
       d="m 39.281125,-25.382847 c -0.09693,0.01836 -0.188585,0.06459 -0.276191,0.122752 l -27.373652,18.1672695 -0.368256,-0.9206389 -0.552383,1.0127019 -1.2582053,-0.7671987 -0.1841286,1.4116467 -1.4423337,-0.2761924 0.7671982,1.1968296 -1.3502701,0.7671986 1.2582063,0.7978881 -0.3375678,1.1047667 1.2582063,-0.3068801 0.4296316,1.5037092 1.0127021,-0.9206385 1.012704,0.8899514 0.09206,-1.4423344 1.35027,0.030687 -0.491006,-1.3195821 1.012703,-0.5523833 -0.153444,-0.092063 26.913334,-17.8603883 c 0.350425,-0.232671 0.447486,-0.723653 0.214814,-1.07408 l -0.76719,-1.135453 c -0.174504,-0.262821 -0.476431,-0.392636 -0.767201,-0.337569 z m 5.002137,11.722799 c -0.194085,0 -0.403666,0.0661 -0.552383,0.214817 L 20.500099,9.8162372 19.978404,8.9876612 19.640837,10.061739 18.22919,9.5707332 l 0.122752,1.4116438 -1.473022,0.03069 0.982015,1.012703 -1.16614,1.012702 1.380956,0.521696 -0.09206,1.166142 1.166142,-0.552385 0.705823,1.38096 0.828575,-1.104765 1.135453,0.675133 -0.184127,-1.442334 1.35027,-0.214815 -0.736511,-1.19683 0.859263,-0.736513 -0.184129,-0.06137 22.862527,-22.862525 c 0.297432,-0.297434 0.297432,-0.776644 0,-1.074078 l -0.982022,-0.982023 c -0.148708,-0.148713 -0.32761,-0.214817 -0.521694,-0.214817 z m -11.201102,1.380959 c -0.0946,0.02797 -0.194844,0.0868 -0.276193,0.153439 L 7.3963438,8.6807802 6.9360251,7.821519 6.5063925,8.8649082 5.1561223,8.2204616 5.1254305,9.6627942 3.6524087,9.5400432 l 0.8899514,1.1047658 -1.2582053,0.88995 1.3195812,0.675135 -0.2148164,1.135453 1.2275193,-0.429629 0.5830708,1.442335 0.8899513,-1.012706 1.1047649,0.797889 -0.061381,-1.473022 1.35027,-0.09206 -0.613759,-1.25821 L 9.8206838,10.675498 9.6672402,10.583439 34.64725,-9.8854281 c 0.325398,-0.2665549 0.389305,-0.7486799 0.122752,-1.0740789 l -0.889951,-1.04339 c -0.199916,-0.244049 -0.514087,-0.360066 -0.797888,-0.276191 z m 22.432893,6.13759 c -0.19084,0.035348 -0.371858,0.1335718 -0.491008,0.3068785 L 36.427146,21.232154 35.721322,20.52633 l -0.122751,1.135455 -1.473022,-0.245504 0.368255,1.380957 -1.442334,0.306882 1.135454,0.797884 -0.951326,1.227521 1.473021,0.245504 0.09206,1.16614 1.074078,-0.736511 0.951326,1.22752 0.583071,-1.258207 1.258206,0.46032 -0.460319,-1.380959 1.288895,-0.460318 -0.951328,-1.043392 0.736511,-0.889948 -0.184128,-0.03069 18.320713,-26.6064498 c 0.238298,-0.3466243 0.131815,-0.8357793 -0.214815,-1.0740788 l -1.135454,-0.767201 c -0.173312,-0.1191546 -0.361546,-0.1580989 -0.552383,-0.1227508 z m -9.022258,1.5957728 c -0.193866,0.00919 -0.380217,0.1205746 -0.521696,0.2761925 l -22.095324,24.3048577 -0.583073,-0.797887 -0.276193,1.104765 -1.44233,-0.429629 0.184127,1.380956 -1.473023,0.09206 1.043392,0.982013 -1.104766,1.074078 1.411644,0.460319 -0.06137,1.166142 1.135455,-0.613757 0.797886,1.350268 0.736511,-1.135454 1.196829,0.613761 -0.245503,-1.411647 1.319583,-0.30688 -0.797888,-1.135455 0.828575,-0.797887 -0.153444,-0.06137 21.72707,-23.9059144 c 0.282958,-0.3112388 0.249863,-0.7911217 -0.06137,-1.0740791 l -1.012708,-0.920642 C 46.889564,-4.4723882 46.68666,-4.5549573 46.492796,-4.54573 z"
       id="rect2987" />
  </g>
</svg>
