# Exported from Wings 3D 1.0
mtllib rwheel2.mtl
o rwheel2
#24 vertices, 44 faces
v 10.55753256 -9.80683540 11.22178060
v 10.55753256 -9.46118090 12.38278060
v 10.55753256 -8.51683540 13.23269160
v 10.55753256 -7.22683540 13.54378060
v 10.55753256 -5.93683540 13.23269160
v 10.55753256 -4.99248980 12.38278060
v 10.55753256 -4.64683540 11.22178060
v 10.55753256 -4.99248980 10.06078060
v 10.55753256 -5.93683540 9.21086970
v 10.55753256 -7.22683540 8.89978060
v 10.55753256 -8.51683540 9.21086970
v 10.55753256 -9.46118090 10.06078060
v 7.23911596 -9.80683540 11.22178060
v 7.23911596 -9.46118090 12.38278060
v 7.23911596 -8.51683540 13.23269160
v 7.23911596 -7.22683540 13.54378060
v 7.23911596 -5.93683540 13.23269160
v 7.23911596 -4.99248980 12.38278060
v 7.23911596 -4.64683540 11.22178060
v 7.23911596 -4.99248980 10.06078060
v 7.23911596 -5.93683540 9.21086970
v 7.23911596 -7.22683540 8.89978060
v 7.23911596 -8.51683540 9.21086970
v 7.23911596 -9.46118090 10.06078060
vt 0.71705529 0.21651868
vt 0.72249515 0.19599126
vt 0.72249515 0.23704610
vt 0.73735713 0.18096415
vt 0.73735713 0.25207321
vt 0.75765897 0.17546385
vt 0.75765897 0.25757351
vt 0.77796082 0.18096415
vt 0.77796082 0.25207321
vt 0.79282280 0.19599126
vt 0.79282280 0.23704610
vt 0.79826266 0.21651868
vt 0.90507218 1.1071746e-2
vt 0.90507218 4.4001662e-2
vt 0.90507218 7.8538843e-2
vt 0.90507218 0.11461175
vt 0.90507218 0.15068465
vt 0.90507218 0.18522183
vt 0.90507218 0.21815175
vt 0.90507218 0.25108166
vt 0.90507218 0.28561884
vt 0.90507218 0.32169175
vt 0.90507218 0.35776465
vt 0.90507218 0.39230183
vt 0.90507218 0.42523175
vt 0.99528070 1.1071746e-2
vt 0.99528070 4.4001662e-2
vt 0.99528070 7.8538843e-2
vt 0.99528070 0.11461175
vt 0.99528070 0.15068465
vt 0.99528070 0.18522183
vt 0.99528070 0.21815175
vt 0.99528070 0.25108166
vt 0.99528070 0.28561884
vt 0.99528070 0.32169175
vt 0.99528070 0.35776465
vt 0.99528070 0.39230183
vt 0.99528070 0.42523175
vn 1.00000000 -4.4264522e-15 0.0000000e+0
vn 0.0000000e+0 -1.00000000 -3.4751474e-16
vn 0.0000000e+0 -1.00000000 -3.4751474e-16
vn 1.00000000 -1.1636775e-15 0.0000000e+0
vn 1.00000000 -1.1636775e-15 0.0000000e+0
vn 0.0000000e+0 -0.84529830 0.53429465
vn 0.0000000e+0 -0.84529830 0.53429465
vn 0.0000000e+0 -0.84529830 0.53429465
vn 1.00000000 -1.1636775e-15 0.0000000e+0
vn 0.0000000e+0 -0.84529830 0.53429465
vn 1.00000000 4.1064523e-16 0.0000000e+0
vn 1.00000000 4.1064523e-16 0.0000000e+0
vn 0.0000000e+0 -0.46596560 0.88480284
vn 0.0000000e+0 -0.46596560 0.88480284
vn 1.00000000 4.1064523e-16 0.0000000e+0
vn 1.00000000 2.7117094e-31 0.0000000e+0
vn 1.00000000 2.7117094e-31 0.0000000e+0
vn 0.0000000e+0 -1.8558305e-16 1.00000000
vn 0.0000000e+0 -1.8558305e-16 1.00000000
vn 0.0000000e+0 -1.8558305e-16 1.00000000
vn 0.0000000e+0 -1.8558305e-16 1.00000000
vn 1.00000000 -4.7917754e-16 0.0000000e+0
vn 1.00000000 -4.7917754e-16 0.0000000e+0
vn 0.0000000e+0 0.46596557 0.88480285
vn 0.0000000e+0 0.46596557 0.88480285
vn 1.00000000 -4.7917754e-16 0.0000000e+0
vn 1.00000000 -4.7917754e-16 0.0000000e+0
vn 1.00000000 1.4031297e-15 0.0000000e+0
vn 1.00000000 1.4031297e-15 0.0000000e+0
vn 0.0000000e+0 0.84529831 0.53429464
vn 0.0000000e+0 0.84529831 0.53429464
vn 0.0000000e+0 0.84529831 0.53429464
vn 0.0000000e+0 0.84529831 0.53429464
vn 1.00000000 4.4264535e-15 0.0000000e+0
vn 0.0000000e+0 1.00000000 -4.0543385e-16
vn 0.0000000e+0 1.00000000 -4.0543385e-16
vn 1.00000000 9.3541981e-16 0.0000000e+0
vn 1.00000000 9.3541981e-16 0.0000000e+0
vn 1.00000000 9.3541981e-16 0.0000000e+0
vn 0.0000000e+0 0.84529829 -0.53429467
vn 0.0000000e+0 0.84529829 -0.53429467
vn 0.0000000e+0 0.84529829 -0.53429467
vn 0.0000000e+0 0.84529829 -0.53429467
vn 1.00000000 0.0000000e+0 0.0000000e+0
vn 1.00000000 0.0000000e+0 0.0000000e+0
vn 0.0000000e+0 0.46596558 -0.88480285
vn 0.0000000e+0 0.46596558 -0.88480285
vn 1.00000000 1.3558547e-31 0.0000000e+0
vn 1.00000000 1.3558547e-31 0.0000000e+0
vn 1.00000000 1.3558547e-31 0.0000000e+0
vn 1.00000000 1.3558547e-31 0.0000000e+0
vn 0.0000000e+0 -1.8558306e-16 -1.00000000
vn 0.0000000e+0 -1.8558306e-16 -1.00000000
vn 0.0000000e+0 -1.8558306e-16 -1.00000000
vn 0.0000000e+0 -1.8558306e-16 -1.00000000
vn 1.00000000 3.1180653e-16 0.0000000e+0
vn 1.00000000 3.1180653e-16 0.0000000e+0
vn 1.00000000 3.1180653e-16 0.0000000e+0
vn 0.0000000e+0 -0.46596560 -0.88480283
vn 0.0000000e+0 -0.46596560 -0.88480283
vn 1.00000000 -2.2132261e-15 0.0000000e+0
vn 0.0000000e+0 -0.84529829 -0.53429468
vn 1.00000000 -2.2132261e-15 0.0000000e+0
vn 0.0000000e+0 -0.84529829 -0.53429468
vn 0.0000000e+0 -0.84529829 -0.53429468
vn 0.0000000e+0 -0.84529829 -0.53429468
vn 0.0000000e+0 -1.00000000 -4.3439343e-16
vn 0.0000000e+0 -1.00000000 -4.3439343e-16
vn 0.0000000e+0 -1.00000000 -4.3439343e-16
vn 0.0000000e+0 -1.00000000 -4.3439343e-16
vn -1.00000000 0.0000000e+0 0.0000000e+0
vn 0.0000000e+0 -0.84529830 0.53429465
vn 0.0000000e+0 -0.84529830 0.53429465
vn -1.00000000 -3.1180653e-16 0.0000000e+0
vn -1.00000000 -3.1180653e-16 0.0000000e+0
vn -1.00000000 -3.1180653e-16 0.0000000e+0
vn 0.0000000e+0 -0.46596560 0.88480284
vn 0.0000000e+0 -0.46596560 0.88480284
vn 0.0000000e+0 -0.46596560 0.88480284
vn -1.00000000 -1.1412912e-16 0.0000000e+0
vn 0.0000000e+0 -0.46596560 0.88480284
vn -1.00000000 -1.1412912e-16 0.0000000e+0
vn -1.00000000 -1.1412912e-16 0.0000000e+0
vn 0.0000000e+0 -3.7116611e-16 1.00000000
vn 0.0000000e+0 -3.7116611e-16 1.00000000
vn -1.00000000 -3.0580805e-17 0.0000000e+0
vn -1.00000000 -3.0580805e-17 0.0000000e+0
vn -1.00000000 -3.0580805e-17 0.0000000e+0
vn 0.0000000e+0 0.46596557 0.88480285
vn 0.0000000e+0 0.46596557 0.88480285
vn 0.0000000e+0 0.46596557 0.88480285
vn -1.00000000 3.1180647e-16 0.0000000e+0
vn 0.0000000e+0 0.46596557 0.88480285
vn -1.00000000 3.1180647e-16 0.0000000e+0
vn -1.00000000 3.1180647e-16 0.0000000e+0
vn 0.0000000e+0 0.84529831 0.53429464
vn 0.0000000e+0 0.84529831 0.53429464
vn -1.00000000 8.1009702e-16 0.0000000e+0
vn -1.00000000 8.1009702e-16 0.0000000e+0
vn 0.0000000e+0 1.00000000 -4.4887320e-16
vn 0.0000000e+0 1.00000000 -4.4887320e-16
vn 0.0000000e+0 1.00000000 -4.6335298e-16
vn -1.00000000 0.0000000e+0 0.0000000e+0
vn 0.0000000e+0 1.00000000 -4.6335298e-16
vn 0.0000000e+0 0.84529829 -0.53429467
vn -1.00000000 5.4006468e-16 0.0000000e+0
vn -1.00000000 5.4006468e-16 0.0000000e+0
vn 0.0000000e+0 0.84529829 -0.53429467
vn -1.00000000 5.4006468e-16 0.0000000e+0
vn 0.0000000e+0 0.46596558 -0.88480285
vn 0.0000000e+0 0.46596558 -0.88480285
vn 0.0000000e+0 0.46596558 -0.88480285
vn -1.00000000 -2.2825821e-16 0.0000000e+0
vn -1.00000000 -2.2825821e-16 0.0000000e+0
vn -1.00000000 -2.2825821e-16 0.0000000e+0
vn 0.0000000e+0 0.46596558 -0.88480285
vn 0.0000000e+0 -3.7116611e-16 -1.00000000
vn -1.00000000 1.9767741e-16 0.0000000e+0
vn -1.00000000 1.9767741e-16 0.0000000e+0
vn 0.0000000e+0 -3.7116611e-16 -1.00000000
vn -1.00000000 1.9767741e-16 0.0000000e+0
vn 0.0000000e+0 -0.46596560 -0.88480283
vn 0.0000000e+0 -0.46596560 -0.88480283
vn 0.0000000e+0 -0.46596560 -0.88480283
vn -1.00000000 -3.1180653e-16 0.0000000e+0
vn -1.00000000 -3.1180653e-16 0.0000000e+0
vn -1.00000000 -3.1180653e-16 0.0000000e+0
vn 0.0000000e+0 -0.46596560 -0.88480283
vn 0.0000000e+0 -0.84529829 -0.53429468
vn -1.00000000 0.0000000e+0 0.0000000e+0
vn -1.00000000 0.0000000e+0 0.0000000e+0
vn 0.0000000e+0 -0.84529829 -0.53429468
g rwheel2_red
usemtl red
f 1/6/1 12/8/61 2/4/4
f 1/38/2 13/25/67 12/37/62
f 2/4/5 11/10/56 3/2/11
f 2/4/9 12/8/63 11/10/58
f 2/27/6 13/13/68 1/26/3
f 2/27/10 14/14/73 13/13/70
f 2/27/7 15/15/77 14/14/72
f 3/2/12 10/12/48 4/1/16
f 3/2/15 11/10/57 10/12/51
f 3/28/13 15/15/78 2/27/8
f 4/1/17 10/12/49 5/3/22
f 4/29/18 15/15/79 3/28/14
f 4/29/21 16/16/85 15/15/81
f 4/29/19 17/17/89 16/16/84
f 5/3/23 8/9/37 6/5/28
f 5/3/26 9/11/44 8/9/39
f 5/3/27 10/12/50 9/11/45
f 5/30/24 17/17/90 4/29/20
f 6/5/29 8/9/38 7/7/34
f 6/31/30 17/17/91 5/30/25
f 6/31/33 18/18/97 17/17/93
f 6/31/31 19/19/100 18/18/96
f 7/32/35 19/19/101 6/31/32
f 8/33/40 19/19/102 7/32/36
f 8/33/43 20/20/108 19/19/104
f 8/33/41 21/21/110 20/20/105
f 9/34/46 21/21/111 8/33/42
f 10/35/52 21/21/112 9/34/47
f 10/35/55 22/22/120 21/21/116
f 10/35/53 23/23/122 22/22/117
f 11/36/59 23/23/123 10/35/54
f 12/37/65 23/23/124 11/36/60
f 12/37/66 24/24/132 23/23/128
f 13/25/69 24/24/129 12/37/64
f 14/8/74 24/4/130 13/6/71
f 15/10/80 23/2/125 14/8/75
f 16/12/86 22/1/118 15/10/82
f 17/11/92 21/3/113 16/12/87
f 18/9/98 20/5/106 17/11/94
f 19/7/103 20/5/107 18/9/99
f 20/5/109 21/3/114 17/11/95
f 21/3/115 22/1/119 16/12/88
f 22/1/121 23/2/126 15/10/83
f 23/2/127 24/4/131 14/8/76
