<?xml version="1.0" encoding="UTF-8" standalone="no"?>
<!-- Created with Inkscape (http://www.inkscape.org/) -->

<svg
   xmlns:dc="http://purl.org/dc/elements/1.1/"
   xmlns:cc="http://creativecommons.org/ns#"
   xmlns:rdf="http://www.w3.org/1999/02/22-rdf-syntax-ns#"
   xmlns:svg="http://www.w3.org/2000/svg"
   xmlns="http://www.w3.org/2000/svg"
   xmlns:xlink="http://www.w3.org/1999/xlink"
   xmlns:sodipodi="http://sodipodi.sourceforge.net/DTD/sodipodi-0.dtd"
   xmlns:inkscape="http://www.inkscape.org/namespaces/inkscape"
   width="32"
   height="32"
   id="svg2"
   version="1.1"
   inkscape:version="0.48.0 r9654"
   sodipodi:docname="autorepair_alt.svg"
   inkscape:export-filename="/home/awrapp/Documents/new stuff/autorepair_alt.png"
   inkscape:export-xdpi="180"
   inkscape:export-ydpi="180">
  <defs
     id="defs4">
    <linearGradient
       id="linearGradient3847">
      <stop
         style="stop-color:#ffffff;stop-opacity:1;"
         offset="0"
         id="stop3849" />
      <stop
         style="stop-color:#d5d5d5;stop-opacity:1;"
         offset="1"
         id="stop3851" />
    </linearGradient>
    <linearGradient
       id="linearGradient3833">
      <stop
         style="stop-color:#00cabe;stop-opacity:1;"
         offset="0"
         id="stop3835" />
      <stop
         style="stop-color:#77fff7;stop-opacity:1;"
         offset="1"
         id="stop3837" />
    </linearGradient>
    <linearGradient
       inkscape:collect="always"
       xlink:href="#linearGradient3833"
       id="linearGradient3839"
       x1="17.196539"
       y1="15.95355"
       x2="27.383678"
       y2="15.95355"
       gradientUnits="userSpaceOnUse" />
    <linearGradient
       inkscape:collect="always"
       xlink:href="#linearGradient3833"
       id="linearGradient3841"
       x1="4.4563073"
       y1="15.894665"
       x2="14.643446"
       y2="15.894665"
       gradientUnits="userSpaceOnUse" />
    <linearGradient
       inkscape:collect="always"
       xlink:href="#linearGradient3833"
       id="linearGradient3844"
       gradientUnits="userSpaceOnUse"
       x1="0.17059311"
       y1="32.055378"
       x2="0.089874499"
       y2="0.180379" />
    <linearGradient
       inkscape:collect="always"
       xlink:href="#linearGradient3847"
       id="linearGradient3859"
       x1="0.15624999"
       y1="0.48883924"
       x2="0.058035642"
       y2="31.560268"
       gradientUnits="userSpaceOnUse" />
    <linearGradient
       inkscape:collect="always"
       xlink:href="#linearGradient3847"
       id="linearGradient3003"
       gradientUnits="userSpaceOnUse"
       x1="0.15624999"
       y1="0.48883924"
       x2="0.058035642"
       y2="31.560268" />
    <linearGradient
       inkscape:collect="always"
       xlink:href="#linearGradient3847"
       id="linearGradient3005"
       gradientUnits="userSpaceOnUse"
       x1="0.15624999"
       y1="0.48883924"
       x2="0.058035642"
       y2="31.560268" />
    <linearGradient
       inkscape:collect="always"
       xlink:href="#linearGradient3847"
       id="linearGradient3860"
       x1="-0.062257528"
       y1="0.10714286"
       x2="-0.080599375"
       y2="32.339287"
       gradientUnits="userSpaceOnUse" />
    <linearGradient
       inkscape:collect="always"
       xlink:href="#linearGradient3833"
       id="linearGradient3868"
       x1="0.22555554"
       y1="1052.2312"
       x2="0.078016005"
       y2="1020.5348"
       gradientUnits="userSpaceOnUse" />
  </defs>
  <sodipodi:namedview
     id="base"
     pagecolor="#ffffff"
     bordercolor="#666666"
     borderopacity="1.0"
     inkscape:pageopacity="0.0"
     inkscape:pageshadow="2"
     inkscape:zoom="11.2"
     inkscape:cx="11.559116"
     inkscape:cy="11.982106"
     inkscape:document-units="px"
     inkscape:current-layer="layer1"
     showgrid="true"
     inkscape:snap-grids="false"
     inkscape:snap-to-guides="false"
     inkscape:window-width="1440"
     inkscape:window-height="853"
     inkscape:window-x="0"
     inkscape:window-y="-3"
     inkscape:window-maximized="1">
    <inkscape:grid
       type="xygrid"
       id="grid3040"
       empspacing="5"
       dotted="true"
       visible="true"
       enabled="true"
       snapvisiblegridlinesonly="true" />
  </sodipodi:namedview>
  <metadata
     id="metadata7">
    <rdf:RDF>
      <cc:Work
         rdf:about="">
        <dc:format>image/svg+xml</dc:format>
        <dc:type
           rdf:resource="http://purl.org/dc/dcmitype/StillImage" />
        <dc:title></dc:title>
      </cc:Work>
    </rdf:RDF>
  </metadata>
  <g
     inkscape:label="Layer 1"
     inkscape:groupmode="layer"
     id="layer1"
     transform="translate(0,-1020.3622)"
     style="display:inline">
    <path
       sodipodi:type="inkscape:offset"
       inkscape:radius="1.6103331"
       inkscape:original="M 10.65625 1024.5312 C 8.7177766 1024.5312 6.7602555 1025.271 5.28125 1026.75 C 2.32324 1029.708 2.32324 1034.5107 5.28125 1037.4688 L 16 1048.1875 L 26.71875 1037.4688 C 29.67676 1034.5107 29.67676 1029.708 26.71875 1026.75 C 23.760739 1023.7919 18.95801 1023.7919 16 1026.75 C 14.520995 1025.271 12.594723 1024.5312 10.65625 1024.5312 z "
       style="fill:url(#linearGradient3868);fill-opacity:1;fill-rule:evenodd;stroke:none;display:inline"
       id="path3041"
       d="m 10.65625,1022.9062 c -2.3481856,0 -4.7084892,0.9273 -6.5,2.7188 -3.57427498,3.5743 -3.57424373,9.3944 0,12.9688 l 10.71875,10.7187 a 1.6104941,1.6104941 0 0 0 2.25,0 l 10.71875,-10.7187 c 3.574244,-3.5744 3.574275,-9.3945 0,-12.9688 -3.243161,-3.2433 -8.253823,-3.3924 -11.84375,-0.75 -1.608375,-1.1876 -3.430618,-1.9688 -5.34375,-1.9688 z" />
  </g>
  <g
     inkscape:groupmode="layer"
     id="layer2"
     inkscape:label="Layer 2"
     style="display:inline"
     sodipodi:insensitive="true">
    <path
       style="fill:url(#linearGradient3860);fill-opacity:1;fill-rule:evenodd;stroke:none"
       d="m 10.65625,4.1875 c -1.9384734,0 -3.8959943,0.7397445 -5.375,2.21875 -2.95801,2.9580112 -2.95801,7.729488 0,10.6875 L 16,27.8125 26.71875,17.09375 c 2.95801,-2.958012 2.95801,-7.7294888 0,-10.6875 C 23.760739,3.4482395 18.95801,3.4482394 16,6.40625 14.520995,4.9272447 12.594723,4.1875 10.65625,4.1875 z m 4.75,4.375 1.1875,0 c 0.643036,0 1.15625,0.513214 1.15625,1.15625 l 0,3.09375 3.09375,0 C 21.486786,12.8125 22,13.325714 22,13.96875 l 0,1.1875 c 0,0.643036 -0.513214,1.15625 -1.15625,1.15625 l -3.09375,0 0,3.09375 c 0,0.643036 -0.513214,1.15625 -1.15625,1.15625 l -1.1875,0 c -0.643036,0 -1.15625,-0.513214 -1.15625,-1.15625 l 0,-3.09375 -3.09375,0 C 10.513214,16.3125 10,15.799286 10,15.15625 l 0,-1.1875 c 0,-0.643036 0.513214,-1.15625 1.15625,-1.15625 l 3.09375,0 0,-3.09375 c 0,-0.643036 0.513214,-1.15625 1.15625,-1.15625 z"
       id="rect3000"
       inkscape:connector-curvature="0" />
  </g>
  <g
     inkscape:groupmode="layer"
     id="layer3"
     inkscape:label="Layer 3"
     style="display:inline" />
</svg>
