<?xml version="1.0" encoding="UTF-8" standalone="no"?>
<!-- Created with Inkscape (http://www.inkscape.org/) -->

<svg
   xmlns:dc="http://purl.org/dc/elements/1.1/"
   xmlns:cc="http://creativecommons.org/ns#"
   xmlns:rdf="http://www.w3.org/1999/02/22-rdf-syntax-ns#"
   xmlns:svg="http://www.w3.org/2000/svg"
   xmlns="http://www.w3.org/2000/svg"
   xmlns:xlink="http://www.w3.org/1999/xlink"
   xmlns:sodipodi="http://sodipodi.sourceforge.net/DTD/sodipodi-0.dtd"
   xmlns:inkscape="http://www.inkscape.org/namespaces/inkscape"
   inkscape:version="0.48.0 r9654"
   version="1.1"
   id="svg2"
   height="64"
   width="64"
   sodipodi:docname="napalm.svg"
   inkscape:export-filename="/home/awrapp/Documents/newstuff2/napalm.png"
   inkscape:export-xdpi="90"
   inkscape:export-ydpi="90">
  <sodipodi:namedview
     id="base"
     pagecolor="#ffffff"
     bordercolor="#666666"
     borderopacity="1.0"
     inkscape:pageopacity="0.0"
     inkscape:pageshadow="2"
     inkscape:zoom="3.959798"
     inkscape:cx="25.181362"
     inkscape:cy="11.832676"
     inkscape:document-units="px"
     inkscape:current-layer="layer3"
     showgrid="true"
     inkscape:snap-to-guides="false"
     inkscape:snap-grids="false"
     inkscape:window-width="788"
     inkscape:window-height="850"
     inkscape:window-x="0"
     inkscape:window-y="0"
     inkscape:window-maximized="0"
     showguides="true"
     inkscape:guide-bbox="true">
    <inkscape:grid
       snapvisiblegridlinesonly="true"
       enabled="true"
       visible="true"
       dotted="true"
       empspacing="5"
       id="grid2985"
       type="xygrid" />
  </sodipodi:namedview>
  <defs
     id="defs4">
    <linearGradient
       id="linearGradient4005">
      <stop
         style="stop-color:#ff5f04;stop-opacity:1;"
         offset="0"
         id="stop4007" />
      <stop
         style="stop-color:#ffd50d;stop-opacity:1;"
         offset="1"
         id="stop4009" />
    </linearGradient>
    <linearGradient
       id="linearGradient3997">
      <stop
         style="stop-color:#d3d3d3;stop-opacity:1;"
         offset="0"
         id="stop3999" />
      <stop
         style="stop-color:#ffffff;stop-opacity:1;"
         offset="1"
         id="stop4001" />
    </linearGradient>
    <linearGradient
       inkscape:collect="always"
       xlink:href="#linearGradient4005"
       id="linearGradient3903"
       x1="0.38782826"
       y1="1052.9396"
       x2="-0.027437646"
       y2="988.28986"
       gradientUnits="userSpaceOnUse" />
    <linearGradient
       inkscape:collect="always"
       xlink:href="#linearGradient3997"
       id="linearGradient3911"
       x1="0.1195851"
       y1="64.095184"
       x2="0.24080504"
       y2="0.20303801"
       gradientUnits="userSpaceOnUse" />
  </defs>
  <metadata
     id="metadata7">
    <rdf:RDF>
      <cc:Work
         rdf:about="">
        <dc:format>image/svg+xml</dc:format>
        <dc:type
           rdf:resource="http://purl.org/dc/dcmitype/StillImage" />
        <dc:title></dc:title>
      </cc:Work>
    </rdf:RDF>
  </metadata>
  <g
     transform="translate(0,-988.36218)"
     id="layer1"
     inkscape:groupmode="layer"
     inkscape:label="Layer 0"
     style="display:inline"
     sodipodi:insensitive="true">
    <path
       style="fill:url(#linearGradient3903);fill-opacity:1;fill-rule:evenodd;stroke:none;display:inline"
       d="m 35.399314,988.84211 a 1.0526958,1.0526958 0 0 0 -0.03125,0.0312 1.0526958,1.0526958 0 0 0 -0.09375,0.0312 c -4.11691,1.4105 -9.404639,3.41721 -12.5,7.15625 -1.547681,1.86952 -2.497067,4.22414 -2.34375,7.00004 0.153317,2.7759 1.373978,5.9155 3.96875,9.5312 0.842193,1.1455 1.522957,2.2988 2.09375,3.4688 l -0.0625,0.1875 c -0.696899,-0.5571 -1.458559,-1.0678 -2.5,-1.4375 a 1.0526958,1.0526958 0 0 0 -0.125,-0.031 c -1.482658,-0.3907 -2.317323,-0.9795 -2.90625,-1.7187 -0.588927,-0.7391 -0.934562,-1.6891 -1.125,-2.8438 -0.380876,-2.3094 -0.104188,-5.365 -0.6875,-8.4062 a 1.0526958,1.0526958 0 0 0 -1.59375,-0.6875 c -2.933682,1.8149 -6.626812,4.2109 -8.3125004,7.4062 -0.8428439,1.5977 -1.1395771,3.4907 -0.34375,5.3438 0.3871135,0.9014 1.0197546,1.7963 1.8750004,2.6562 a 1.0526958,1.0526958 0 0 0 -0.0625,0.031 c -1.5870682,2.3798 -3.5354815,5.4981 -3.6875004,8.625 -0.076009,1.5634 0.38355,3.1777 1.65625,4.4062 1.2147204,1.1727 3.0557354,1.9862 5.6562504,2.4375 l 1.5,3.2813 -2.0625,0.75 2.96875,2.5 -0.96875,3.5937 3.625,0.5625 -1.4375,3.75 3.96875,0.1875 1.03125,2.9063 2.96875,-1.2188 1.15625,2.5 3.375,-1.9062 c 0.09351,0.027 0.186407,0.038 0.28125,0.062 a 1.0526958,1.0526958 0 0 0 0.5,0 l 1.90625,2.9062 1.875,-3 3.125,1.25 1.65625,-3.2812 c 0.04677,-0.043 0.07905,-0.1119 0.125,-0.1563 l 2.875,0.5 0.28125,-3.3125 3.21875,-0.7187 -0.375,-2.9063 3.03125,-1.125 -3.125,-3.3125 3.34375,-2.125 -0.875,-1.2812 c 0.961543,-0.4089 2.00573,-0.7869 3.1875,-1.0625 a 1.0526958,1.0526958 0 0 0 0.0625,0 c 2.246474,-0.6588 3.808753,-1.8975 4.65625,-3.5 0.847497,-1.6025 0.997344,-3.4641 0.84375,-5.4063 -0.307187,-3.8845 -1.830932,-8.2544 -2.6875,-12.1562 a 1.0526958,1.0526958 0 0 0 -1.90625,-0.375 c -2.040667,2.8768 -2.531042,6.4258 -3.5625,9.0312 -0.515729,1.3026 -1.156437,2.334 -2.03125,3.0313 -0.874813,0.6973 -2.026712,1.1681 -3.9375,1.125 a 1.0526958,1.0526958 0 0 0 -0.09375,0 c -0.07779,0 -0.142319,0.026 -0.21875,0.031 l -0.21875,-2.0312 c 0.48586,-0.3887 0.985786,-0.7578 1.53125,-1.125 3.410081,-2.3531 5.473021,-4.7024 6.40625,-7.0625 0.933229,-2.3601 0.666404,-4.7058 -0.25,-6.75 -1.832809,-4.0885 -6.13227,-7.2437 -9.53125,-9.59379 a 1.0526958,1.0526958 0 0 0 -1.625,0.65625 c -0.551903,2.94184 -0.559925,5.90124 -0.75,8.53124 -0.149243,2.0651 -0.551106,3.8019 -1.1875,5.2813 -1.538618,-1.1702 -2.306025,-2.425 -2.71875,-3.8438 -0.416443,-1.4315 -0.414839,-3.0345 -0.15625,-4.8437 0.517178,-3.61838 2.0423,-7.87575 2.59375,-12.34379 a 1.0526958,1.0526958 0 0 0 -1.25,-1.1875 z m -21.84375,29.84379 c 0.262634,0.1707 0.402619,0.3611 0.6875,0.5312 a 1.0526958,1.0526958 0 0 0 0.03125,0 c 1.887319,1.0985 3.285808,2.3508 4.28125,3.75 l -0.0625,2.0938 c -0.306971,-0.041 -0.584484,-0.091 -0.8125,-0.2188 -0.6797,-0.3818 -1.267703,-0.9988 -1.8125,-1.8437 -0.730025,-1.1323 -1.52238,-2.781 -2.3125,-4.3125 z"
       id="path3017"
       inkscape:connector-curvature="0" />
  </g>
  <g
     inkscape:groupmode="layer"
     id="layer3"
     inkscape:label="Layer 1"
     style="display:inline">
    <path
       style="fill:url(#linearGradient3911);fill-opacity:1;fill-rule:evenodd;stroke:none;display:inline"
       d="m 35.470043,2.6326144 c -7.828704,2.6822305 -19.601984,7.7202626 -9.9375,21.1874996 1.660109,2.258229 2.816958,4.579127 3.46875,7 -0.290781,0.443988 -0.526915,0.887946 -0.71875,1.375 -0.369891,-2.00717 -1.493819,-3.695829 -4.375,-4.71875 -6.330855,-1.668582 -4.234888,-7.763304 -5.28125,-13.21875 -5.5746,3.448741 -13.7643098,9.271754 -3.125,15.625 3.408001,1.983499 5.494119,4.567883 6.1875,7.65625 -0.23012,-0.0091 -0.436568,-0.01167 -0.6875,0 -5.365171,0.715567 -5.928357,-4.784789 -8.625,-8.75 -3.0058129,4.507286 -7.1315716,11.748291 3.125,13.34375 4.94755,0.712283 8.114469,3.463077 9.125,8.09375 0.07346,3.807864 2.646773,7.182996 6.375,8.15625 0.338563,-2.798641 -0.296164,-5.454803 -2.40625,-8.21875 -7.458382,-9.999194 1.677052,-15.10481 7.25,-16.71875 -1.210817,6.0653 -6.255899,9.284151 0.46875,16.4375 1.892685,2.245312 2.251108,4.614272 1.96875,7.0625 0.712361,-0.529924 1.35249,-1.147781 1.875,-1.875 l 0.0625,0.03125 c -0.0044,-0.03344 -0.02701,-0.06042 -0.03125,-0.09375 0.741841,-1.050348 1.259576,-2.267798 1.46875,-3.625 0.209175,-1.357203 0.07866,-2.681281 -0.3125,-3.90625 1.600119,-2.935901 4.674828,-4.969543 9.09375,-6 7.842775,-2.299841 3.652353,-11.362285 1.96875,-19.03125 -3.530336,4.976832 -1.974751,13.243955 -10,13.0625 -1.702616,0.09169 -3.074359,0.490875 -4.15625,1.09375 0.289688,-0.876926 0.519809,-1.734867 0.71875,-2.59375 1.077163,-1.216832 2.373866,-2.333063 3.875,-3.34375 12.67278,-8.744592 3.214312,-16.311719 -3.25,-20.7812496 -1.013447,5.4020496 -0.03308,11.1842406 -2.46875,14.8124996 -0.280053,-0.317786 -0.596034,-0.595037 -0.9375,-0.90625 C 29.576478,18.80977 34.449917,10.898076 35.470043,2.6326144 z"
       id="path3021-7-9"
       inkscape:connector-curvature="0" />
    <path
       style="fill:#808080;fill-opacity:1;fill-rule:evenodd;stroke:none;display:inline"
       inkscape:transform-center-y="-7.1105444"
       d="M 80.622892,22.490621 C 84.100446,13.874021 82.569437,6.0595367 76.395625,-0.09649533 64.792541,-11.934452 75.679781,-18.684028 83.008561,-22.527455 c 0.250803,8.324399 -3.369207,16.8551505 3.924379,20.7689297 7.561379,5.020828 3.206103,13.1923123 2.53692,20.9121953 z"
       id="path3021-7-9-8-7-0"
       inkscape:connector-curvature="0"
       sodipodi:nodetypes="cccccc"
       inkscape:transform-center-x="1.1093395" />
  </g>
  <g
     inkscape:label="Layer 2"
     id="layer2"
     inkscape:groupmode="layer"
     style="display:inline" />
</svg>
