<?xml version="1.0" encoding="UTF-8" standalone="no"?>
<!-- Created with Inkscape (http://www.inkscape.org/) -->

<svg
   xmlns:dc="http://purl.org/dc/elements/1.1/"
   xmlns:cc="http://creativecommons.org/ns#"
   xmlns:rdf="http://www.w3.org/1999/02/22-rdf-syntax-ns#"
   xmlns:svg="http://www.w3.org/2000/svg"
   xmlns="http://www.w3.org/2000/svg"
   xmlns:xlink="http://www.w3.org/1999/xlink"
   xmlns:sodipodi="http://sodipodi.sourceforge.net/DTD/sodipodi-0.dtd"
   xmlns:inkscape="http://www.inkscape.org/namespaces/inkscape"
   inkscape:version="0.48.0 r9654"
   version="1.1"
   id="svg2"
   height="64"
   width="64"
   sodipodi:docname="disruptor_bomb.svg"
   inkscape:export-filename="/home/awrapp/Documents/newstuff2/disruptor_bomb.png"
   inkscape:export-xdpi="90"
   inkscape:export-ydpi="90">
  <sodipodi:namedview
     id="base"
     pagecolor="#ffffff"
     bordercolor="#666666"
     borderopacity="1.0"
     inkscape:pageopacity="0.0"
     inkscape:pageshadow="2"
     inkscape:zoom="7.919596"
     inkscape:cx="9.2465253"
     inkscape:cy="32.660449"
     inkscape:document-units="px"
     inkscape:current-layer="layer3"
     showgrid="true"
     inkscape:snap-to-guides="false"
     inkscape:snap-grids="false"
     inkscape:window-width="1440"
     inkscape:window-height="853"
     inkscape:window-x="0"
     inkscape:window-y="-3"
     inkscape:window-maximized="1"
     showguides="true"
     inkscape:guide-bbox="true">
    <inkscape:grid
       snapvisiblegridlinesonly="true"
       enabled="true"
       visible="true"
       dotted="true"
       empspacing="5"
       id="grid2985"
       type="xygrid" />
  </sodipodi:namedview>
  <defs
     id="defs4">
    <linearGradient
       id="linearGradient4005">
      <stop
         style="stop-color:#ff5f04;stop-opacity:1;"
         offset="0"
         id="stop4007" />
      <stop
         style="stop-color:#ffd50d;stop-opacity:1;"
         offset="1"
         id="stop4009" />
    </linearGradient>
    <linearGradient
       id="linearGradient3997">
      <stop
         style="stop-color:#d3d3d3;stop-opacity:1;"
         offset="0"
         id="stop3999" />
      <stop
         style="stop-color:#ffffff;stop-opacity:1;"
         offset="1"
         id="stop4001" />
    </linearGradient>
    <linearGradient
       inkscape:collect="always"
       xlink:href="#linearGradient3847"
       id="linearGradient4539"
       x1="0.34767357"
       y1="0.42854446"
       x2="0.2408848"
       y2="32.39283"
       gradientUnits="userSpaceOnUse" />
    <linearGradient
       id="linearGradient3847">
      <stop
         style="stop-color:#ffffff;stop-opacity:1;"
         offset="0"
         id="stop3849" />
      <stop
         style="stop-color:#d5d5d5;stop-opacity:1;"
         offset="1"
         id="stop3851" />
    </linearGradient>
    <linearGradient
       inkscape:collect="always"
       xlink:href="#linearGradient3847"
       id="linearGradient3171"
       x1="0.34767357"
       y1="0.42854446"
       x2="0.2408848"
       y2="32.39283"
       gradientUnits="userSpaceOnUse" />
    <linearGradient
       id="linearGradient3173">
      <stop
         style="stop-color:#ffffff;stop-opacity:1;"
         offset="0"
         id="stop3175" />
      <stop
         style="stop-color:#d5d5d5;stop-opacity:1;"
         offset="1"
         id="stop3177" />
    </linearGradient>
    <linearGradient
       inkscape:collect="always"
       xlink:href="#linearGradient3847"
       id="linearGradient3179"
       x1="0.34767357"
       y1="0.42854446"
       x2="0.2408848"
       y2="32.39283"
       gradientUnits="userSpaceOnUse" />
    <linearGradient
       id="linearGradient3181">
      <stop
         style="stop-color:#ffffff;stop-opacity:1;"
         offset="0"
         id="stop3183" />
      <stop
         style="stop-color:#d5d5d5;stop-opacity:1;"
         offset="1"
         id="stop3185" />
    </linearGradient>
    <linearGradient
       inkscape:collect="always"
       xlink:href="#linearGradient3847"
       id="linearGradient3187"
       x1="0.34767357"
       y1="0.42854446"
       x2="0.2408848"
       y2="32.39283"
       gradientUnits="userSpaceOnUse" />
    <linearGradient
       id="linearGradient3189">
      <stop
         style="stop-color:#ffffff;stop-opacity:1;"
         offset="0"
         id="stop3191" />
      <stop
         style="stop-color:#d5d5d5;stop-opacity:1;"
         offset="1"
         id="stop3193" />
    </linearGradient>
    <linearGradient
       inkscape:collect="always"
       xlink:href="#linearGradient3847"
       id="linearGradient3195"
       x1="0.34767357"
       y1="0.42854446"
       x2="0.2408848"
       y2="32.39283"
       gradientUnits="userSpaceOnUse" />
    <linearGradient
       id="linearGradient3197">
      <stop
         style="stop-color:#ffffff;stop-opacity:1;"
         offset="0"
         id="stop3199" />
      <stop
         style="stop-color:#d5d5d5;stop-opacity:1;"
         offset="1"
         id="stop3201" />
    </linearGradient>
    <linearGradient
       inkscape:collect="always"
       xlink:href="#linearGradient3847"
       id="linearGradient3203"
       x1="0.34767357"
       y1="0.42854446"
       x2="0.2408848"
       y2="32.39283"
       gradientUnits="userSpaceOnUse" />
    <linearGradient
       id="linearGradient3205">
      <stop
         style="stop-color:#ffffff;stop-opacity:1;"
         offset="0"
         id="stop3207" />
      <stop
         style="stop-color:#d5d5d5;stop-opacity:1;"
         offset="1"
         id="stop3209" />
    </linearGradient>
    <linearGradient
       inkscape:collect="always"
       xlink:href="#linearGradient3847"
       id="linearGradient3211"
       x1="0.34767357"
       y1="0.42854446"
       x2="0.2408848"
       y2="32.39283"
       gradientUnits="userSpaceOnUse" />
    <linearGradient
       id="linearGradient3213">
      <stop
         style="stop-color:#ffffff;stop-opacity:1;"
         offset="0"
         id="stop3215" />
      <stop
         style="stop-color:#d5d5d5;stop-opacity:1;"
         offset="1"
         id="stop3217" />
    </linearGradient>
    <linearGradient
       inkscape:collect="always"
       xlink:href="#linearGradient3847"
       id="linearGradient3219"
       x1="0.34767357"
       y1="0.42854446"
       x2="0.2408848"
       y2="32.39283"
       gradientUnits="userSpaceOnUse" />
    <linearGradient
       id="linearGradient3221">
      <stop
         style="stop-color:#ffffff;stop-opacity:1;"
         offset="0"
         id="stop3223" />
      <stop
         style="stop-color:#d5d5d5;stop-opacity:1;"
         offset="1"
         id="stop3225" />
    </linearGradient>
    <linearGradient
       inkscape:collect="always"
       xlink:href="#linearGradient3847"
       id="linearGradient3227"
       x1="0.34767357"
       y1="0.42854446"
       x2="0.2408848"
       y2="32.39283"
       gradientUnits="userSpaceOnUse" />
    <linearGradient
       id="linearGradient3229">
      <stop
         style="stop-color:#ffffff;stop-opacity:1;"
         offset="0"
         id="stop3231" />
      <stop
         style="stop-color:#d5d5d5;stop-opacity:1;"
         offset="1"
         id="stop3233" />
    </linearGradient>
    <linearGradient
       inkscape:collect="always"
       xlink:href="#linearGradient3997"
       id="linearGradient4243"
       x1="0.042127416"
       y1="64.198608"
       x2="0.19199215"
       y2="-0.32488123"
       gradientUnits="userSpaceOnUse" />
    <linearGradient
       inkscape:collect="always"
       xlink:href="#linearGradient4005"
       id="linearGradient4251"
       x1="0.056154665"
       y1="63.973656"
       x2="0.051697269"
       y2="0.08150623"
       gradientUnits="userSpaceOnUse" />
  </defs>
  <metadata
     id="metadata7">
    <rdf:RDF>
      <cc:Work
         rdf:about="">
        <dc:format>image/svg+xml</dc:format>
        <dc:type
           rdf:resource="http://purl.org/dc/dcmitype/StillImage" />
        <dc:title></dc:title>
      </cc:Work>
    </rdf:RDF>
  </metadata>
  <g
     transform="translate(0,-988.36218)"
     id="layer1"
     inkscape:groupmode="layer"
     inkscape:label="Layer 0"
     style="display:inline" />
  <g
     inkscape:groupmode="layer"
     id="layer3"
     inkscape:label="Layer 1"
     style="display:inline">
    <path
       style="fill:url(#linearGradient4251);fill-opacity:1;fill-rule:evenodd;stroke:none;display:inline"
       d="M 13.96875,0.71875 C 12.332873,0.66012487 10.459964,1.5475666 8.75,3.03125 7.9604766,3.7162893 7.0933543,4.2135084 6.40625,4.4375 6.3137552,4.4676527 6.2383663,4.4815852 6.15625,4.5 L 6.25,4.34375 5.15625,4.25 5.03125,3 4,3.78125 3.40625,2.875 2.90625,4.03125 1.8125,3.53125 2,4.90625 0.8125,5.09375 1.96875,5.96875 1.25,6.9375 2.34375,6.78125 2.59375,8.25 3.5,7.5 c 0.00934,0.00337 0.021875,-0.00325 0.03125,0 L 4.09375,8.40625 4.40625,7.625 C 4.7134445,7.62766 5.0243815,7.600155 5.34375,7.53125 l 0.34375,0.1875 -0.09375,-0.25 C 5.7406334,7.4305974 5.884607,7.3914917 6.03125,7.34375 7.1946176,6.9649991 8.4256713,6.2363911 9.5625,5.25 10.349662,4.5670037 11.221071,4.0919677 11.90625,3.875 12.591429,3.6580323 12.998128,3.7796258 13,3.78125 c 0.202708,0.1758833 0.29279,0.3912134 0.3125,0.78125 0.01971,0.3900366 -0.07395,0.9264614 -0.34375,1.5625 -0.539604,1.2720772 -1.713456,2.8708291 -3.375,4.3125 -2.1890868,1.899407 -3.7996237,3.971074 -4.625,5.90625 -0.4126881,0.967588 -0.635823,1.918754 -0.59375,2.8125 0.042073,0.893746 0.4052427,1.746353 1.09375,2.34375 1.377213,1.194966 3.4461551,1.099464 5.625,0.40625 2.178845,-0.693214 4.559776,-2.068357 6.75,-3.96875 1.662245,-1.442282 3.508568,-2.479021 5.03125,-2.96875 1.522682,-0.489729 2.626484,-0.351203 3.03125,0 0.202707,0.175883 0.29279,0.391214 0.3125,0.78125 0.01971,0.390036 -0.07395,0.926461 -0.34375,1.5625 -0.01664,0.03924 -0.04465,0.08516 -0.0625,0.125 L 22.59375,16 21.75,20.125 l -3.375,0.15625 0.34375,3.5625 -3.59375,1.625 1.375,3.3125 -3.4375,2.4375 3.40625,3 -2.5625,3 3.6875,2.03125 -1.0625,3.5625 3.65625,0.65625 0.90625,4.09375 3.4375,-0.875 1.3125,2.375 C 25.403247,49.383874 24.339117,49.502143 22.875,49.03125 21.352318,48.541521 19.505995,47.504783 17.84375,46.0625 15.653526,44.162109 13.272595,42.786965 11.09375,42.09375 8.9149052,41.400535 6.8459629,41.305033 5.46875,42.5 4.7802428,43.097397 4.4170733,43.950004 4.375,44.84375 c -0.042073,0.893746 0.181062,1.844912 0.59375,2.8125 0.8253759,1.935176 2.4359116,4.006843 4.625,5.90625 1.661544,1.441671 2.835396,3.040423 3.375,4.3125 0.269802,0.636039 0.36346,1.172463 0.34375,1.5625 C 13.29279,59.827537 13.202708,60.042867 13,60.21875 12.9981,60.22035 12.591429,60.341968 11.90625,60.125 11.221071,59.908032 10.349663,59.432995 9.5625,58.75 8.4256716,57.763609 7.1946176,57.035001 6.03125,56.65625 5.9066035,56.61567 5.7811406,56.596289 5.65625,56.5625 l 0.125,-0.375 -0.5,0.28125 C 5.0031165,56.411832 4.7376595,56.377578 4.46875,56.375 L 4.125,55.46875 3.5,56.4375 2.5625,55.625 2.28125,57.1875 1.15625,57 1.875,58 0.6875,58.90625 1.9375,59.125 1.71875,60.5625 2.875,60.03125 3.40625,61.25 4,60.28125 5.09375,61.125 5.21875,59.8125 6.375,59.71875 6.25,59.53125 c 0.05333,0.01399 0.098991,0.01258 0.15625,0.03125 0.6871045,0.223992 1.5542263,0.721211 2.34375,1.40625 1.1387892,0.988093 2.366304,1.723458 3.53125,2.09375 1.164946,0.370292 2.358976,0.460615 3.25,-0.3125 0.689568,-0.598317 1.05175,-1.479095 1.09375,-2.375 0.042,-0.895905 -0.181298,-1.809909 -0.59375,-2.78125 -0.824905,-1.942682 -2.434931,-4.037245 -4.625,-5.9375 C 9.7435266,50.213554 8.5702776,48.638889 8.03125,47.375 7.7617362,46.743055 7.6678863,46.198671 7.6875,45.8125 7.7071137,45.426329 7.7960162,45.208241 8,45.03125 c 0.4073199,-0.353419 1.5407803,-0.482317 3.0625,0 1.52172,0.482317 3.338936,1.496241 5,2.9375 2.188394,1.898803 4.579433,3.298355 6.75,4 2.170567,0.701645 4.216257,0.788958 5.59375,-0.40625 0.689568,-0.598317 1.05175,-1.479095 1.09375,-2.375 0.0081,-0.173178 -0.02009,-0.356437 -0.03125,-0.53125 l 0.15625,-0.09375 2.25,2.25 2.6875,-2.59375 c -0.04762,0.321487 -0.07728,0.653457 -0.0625,0.96875 0.042,0.895905 0.404182,1.776683 1.09375,2.375 1.377493,1.195208 3.423182,1.107895 5.59375,0.40625 2.170568,-0.701645 4.561606,-2.101195 6.75,-4 1.661065,-1.441258 3.47828,-2.455183 5,-2.9375 1.52172,-0.482317 2.655181,-0.353419 3.0625,0 0.203984,0.176991 0.292886,0.395079 0.3125,0.78125 0.01961,0.386171 -0.07424,0.930555 -0.34375,1.5625 -0.539027,1.263889 -1.712276,2.838554 -3.375,4.28125 -2.190068,1.900255 -3.800095,3.994818 -4.625,5.9375 -0.412453,0.971341 -0.63575,1.885345 -0.59375,2.78125 0.042,0.895905 0.404182,1.776683 1.09375,2.375 0.891024,0.773115 2.085054,0.682791 3.25,0.3125 1.164946,-0.370291 2.392461,-1.105656 3.53125,-2.09375 0.789523,-0.685039 1.656646,-1.182258 2.34375,-1.40625 0.05726,-0.01867 0.10292,-0.01726 0.15625,-0.03125 l -0.125,0.1875 1.15625,0.09375 0.125,1.3125 L 60,60.28125 60.59375,61.25 61.125,60.03125 62.28125,60.5625 62.09375,59.125 63.3125,58.90625 62.125,58 62.875,57 61.71875,57.15625 61.4375,55.625 60.5,56.4375 59.875,55.46875 59.5,56.375 c -0.259077,0.0048 -0.513803,0.03902 -0.78125,0.09375 l -0.5,-0.28125 0.125,0.375 c -0.124891,0.03379 -0.250353,0.05317 -0.375,0.09375 -1.163368,0.378751 -2.394421,1.107357 -3.53125,2.09375 -0.787162,0.682996 -1.658571,1.158032 -2.34375,1.375 -0.685179,0.216968 -1.091878,0.09537 -1.09375,0.09375 -0.202708,-0.175883 -0.29279,-0.391213 -0.3125,-0.78125 -0.01971,-0.390037 0.07395,-0.926461 0.34375,-1.5625 0.539604,-1.272077 1.713456,-2.870829 3.375,-4.3125 2.189087,-1.899407 3.799624,-3.971074 4.625,-5.90625 0.412688,-0.967588 0.635823,-1.918754 0.59375,-2.8125 -0.04207,-0.893746 -0.405243,-1.746353 -1.09375,-2.34375 -1.377213,-1.194966 -3.446155,-1.099464 -5.625,-0.40625 -2.178845,0.693214 -4.559776,2.068357 -6.75,3.96875 -1.662245,1.442282 -3.508568,2.479021 -5.03125,2.96875 -1.106482,0.35587 -1.974642,0.366911 -2.53125,0.21875 l 1.375,-2.96875 L 43.9375,47 l -0.25,-4.375 3.9375,-0.4375 -0.875,-3.5625 3.46875,-1.875 -2,-3.5 1.9375,-2.28125 -3.125,-2.875 2.28125,-3.5 -3.875,-1.46875 0,-3.28125 -3.625,-0.28125 -1.5,-3.9375 -2.375,1.15625 C 37.821129,16.385449 37.767578,16.020545 37.78125,15.75 c 0.01971,-0.390036 0.109793,-0.605367 0.3125,-0.78125 0.404766,-0.351204 1.508568,-0.489729 3.03125,0 1.522682,0.489729 3.369005,1.526467 5.03125,2.96875 2.190224,1.900391 4.571155,3.275535 6.75,3.96875 2.178845,0.693215 4.247787,0.788717 5.625,-0.40625 0.688507,-0.597397 1.051677,-1.450004 1.09375,-2.34375 0.04207,-0.893746 -0.181062,-1.844912 -0.59375,-2.8125 -0.825376,-1.935176 -2.435911,-4.006843 -4.625,-5.90625 C 52.744705,8.9958289 51.570854,7.3970771 51.03125,6.125 50.761448,5.4889615 50.66779,4.9525365 50.6875,4.5625 50.70721,4.1724635 50.797292,3.9571333 51,3.78125 51.0019,3.77963 51.408571,3.6580323 52.09375,3.875 c 0.685179,0.2169677 1.556588,0.6920035 2.34375,1.375 1.136828,0.9863912 2.367882,1.7149991 3.53125,2.09375 0.156419,0.050924 0.312107,0.085082 0.46875,0.125 L 58.375,7.625 58.59375,7.5 c 0.363121,0.082756 0.715068,0.1345303 1.0625,0.125 l 0.25,0.65625 0.5,-0.75 c 0.05211,-0.016439 0.10522,-0.042348 0.15625,-0.0625 l 0.78125,0.6875 0.25,-1.4375 1.0625,0.15625 -0.6875,-0.9375 1.09375,-0.8125 -1.125,-0.1875 0.1875,-1.34375 -1.0625,0.5 -0.5,-1.125 -0.53125,0.90625 -1,-0.78125 -0.125,1.1875 L 57.84375,4.375 57.9375,4.5 C 57.831305,4.4799069 57.719279,4.4784215 57.59375,4.4375 56.906646,4.2135084 56.039523,3.7162893 55.25,3.03125 53.540036,1.5475667 51.667128,0.66012417 50.03125,0.71875 49.512506,0.73734029 48.947979,0.83418766 48.46875,1.25 47.779182,1.8483169 47.417,2.7290952 47.375,3.625 c -0.042,0.8959048 0.181298,1.8099088 0.59375,2.78125 0.824905,1.9426824 2.434931,4.037244 4.625,5.9375 1.662724,1.442696 2.835973,3.017361 3.375,4.28125 0.269514,0.631945 0.363364,1.176329 0.34375,1.5625 -0.01961,0.386171 -0.108516,0.604259 -0.3125,0.78125 -0.40732,0.353419 -1.54078,0.482317 -3.0625,0 -1.52172,-0.482317 -3.338936,-1.496241 -5,-2.9375 -2.188394,-1.898803 -4.579433,-3.298355 -6.75,-4 -2.170567,-0.701645 -4.216257,-0.788958 -5.59375,0.40625 -0.550505,0.477656 -0.894389,1.14207 -1.03125,1.84375 l -2.875,2.4375 L 29.46875,14.5 c -0.103928,-0.783433 -0.454531,-1.534984 -1.0625,-2.0625 -1.377493,-1.195208 -3.423182,-1.107895 -5.59375,-0.40625 -2.170568,0.701645 -4.561606,2.101195 -6.75,4 -1.661065,1.441258 -3.47828,2.455183 -5,2.9375 -1.52172,0.482317 -2.6551806,0.353419 -3.0625,0 C 7.7960163,18.791759 7.7071137,18.573671 7.6875,18.1875 7.667886,17.801329 7.761736,17.256945 8.03125,16.625 c 0.5390276,-1.263889 1.7122764,-2.838554 3.375,-4.28125 2.190068,-1.900256 3.800095,-3.9948178 4.625,-5.9375 C 16.443703,5.4349089 16.667,4.5209049 16.625,3.625 16.583,2.7290951 16.220818,1.848317 15.53125,1.25 15.052021,0.83418747 14.487494,0.73734053 13.96875,0.71875 z"
       id="path3400"
       inkscape:connector-curvature="0" />
  </g>
  <g
     inkscape:label="Layer 2"
     id="layer2"
     inkscape:groupmode="layer"
     style="display:inline"
     sodipodi:insensitive="true">
    <g
       id="g3450"
       style="fill:url(#linearGradient4243);fill-opacity:1">
      <g
         transform="translate(1.0996236,-0.1755904)"
         id="g3274"
         style="fill:url(#linearGradient4243);fill-opacity:1;display:inline">
        <path
           style="fill:url(#linearGradient4243);fill-opacity:1;fill-rule:evenodd;stroke:none;display:inline"
           d="m 28.062909,35.435812 c -0.805865,0.699226 -2.874618,0.04094 -4.621982,-1.475204 -2.103311,-1.824977 -4.613838,-2.639773 -5.583862,-1.798114 -1.944089,1.686827 -0.07532,6.051566 4.131296,9.701521 3.494731,3.032273 5.015471,6.619343 3.400382,8.020707 -1.615089,1.401365 -5.749235,0.08187 -9.243966,-2.950407 -4.20662,-3.649956 -9.2370343,-5.271427 -11.1811244,-3.584598 -1.9440881,1.686826 -0.075323,6.051562 4.1312957,9.70152 3.4947307,3.03227 5.0154717,6.619342 3.4003817,8.020707 -0.805865,0.699224 -2.8880206,0.05256 -4.6353853,-1.463575 C 5.7566355,57.783392 3.259511,56.956965 2.2894877,57.798625 l 0.6670183,0.578751 0.6670184,0.578752 c 0.8058658,-0.699226 2.8612158,-0.02929 4.6085811,1.486832 2.1033095,1.824978 4.6272385,2.628146 5.5972615,1.786486 1.944089,-1.686826 0.07532,-6.051565 -4.1312972,-9.701519 -3.4947291,-3.032272 -5.0154697,-6.619344 -3.4003805,-8.020708 1.6150902,-1.401364 5.7492357,-0.08187 9.2439657,2.950406 4.20662,3.649957 9.237036,5.271427 11.181125,3.584601 1.944089,-1.686828 0.07532,-6.051564 -4.131296,-9.701522 -3.494731,-3.03227 -5.015471,-6.619343 -3.400383,-8.020707 0.805867,-0.699226 2.87462,-0.04093 4.621984,1.475204 2.10331,1.824978 4.613837,2.639775 5.583861,1.798114 l -0.667019,-0.578751 -0.667018,-0.578752 z"
           id="path3076-4-1-19"
           inkscape:connector-curvature="0" />
        <path
           inkscape:connector-curvature="0"
           id="path3403"
           d="M 3.4339038,60.205946 2.7990664,59.709704 2.4397455,60.278336 2.1350529,59.560051 1.4549496,59.875348 1.5701116,59.028325 0.83653979,58.901684 1.5479953,58.370994 1.1103485,57.773859 l 0.679032,0.1 0.1521511,-0.916328 0.5647986,0.478025 0.3591414,-0.56432 0.3142448,0.800068 0.6707335,-0.381773 -0.2829831,0.736309 0.9012105,0.399238 -0.7114612,0.31426 0.4376526,0.636374 -0.679035,0.05757 z"
           inkscape:transform-center-y="-0.057034914"
           inkscape:transform-center-x="-0.0064408209"
           style="fill:url(#linearGradient4243);fill-opacity:1;fill-rule:evenodd;stroke:none" />
      </g>
      <g
         transform="translate(-0.1986124,0.0769478)"
         id="g3282"
         style="fill:url(#linearGradient4243);fill-opacity:1;display:inline">
        <path
           style="fill:url(#linearGradient4243);fill-opacity:1;fill-rule:evenodd;stroke:none;display:inline"
           d="m 35.03608,28.662831 c 0.805865,-0.699226 2.874618,-0.04094 4.621982,1.475204 2.103311,1.824977 4.613838,2.639773 5.583862,1.798114 1.944089,-1.686827 0.07532,-6.051566 -4.131296,-9.701521 -3.494731,-3.032273 -5.015471,-6.619343 -3.400382,-8.020707 1.615089,-1.401365 5.749235,-0.08187 9.243966,2.950407 4.20662,3.649956 9.237035,5.271427 11.181125,3.584598 1.944088,-1.686826 0.07532,-6.051562 -4.131296,-9.70152 -3.494731,-3.0322704 -5.015472,-6.6193424 -3.400382,-8.0207074 0.805865,-0.699224 2.888021,-0.05256 4.635386,1.463575 2.103309,1.824977 4.600433,2.651404 5.570457,1.809744 l -0.667019,-0.578751 -0.667018,-0.578752 c -0.805866,0.699226 -2.861216,0.02929 -4.608581,-1.486832 -2.10331,-1.824978 -4.627239,-2.628146 -5.597262,-1.786486 -1.944089,1.686826 -0.07532,6.051565 4.131297,9.7015194 3.49473,3.032272 5.01547,6.619344 3.400381,8.020708 -1.61509,1.401364 -5.749236,0.08187 -9.243966,-2.950406 -4.20662,-3.649957 -9.237036,-5.271427 -11.181125,-3.584601 -1.944089,1.686828 -0.07532,6.051564 4.131296,9.701522 3.494731,3.03227 5.015471,6.619343 3.400383,8.020707 -0.805867,0.699226 -2.87462,0.04093 -4.621984,-1.475204 -2.10331,-1.824978 -4.613837,-2.639775 -5.583861,-1.798114 l 0.667019,0.578751 0.667018,0.578752 z"
           id="path3076-4-1-19-3"
           inkscape:connector-curvature="0" />
        <path
           inkscape:connector-curvature="0"
           id="path3403-8"
           d="m 59.665085,3.8926966 0.634838,0.496242 0.359321,-0.568632 0.304692,0.718285 0.680104,-0.315297 -0.115162,0.847023 0.733571,0.126641 -0.711455,0.53069 0.437647,0.597135 -0.679032,-0.1 -0.152151,0.916328 -0.564799,-0.478025 -0.359141,0.56432 -0.314245,-0.800068 -0.670734,0.381773 0.282983,-0.736309 -0.90121,-0.399238 0.711461,-0.31426 -0.437652,-0.636374 0.679035,-0.05757 z"
           inkscape:transform-center-y="0.057034895"
           inkscape:transform-center-x="0.0064408209"
           style="fill:url(#linearGradient4243);fill-opacity:1;fill-rule:evenodd;stroke:none;display:inline" />
      </g>
      <g
         transform="translate(0.9378096,-0.1755904)"
         id="g3270"
         style="fill:url(#linearGradient4243);fill-opacity:1;display:inline">
        <path
           style="fill:url(#linearGradient4243);fill-opacity:1;fill-rule:evenodd;stroke:none;display:inline"
           d="m 28.224723,28.915369 c -0.805865,-0.699226 -2.874618,-0.04094 -4.621982,1.475204 -2.103311,1.824977 -4.613838,2.639773 -5.583862,1.798114 -1.944089,-1.686827 -0.07532,-6.051566 4.131296,-9.701521 3.494731,-3.032273 5.015471,-6.619343 3.400382,-8.020707 -1.615089,-1.401365 -5.749235,-0.08187 -9.243966,2.950407 -4.20662,3.649956 -9.2370336,5.271427 -11.1811246,3.584598 -1.944088,-1.686826 -0.07532,-6.051562 4.131296,-9.70152 3.4947306,-3.0322699 5.0154716,-6.6193419 3.4003816,-8.0207069 -0.805865,-0.699224 -2.8880206,-0.05256 -4.6353846,1.463575 -2.10331,1.824977 -4.600434,2.651404 -5.570457,1.809744 l 0.667018,-0.578751 0.667018,-0.578752 c 0.805866,0.699226 2.861216,0.02929 4.608581,-1.486832 2.1033096,-1.824978 4.6272386,-2.6281459 5.5972616,-1.786486 1.944089,1.686826 0.07532,6.051565 -4.1312966,9.7015189 -3.494729,3.032272 -5.01547,6.619344 -3.400381,8.020708 1.61509,1.401364 5.7492356,0.08187 9.2439656,-2.950406 4.20662,-3.649957 9.237036,-5.271427 11.181125,-3.584601 1.944089,1.686828 0.07532,6.051564 -4.131296,9.701522 -3.494731,3.03227 -5.015471,6.619343 -3.400383,8.020707 0.805867,0.699226 2.87462,0.04093 4.621984,-1.475204 2.10331,-1.824978 4.613837,-2.639775 5.583861,-1.798114 l -0.667019,0.578751 -0.667018,0.578752 z"
           id="path3076-4-1-19-6"
           inkscape:connector-curvature="0" />
        <path
           inkscape:connector-curvature="0"
           id="path3403-2"
           d="m 3.5957184,4.1452351 -0.634838,0.496242 -0.359321,-0.568632 -0.304692,0.718285 -0.680104,-0.315297 0.115162,0.847023 -0.73357094,0.126641 0.71145494,0.53069 -0.437647,0.597135 0.679032,-0.1 0.152151,0.916328 0.564799,-0.478025 0.359141,0.56432 0.314245,-0.800068 0.670734,0.381773 -0.282983,-0.736309 0.90121,-0.399238 -0.711461,-0.31426 0.437653,-0.636374 -0.679035,-0.05757 z"
           inkscape:transform-center-y="0.057034905"
           inkscape:transform-center-x="-0.0064408209"
           style="fill:url(#linearGradient4243);fill-opacity:1;fill-rule:evenodd;stroke:none;display:inline" />
      </g>
      <g
         transform="translate(-0.3248814,-0.1847989)"
         id="g3278"
         style="fill:url(#linearGradient4243);fill-opacity:1;display:inline">
        <path
           style="fill:url(#linearGradient4243);fill-opacity:1;fill-rule:evenodd;stroke:none;display:inline"
           d="m 35.162349,35.445021 c 0.805865,0.699226 2.874618,0.04094 4.621982,-1.475204 2.103311,-1.824977 4.613838,-2.639773 5.583862,-1.798114 1.944089,1.686827 0.07532,6.051566 -4.131296,9.701521 -3.494731,3.032273 -5.015471,6.619343 -3.400382,8.020707 1.615089,1.401365 5.749235,0.08187 9.243966,-2.950407 4.20662,-3.649956 9.237035,-5.271427 11.181125,-3.584598 1.944088,1.686826 0.07532,6.051562 -4.131296,9.70152 -3.494731,3.03227 -5.015472,6.619342 -3.400382,8.020707 0.805865,0.699223 2.888021,0.05256 4.635386,-1.463575 2.103309,-1.824977 4.600433,-2.651404 5.570457,-1.809744 l -0.667019,0.578751 -0.667018,0.578752 c -0.805866,-0.699226 -2.861216,-0.02929 -4.608581,1.486832 -2.10331,1.824977 -4.627239,2.628145 -5.597262,1.786485 -1.944089,-1.686825 -0.07532,-6.051564 4.131297,-9.701518 3.49473,-3.032272 5.01547,-6.619344 3.400381,-8.020708 -1.61509,-1.401364 -5.749236,-0.08187 -9.243966,2.950406 -4.20662,3.649957 -9.237036,5.271427 -11.181125,3.584601 -1.944089,-1.686828 -0.07532,-6.051564 4.131296,-9.701522 3.494731,-3.03227 5.015471,-6.619343 3.400383,-8.020707 -0.805867,-0.699226 -2.87462,-0.04093 -4.621984,1.475204 -2.10331,1.824978 -4.613837,2.639775 -5.583861,1.798114 l 0.667019,-0.578751 0.667018,-0.578752 z"
           id="path3076-4-1-19-4"
           inkscape:connector-curvature="0" />
        <path
           inkscape:connector-curvature="0"
           id="path3403-1"
           d="m 59.791354,60.215155 0.634838,-0.496242 0.359321,0.568632 0.304692,-0.718285 0.680104,0.315297 -0.115162,-0.847023 0.733571,-0.126641 -0.711455,-0.53069 0.437647,-0.597135 -0.679032,0.1 -0.152151,-0.916328 -0.564799,0.478025 -0.359141,-0.56432 -0.314245,0.800068 -0.670734,-0.381773 0.282983,0.736309 -0.90121,0.399238 0.711461,0.31426 -0.437652,0.636374 0.679035,0.05757 z"
           inkscape:transform-center-y="-0.057034914"
           inkscape:transform-center-x="0.0064408209"
           style="fill:url(#linearGradient4243);fill-opacity:1;fill-rule:evenodd;stroke:none;display:inline" />
      </g>
      <path
         transform="matrix(0.41964922,0,0,0.41964922,20.160388,19.282496)"
         inkscape:transform-center-y="0.19689862"
         inkscape:transform-center-x="0.0040281164"
         d="m 42.962943,48.124278 -7.419588,-0.702317 -2.418733,4.768552 -3.904861,-4.091299 -6.145232,3.493331 -2.177785,-4.209463 -7.049626,0.5461 1.329421,-5.875718 -6.7943582,-2.521996 2.4808222,-3.932192 -5.6982698,-5.740198 4.6595306,-3.486933 -2.0965406,-5.036613 5.3845218,-2.259049 0.686844,-6.407749 7.083815,2.270913 2.294591,-6.5199944 4.362962,4.3176914 5.68716,-3.5216022 2.303739,4.1280492 7.381744,-0.436416 -1.425853,7.03727 7.141825,1.670713 -2.924807,5.350664 5.557232,3.549076 -6.211313,3.123435 3.522397,7.468957 -6.712076,0.80716 z"
         inkscape:randomized="0.04"
         inkscape:rounded="0"
         inkscape:flatsided="false"
         sodipodi:arg2="1.09885"
         sodipodi:arg1="0.89854914"
         sodipodi:r2="17.986286"
         sodipodi:r1="22.366383"
         sodipodi:cy="30.607143"
         sodipodi:cx="28.214287"
         sodipodi:sides="14"
         id="path3017"
         style="fill:url(#linearGradient4243);fill-opacity:1;fill-rule:evenodd;stroke:none;display:inline"
         sodipodi:type="star" />
    </g>
  </g>
</svg>
