<?xml version="1.0" encoding="UTF-8" standalone="no"?>
<!-- Created with Inkscape (http://www.inkscape.org/) -->

<svg
   xmlns:dc="http://purl.org/dc/elements/1.1/"
   xmlns:cc="http://creativecommons.org/ns#"
   xmlns:rdf="http://www.w3.org/1999/02/22-rdf-syntax-ns#"
   xmlns:svg="http://www.w3.org/2000/svg"
   xmlns="http://www.w3.org/2000/svg"
   xmlns:xlink="http://www.w3.org/1999/xlink"
   xmlns:sodipodi="http://sodipodi.sourceforge.net/DTD/sodipodi-0.dtd"
   xmlns:inkscape="http://www.inkscape.org/namespaces/inkscape"
   inkscape:version="0.48.0 r9654"
   version="1.1"
   id="svg2"
   height="64"
   width="64"
   sodipodi:docname="disintegrator.svg"
   inkscape:export-filename="/home/awrapp/Documents/newstuff2/disintegrator.png"
   inkscape:export-xdpi="90"
   inkscape:export-ydpi="90">
  <sodipodi:namedview
     id="base"
     pagecolor="#ffffff"
     bordercolor="#666666"
     borderopacity="1.0"
     inkscape:pageopacity="0.0"
     inkscape:pageshadow="2"
     inkscape:zoom="3.959798"
     inkscape:cx="33.049211"
     inkscape:cy="6.7442401"
     inkscape:document-units="px"
     inkscape:current-layer="layer3"
     showgrid="true"
     inkscape:snap-to-guides="false"
     inkscape:snap-grids="false"
     inkscape:window-width="785"
     inkscape:window-height="850"
     inkscape:window-x="0"
     inkscape:window-y="0"
     inkscape:window-maximized="0"
     showguides="true"
     inkscape:guide-bbox="true">
    <inkscape:grid
       snapvisiblegridlinesonly="true"
       enabled="true"
       visible="true"
       dotted="true"
       empspacing="5"
       id="grid2985"
       type="xygrid" />
  </sodipodi:namedview>
  <defs
     id="defs4">
    <linearGradient
       id="linearGradient4005">
      <stop
         style="stop-color:#ff5f04;stop-opacity:1;"
         offset="0"
         id="stop4007" />
      <stop
         style="stop-color:#ffd50d;stop-opacity:1;"
         offset="1"
         id="stop4009" />
    </linearGradient>
    <linearGradient
       id="linearGradient3997">
      <stop
         style="stop-color:#d3d3d3;stop-opacity:1;"
         offset="0"
         id="stop3999" />
      <stop
         style="stop-color:#ffffff;stop-opacity:1;"
         offset="1"
         id="stop4001" />
    </linearGradient>
    <linearGradient
       inkscape:collect="always"
       xlink:href="#linearGradient3997"
       id="linearGradient4409"
       x1="0.0098304376"
       y1="64.297516"
       x2="0.098652311"
       y2="0.40537065"
       gradientUnits="userSpaceOnUse" />
    <linearGradient
       inkscape:collect="always"
       xlink:href="#linearGradient3997"
       id="linearGradient4417"
       x1="2.4408267"
       y1="8.615242"
       x2="2.2205782"
       y2="-43.50013"
       gradientUnits="userSpaceOnUse" />
    <linearGradient
       inkscape:collect="always"
       xlink:href="#linearGradient4005"
       id="linearGradient4425"
       x1="0.27714866"
       y1="64.483025"
       x2="0.12871021"
       y2="-0.41927427"
       gradientUnits="userSpaceOnUse" />
  </defs>
  <metadata
     id="metadata7">
    <rdf:RDF>
      <cc:Work
         rdf:about="">
        <dc:format>image/svg+xml</dc:format>
        <dc:type
           rdf:resource="http://purl.org/dc/dcmitype/StillImage" />
        <dc:title></dc:title>
      </cc:Work>
    </rdf:RDF>
  </metadata>
  <g
     transform="translate(0,-988.36218)"
     id="layer1"
     inkscape:groupmode="layer"
     inkscape:label="Layer 0"
     style="display:inline" />
  <g
     inkscape:groupmode="layer"
     id="layer3"
     inkscape:label="Layer 1"
     style="display:inline">
    <path
       style="fill:url(#linearGradient4425);fill-opacity:1;fill-rule:evenodd;stroke:none"
       d="M 10.985009,52.227535 C 3.1764739,43.585099 3.4586128,30.224015 11.787717,21.89491 31.238101,6.3277248 46.205814,4.4050953 60.485323,4.3326362 58.832098,25.326154 52.431193,40.938966 42.923049,53.030243 c -8.597783,8.597783 -22.537546,8.597783 -31.135332,-10e-7 -0.268681,-0.26868 -0.55082,-0.523918 -0.802708,-0.802707 z"
       id="path4305"
       inkscape:connector-curvature="0"
       sodipodi:nodetypes="scccss" />
  </g>
  <g
     inkscape:label="Layer 2"
     id="layer2"
     inkscape:groupmode="layer"
     style="display:inline"
     sodipodi:insensitive="true">
    <path
       style="fill:url(#linearGradient4409);fill-opacity:1;fill-rule:evenodd;stroke:none"
       d="m 58.03125,6.03125 -20.40625,13 5.5,1.90625 1.90625,5.53125 13,-20.4375 z M 50.625,6.5625 l -24.71875,7.84375 6.6875,1.15625 2.3125,3.34375 L 50.625,6.5625 z m 8.0625,5.8125 -13.59375,16.5 3.6875,2.4375 1.28125,7.03125 8.625,-25.96875 z m -29.59375,15.75 -2.34375,2.78125 -3.0625,-2.6875 -0.65625,3.5625 -3.28125,-0.375 0.90625,3.28125 -2.96875,1.78125 2.90625,2.6875 -2.375,2.34375 2.9375,1.15625 0.03125,3.65625 3,-1.21875 1.53125,2.71875 2.34375,-2.78125 3.03125,2.78125 0.75,-3.625 4.125,0.21875 -1.8125,-3.59375 3.8125,-1.3125 -2.90625,-1.875 2.375,-3.625 -3.75,-0.5 0.75,-3.125 -3.78125,0.875 -1.5625,-3.125 z"
       id="path4317"
       inkscape:connector-curvature="0" />
    <path
       sodipodi:type="star"
       style="fill:none;stroke:url(#linearGradient4417);stroke-width:1.6185596;stroke-miterlimit:4;stroke-dasharray:none"
       id="path4317-3"
       sodipodi:sides="12"
       sodipodi:cx="24.496199"
       sodipodi:cy="-12.771594"
       sodipodi:r1="14.712379"
       sodipodi:r2="10.592913"
       sodipodi:arg1="0.68814497"
       sodipodi:arg2="0.94994436"
       inkscape:flatsided="false"
       inkscape:rounded="0"
       inkscape:randomized="0.04"
       d="m 36.393294,-3.681798 -5.858424,-0.3049614 -1.071284,5.1518809 -4.320742,-3.939732 -3.330592,3.935122 -2.184006,-3.8891625 -4.250384,1.76414222 -0.04648,-5.19396662 -4.1855,-1.6501529 3.384831,-3.3641347 -4.127512,-3.817382 4.230189,-2.524621 -1.320159,-4.659616 4.682664,0.536962 0.944382,-5.061401 4.320724,3.80941 3.331784,-3.963766 2.246264,4.461062 5.363905,-1.26073 -1.068267,4.458554 5.363721,0.705162 -3.405424,5.166578 4.127512,2.640392 -5.386587,1.8991679 z"
       inkscape:transform-center-x="-0.060461423"
       inkscape:transform-center-y="0.84112547"
       transform="matrix(1.2356666,0,0,1.2356666,-2.831395,53.837477)" />
    <path
       style="fill:#cccccc;stroke:none"
       inkscape:transform-center-y="-3.9349098"
       d="m 72.903828,42.869107 5.256725,-2.5572 5.256721,2.5572 -5.256723,-23.609496 z"
       id="path4337"
       inkscape:connector-curvature="0"
       sodipodi:nodetypes="ccccc" />
  </g>
</svg>
