<?xml version="1.0" encoding="UTF-8" standalone="no"?>
<!-- Created with Inkscape (http://www.inkscape.org/) -->

<svg
   xmlns:dc="http://purl.org/dc/elements/1.1/"
   xmlns:cc="http://creativecommons.org/ns#"
   xmlns:rdf="http://www.w3.org/1999/02/22-rdf-syntax-ns#"
   xmlns:svg="http://www.w3.org/2000/svg"
   xmlns="http://www.w3.org/2000/svg"
   xmlns:xlink="http://www.w3.org/1999/xlink"
   xmlns:sodipodi="http://sodipodi.sourceforge.net/DTD/sodipodi-0.dtd"
   xmlns:inkscape="http://www.inkscape.org/namespaces/inkscape"
   width="32"
   height="32"
   id="svg2"
   version="1.1"
   inkscape:version="0.48.0 r9654"
   sodipodi:docname="module_resurrect.svg"
   inkscape:export-filename="/home/awrapp/Documents/new stuff/module_resurrect.png"
   inkscape:export-xdpi="180"
   inkscape:export-ydpi="180">
  <defs
     id="defs4">
    <linearGradient
       id="linearGradient3847">
      <stop
         style="stop-color:#ffffff;stop-opacity:1;"
         offset="0"
         id="stop3849" />
      <stop
         style="stop-color:#d5d5d5;stop-opacity:1;"
         offset="1"
         id="stop3851" />
    </linearGradient>
    <linearGradient
       id="linearGradient3833">
      <stop
         style="stop-color:#00cabe;stop-opacity:1;"
         offset="0"
         id="stop3835" />
      <stop
         style="stop-color:#77fff7;stop-opacity:1;"
         offset="1"
         id="stop3837" />
    </linearGradient>
    <linearGradient
       inkscape:collect="always"
       xlink:href="#linearGradient3833"
       id="linearGradient3839"
       x1="17.196539"
       y1="15.95355"
       x2="27.383678"
       y2="15.95355"
       gradientUnits="userSpaceOnUse" />
    <linearGradient
       inkscape:collect="always"
       xlink:href="#linearGradient3833"
       id="linearGradient3841"
       x1="4.4563073"
       y1="15.894665"
       x2="14.643446"
       y2="15.894665"
       gradientUnits="userSpaceOnUse" />
    <linearGradient
       inkscape:collect="always"
       xlink:href="#linearGradient3847"
       id="linearGradient3859"
       x1="0.15624999"
       y1="0.48883924"
       x2="0.058035642"
       y2="31.560268"
       gradientUnits="userSpaceOnUse" />
    <linearGradient
       inkscape:collect="always"
       xlink:href="#linearGradient3847"
       id="linearGradient3924"
       x1="-0.089285709"
       y1="0.060267866"
       x2="0.12500001"
       y2="32.024555"
       gradientUnits="userSpaceOnUse" />
    <linearGradient
       inkscape:collect="always"
       xlink:href="#linearGradient3833"
       id="linearGradient3932"
       x1="0.080357142"
       y1="32.433296"
       x2="-0.044642843"
       y2="-0.066705287"
       gradientUnits="userSpaceOnUse" />
  </defs>
  <sodipodi:namedview
     id="base"
     pagecolor="#ffffff"
     bordercolor="#666666"
     borderopacity="1.0"
     inkscape:pageopacity="0.0"
     inkscape:pageshadow="2"
     inkscape:zoom="5.6"
     inkscape:cx="14.320849"
     inkscape:cy="16.170659"
     inkscape:document-units="px"
     inkscape:current-layer="layer1"
     showgrid="true"
     inkscape:snap-grids="false"
     inkscape:snap-to-guides="false"
     inkscape:window-width="728"
     inkscape:window-height="850"
     inkscape:window-x="712"
     inkscape:window-y="0"
     inkscape:window-maximized="0">
    <inkscape:grid
       type="xygrid"
       id="grid3040"
       empspacing="5"
       dotted="true"
       visible="true"
       enabled="true"
       snapvisiblegridlinesonly="true" />
  </sodipodi:namedview>
  <metadata
     id="metadata7">
    <rdf:RDF>
      <cc:Work
         rdf:about="">
        <dc:format>image/svg+xml</dc:format>
        <dc:type
           rdf:resource="http://purl.org/dc/dcmitype/StillImage" />
        <dc:title></dc:title>
      </cc:Work>
    </rdf:RDF>
  </metadata>
  <g
     inkscape:label="Layer 1"
     inkscape:groupmode="layer"
     id="layer1"
     transform="translate(0,-1020.3622)"
     style="display:inline">
    <path
       style="fill:url(#linearGradient3932);fill-opacity:1;fill-rule:evenodd;stroke:none;display:inline"
       d="M 15.90625,0.125 A 0.38742918,0.38742918 0 0 0 15.71875,0.25 L 8.15625,7.5 a 0.38742918,0.38742918 0 0 0 0.25,0.65625 l 2.75,0 C 7.0528808,10.073225 4.1875003,14.347453 4.1875,19.3125 l 0.3125,0 c -0.1661974,0 -0.3125,0.1404 -0.3125,0.3125 l 0,11.5625 c 0,0.1721 0.1463026,0.34375 0.3125,0.34375 l 23,0 c 0.166198,0 0.3125,-0.17165 0.3125,-0.34375 l 0,-11.5625 c 0,-0.1721 -0.146302,-0.3125 -0.3125,-0.3125 l 0.3125,0 c 0,-4.965047 -2.865381,-9.239275 -6.96875,-11.15625 l 2.75,0 A 0.38742918,0.38742918 0 0 0 23.84375,7.5 l -7.5625,-7.25 a 0.38742918,0.38742918 0 0 0 -0.34375,-0.125 0.38742918,0.38742918 0 0 0 -0.03125,0 z"
       transform="translate(0,1020.3622)"
       id="path3019"
       inkscape:connector-curvature="0" />
  </g>
  <g
     inkscape:groupmode="layer"
     id="layer2"
     inkscape:label="Layer 2"
     style="display:inline"
     sodipodi:insensitive="true">
    <path
       style="fill:url(#linearGradient3924);fill-opacity:1;fill-rule:evenodd;stroke:none"
       d="m 16,1.65625 -5.65625,5.40625 3.6875,0 0,1.875 C 9.2408646,9.8878054 5.625,14.260904 5.625,19.5 l 0.25,0 c -0.146016,0 -0.25,0.0987 -0.25,0.25 l 0,10.21875 c 0,0.1511 0.103984,0.28125 0.25,0.28125 l 7.875,0 0,-7.3125 -4.75,0 c -0.147713,0 -0.25,-0.1022 -0.25,-0.25 l 0,-3.53125 C 8.75,19.00855 8.852287,18.875 9,18.875 l 4.75,0 0,-4.75 c 0,-0.1831 0.160617,-0.3125 0.34375,-0.3125 l 3.8125,0 c 0.183133,0 0.34375,0.1294 0.34375,0.3125 l 0,4.75 4.75,0 c 0.147712,0 0.25,0.13355 0.25,0.28125 l 0,3.53125 c 0,0.1478 -0.102288,0.25 -0.25,0.25 l -4.75,0 0,7.3125 7.875,0 c 0.146018,0 0.25,-0.13015 0.25,-0.28125 l 0,-10.21875 c 0,-0.1513 -0.103982,-0.25 -0.25,-0.25 l 0.25,0 c 0,-5.239096 -3.615865,-9.6121946 -8.40625,-10.5625 l 0,-1.875 3.6875,0 L 16,1.65625 z"
       id="path3064"
       inkscape:connector-curvature="0" />
  </g>
  <g
     inkscape:groupmode="layer"
     id="layer3"
     inkscape:label="Layer 3"
     style="display:inline" />
</svg>
