<?xml version="1.0" encoding="UTF-8" standalone="no"?>
<!-- Created with Inkscape (http://www.inkscape.org/) -->

<svg
   xmlns:dc="http://purl.org/dc/elements/1.1/"
   xmlns:cc="http://creativecommons.org/ns#"
   xmlns:rdf="http://www.w3.org/1999/02/22-rdf-syntax-ns#"
   xmlns:svg="http://www.w3.org/2000/svg"
   xmlns="http://www.w3.org/2000/svg"
   xmlns:xlink="http://www.w3.org/1999/xlink"
   xmlns:sodipodi="http://sodipodi.sourceforge.net/DTD/sodipodi-0.dtd"
   xmlns:inkscape="http://www.inkscape.org/namespaces/inkscape"
   width="32"
   height="32"
   id="svg2"
   version="1.1"
   inkscape:version="0.48.0 r9654"
   sodipodi:docname="nano.svg"
   inkscape:export-filename="/home/awrapp/Documents/new stuff/nano.png"
   inkscape:export-xdpi="180"
   inkscape:export-ydpi="180">
  <defs
     id="defs4">
    <linearGradient
       id="linearGradient3847">
      <stop
         style="stop-color:#ffffff;stop-opacity:1;"
         offset="0"
         id="stop3849" />
      <stop
         style="stop-color:#d5d5d5;stop-opacity:1;"
         offset="1"
         id="stop3851" />
    </linearGradient>
    <linearGradient
       id="linearGradient3833">
      <stop
         style="stop-color:#00cabe;stop-opacity:1;"
         offset="0"
         id="stop3835" />
      <stop
         style="stop-color:#77fff7;stop-opacity:1;"
         offset="1"
         id="stop3837" />
    </linearGradient>
    <linearGradient
       inkscape:collect="always"
       xlink:href="#linearGradient3833"
       id="linearGradient3839"
       x1="17.196539"
       y1="15.95355"
       x2="27.383678"
       y2="15.95355"
       gradientUnits="userSpaceOnUse" />
    <linearGradient
       inkscape:collect="always"
       xlink:href="#linearGradient3833"
       id="linearGradient3841"
       x1="4.4563073"
       y1="15.894665"
       x2="14.643446"
       y2="15.894665"
       gradientUnits="userSpaceOnUse" />
    <linearGradient
       inkscape:collect="always"
       xlink:href="#linearGradient3833"
       id="linearGradient3844"
       gradientUnits="userSpaceOnUse"
       x1="0.17059311"
       y1="32.055378"
       x2="0.089874499"
       y2="0.180379" />
    <linearGradient
       inkscape:collect="always"
       xlink:href="#linearGradient3847"
       id="linearGradient3859"
       x1="0.15624999"
       y1="0.48883924"
       x2="0.058035642"
       y2="31.560268"
       gradientUnits="userSpaceOnUse" />
    <linearGradient
       inkscape:collect="always"
       xlink:href="#linearGradient3833"
       id="linearGradient5011"
       x1="0.082345895"
       y1="31.906734"
       x2="-0.083394065"
       y2="-0.039339755"
       gradientUnits="userSpaceOnUse" />
    <linearGradient
       inkscape:collect="always"
       xlink:href="#linearGradient3847"
       id="linearGradient5019"
       x1="-0.068687506"
       y1="0.0056857299"
       x2="0.16489926"
       y2="32.07803"
       gradientUnits="userSpaceOnUse" />
    <linearGradient
       inkscape:collect="always"
       xlink:href="#linearGradient3847"
       id="linearGradient4021"
       x1="0.0070711928"
       y1="0.03875218"
       x2="-0.01627879"
       y2="31.921692"
       gradientUnits="userSpaceOnUse" />
    <linearGradient
       inkscape:collect="always"
       xlink:href="#linearGradient3833"
       id="linearGradient4029"
       x1="0.16719507"
       y1="31.846767"
       x2="0.076134875"
       y2="-0.036171541"
       gradientUnits="userSpaceOnUse" />
    <linearGradient
       inkscape:collect="always"
       xlink:href="#linearGradient3833"
       id="linearGradient4135"
       x1="0.17857143"
       y1="32.15535"
       x2="0.13052008"
       y2="0.012490924"
       gradientUnits="userSpaceOnUse"
       gradientTransform="translate(-4.5548788e-8,1020.3622)" />
    <linearGradient
       inkscape:collect="always"
       xlink:href="#linearGradient3847"
       id="linearGradient4164"
       x1="0.089285731"
       y1="-0.13491729"
       x2="0.89304942"
       y2="32.097225"
       gradientUnits="userSpaceOnUse" />
  </defs>
  <sodipodi:namedview
     id="base"
     pagecolor="#000000"
     bordercolor="#666666"
     borderopacity="1.0"
     inkscape:pageopacity="0"
     inkscape:pageshadow="2"
     inkscape:zoom="11.2"
     inkscape:cx="-1.7859204"
     inkscape:cy="12.077207"
     inkscape:document-units="px"
     inkscape:current-layer="layer2"
     showgrid="true"
     inkscape:snap-grids="false"
     inkscape:snap-to-guides="false"
     inkscape:window-width="1440"
     inkscape:window-height="853"
     inkscape:window-x="0"
     inkscape:window-y="-3"
     inkscape:window-maximized="1">
    <inkscape:grid
       type="xygrid"
       id="grid3040"
       empspacing="5"
       dotted="true"
       visible="true"
       enabled="true"
       snapvisiblegridlinesonly="true" />
  </sodipodi:namedview>
  <metadata
     id="metadata7">
    <rdf:RDF>
      <cc:Work
         rdf:about="">
        <dc:format>image/svg+xml</dc:format>
        <dc:type
           rdf:resource="http://purl.org/dc/dcmitype/StillImage" />
        <dc:title></dc:title>
      </cc:Work>
    </rdf:RDF>
  </metadata>
  <g
     inkscape:label="Layer 1"
     inkscape:groupmode="layer"
     id="layer1"
     transform="translate(0,-1020.3622)"
     style="display:inline">
    <path
       style="fill:url(#linearGradient4135);fill-opacity:1;fill-rule:evenodd;stroke:none"
       d="m 24.653226,1021.3437 c -0.405729,-0.038 -0.783499,0.031 -1.114631,0.2346 a 0.45140237,0.45140237 0 0 0 -0.088,0.059 l -0.02933,0.029 a 0.45140237,0.45140237 0 0 0 -0.117329,0.352 l 0.439986,6.1892 a 0.45140237,0.45140237 0 0 0 0.410653,0.4106 l 6.189136,0.4107 a 0.45140237,0.45140237 0 0 0 0.02933,0 l 0.02933,0 a 0.45140237,0.45140237 0 0 0 0.381321,-0.2054 c 0.410392,-0.6617 0.249481,-1.5215 -0.146662,-2.4052 -0.396143,-0.8836 -1.068679,-1.8313 -1.965271,-2.7279 -0.895911,-0.896 -1.844291,-1.5693 -2.727913,-1.9653 -0.44181,-0.198 -0.884896,-0.3431 -1.290625,-0.3813 z m -6.159803,6.3358 c -1.257084,0 -2.272794,0.9695 -2.375924,2.1999 -0.36892,0.1105 -0.65658,0.3621 -0.821307,0.704 -0.486444,0.083 -0.935798,0.274 -1.290626,0.5866 -0.388091,-0.403 -0.921587,-0.6453 -1.525284,-0.6453 -1.17823,0 -2.141265,0.9631 -2.141265,2.1413 0,0.021 -5.81e-4,0.038 0,0.059 -0.8650611,0.2286 -1.5176262,0.9865 -1.5839493,1.9066 -0.1157313,-0.024 -0.2292564,-0.029 -0.3519887,-0.029 -0.9818583,0 -1.7892761,0.8074 -1.7892761,1.7893 0,0.2222 0.04289,0.4199 0.1173295,0.616 -0.4124915,-0.1265 -0.8367023,-0.2053 -1.2906254,-0.2053 -2.4546457,0 -4.45852406,2.0038 -4.45852406,4.4585 0,1.9829 1.31618716,3.6221 3.10923396,4.1945 -0.00618,0.08 -0.029332,0.1534 -0.029332,0.2347 0,1.7019 1.3780138,3.0799 3.0799015,3.0799 0.172579,0 0.3338012,-0.031 0.4986507,-0.059 0.6723303,0.3992 1.4492938,0.6453 2.2879268,0.6453 0.3109215,0 0.6161185,-0.028 0.9093045,-0.088 0.358856,1.2145 1.455736,2.112 2.786577,2.112 1.620067,0 2.93324,-1.3132 2.93324,-2.9333 0,-0.3407 -0.06917,-0.6637 -0.175994,-0.968 1.024679,-0.5949 1.730611,-1.6923 1.730611,-2.9625 0,-0.029 7.24e-4,-0.059 0,-0.088 2.054182,-0.1848 3.666549,-1.9163 3.666549,-4.0186 0,-0.9173 -0.305085,-1.7572 -0.821307,-2.4345 0.43615,-0.5317 0.703978,-1.1947 0.703978,-1.936 0,-0.5318 -0.144128,-1.03 -0.381321,-1.4666 0.269192,-0.2539 0.439985,-0.598 0.439985,-0.9973 0,-0.029 0.0017,-0.06 0,-0.088 1.108556,-0.1985 1.965271,-1.1516 1.965271,-2.3173 0,-1.3091 -1.066779,-2.3759 -2.375924,-2.3759 -0.261829,0 -0.497818,0.068 -0.73331,0.1467 -0.407365,-0.745 -1.17368,-1.2613 -2.0826,-1.2613 z"
       id="path3033"
       inkscape:connector-curvature="0" />
  </g>
  <g
     inkscape:groupmode="layer"
     id="layer2"
     inkscape:label="Layer 2"
     style="display:inline">
    <path
       style="fill:url(#linearGradient4164);fill-opacity:1;fill-rule:evenodd;stroke:none;display:inline"
       d="m 24.623894,1.4508026 c -0.336647,-0.032068 -0.62839,0.00969 -0.85064,0.146662 l -0.02933,0.029332 0.410653,6.1891354 6.218468,0.4399859 0.02933,0 C 30.952924,7.3682496 30.075453,5.3770728 28.349108,3.6507322 27.055458,2.3571032 25.633835,1.5470055 24.623894,1.4508026 z m -6.247801,6.9517777 c -0.54683,0.1118977 -0.967969,0.6227182 -0.967969,1.2026282 0,0.6627545 0.539874,1.1732955 1.202629,1.1732955 0.662754,0 1.202628,-0.510541 1.202628,-1.1732955 0,-0.6627543 -0.539874,-1.2026282 -1.202628,-1.2026282 -0.08284,0 -0.156541,-0.015985 -0.23466,0 z m 2.81591,1.114631 c -0.540079,0.1105162 -0.938636,0.6005457 -0.938636,1.1732957 0,0.654572 0.518723,1.173296 1.173296,1.173296 0.654572,0 1.202628,-0.518724 1.202628,-1.173296 0,-0.654572 -0.548056,-1.1732957 -1.202628,-1.1732957 -0.08182,0 -0.157506,-0.015788 -0.23466,0 z M 16.61615,10.015862 c -0.37638,0 -0.674645,0.298266 -0.674645,0.674645 0,0.376379 0.298265,0.674645 0.674645,0.674645 0.376379,0 0.703977,-0.298266 0.703977,-0.674645 0,-0.376379 -0.327598,-0.674645 -0.703977,-0.674645 z m -4.018538,1.085299 c -0.589115,0 -1.055967,0.466851 -1.055967,1.055966 0,0.589115 0.466852,1.085299 1.055967,1.085299 0.589114,0 1.055966,-0.496184 1.055966,-1.085299 0,-0.589115 -0.466852,-1.055966 -1.055966,-1.055966 z m 3.255895,0.234659 c -0.720029,0 -1.290625,0.599929 -1.290625,1.319958 0,0.720029 0.570596,1.290625 1.290625,1.290625 0.72003,0 1.319958,-0.570596 1.319958,-1.290625 0,-0.720029 -0.599928,-1.319958 -1.319958,-1.319958 z m 2.727913,0.703977 c -0.589114,0 -1.055966,0.496184 -1.055966,1.085299 0,0.441836 0.262462,0.806037 0.645313,0.967969 -0.584181,0.219003 -0.997302,0.805967 -0.997302,1.46662 0,0.850943 0.674341,1.525284 1.525285,1.525284 0.850943,0 1.554617,-0.674341 1.554617,-1.525284 0,-0.734818 -0.514288,-1.371203 -1.202628,-1.525285 0.34401,-0.177014 0.586647,-0.49579 0.586647,-0.909304 0,-0.589115 -0.466851,-1.085299 -1.055966,-1.085299 z m 1.877273,0.351989 c -0.384561,0 -0.703977,0.319416 -0.703977,0.703978 0,0.384561 0.319416,0.674645 0.703977,0.674645 0.384562,0 0.703978,-0.290084 0.703978,-0.674645 0,-0.384562 -0.319416,-0.703978 -0.703978,-0.703978 z m -9.445031,0.85064 c -0.589114,0 -1.0852985,0.466851 -1.0852985,1.055966 0,0.589114 0.4961845,1.085298 1.0852985,1.085298 0.04239,0 0.07623,-0.02452 0.11733,-0.02933 -0.0056,0.0559 0,0.118606 0,0.175994 0,0.924584 0.747363,1.671947 1.671946,1.671947 0.924584,0 1.671947,-0.747363 1.671947,-1.671947 0,-0.924583 -0.747363,-1.701279 -1.671947,-1.701279 -0.286621,0 -0.556114,0.07838 -0.791974,0.205327 -0.121046,-0.456193 -0.50302,-0.791974 -0.997302,-0.791974 z m -2.4932534,1.759943 c -0.4909292,0 -0.9093043,0.418375 -0.9093043,0.909305 0,0.490929 0.4183751,0.879971 0.9093043,0.879971 0.4909291,0 0.8799718,-0.389042 0.8799718,-0.879971 0,-0.49093 -0.3890427,-0.909305 -0.8799718,-0.909305 z m 1.5546174,1.671947 c -1.0227695,0 -1.8479414,0.854505 -1.8479414,1.877273 0,1.022769 0.8251719,1.847941 1.8479414,1.847941 1.022768,0 1.84794,-0.825172 1.84794,-1.847941 0,-1.022768 -0.825172,-1.877273 -1.84794,-1.877273 z m 7.802417,1.23196 c -1.112773,0 -2.023936,0.911163 -2.023936,2.023936 0,1.112772 0.911163,2.023935 2.023936,2.023935 1.112772,0 2.023935,-0.911163 2.023935,-2.023935 0,-1.112773 -0.911163,-2.023936 -2.023935,-2.023936 z M 5.5578366,18.551589 c -1.2273229,0 -2.229262,0.972607 -2.229262,2.19993 0,1.227323 1.0019391,2.229262 2.229262,2.229262 1.2273229,0 2.1999297,-1.001939 2.1999297,-2.229262 0,-1.227323 -0.9726068,-2.19993 -2.1999297,-2.19993 z m 8.3304004,0.05867 c -0.580933,0 -1.055966,0.475034 -1.055966,1.055966 0,0.580933 0.475033,1.055966 1.055966,1.055966 0.580932,0 1.026634,-0.475033 1.026634,-1.055966 0,-0.580932 -0.445702,-1.055966 -1.026634,-1.055966 z m -3.842544,3.519887 c -1.0339615,0 -1.9061736,0.692948 -2.1705971,1.642614 -0.1843352,-0.07797 -0.4032444,-0.117329 -0.6159803,-0.117329 -0.8509438,0 -1.5252846,0.703673 -1.5252846,1.554617 0,0.850943 0.6743408,1.525284 1.5252846,1.525284 0.5318398,0 1.0137379,-0.264797 1.2906254,-0.674645 0.3981326,0.355385 0.920285,0.557316 1.495952,0.557316 1.243687,0 2.258595,-0.985575 2.258595,-2.229262 0,-1.243687 -1.014908,-2.258595 -2.258595,-2.258595 z m 4.751848,0.175995 c -0.94913,0 -1.730611,0.752149 -1.730611,1.701279 0,0.949129 0.781481,1.730611 1.730611,1.730611 0.94913,0 1.701279,-0.781482 1.701279,-1.730611 0,-0.94913 -0.752149,-1.701279 -1.701279,-1.701279 z m -1.055966,4.194532 c -0.810033,0 -1.46662,0.656587 -1.46662,1.46662 0,0.810033 0.656587,1.46662 1.46662,1.46662 0.810033,0 1.46662,-0.656587 1.46662,-1.46662 0,-0.810033 -0.656587,-1.46662 -1.46662,-1.46662 z"
       id="path3033-8"
       inkscape:connector-curvature="0" />
  </g>
  <g
     inkscape:groupmode="layer"
     id="layer3"
     inkscape:label="Layer 3"
     style="display:inline" />
</svg>
