<?xml version="1.0" encoding="UTF-8" standalone="no"?>
<!-- Created with Inkscape (http://www.inkscape.org/) -->

<svg
   xmlns:dc="http://purl.org/dc/elements/1.1/"
   xmlns:cc="http://creativecommons.org/ns#"
   xmlns:rdf="http://www.w3.org/1999/02/22-rdf-syntax-ns#"
   xmlns:svg="http://www.w3.org/2000/svg"
   xmlns="http://www.w3.org/2000/svg"
   xmlns:xlink="http://www.w3.org/1999/xlink"
   xmlns:sodipodi="http://sodipodi.sourceforge.net/DTD/sodipodi-0.dtd"
   xmlns:inkscape="http://www.inkscape.org/namespaces/inkscape"
   width="32"
   height="32"
   id="svg2"
   version="1.1"
   inkscape:version="0.48.0 r9654"
   sodipodi:docname="weaponmod_high_caliber_barrel.svg"
   inkscape:export-filename="/home/awrapp/Documents/new stuff/weaponmod_high_caliber_barrel.png"
   inkscape:export-xdpi="180"
   inkscape:export-ydpi="180">
  <defs
     id="defs4">
    <linearGradient
       id="linearGradient3847">
      <stop
         style="stop-color:#ffffff;stop-opacity:1;"
         offset="0"
         id="stop3849" />
      <stop
         style="stop-color:#d5d5d5;stop-opacity:1;"
         offset="1"
         id="stop3851" />
    </linearGradient>
    <linearGradient
       id="linearGradient3833">
      <stop
         style="stop-color:#6c00c6;stop-opacity:1;"
         offset="0"
         id="stop3835" />
      <stop
         style="stop-color:#ae4fff;stop-opacity:1;"
         offset="1"
         id="stop3837" />
    </linearGradient>
    <linearGradient
       inkscape:collect="always"
       xlink:href="#linearGradient3833"
       id="linearGradient3839"
       x1="17.196539"
       y1="15.95355"
       x2="27.383678"
       y2="15.95355"
       gradientUnits="userSpaceOnUse" />
    <linearGradient
       inkscape:collect="always"
       xlink:href="#linearGradient3833"
       id="linearGradient3841"
       x1="4.4563073"
       y1="15.894665"
       x2="14.643446"
       y2="15.894665"
       gradientUnits="userSpaceOnUse" />
    <linearGradient
       inkscape:collect="always"
       xlink:href="#linearGradient3833"
       id="linearGradient3844"
       gradientUnits="userSpaceOnUse"
       x1="0.17059311"
       y1="32.055378"
       x2="0.089874499"
       y2="0.180379" />
    <linearGradient
       inkscape:collect="always"
       xlink:href="#linearGradient3847"
       id="linearGradient3859"
       x1="0.15624999"
       y1="0.48883924"
       x2="0.058035642"
       y2="31.560268"
       gradientUnits="userSpaceOnUse" />
    <linearGradient
       inkscape:collect="always"
       xlink:href="#linearGradient3833"
       id="linearGradient5011"
       x1="0.082345895"
       y1="31.906734"
       x2="-0.083394065"
       y2="-0.039339755"
       gradientUnits="userSpaceOnUse" />
    <linearGradient
       inkscape:collect="always"
       xlink:href="#linearGradient3847"
       id="linearGradient5019"
       x1="-0.068687506"
       y1="0.0056857299"
       x2="0.16489926"
       y2="32.07803"
       gradientUnits="userSpaceOnUse" />
    <linearGradient
       inkscape:collect="always"
       xlink:href="#linearGradient3847"
       id="linearGradient4021"
       x1="0.0070711928"
       y1="0.03875218"
       x2="-0.01627879"
       y2="31.921692"
       gradientUnits="userSpaceOnUse" />
    <linearGradient
       inkscape:collect="always"
       xlink:href="#linearGradient3833-1"
       id="linearGradient4029-6"
       x1="0.16719507"
       y1="31.846767"
       x2="0.076134875"
       y2="-0.036171541"
       gradientUnits="userSpaceOnUse" />
    <linearGradient
       id="linearGradient3833-1">
      <stop
         style="stop-color:#00cabe;stop-opacity:1;"
         offset="0"
         id="stop3835-0" />
      <stop
         style="stop-color:#77fff7;stop-opacity:1;"
         offset="1"
         id="stop3837-4" />
    </linearGradient>
    <linearGradient
       inkscape:collect="always"
       xlink:href="#linearGradient3847"
       id="linearGradient3900"
       x1="-0.017991496"
       y1="0.053842373"
       x2="0.0087829465"
       y2="32.063049"
       gradientUnits="userSpaceOnUse" />
    <linearGradient
       inkscape:collect="always"
       xlink:href="#linearGradient3847"
       id="linearGradient4011"
       x1="0.24016352"
       y1="0.10662694"
       x2="-0.038070373"
       y2="31.892342"
       gradientUnits="userSpaceOnUse" />
    <linearGradient
       inkscape:collect="always"
       xlink:href="#linearGradient3833"
       id="linearGradient4019"
       x1="-0.1607188"
       y1="1052.6122"
       x2="0.017861808"
       y2="1020.4693"
       gradientUnits="userSpaceOnUse" />
    <linearGradient
       inkscape:collect="always"
       xlink:href="#linearGradient3847-4"
       id="linearGradient4011-2"
       x1="0.24016352"
       y1="0.10662694"
       x2="-0.038070373"
       y2="31.892342"
       gradientUnits="userSpaceOnUse" />
    <linearGradient
       id="linearGradient3847-4">
      <stop
         style="stop-color:#ffffff;stop-opacity:1;"
         offset="0"
         id="stop3849-5" />
      <stop
         style="stop-color:#d5d5d5;stop-opacity:1;"
         offset="1"
         id="stop3851-1" />
    </linearGradient>
    <linearGradient
       inkscape:collect="always"
       xlink:href="#linearGradient3847"
       id="linearGradient3815"
       gradientUnits="userSpaceOnUse"
       x1="0.24016352"
       y1="0.10662694"
       x2="-0.038070373"
       y2="31.892342" />
    <linearGradient
       inkscape:collect="always"
       xlink:href="#linearGradient3847"
       id="linearGradient3818"
       gradientUnits="userSpaceOnUse"
       x1="0.24016352"
       y1="0.10662694"
       x2="-0.038070373"
       y2="31.892342" />
  </defs>
  <sodipodi:namedview
     id="base"
     pagecolor="#000000"
     bordercolor="#666666"
     borderopacity="1.0"
     inkscape:pageopacity="0"
     inkscape:pageshadow="2"
     inkscape:zoom="5.6"
     inkscape:cx="10.339973"
     inkscape:cy="9.6442186"
     inkscape:document-units="px"
     inkscape:current-layer="layer2"
     showgrid="true"
     inkscape:snap-grids="false"
     inkscape:snap-to-guides="false"
     inkscape:window-width="733"
     inkscape:window-height="850"
     inkscape:window-x="707"
     inkscape:window-y="0"
     inkscape:window-maximized="0">
    <inkscape:grid
       type="xygrid"
       id="grid3040"
       empspacing="5"
       dotted="true"
       visible="true"
       enabled="true"
       snapvisiblegridlinesonly="true" />
  </sodipodi:namedview>
  <metadata
     id="metadata7">
    <rdf:RDF>
      <cc:Work
         rdf:about="">
        <dc:format>image/svg+xml</dc:format>
        <dc:type
           rdf:resource="http://purl.org/dc/dcmitype/StillImage" />
        <dc:title />
      </cc:Work>
    </rdf:RDF>
  </metadata>
  <g
     inkscape:label="Layer 1"
     inkscape:groupmode="layer"
     id="layer1"
     transform="translate(0,-1020.3622)"
     style="display:inline"
     sodipodi:insensitive="true">
    <path
       style="fill:url(#linearGradient4019);fill-opacity:1;fill-rule:evenodd;stroke:none"
       d="m 1.7220653,1042.7533 c -1.28258283,1.2827 -0.5529501,4.0863 1.623694,6.2629 2.176644,2.1766 4.9802367,2.9063 6.2628196,1.6236 l 6.3893411,-6.3893 0.126522,-0.1265 c 5.81e-4,-7e-4 -0.02174,-0.02 -0.02109,-0.021 0.458063,-0.5537 0.582245,-1.337 0.442826,-2.2141 l 13.790855,-13.7908 -0.02109,-0.021 c 0.02909,-0.03 0.07601,-0.034 0.105435,-0.063 0.988195,-0.9883 0.432906,-3.1519 -1.244129,-4.829 -1.677036,-1.6769 -3.840713,-2.2322 -4.828908,-1.2441 -0.02943,0.03 -0.03621,0.074 -0.06326,0.1055 l -0.02109,-0.021 -13.790854,13.7908 c -0.8771524,-0.1394 -1.6604396,-0.015 -2.2141287,0.4428 -0.050163,0.036 -0.1035857,0.061 -0.1476085,0.1055 l -6.3893412,6.3893 z"
       id="rect3034"
       inkscape:connector-curvature="0" />
  </g>
  <g
     inkscape:groupmode="layer"
     id="layer2"
     inkscape:label="Layer 2"
     style="display:inline">
    <path
       style="fill:url(#linearGradient3818);fill-opacity:1;fill-rule:evenodd;stroke:none;display:inline"
       d="M 25.5 1.875 C 25.140308 1.9106601 24.8296 2.0453938 24.59375 2.28125 C 24.56878 2.30625 24.55458 2.349 24.53125 2.375 L 23.21875 3.65625 L 23.15625 3.71875 L 12.4375 14.4375 L 11.0625 15.8125 C 11.675187 15.1998 13.326885 15.85725 14.75 17.28125 C 16.173115 18.70435 16.831438 20.35615 16.21875 20.96875 L 17.59375 19.59375 L 28.28125 8.875 L 28.34375 8.8125 L 29.65625 7.5 L 29.65625 7.46875 C 29.68093 7.44375 29.69377 7.4625 29.71875 7.4375 C 30.557328 6.5989 30.110615 4.76675 28.6875 3.34375 C 27.798053 2.45425 26.7407 1.9329863 25.875 1.875 C 25.745145 1.8663021 25.619897 1.8631133 25.5 1.875 z M 9.5625 16.09375 C 9.1416202 16.143113 8.7659525 16.312825 8.46875 16.5625 C 8.4679904 16.5632 8.438259 16.53025 8.4375 16.53125 L 8.34375 16.625 L 3.96875 21 C 5.3972301 21.066 7.1773649 21.8962 8.65625 23.375 C 10.135135 24.8539 10.965004 26.60275 11.03125 28.03125 L 15.375 23.6875 L 15.46875 23.5625 C 16.467511 22.3736 15.817345 19.97355 13.9375 18.09375 C 12.527615 16.683825 10.825139 15.945663 9.5625 16.09375 z M 3.65625 21.96875 C 3.1560286 22.019613 2.7279458 22.209554 2.40625 22.53125 C 1.2624428 23.675057 1.9338947 26.183895 3.875 28.125 C 5.8161053 30.066105 8.2936928 30.706307 9.4375 29.5625 C 10.581307 28.418693 9.9411053 25.909855 8 23.96875 C 6.7868092 22.755559 5.3700156 22.049462 4.1875 21.96875 C 4.0101226 21.956643 3.8229905 21.951796 3.65625 21.96875 z M 4.0625 22.8125 C 4.2008879 22.798429 4.3527839 22.80245 4.5 22.8125 C 5.4814405 22.879488 6.6493503 23.46185 7.65625 24.46875 C 9.2672896 26.079789 9.7930639 28.175686 8.84375 29.125 C 7.8944358 30.074314 5.8297896 29.517289 4.21875 27.90625 C 2.6077104 26.29521 2.0506859 24.230564 3 23.28125 C 3.2669946 23.014255 3.6473363 22.854713 4.0625 22.8125 z "
       id="path3779" />
  </g>
  <g
     inkscape:groupmode="layer"
     id="layer3"
     inkscape:label="Layer 3"
     style="display:inline" />
</svg>
