<?xml version="1.0" encoding="UTF-8" standalone="no"?>
<!-- Created with Inkscape (http://www.inkscape.org/) -->

<svg
   xmlns:dc="http://purl.org/dc/elements/1.1/"
   xmlns:cc="http://creativecommons.org/ns#"
   xmlns:rdf="http://www.w3.org/1999/02/22-rdf-syntax-ns#"
   xmlns:svg="http://www.w3.org/2000/svg"
   xmlns="http://www.w3.org/2000/svg"
   xmlns:sodipodi="http://sodipodi.sourceforge.net/DTD/sodipodi-0.dtd"
   xmlns:inkscape="http://www.inkscape.org/namespaces/inkscape"
   width="128"
   height="128"
   id="svg2"
   sodipodi:version="0.32"
   inkscape:version="0.47 r22583"
   version="1.0"
   enable-background="new"
   sodipodi:docname="4.svg"
   inkscape:output_extension="org.inkscape.output.svg.inkscape"
   inkscape:export-filename="C:\Users\Nubtron\Documents\Visual Studio 2008\Projects\summerspring\Artwork\neddie ranks\4.png"
   inkscape:export-xdpi="21.09375"
   inkscape:export-ydpi="21.09375">
  <defs
     id="defs4">
    <inkscape:perspective
       sodipodi:type="inkscape:persp3d"
       inkscape:vp_x="0 : 526.18109 : 1"
       inkscape:vp_y="0 : 1000 : 0"
       inkscape:vp_z="744.09448 : 526.18109 : 1"
       inkscape:persp3d-origin="372.04724 : 350.78739 : 1"
       id="perspective10" />
    <inkscape:perspective
       id="perspective2400"
       inkscape:persp3d-origin="372.04724 : 350.78739 : 1"
       inkscape:vp_z="744.09448 : 526.18109 : 1"
       inkscape:vp_y="0 : 1000 : 0"
       inkscape:vp_x="0 : 526.18109 : 1"
       sodipodi:type="inkscape:persp3d" />
    <inkscape:perspective
       id="perspective2414"
       inkscape:persp3d-origin="372.04724 : 350.78739 : 1"
       inkscape:vp_z="744.09448 : 526.18109 : 1"
       inkscape:vp_y="0 : 1000 : 0"
       inkscape:vp_x="0 : 526.18109 : 1"
       sodipodi:type="inkscape:persp3d" />
    <inkscape:perspective
       id="perspective2839"
       inkscape:persp3d-origin="0.5 : 0.33333333 : 1"
       inkscape:vp_z="1 : 0.5 : 1"
       inkscape:vp_y="0 : 1000 : 0"
       inkscape:vp_x="0 : 0.5 : 1"
       sodipodi:type="inkscape:persp3d" />
  </defs>
  <sodipodi:namedview
     id="base"
     pagecolor="#ffffff"
     bordercolor="#666666"
     borderopacity="1.0"
     gridtolerance="10000"
     guidetolerance="10"
     objecttolerance="10"
     inkscape:pageopacity="0.0"
     inkscape:pageshadow="2"
     inkscape:zoom="6.0072903"
     inkscape:cx="22.033416"
     inkscape:cy="74.007799"
     inkscape:document-units="px"
     inkscape:current-layer="layer3"
     showgrid="false"
     inkscape:window-width="1618"
     inkscape:window-height="1028"
     inkscape:window-x="54"
     inkscape:window-y="-8"
     inkscape:window-maximized="1" />
  <metadata
     id="metadata7">
    <rdf:RDF>
      <cc:Work
         rdf:about="">
        <dc:format>image/svg+xml</dc:format>
        <dc:type
           rdf:resource="http://purl.org/dc/dcmitype/StillImage" />
        <dc:title></dc:title>
      </cc:Work>
    </rdf:RDF>
  </metadata>
  <g
     inkscape:groupmode="layer"
     id="layer3"
     style="display:inline">
    <path
       style="fill:#445500;fill-rule:evenodd;stroke:#22280b;stroke-width:1.13178825px;stroke-linecap:butt;stroke-linejoin:miter;stroke-opacity:1;display:inline"
       d="M 64.34375,3.625 C 45.071299,3.625 27.784863,10.37002 16.125,21 10.993486,18.939416 5.8160958,17.496921 0.59375,16.875 l -0.0625,21.5625 c -1.8186e-4,0.07371 0.0626973,-0.104938 0.0625,-0.03125 L 0.53125,57.75 0.625,65.78125 0.71875,84.3125 C 25.655979,93.33779 45.466865,108.80896 64.875,125.03125 83.885272,107.25957 103.62761,92.454934 127.46875,85.6875 L 127.5,66.3125 c 2e-5,-0.01004 -0.0314,-0.458711 -0.0312,-0.46875 l 0.0937,-4.59375 -0.0312,-2.5625 c 0.2252,-1.708571 0.34375,-3.432155 0.34375,-5.1875 l -0.3125,-3.4375 0,-5.34375 -0.0625,-8.15625 0,-21.3125 c -5.12463,1.156415 -10.27031,3.017679 -15.4375,5.34375 C 100.33736,10.138783 83.197396,3.625 64.34375,3.625 z m -1.167071,22.380967 c 0.697055,-0.02693 0.08745,0 0.793285,0 10.837769,0 18.976744,2.750052 26.356391,8.094358 C 80.315761,40.444397 73.357891,44.60741 64.09375,51.4375 54.698326,44.73449 50.501818,40.941105 41.066647,34.891788 48.022058,29.543046 52.656411,26.412365 63.176679,26.005967 z"
       id="path3251"
       sodipodi:nodetypes="ccccccccccccccccccccccscccc" />
    <path
       style="fill:#b6c48e;fill-opacity:1;fill-rule:evenodd;stroke:#a6bc60;stroke-width:1.13178825px;stroke-linecap:butt;stroke-linejoin:miter;stroke-opacity:1;display:inline"
       d="M 121.14176,28.169231 L 121.14176,38.010611 C 100.00117,45.127251 80.784834,57.722811 64.109323,74.647251 C 47.254168,58.460791 30.116442,45.753881 7.342163,37.668001 L 7.076896,27.867421 C 24.849156,33.371741 43.387751,48.740561 64.127256,63.619051 C 83.411524,48.932251 100.93661,33.382701 121.14176,28.169231 z"
       id="path3210"
       sodipodi:nodetypes="ccccccc" />
    <path
       style="fill:#b6c48e;fill-opacity:1;fill-rule:evenodd;stroke:#a6bc60;stroke-width:1.13178825px;stroke-linecap:butt;stroke-linejoin:miter;stroke-opacity:1;display:inline"
       d="M 121.43314,48.056792 L 121.43314,57.898179 C 100.29255,65.014815 81.076229,77.610379 64.400713,94.534819 C 47.545558,78.348359 30.407832,65.641448 7.6335535,57.55557 L 7.3682863,47.754985 C 25.140546,53.259307 43.679141,68.628126 64.418646,83.506612 C 83.702915,68.819812 101.22799,53.270265 121.43314,48.056792 z"
       id="path3405"
       sodipodi:nodetypes="ccccccc" />
    <path
       style="fill:#b6c48e;fill-opacity:1;fill-rule:evenodd;stroke:#a6bc60;stroke-width:1.13178825px;stroke-linecap:butt;stroke-linejoin:miter;stroke-opacity:1;display:inline"
       d="M 121.25425,67.734788 L 121.25425,77.576175 C 100.11366,84.692811 80.897338,97.288375 64.221822,114.21282 C 47.366667,98.026355 30.228941,85.319444 7.4546627,77.233566 L 7.1893955,67.432981 C 24.961655,72.937303 43.50025,88.306122 64.239755,103.18461 C 83.524024,88.497808 101.0491,72.948261 121.25425,67.734788 z"
       id="path3407"
       sodipodi:nodetypes="ccccccc" />
    <path
       style="fill:#b6c48e;fill-opacity:1;stroke:#a6bc60;stroke-width:1.14549196px;stroke-linecap:butt;stroke-linejoin:miter;stroke-opacity:1"
       d="M 64.611997,9.67488 C 54.154576,9.5954143 36.131261,14.790661 24.715057,25.22305 l 8.887621,5.350066 C 54.47449,12.975722 73.914393,13.617056 97.646731,28.834828 l 8.802249,-5.303655 c 0,0 -21.872814,-13.7045857 -41.836983,-13.856293 z"
       id="path2827"
       sodipodi:nodetypes="cccccc"
       inkscape:export-xdpi="31.936012"
       inkscape:export-ydpi="31.936012" />
  </g>
</svg>
