# Exported from Wings 3D 1.0
mtllib tank0+uv.mtl
o cube1
#70 vertices, 60 faces
v -2.07336771 -0.69600000 1.00000000
v -2.07336771 -8.8888889e-4 1.00000000
v 2.00000000 -0.40950687 1.00000000
v 2.00000000 -0.69600000 1.00000000
v -2.07336771 -0.69600000 -1.00000000
v -2.07336771 -8.8888889e-4 -1.00000000
v 2.00000000 -0.40950687 -1.00000000
v 2.00000000 -0.69600000 -1.00000000
v -1.07336771 -0.69600000 1.17800000
v -0.61892721 -0.69600000 1.00000000
v 0.45444050 -0.69600000 1.47400000
v -1.07336771 -8.8888889e-4 1.17800000
v -0.61892721 -8.8888889e-4 1.00000000
v -1.07336771 -0.69600000 -1.17800000
v -0.61892721 -0.69600000 -1.00000000
v 0.45444050 -0.69600000 -1.47400000
v -1.07336771 -8.8888889e-4 -1.17800000
v -0.61892721 -8.8888889e-4 -1.00000000
v 1.50000000 -0.69600000 -1.47400000
v 1.50000000 -0.69600000 1.47400000
v -4.5559499e-2 -8.8888889e-4 -1.00000000
v -4.5559499e-2 -0.69600000 -1.00000000
v -4.5559499e-2 -8.8888889e-4 1.00000000
v -4.5559499e-2 -0.69600000 1.00000000
v -1.57336771 -8.8888889e-4 -1.17800000
v -1.57336771 -0.69600000 -1.17800000
v -1.57336771 -8.8888889e-4 1.17800000
v -1.57336771 -0.69600000 1.17800000
v 0.97722025 -8.8888889e-4 -1.00000000
v 0.97722025 -8.8888889e-4 1.00000000
v 0.97722025 -8.8888889e-4 -0.60000000
v 0.97722025 -8.8888889e-4 -4.1888997e-2
v 0.97722025 -8.8888889e-4 0.12816772
v 0.97722025 -8.8888889e-4 0.60000000
v 1.48861013 -8.8888889e-4 1.00000000
v 1.48861013 -8.8888889e-4 -1.00000000
v 2.00000000 -0.40727553 0.68490000
v 2.00000000 -0.40727553 0.18676774
v 2.00000000 -0.33076726 -4.1258890e-2
v 2.00000000 -0.40727553 -0.68490000
v 1.48861013 -0.40727553 0.68490000
v 1.48861013 -0.40727553 0.18676774
v 1.48861013 -9.3276058e-2 -4.1258890e-2
v 1.48861013 -0.40727553 -0.68490000
v 1.48861013 -9.3276058e-2 -0.44245000
v 2.00000000 -0.33076726 -0.44245000
v 0.97722025 -8.8888889e-4 -0.44347743
v 2.00000000 -0.69600000 0.60000000
v 2.00000000 -0.69600000 0.18483872
v 2.00000000 -0.69600000 -3.9769270e-2
v 2.00000000 -0.69600000 -0.44335884
v 2.00000000 -0.69600000 -0.68722470
v 2.21234630 -0.50351702 -4.0762350e-2
v 2.21234630 -0.59975851 -4.0265810e-2
v 2.21234630 -0.50351702 -0.44275295
v 2.21234630 -0.59975851 -0.44305589
v 2.00000000 -0.59975851 -0.68644980
v 2.00000000 -0.50351702 -0.68567490
v 2.00000000 -0.50351702 0.18612473
v 2.00000000 -0.59975851 0.18548172
v 0.45444050 -0.22590296 1.47400000
v 0.29114243 -8.8888889e-4 1.31919343
v 0.29114243 -8.8888889e-4 -1.31919343
v 0.45444050 -0.22590296 -1.47400000
v 1.49459464 -8.8888889e-4 -1.24905086
v 1.64045344 -0.11567250 -1.34085013
v 1.50000000 -0.22590296 -1.47400000
v 1.50000000 -0.22590296 1.47400000
v 1.64045344 -0.11567250 1.34085013
v 1.49459464 -8.8888889e-4 1.24905086
vt 0.0000000e+0 0.20782592
vt 0.0000000e+0 0.26310698
vt 0.0000000e+0 0.46965353
vt 5.5511151e-17 0.74414420
vt 2.9142532e-2 0.17684312
vt 2.9142532e-2 0.29651165
vt 2.9252334e-2 6.5054288e-2
vt 2.9252334e-2 0.11995242
vt 2.9252334e-2 0.17693137
vt 2.9252334e-2 0.20775777
vt 2.9252334e-2 0.26314855
vt 2.9252334e-2 0.29661801
vt 2.9252334e-2 0.33954496
vt 3.2758056e-2 0.98175593
vt 3.2758056e-2 0.98175593
vt 3.2758056e-2 0.88635518
vt 6.8604117e-2 0.76857387
vt 6.8604117e-2 0.44522386
vt 9.7872630e-2 2.7755576e-17
vt 9.7872630e-2 0.40459924
vt 0.10226713 0.98175593
vt 0.10226713 0.88635518
vt 0.10226713 0.98175593
vt 0.10226713 0.88635518
vt 0.13720823 0.76857387
vt 0.13720823 0.44522386
vt 0.17083931 0.98175593
vt 0.17083931 0.88635518
vt 0.17083931 0.98175593
vt 0.17083931 0.88635518
vt 0.19956121 0.46965353
vt 0.19956121 0.74414420
vt 0.23222638 0.98175593
vt 0.23222638 0.88635518
vt 0.23222638 0.98175593
vt 0.23222638 0.88635518
vt 0.24136583 0.0000000e+0
vt 0.24136583 0.40459924
vt 0.27823198 0.46965353
vt 0.27823198 0.74414420
vt 0.30998613 6.5054288e-2
vt 0.30998613 0.33954496
vt 0.31086053 0.98175593
vt 0.31086053 0.88635518
vt 0.31086053 0.98175593
vt 0.31086053 0.88635518
vt 0.32443026 0.42584572
vt 0.32443026 0.78795201
vt 0.34755411 0.40459924
vt 0.34755411 0.80919849
vt 0.35871736 0.98175593
vt 0.35871736 0.98175593
vt 0.38192758 0.95087380
vt 0.38192758 0.88635518
vt 0.38192758 0.95087380
vt 0.38192758 0.88635518
vt 0.38867545 6.5054288e-2
vt 0.38867545 0.33954496
vt 0.41856579 0.46965353
vt 0.41856579 0.52455167
vt 0.41856579 0.58930844
vt 0.41856579 0.61264793
vt 0.41856579 0.66776407
vt 0.41856579 0.68924607
vt 0.41856579 0.74414420
vt 0.45104314 4.0624619e-2
vt 0.45104314 0.36397462
vt 0.48873269 0.46965353
vt 0.48873269 0.74414420
vt 0.48955381 0.43547246
vt 0.48955381 0.77832527
vt 0.49101348 0.40459924
vt 0.49101348 0.80919849
vt 0.50993311 0.42287344
vt 0.50993311 0.79092429
vt 0.51966343 4.0624619e-2
vt 0.51966343 0.36397462
vt 0.52212817 0.52431386
vt 0.52212817 0.58907064
vt 0.52212817 0.61241013
vt 0.52212817 0.66752627
vt 0.52212817 0.68900826
vt 0.52532018 0.95087380
vt 0.52532018 0.88635518
vt 0.52532018 0.95087380
vt 0.52532018 0.88635518
vt 0.54388176 0.96600242
vt 0.56020346 0.46965353
vt 0.56020346 0.74414420
vt 0.58603425 0.46941573
vt 0.58603425 0.74390640
vt 0.58828373 6.5054288e-2
vt 0.58828373 0.33954496
vt 0.59127669 0.61232365
vt 0.59127669 0.66738526
vt 0.59139750 0.92567502
vt 0.59139750 0.88635518
vt 0.60909437 0.51266173
vt 0.60909437 0.58102806
vt 0.60909437 0.70066039
vt 0.66865903 0.61232365
vt 0.66865903 0.66738526
vt 0.67300044 0.51266173
vt 0.67300044 0.58102806
vt 0.67300044 0.70066039
vt 0.67312706 0.46941573
vt 0.67312706 0.74390640
vt 0.67846160 0.58111631
vt 0.67846160 0.70076674
vt 0.69416151 0.83286667
vt 0.69416151 0.87218651
vt 0.69416151 0.87249275
vt 0.69416151 0.96789351
vt 0.70499755 0.66742684
vt 0.70499755 0.61225551
vt 0.73740751 0.87249275
vt 0.74905964 0.83286667
vt 0.80577384 0.87249275
vt 0.80586209 0.85928406
vt 0.80595034 0.84607536
vt 0.80603859 0.83286667
vt 0.83693313 0.84606831
vt 0.83700128 0.85927701
vt 0.89217262 0.85927701
vt 0.89221419 0.84606831
vt 0.92540617 0.87249275
vt 0.92551252 0.85928406
vt 0.92561887 0.84607536
vt 0.92572522 0.83286667
vt 0.96865217 0.83286667
vt 0.96865217 0.87218651
vt 0.96865217 0.87249275
vt 0.96865217 0.96789351
vn -0.69699097 -0.52194152 0.49171195
vn -0.69699097 0.52194152 0.49171195
vn 0.85562796 0.51352722 6.4734750e-2
vn 0.80692208 -0.47803833 0.34692379
vn -0.69699097 -0.52194152 -0.49171195
vn -0.69699097 0.52194152 -0.49171195
vn 0.85562796 0.51352722 -6.4734750e-2
vn 0.80692208 -0.47803833 -0.34692379
vn 0.13006959 -0.71327468 0.68870976
vn 0.13006959 -0.71327468 0.68870976
vn -0.25203414 -0.73267213 0.63219486
vn 0.13006959 0.71327468 0.68870976
vn 0.13006959 0.71327468 0.68870976
vn 0.13006959 -0.71327468 -0.68870976
vn 0.13006959 -0.71327468 -0.68870976
vn -0.25203414 -0.73267213 -0.63219486
vn 0.13006959 0.71327468 -0.68870976
vn 0.13006959 0.71327468 -0.68870976
vn 0.25203414 -0.73267213 -0.63219486
vn 0.25203414 -0.73267213 0.63219486
vn -0.19497089 0.85018088 -0.48905913
vn -0.25203414 -0.73267213 -0.63219486
vn -0.19497089 0.85018088 0.48905913
vn -0.25203414 -0.73267213 0.63219486
vn -0.11944310 0.71228229 -0.69165547
vn -0.11944310 -0.71228229 -0.69165547
vn -0.11944310 0.71228229 0.69165547
vn -0.11944310 -0.71228229 0.69165547
vn 0.0000000e+0 1.00000000 9.1512685e-20
vn 0.0000000e+0 1.00000000 -1.8302537e-19
vn 0.24930948 0.96809353 2.5292243e-2
vn 0.17845276 0.96203668 0.20649463
vn 0.34417582 0.91466475 0.21197031
vn 0.32228769 0.92763845 -0.18872615
vn 0.32512937 0.90766450 -0.26539792
vn 0.32512937 0.90766450 0.26539792
vn 0.57647451 0.78590592 -0.22367170
vn 0.59530065 0.72944320 0.33694178
vn 0.52059203 0.80423006 0.28670184
vn 0.71063152 0.68434080 -0.16334169
vn 0.40407806 0.85459812 -0.32616403
vn 0.30610950 0.89152993 0.33387325
vn 0.29263311 0.89897675 0.32589365
vn 0.42728297 0.90409497 -6.4462841e-3
vn 0.28965807 0.90231652 -0.31925398
vn 0.52169582 0.80814466 -0.27337827
vn 0.17398030 0.96275121 -0.20698056
vn 0.70710678 -0.70710678 0.0000000e+0
vn 0.68739698 -0.71517996 0.12650306
vn 0.37112474 -0.92246870 0.10638571
vn 0.37249195 -0.92273997 -9.8998439e-2
vn 0.68845971 -0.71566510 -0.11767197
vn 0.87041960 0.37862390 0.31466436
vn 0.82655179 -0.48061822 0.29294755
vn 0.87512576 0.38015097 -0.29939963
vn 0.83259222 -0.47901727 -0.27808750
vn 0.89800598 -0.26456012 -0.35155825
vn 0.89874669 0.20794825 -0.38602062
vn 0.89096434 0.20450993 0.40541118
vn 0.89008524 -0.26557937 0.37042659
vn -0.25035247 0.24493024 0.93666046
vn -0.28666950 0.71200066 0.64099583
vn -0.28666950 0.71200066 -0.64099583
vn -0.25035247 0.24493024 -0.93666046
vn 0.21508533 0.88680281 -0.40904654
vn 0.57082100 0.59501286 -0.56579420
vn 0.23156550 0.38036909 -0.89537522
vn 0.23156550 0.38036909 0.89537522
vn 0.57082100 0.59501286 0.56579420
vn 0.21508533 0.88680281 0.40904654
g cube1_cube1_auv
usemtl cube1_auv
f 1/92/1 5/93/5 26/77/26 28/76/28
f 1/16/1 28/22/28 27/21/27 2/14/2
f 2/133/2 6/113/6 5/112/5 1/132/1
f 3/96/3 69/87/69 68/83/68 20/84/20 4/97/4
f 4/7/4 20/19/20 19/20/19 8/13/8 52/12/52 51/11/51 50/10/50 49/9/49 48/8/48
f 4/110/4 48/117/48 49/121/49 60/120/60 59/119/59 38/118/38 37/116/37 3/111/3
f 6/15/6 25/23/25 26/24/26 5/16/5
f 7/131/7 40/126/40 58/127/58 57/128/57 52/129/52 8/130/8
f 7/89/7 66/75/66 65/71/65 36/69/36
f 8/97/8 19/86/19 67/85/67 66/87/66 7/96/7
f 9/66/9 14/67/14 15/58/15 10/57/10
f 9/66/9 28/76/28 26/77/26 14/67/14
f 10/34/10 13/33/13 12/27/12 9/28/9
f 10/57/10 15/58/15 22/42/22 24/41/24
f 11/37/11 16/38/16 19/20/19 20/19/20
f 11/37/11 24/41/24 22/42/22 16/38/16
f 12/27/12 27/21/27 28/22/28 9/28/9
f 13/31/13 18/32/18 17/25/17 12/26/12
f 14/30/14 17/29/17 18/35/18 15/36/15
f 14/30/14 26/24/26 25/23/25 17/29/17
f 15/36/15 18/35/18 21/45/21 22/46/22
f 16/56/16 22/46/22 21/45/21 63/52/63 64/55/64
f 16/56/16 64/55/64 67/85/67 19/86/19
f 17/25/17 25/17/25 27/18/27 12/26/12
f 20/84/20 68/83/68 61/53/61 11/54/11
f 21/40/21 29/65/29 36/69/36 65/71/65 63/48/63
f 23/39/23 21/40/21 18/32/18 13/31/13
f 23/43/23 24/44/24 11/54/11 61/53/61 62/51/62
f 23/39/23 30/59/30 34/60/34 33/61/33 32/62/32 47/63/47 31/64/31 29/65/29 21/40/21
f 24/44/24 23/43/23 13/33/13 10/34/10
f 27/18/27 25/17/25 6/4/6 2/3/2
f 29/65/29 31/64/31 36/69/36
f 33/79/33 42/99/42 43/94/43 32/80/32
f 34/78/34 41/98/41 42/99/42 33/79/33
f 35/68/35 34/60/34 30/59/30
f 35/68/35 70/70/70 69/74/69 3/88/3
f 36/91/36 31/82/31 44/100/44
f 36/91/36 44/100/44 40/105/40 7/107/7
f 37/103/37 41/98/41 35/90/35 3/106/3
f 38/104/38 42/99/42 41/98/41 37/103/37
f 38/104/38 59/108/59 53/115/53 39/101/39
f 39/101/39 43/94/43 42/99/42 38/104/38
f 39/101/39 53/115/53 55/114/55 46/102/46
f 41/98/41 34/78/34 35/90/35
f 44/100/44 45/95/45 46/102/46 40/105/40
f 45/95/45 47/81/47 32/80/32 43/94/43
f 46/102/46 45/95/45 43/94/43 39/101/39
f 46/102/46 55/114/55 58/109/58 40/105/40
f 47/81/47 45/95/45 44/100/44 31/82/31
f 50/10/50 54/1/54 60/5/60 49/9/49
f 51/11/51 56/2/56 54/1/54 50/10/50
f 52/12/52 57/6/57 56/2/56 51/11/51
f 53/123/53 59/119/59 60/120/60 54/122/54
f 54/122/54 56/125/56 55/124/55 53/123/53
f 56/125/56 57/128/57 58/127/58 55/124/55
f 62/47/62 70/70/70 35/68/35 30/59/30 23/39/23
f 64/50/64 63/48/63 65/71/65 67/73/67
f 67/73/67 65/71/65 66/75/66
f 68/72/68 70/70/70 62/47/62 61/49/61
f 70/70/70 68/72/68 69/74/69
