# Exported from Wings 3D 1.4.1
mtllib Turret.mtl
o cylinder2_sep37
#76 vertices, 66 faces
v 3.80269161 5.77617838 12.72914427
v -3.81031531 5.77617838 12.72914427
v -10.40337270 5.77086350 8.92264452
v -14.20987616 5.76165786 2.32959355
v -14.20987616 5.75102810 -5.28340594
v -10.40337270 5.74182246 -11.87645691
v 10.39574900 5.74182246 -11.87645691
v 14.20225246 5.75102810 -5.28340594
v 14.20225246 5.76165786 2.32959355
v 10.39574900 5.77086350 8.92264452
v 3.80269161 7.3646967e-2 12.73710651
v -3.81031531 7.3646967e-2 12.73710651
v -10.40337270 6.8332088e-2 8.93060676
v -14.20987616 5.9126446e-2 2.33755580
v -14.20987616 4.8496686e-2 -5.27544370
v -10.40337270 3.9291045e-2 -11.86849467
v -3.81031531 3.3976165e-2 -15.67499442
v 3.80269161 3.3976165e-2 -15.67499442
v 10.39574900 3.9291045e-2 -11.86849467
v 14.20225246 4.8496686e-2 -5.27544370
v 14.20225246 5.9126446e-2 2.33755580
v 10.39574900 6.8332088e-2 8.93060676
v -0.36612003 14.64682717 0.37657893
v 0.35849633 14.64682717 0.37657893
v 0.98603250 14.64632129 1.4271103e-2
v 1.34834067 14.64544508 -0.61326445
v 1.34834067 14.64443333 -1.33788010
v 2.86625604 0.75251524 -4.34590641
v 1.04657220 0.75621097 -5.39650755
v -1.05440684 0.75620986 -5.39619190
v -2.87387971 0.75251524 -4.34590642
v -1.35596437 14.64443333 -1.33788010
v -1.35596437 14.64544508 -0.61326445
v -0.99365620 14.64632129 1.4271103e-2
v 3.04900393 10.76029234 10.06464841
v -3.05662762 10.76029234 10.06464841
v -8.34425965 10.75602981 7.01183561
v -11.39707543 10.74864688 1.72420873
v -11.39707543 10.74012182 -4.38141687
v 11.38945173 10.74012182 -4.38141687
v 11.38945173 10.74864688 1.72420873
v 8.33663595 10.75602981 7.01183561
v 2.84601908 10.74117020 -3.63056542
v -2.85364278 10.74117020 -3.63056542
v -8.34425965 10.73273889 -9.66904374
v 8.33663595 10.73273889 -9.66904374
v 1.30889893 14.65177964 3.92352629
v -1.31652263 14.65177964 3.92352629
v -3.59020441 14.64994675 2.61081678
v -4.90291519 14.64677209 0.33713723
v -4.90291519 14.64310632 -2.28828178
v 4.89529149 14.64310632 -2.28828178
v 4.89529149 14.64677209 0.33713723
v 3.58258071 14.64994675 2.61081678
v 0.98603250 14.64355712 -1.96541566
v -0.99365620 14.64355712 -1.96541566
v 3.58258071 14.63993166 -4.56196134
v -3.59020441 14.63993166 -4.56196134
v 3.39797678 11.41192446 10.66817786
v 8.68560881 11.40766193 7.61536506
v 3.82871413 15.43105145 3.03604216
v 1.55503236 15.43288434 4.34875167
v 4.20918425 6.21371316 13.43259994
v 10.80224164 6.20839828 9.62610019
v -3.40560048 11.41192446 10.66817786
v -8.69323251 11.40766193 7.61536506
v -1.56265606 15.43288434 4.34875167
v -3.83633783 15.43105145 3.03604216
v -10.80986534 6.20839828 9.62610019
v -4.21680795 6.21371316 13.43259994
v -10.40295083 0.74746853 -11.87228636
v -3.81010440 0.74215386 -15.67847045
v 3.80248067 0.74215386 -15.67847045
v 10.39532719 0.74746853 -11.87228636
v 2.85624301 5.75206444 -4.34651585
v -2.86386671 5.75206444 -4.34651585
vt 3.9088677e-3 0.12941096
vt 4.0868814e-3 0.19041440
vt 6.8382793e-3 2.8762982e-2
vt 6.8458697e-3 7.0179039e-3
vt 1.1934406e-2 0.31451218
vt 1.6893320e-2 0.30543133
vt 1.8093556e-2 0.31326318
vt 1.9702799e-2 0.35999185
vt 2.6672709e-2 0.35831362
vt 2.9105843e-2 7.5957469e-2
vt 2.9523943e-2 0.24374438
vt 3.4027050e-2 0.41828824
vt 4.0405806e-2 0.42437782
vt 4.0761009e-2 0.41654085
vt 4.1999164e-2 0.26516883
vt 4.5029838e-2 0.13695512
vt 4.5029838e-2 0.18058652
vt 5.8191619e-2 2.8780908e-2
vt 5.8199209e-2 7.0358296e-3
vt 6.2288160e-2 0.41646433
vt 6.2699068e-2 0.42429858
vt 6.7033264e-2 0.21837242
vt 6.7033264e-2 9.9169217e-2
vt 6.9105098e-2 0.41778976
vt 7.3243621e-2 0.35819158
vt 8.0292823e-2 0.35956884
vt 8.0387799e-2 0.31306340
vt 8.1537778e-2 0.30522401
vt 8.6551007e-2 0.31417471
vt 9.1837044e-2 0.15049243
vt 9.1837044e-2 0.16925393
vt 9.6914481e-2 0.29778358
vt 9.8006519e-2 0.31868611
vt 9.9574269e-2 3.6450798e-2
vt 9.9931972e-2 0.30987590
vt 0.10129852 0.13424449
vt 0.10129852 0.18550187
vt 0.10238470 0.31769037
vt 0.10428807 0.36046859
vt 0.10514432 7.7353517e-2
vt 0.10688637 0.20153631
vt 0.10954496 2.8798834e-2
vt 0.10955255 7.0537553e-3
vt 0.11074967 0.35910409
vt 0.11542263 0.41386490
vt 0.11740199 0.15728410
vt 0.11740199 0.16246227
vt 0.11768627 0.12486374
vt 0.12001336 0.15279966
vt 0.12001336 0.16694670
vt 0.12048227 0.42034457
vt 0.12120219 0.41249996
vt 0.12152440 0.21341133
vt 0.12453638 0.15021058
vt 0.12975911 0.15021058
vt 0.13428213 0.15279966
vt 0.13428213 0.16694670
vt 0.13660922 0.12486374
vt 0.13689350 0.15728410
vt 0.13689350 0.16246227
vt 0.13899254 0.21341133
vt 0.14187088 0.41225815
vt 0.14277414 0.42008377
vt 0.14762152 0.41372047
vt 0.14915117 7.7353517e-2
vt 0.15299697 0.18550187
vt 0.15299697 0.13424449
vt 0.15353004 0.35863399
vt 0.15446722 0.20261557
vt 0.15472122 3.6450798e-2
vt 0.15995026 0.36007999
vt 0.16089830 2.8816759e-2
vt 0.16090589 7.0716810e-3
vt 0.16225887 0.31716572
vt 0.16245844 0.16925393
vt 0.16245844 0.15049243
vt 0.16302344 0.29765341
vt 0.16457428 0.30930947
vt 0.16659442 0.31834627
vt 0.18726222 9.9169217e-2
vt 0.18726222 0.21837242
vt 0.20926565 0.13695512
vt 0.20926565 0.18058652
vt 0.21225164 2.8834685e-2
vt 0.21225923 7.0896067e-3
vt 0.21845898 0.26589407
vt 0.22485884 0.24375118
vt 0.22526664 7.5943650e-2
vt 0.25015121 0.19028105
vt 0.25032698 0.12954384
vt 0.26360498 2.8852611e-2
vt 0.26361004 1.4355892e-2
vt 0.26361014 1.4355888e-2
vt 0.26361257 7.1075324e-3
vt 0.26361267 7.1075286e-3
vt 0.26452492 0.14302217
vt 0.26455416 0.13076106
vt 0.28154300 0.18700595
vt 0.31496348 1.4373714e-2
vt 0.31496601 7.1254543e-3
vt 0.32191140 0.22440350
vt 0.32782589 0.14704556
vt 0.32784032 0.13049972
vt 0.32816581 0.19226856
vt 0.34395963 0.22666642
vt 0.36076988 0.22666642
vt 0.36631682 1.4391639e-2
vt 0.36631935 7.1433800e-3
vt 0.37656370 0.19226856
vt 0.37743515 0.14699493
vt 0.37752680 0.13047574
vt 0.38281811 0.22440350
vt 0.41766515 2.8906467e-2
vt 0.41767016 1.4409665e-2
vt 0.41767021 1.4409748e-2
vt 0.41767269 7.1613057e-3
vt 0.41767274 7.1613882e-3
vt 0.42318651 0.18700595
vt 0.44067118 0.14294629
vt 0.44071676 0.12999227
vt 0.46901849 2.8924392e-2
vt 0.46902608 7.1793139e-3
vt 0.52037183 2.8942318e-2
vt 0.52037942 7.1972396e-3
vt 0.57172517 2.8960244e-2
vt 0.57173276 7.2151653e-3
vt 0.62307851 2.8978169e-2
vt 0.62308610 7.2330910e-3
vn -0.93277969 0.25966888 0.24998825
vn -0.93145063 0.26484189 -0.24951653
vn 0.93145063 0.26484189 -0.24951653
vn 0.93277969 0.25966888 0.24998825
vn 1.2969443e-15 0.99999903 -1.3962629e-3
vn -2.1923322e-15 0.99999903 -1.3962629e-3
vn -1.2562006e-16 0.99999903 -1.3962629e-3
vn 3.2889578e-15 0.99999903 -1.3962629e-3
vn 1.8506994e-15 0.99999903 -1.3962629e-3
vn 1.0666017e-4 0.99999991 4.2092402e-4
vn -1.0671596e-4 0.99999991 4.2091989e-4
vn -1.0664499e-17 0.99999903 -1.3962629e-3
vn -8.0757939e-16 0.99999903 -1.3962629e-3
vn 7.7011841e-16 0.99999903 -1.3962629e-3
vn -0.68437695 0.70564707 0.18354947
vn -0.67672299 0.71359400 -0.18118940
vn 0.67672299 0.71359400 -0.18118940
vn 0.68437695 0.70564707 0.18354947
vn -0.39895118 0.15475152 -0.90381963
vn 0.39895118 0.15475152 -0.90381963
vn -0.25245772 0.96528281 6.7038726e-2
vn -0.24730415 0.96662563 -6.6899573e-2
vn 0.24730415 0.96662563 -6.6899573e-2
vn 0.25245772 0.96528281 6.7038726e-2
vn -0.38753912 5.2736843e-2 -0.92034355
vn 0.38753912 5.2736845e-2 -0.92034355
vn 0.17649276 0.16733687 0.96997354
vn 0.17649276 0.16733687 0.96997354
vn 0.17649276 0.16733687 0.96997354
vn -0.49468430 -0.59024762 0.63788336
vn -0.49468430 -0.59024762 0.63788336
vn -0.17649276 0.16733687 0.96997354
vn -0.17649276 0.16733687 0.96997354
vn -0.17649276 0.16733687 0.96997354
vn 0.49468430 -0.59024762 0.63788336
vn 0.49468430 -0.59024762 0.63788336
vn -0.75122705 0.17083930 0.63755145
vn -0.75122705 0.17083930 0.63755145
vn -0.75122705 0.17083930 0.63755145
vn -0.80296866 -0.58389888 -0.11959694
vn -0.80296866 -0.58389888 -0.11959694
vn -0.83635334 0.25892156 -0.48319015
vn 0.71381477 2.6144071e-2 -0.69984639
vn -0.83635334 0.25892156 -0.48319015
vn 0.71381477 2.6144071e-2 -0.69984639
vn 0.83635334 0.25892156 -0.48319014
vn 0.83635334 0.25892156 -0.48319014
vn -0.71381477 2.6144067e-2 -0.69984639
vn -0.71381477 2.6144067e-2 -0.69984639
vn 0.75122705 0.17083930 0.63755145
vn 0.75122705 0.17083930 0.63755145
vn 0.75122705 0.17083930 0.63755145
vn 0.80296866 -0.58389888 -0.11959694
vn 0.80296866 -0.58389888 -0.11959694
vn -5.7604442e-17 -0.99999903 1.3962629e-3
vn 0.25881905 1.3486864e-3 0.96592488
vn 0.25881905 1.3486864e-3 0.96592488
vn -5.7604442e-17 -0.99999903 1.3962629e-3
vn -0.25881905 1.3486864e-3 0.96592488
vn -0.25881905 1.3486864e-3 0.96592488
vn -5.7604442e-17 -0.99999903 1.3962629e-3
vn -0.70710678 9.8730700e-4 0.70710609
vn -0.70710678 9.8730700e-4 0.70710609
vn -5.7604442e-17 -0.99999903 1.3962629e-3
vn -0.96592583 3.6137944e-4 0.25881879
vn -0.96592583 3.6137944e-4 0.25881879
vn -5.7604442e-17 -0.99999903 1.3962629e-3
vn -0.96593463 -3.6133356e-4 -0.25878593
vn -0.96593463 -3.6133356e-4 -0.25878593
vn -5.7604442e-17 -0.99999903 1.3962629e-3
vn -0.70712651 -2.5460218e-3 -0.70708247
vn -0.70712651 -2.5460218e-3 -0.70708247
vn -5.7604442e-17 -0.99999903 1.3962629e-3
vn -0.25881246 -4.7254006e-3 -0.96591603
vn -0.25881246 -4.7254006e-3 -0.96591603
vn -5.7604442e-17 -0.99999903 1.3962629e-3
vn 0.25881245 -4.7254030e-3 -0.96591603
vn 0.25881245 -4.7254030e-3 -0.96591603
vn -5.7604442e-17 -0.99999903 1.3962629e-3
vn 0.70712651 -2.5460242e-3 -0.70708247
vn 0.70712651 -2.5460242e-3 -0.70708247
vn -5.7604442e-17 -0.99999903 1.3962629e-3
vn 0.96593463 -3.6133356e-4 -0.25878593
vn 0.96593463 -3.6133356e-4 -0.25878593
vn -5.7604442e-17 -0.99999903 1.3962629e-3
vn 0.96592583 3.6137944e-4 0.25881879
vn 0.96592583 3.6137944e-4 0.25881879
vn -5.7604442e-17 -0.99999903 1.3962629e-3
vn 0.70710678 9.8730700e-4 0.70710609
vn 0.70710678 9.8730700e-4 0.70710609
vn 1.6006963e-4 0.99999912 1.3149304e-3
vn -0.38249565 -6.1614165e-4 -0.92395709
vn -0.38249565 -6.1614165e-4 -0.92395709
vn 1.6006963e-4 0.99999912 1.3149304e-3
vn -1.5999457e-4 0.99999912 1.3149242e-3
vn 0.38249565 -6.1613808e-4 -0.92395708
vn 0.38249565 -6.1613808e-4 -0.92395708
vn -1.5999457e-4 0.99999912 1.3149242e-3
vn 0.0000000e+0 0.68051223 0.73273673
vn 0.0000000e+0 0.68051223 0.73273673
vn -0.91170846 0.11446361 0.39457036
vn -0.91170846 0.11446361 0.39457036
vn 0.0000000e+0 0.68051223 0.73273673
vn 0.0000000e+0 0.68051223 0.73273673
vn 0.91170846 0.11446361 0.39457036
vn 0.91170846 0.11446361 0.39457036
vn -0.62798589 0.68911162 0.36160599
vn -0.62798589 0.68911162 0.36160599
vn -0.77957867 0.13821669 -0.61086271
vn -0.77957867 0.13821669 -0.61086271
vn 0.62798589 0.68911162 0.36160599
vn 0.62798589 0.68911162 0.36160599
vn 0.77957867 0.13821669 -0.61086271
vn 0.77957867 0.13821669 -0.61086271
vn 0.72551216 1.3954560e-2 -0.68806786
vn -0.61349699 0.70531062 -0.35518780
vn 0.72551216 1.3954560e-2 -0.68806786
vn -0.61349699 0.70531062 -0.35518780
vn 0.61349699 0.70531062 -0.35518780
vn -0.72551216 1.3954560e-2 -0.68806786
vn 0.61349699 0.70531062 -0.35518780
vn -0.72551216 1.3954560e-2 -0.68806786
vn -1.8084835e-15 0.98292922 0.18398412
vn -1.8084835e-15 0.98292922 0.18398412
vn -1.8084835e-15 0.98292922 0.18398412
vn -0.86932461 0.42855661 -0.24619903
vn -0.86932461 0.42855661 -0.24619903
vn 1.8084835e-15 0.98292922 0.18398412
vn 1.8084835e-15 0.98292922 0.18398412
vn 1.8084835e-15 0.98292922 0.18398412
vn 0.86932461 0.42855661 -0.24619903
vn 0.86932461 0.42855661 -0.24619903
vn -0.15698071 0.98355975 8.9259632e-2
vn -0.15698071 0.98355975 8.9259632e-2
vn -0.15698071 0.98355975 8.9259632e-2
vn -0.20128507 0.43811280 -0.87609446
vn -0.20128507 0.43811280 -0.87609446
vn 0.15698071 0.98355975 8.9259632e-2
vn 0.15698071 0.98355975 8.9259632e-2
vn 0.15698071 0.98355975 8.9259632e-2
vn 0.20128507 0.43811280 -0.87609446
vn 0.20128507 0.43811280 -0.87609446
vn 2.7113970e-16 0.99999903 -1.3962629e-3
vn 2.7113970e-16 0.99999903 -1.3962629e-3
vn -0.40555150 0.20401914 -0.89101300
vn -0.40555150 0.20401914 -0.89101300
vn -2.6640740e-16 0.99999903 -1.3962629e-3
vn -2.6640740e-16 0.99999903 -1.3962629e-3
vn 0.40555150 0.20401914 -0.89101300
vn 0.40555150 0.20401914 -0.89101300
vn 0.22635357 0.96505512 -0.13203289
vn 0.22635357 0.96505512 -0.13203289
vn -0.72966396 -2.5395798e-2 -0.68333414
vn -0.22635357 0.96505512 -0.13203289
vn 0.72966396 -2.5395798e-2 -0.68333414
vn -0.22635357 0.96505512 -0.13203289
vn 0.36569151 0.68285063 0.63244346
vn 0.36569151 0.68285063 0.63244346
vn -0.91170846 0.11446361 0.39457036
vn -0.91170846 0.11446361 0.39457036
vn 0.36569151 0.68285063 0.63244346
vn 0.36569151 0.68285063 0.63244346
vn 0.77957867 0.13821669 -0.61086271
vn 0.77957867 0.13821669 -0.61086271
vn 0.26673036 0.84646908 0.46080908
vn 0.20128507 0.43811280 -0.87609446
vn 0.20128507 0.43811280 -0.87609446
vn 0.26673036 0.84646908 0.46080908
vn -0.86932461 0.42855661 -0.24619903
vn -0.86932461 0.42855661 -0.24619903
vn 0.44050874 0.47414856 0.76232223
vn -0.49468430 -0.59024762 0.63788336
vn -0.49468430 -0.59024762 0.63788336
vn 0.44050874 0.47414856 0.76232223
vn 0.80296866 -0.58389888 -0.11959694
vn 0.80296866 -0.58389888 -0.11959694
vn -0.36569151 0.68285063 0.63244346
vn -0.36569151 0.68285063 0.63244346
vn 0.91170846 0.11446361 0.39457036
vn 0.91170846 0.11446361 0.39457036
vn -0.36569151 0.68285063 0.63244346
vn -0.36569151 0.68285063 0.63244346
vn -0.77957867 0.13821669 -0.61086271
vn -0.77957867 0.13821669 -0.61086271
vn -0.26673036 0.84646908 0.46080908
vn 0.86932461 0.42855661 -0.24619903
vn 0.86932461 0.42855661 -0.24619903
vn -0.26673036 0.84646908 0.46080908
vn -0.20128507 0.43811280 -0.87609446
vn -0.20128507 0.43811280 -0.87609446
vn -0.44050874 0.47414856 0.76232223
vn -0.80296866 -0.58389888 -0.11959694
vn -0.80296866 -0.58389888 -0.11959694
vn -0.44050874 0.47414856 0.76232223
vn 0.49468430 -0.59024762 0.63788336
vn 0.49468430 -0.59024762 0.63788336
vn -0.70712651 -2.5460218e-3 -0.70708247
vn 0.70681919 -1.0166718e-3 -0.70739352
vn -0.70712651 -2.5460218e-3 -0.70708247
vn -3.1998836e-4 0.99999955 -8.8786529e-4
vn -1.6007356e-4 0.99999935 -1.1274754e-3
vn -0.25881246 -4.7254006e-3 -0.96591603
vn -0.25881246 -4.7254006e-3 -0.96591603
vn -1.6007356e-4 0.99999935 -1.1274754e-3
vn 1.5998988e-4 0.99999935 -1.1274692e-3
vn 0.25881245 -4.7254030e-3 -0.96591603
vn 0.25881245 -4.7254030e-3 -0.96591603
vn 1.5998988e-4 0.99999935 -1.1274692e-3
vn 0.70712651 -2.5460242e-3 -0.70708247
vn 0.70712651 -2.5460242e-3 -0.70708247
vn -0.70681919 -1.0166784e-3 -0.70739352
vn 3.2013849e-4 0.99999955 -8.8785289e-4
g cylinder2_sep37_default3
usemtl default3
s 1
f 2/28/35 70/27/195 69/7/193 3/6/41
f 3/5/40 69/7/192 66/9/184 37/8/110
f 12//58 13//61 14//64 15//67 16//70 17//73 18//76 19//79 20//82 21//85 22//88 11//55
f 28/41/94 74/15/212 73/32/208 29/53/10
f 29/53/10 30/61/11 31/69/95 28/41/91
f 29/53/10 73/32/205 72/77/201 30/61/11
f 30/61/11 72/77/204 71/86/200 31/69/98
f 36/26/106 65/25/180 70/27/196 2/29/36
f 37/8/109 66/9/183 68/14/190 49/12/137
f 48/24/131 67/20/186 65/25/179 36/26/105
f 49/13/136 68/14/189 67/20/187 48/21/132
f 59/44/157 63/38/171 64/74/174 60/68/161
f 60/68/162 61/62/165 62/52/168 59/44/158
s 2
f 1/33/30 63/38/172 59/44/160 35/39/102
f 6/119/45 76/110/26 31/111/97 71/120/198
f 7/96/48 75/102/25 43/104/19 46/98/120
f 10/78/53 64/74/175 63/38/173 1/35/31
f 28/103/92 31/111/96 76/110/26 75/102/25
f 35/39/101 59/44/159 62/52/170 47/45/127
f 42/71/114 60/68/164 64/74/176 10/79/54
f 43/104/19 44/109/20 56/106/149 55/105/146
f 44/109/20 43/104/19 75/102/25 76/110/26
f 45/118/117 58/112/155 56/106/150 44/109/20
f 47/51/126 62/52/169 61/62/167 54/63/142
f 54/64/141 61/62/166 60/68/163 42/71/113
f 55/105/145 57/101/153 46/98/122 43/104/19
f 65/25/178 67/20/185 68/14/188 66/9/182
f 66/9/181 69/7/191 70/27/194 65/25/177
f 75/102/25 7/96/49 74/97/211 28/103/93
f 76/110/26 6/119/43 45/118/115 44/109/20
s 3
f 1/18/28 11/19/57 22/43/90 10/42/51
f 1/70/29 35/65/99 36/40/103 2/34/34
f 2/3/32 12/4/59 11/19/56 1/18/27
f 3/125/37 13/126/62 12/128/60 2/127/33
f 3/10/39 37/23/107 38/16/15 4/1/1
f 4/123/1 14/124/65 13/126/63 3/125/38
f 4/1/1 38/16/15 39/17/16 5/2/2
f 5/121/2 15/122/68 14/124/66 4/123/1
f 5/2/2 39/17/16 45/22/116 6/11/44
f 6/113/42 71/115/197 16/117/71 15/122/69 5/121/2
f 7/87/47 46/81/119 40/83/17 8/89/3
f 8/84/3 20/85/83 19/94/80 74/92/209 7/91/46
f 8/89/3 40/83/17 41/82/18 9/90/4
f 9/72/4 21/73/86 20/85/84 8/84/3
f 9/90/4 41/82/18 42/80/111 10/88/52
f 10/42/50 22/43/89 21/73/87 9/72/4
f 16/116/72 71/114/199 72/107/202 17/108/74
f 17/108/75 72/107/203 73/99/206 18/100/77
f 18/100/78 73/99/207 74/93/210 19/95/81
f 23/54/5 48/48/128 47/58/123 24/55/6
f 24/55/6 25/56/7 26/59/8 27/60/9 55/57/143 56/50/147 32/47/12 33/46/13 34/49/14 23/54/5
f 24/55/6 47/58/124 54/67/138 25/56/7
f 25/56/7 54/67/139 53/76/24 26/59/8
f 26/59/8 53/76/24 52/75/23 27/60/9
f 32/47/12 51/31/22 50/30/21 33/46/13
f 33/46/13 50/30/21 49/36/133 34/49/14
f 34/49/14 49/36/134 48/48/129 23/54/5
f 40/83/17 46/81/121 57/66/152 52/75/23
f 47/58/125 48/48/130 36/40/104 35/65/100
f 49/36/135 50/30/21 38/16/15 37/23/108
f 50/30/21 51/31/22 39/17/16 38/16/15
f 51/31/22 58/37/156 45/22/118 39/17/16
f 52/75/23 53/76/24 41/82/18 40/83/17
f 52/75/23 57/66/151 55/57/144 27/60/9
f 53/76/24 54/67/140 42/80/112 41/82/18
f 56/50/148 58/37/154 51/31/22 32/47/12
