<?xml version="1.0" encoding="UTF-8" standalone="no"?>
<!-- Created with Inkscape (http://www.inkscape.org/) -->
<svg
   xmlns:dc="http://purl.org/dc/elements/1.1/"
   xmlns:cc="http://creativecommons.org/ns#"
   xmlns:rdf="http://www.w3.org/1999/02/22-rdf-syntax-ns#"
   xmlns:svg="http://www.w3.org/2000/svg"
   xmlns="http://www.w3.org/2000/svg"
   xmlns:sodipodi="http://sodipodi.sourceforge.net/DTD/sodipodi-0.dtd"
   xmlns:inkscape="http://www.inkscape.org/namespaces/inkscape"
   width="128"
   height="128"
   id="svg2"
   sodipodi:version="0.32"
   inkscape:version="0.46"
   version="1.0"
   enable-background="new"
   sodipodi:docname="RankThreeX.svg"
   inkscape:output_extension="org.inkscape.output.svg.inkscape">
  <defs
     id="defs4">
    <inkscape:perspective
       sodipodi:type="inkscape:persp3d"
       inkscape:vp_x="0 : 526.18109 : 1"
       inkscape:vp_y="0 : 1000 : 0"
       inkscape:vp_z="744.09448 : 526.18109 : 1"
       inkscape:persp3d-origin="372.04724 : 350.78739 : 1"
       id="perspective10" />
    <inkscape:perspective
       id="perspective2400"
       inkscape:persp3d-origin="372.04724 : 350.78739 : 1"
       inkscape:vp_z="744.09448 : 526.18109 : 1"
       inkscape:vp_y="0 : 1000 : 0"
       inkscape:vp_x="0 : 526.18109 : 1"
       sodipodi:type="inkscape:persp3d" />
    <inkscape:perspective
       id="perspective2414"
       inkscape:persp3d-origin="372.04724 : 350.78739 : 1"
       inkscape:vp_z="744.09448 : 526.18109 : 1"
       inkscape:vp_y="0 : 1000 : 0"
       inkscape:vp_x="0 : 526.18109 : 1"
       sodipodi:type="inkscape:persp3d" />
  </defs>
  <sodipodi:namedview
     id="base"
     pagecolor="#ffffff"
     bordercolor="#666666"
     borderopacity="1.0"
     gridtolerance="10000"
     guidetolerance="10"
     objecttolerance="10"
     inkscape:pageopacity="0.0"
     inkscape:pageshadow="2"
     inkscape:zoom="1.8482269"
     inkscape:cx="121.63921"
     inkscape:cy="103.89464"
     inkscape:document-units="px"
     inkscape:current-layer="layer3"
     showgrid="false"
     inkscape:window-width="1340"
     inkscape:window-height="821"
     inkscape:window-x="1346"
     inkscape:window-y="85" />
  <metadata
     id="metadata7">
    <rdf:RDF>
      <cc:Work
         rdf:about="">
        <dc:format>image/svg+xml</dc:format>
        <dc:type
           rdf:resource="http://purl.org/dc/dcmitype/StillImage" />
      </cc:Work>
    </rdf:RDF>
  </metadata>
  <g
     inkscape:groupmode="layer"
     id="layer3"
     style="display:inline">
    <path
       style="fill:#445500;fill-rule:evenodd;stroke:#22280b;stroke-width:1.13178825px;stroke-linecap:butt;stroke-linejoin:miter;stroke-opacity:1;display:inline"
       d="M 127.51278,15.25 C 106.06056,20.09087 83.852601,36.87007 64.09375,51.4375 C 43.140356,36.488647 22.323189,19.462725 0.59375,16.875 L 0.54054973,38.4375 C 0.54036787,38.511207 0.59394734,38.332562 0.59375,38.40625 L 0.54191881,57.760291 L 0.63566881,65.780872 L 0.71912822,84.323169 C 25.656357,93.348459 45.466865,108.80896 64.875,125.03125 C 83.885272,107.25957 103.61496,92.470134 127.4561,85.7027 L 127.49241,66.310603 C 127.49243,66.300561 127.47566,65.842409 127.47584,65.83237 L 127.55681,61.23722 L 127.52556,56.17472 C 127.5255,56.16455 127.54211,55.993598 127.54213,55.983427 L 127.5606,44.73153 L 127.4981,36.547823 L 127.51278,15.25 z"
       id="path3251"
       sodipodi:nodetypes="cccsscccccsscssccc" />
    <path
       style="fill:#b6c48e;fill-opacity:1;fill-rule:evenodd;stroke:#a6bc60;stroke-width:1.13178825px;stroke-linecap:butt;stroke-linejoin:miter;stroke-opacity:1;display:inline"
       d="M 121.14176,28.169231 L 121.14176,38.010611 C 100.00117,45.127251 80.784834,57.722811 64.109323,74.647251 C 47.254168,58.460791 30.116442,45.753881 7.342163,37.668001 L 7.076896,27.867421 C 24.849156,33.371741 43.387751,48.740561 64.127256,63.619051 C 83.411524,48.932251 100.93661,33.382701 121.14176,28.169231 z"
       id="path3210"
       sodipodi:nodetypes="ccccccc" />
    <path
       style="fill:#b6c48e;fill-opacity:1;fill-rule:evenodd;stroke:#a6bc60;stroke-width:1.13178825px;stroke-linecap:butt;stroke-linejoin:miter;stroke-opacity:1;display:inline"
       d="M 121.43314,48.056792 L 121.43314,57.898179 C 100.29255,65.014815 81.076229,77.610379 64.400713,94.534819 C 47.545558,78.348359 30.407832,65.641448 7.6335535,57.55557 L 7.3682863,47.754985 C 25.140546,53.259307 43.679141,68.628126 64.418646,83.506612 C 83.702915,68.819812 101.22799,53.270265 121.43314,48.056792 z"
       id="path3405"
       sodipodi:nodetypes="ccccccc" />
    <path
       style="fill:#b6c48e;fill-opacity:1;fill-rule:evenodd;stroke:#a6bc60;stroke-width:1.13178825px;stroke-linecap:butt;stroke-linejoin:miter;stroke-opacity:1;display:inline"
       d="M 121.25425,67.734788 L 121.25425,77.576175 C 100.11366,84.692811 80.897338,97.288375 64.221822,114.21282 C 47.366667,98.026355 30.228941,85.319444 7.4546627,77.233566 L 7.1893955,67.432981 C 24.961655,72.937303 43.50025,88.306122 64.239755,103.18461 C 83.524024,88.497808 101.0491,72.948261 121.25425,67.734788 z"
       id="path3407"
       sodipodi:nodetypes="ccccccc" />
  </g>
</svg>
