# Exported from Wings 3D 1.0
mtllib turret.mtl
o turret
#36 vertices, 54 faces
v 10.18958860 3.9915010e-2 5.58416770
v 4.26682450 3.9915010e-2 5.58416770
v 10.18958860 3.9915010e-2 11.93712330
v 4.26682450 3.9915010e-2 11.93712330
v 11.66773980 3.9915010e-2 7.55289380
v 11.66773980 3.9915010e-2 9.96839720
v 2.78867320 3.9915010e-2 9.96839720
v 2.78867320 3.9915010e-2 7.55289380
v 8.36433420 3.9915010e-2 4.53604990
v 6.09207880 3.9915010e-2 4.53604990
v 8.36433420 3.9915010e-2 12.98524110
v 6.09207880 3.9915010e-2 12.98524110
v 8.27052550 1.35798950 12.63642130
v 9.94507080 1.35798950 11.67484530
v 11.30117290 1.35798950 9.86867460
v 11.30117290 1.35798950 7.65261640
v 9.94507080 1.35798950 5.84644570
v 8.27052550 1.35798950 4.88486970
v 6.18588750 1.35798950 4.88486970
v 4.51134230 1.35798950 5.84644570
v 3.15524020 1.35798950 7.65261640
v 3.15524020 1.35798950 9.86867460
v 4.51134230 1.35798950 11.67484530
v 6.18588750 1.35798950 12.63642130
v 8.32038600 1.35798950 11.67484530
v 6.13602710 1.35798950 11.67484530
v 6.13602710 1.35798950 5.84644570
v 8.32038600 1.35798950 5.84644570
v 8.32038600 5.31682470 9.46005340
v 9.94507080 5.31682470 9.46005340
v 9.94507080 5.31682470 8.06123750
v 8.32038600 5.31682470 8.06123750
v 4.51134230 5.31682470 8.06123750
v 4.51134230 5.31682470 9.46005340
v 6.13602710 5.31682470 9.46005340
v 6.13602710 5.31682470 8.06123750
vt 0.21740581 0.93170915
vt 0.21740581 0.95383358
vt 0.26947866 0.65808122
vt 0.26947866 0.65808122
vt 0.26947866 0.72982920
vt 0.26947866 0.72982920
vt 0.28002088 0.89667881
vt 0.28002088 0.98886392
vt 0.29517555 0.65808122
vt 0.29517555 0.65808122
vt 0.29517555 0.72982920
vt 0.29517555 0.72982920
vt 0.32753250 0.70623961
vt 0.32753250 0.74918192
vt 0.34203736 0.71018558
vt 0.34203736 0.74523595
vt 0.35381076 0.67124001
vt 0.35381076 0.78418152
vt 0.36348620 0.68161821
vt 0.36348620 0.77380332
vt 0.38625975 0.65260680
vt 0.38625975 0.80281474
vt 0.38918309 0.68161821
vt 0.38918309 0.77380332
vt 0.38997171 0.66640941
vt 0.38997171 0.78901212
vt 0.42294347 0.66640941
vt 0.42294347 0.78901212
vt 0.42373209 0.68161821
vt 0.42373209 0.77380332
vt 0.42665543 0.65260680
vt 0.42665543 0.80281474
vt 0.44942898 0.68161821
vt 0.44942898 0.77380332
vt 0.45910441 0.67124001
vt 0.45910441 0.78418152
vt 0.47087782 0.71018558
vt 0.47087782 0.74523595
vt 0.48538267 0.70623961
vt 0.48538267 0.74918192
vn 0.63912945 0.26242136 -0.72294438
vn 0.63912945 0.26242136 -0.72294438
vn 0.63912945 0.26242136 -0.72294438
vn 0.63912945 0.26242136 -0.72294438
vn -0.63912944 0.26242138 -0.72294438
vn -0.63912944 0.26242138 -0.72294438
vn 0.63912944 0.26242138 0.72294438
vn 0.63912944 0.26242138 0.72294438
vn -0.63912945 0.26242137 0.72294438
vn -0.63912945 0.26242137 0.72294438
vn -0.63912945 0.26242137 0.72294438
vn -0.63912945 0.26242137 0.72294438
vn 0.91147787 0.27652938 -0.30453177
vn 0.91147787 0.27652938 -0.30453177
vn 0.91147786 0.27652939 0.30453178
vn 0.91147786 0.27652939 0.30453178
vn 0.91147786 0.27652939 0.30453178
vn 0.91147786 0.27652939 0.30453178
vn -0.91147785 0.27652944 0.30453178
vn -0.91147785 0.27652944 0.30453178
vn -0.91147784 0.27652944 -0.30453178
vn -0.91147784 0.27652944 -0.30453178
vn -0.91147784 0.27652944 -0.30453178
vn -0.91147784 0.27652944 -0.30453178
vn 0.24851514 0.26430089 -0.93187192
vn 0.24851514 0.26430089 -0.93187192
vn -0.24851515 0.26430090 -0.93187191
vn -0.24851515 0.26430090 -0.93187191
vn -0.24851515 0.26430090 -0.93187191
vn -0.24851515 0.26430090 -0.93187191
vn 0.24851514 0.26430089 0.93187191
vn 0.24851514 0.26430089 0.93187191
vn 0.24851514 0.26430089 0.93187191
vn 0.24851514 0.26430089 0.93187191
vn -0.24851515 0.26430089 0.93187191
vn -0.24851515 0.26430089 0.93187191
vn 0.24851515 0.26430089 0.93187191
vn 0.24851515 0.26430089 0.93187191
vn 0.0000000e+0 1.00000000 0.0000000e+0
vn 0.0000000e+0 1.00000000 0.0000000e+0
vn 0.63912945 0.26242136 0.72294438
vn 0.63912945 0.26242136 0.72294438
vn 0.63912945 0.26242136 0.72294438
vn 0.63912945 0.26242136 0.72294438
vn 0.0000000e+0 1.00000000 0.0000000e+0
vn 0.0000000e+0 0.48824154 0.87270854
vn 0.0000000e+0 1.00000000 0.0000000e+0
vn 0.0000000e+0 1.00000000 0.0000000e+0
vn 1.00000000 -6.4155253e-16 0.0000000e+0
vn 0.0000000e+0 0.48824154 0.87270854
vn 1.00000000 -6.4155253e-16 0.0000000e+0
vn 0.91147786 0.27652938 0.30453179
vn 0.91147786 0.27652938 0.30453179
vn 0.0000000e+0 1.00000000 0.0000000e+0
vn 0.91147786 0.27652939 -0.30453178
vn 0.91147786 0.27652939 -0.30453178
vn 0.91147786 0.27652939 -0.30453178
vn 0.0000000e+0 1.00000000 0.0000000e+0
vn 0.91147786 0.27652939 -0.30453178
vn 0.0000000e+0 1.00000000 0.0000000e+0
vn 0.63912944 0.26242138 -0.72294438
vn 0.63912944 0.26242138 -0.72294438
vn 0.0000000e+0 1.00000000 0.0000000e+0
vn 1.00000000 0.0000000e+0 0.0000000e+0
vn 0.0000000e+0 1.00000000 0.0000000e+0
vn 0.0000000e+0 0.48824153 -0.87270855
vn 0.24851514 0.26430090 -0.93187191
vn 0.24851514 0.26430090 -0.93187191
vn 0.24851514 0.26430090 -0.93187191
vn 0.24851514 0.26430090 -0.93187191
vn 0.0000000e+0 1.00000000 0.0000000e+0
vn 0.0000000e+0 1.00000000 0.0000000e+0
vn 0.0000000e+0 1.00000000 0.0000000e+0
vn -0.24851516 0.26430089 -0.93187191
vn -0.24851516 0.26430089 -0.93187191
vn 0.0000000e+0 1.00000000 2.8426114e-16
vn 0.0000000e+0 1.00000000 2.8426114e-16
vn -0.63912945 0.26242137 -0.72294438
vn -0.63912945 0.26242137 -0.72294438
vn -0.63912945 0.26242137 -0.72294438
vn -0.63912945 0.26242137 -0.72294438
vn 0.0000000e+0 1.00000000 5.6852227e-16
vn 0.0000000e+0 0.48824153 -0.87270855
vn 0.0000000e+0 1.00000000 0.0000000e+0
vn 0.0000000e+0 1.00000000 0.0000000e+0
vn -1.00000000 -1.5397261e-16 0.0000000e+0
vn -1.00000000 -1.5397261e-16 0.0000000e+0
vn 0.0000000e+0 0.48824153 -0.87270855
vn -0.91147784 0.27652944 -0.30453178
vn -0.91147784 0.27652944 -0.30453178
vn 0.0000000e+0 1.00000000 0.0000000e+0
vn -0.91147784 0.27652944 0.30453178
vn -0.91147784 0.27652944 0.30453178
vn -0.91147784 0.27652944 0.30453178
vn 0.0000000e+0 1.00000000 0.0000000e+0
vn -0.91147784 0.27652944 0.30453178
vn 0.0000000e+0 1.00000000 0.0000000e+0
vn -0.63912945 0.26242138 0.72294437
vn -0.63912945 0.26242138 0.72294437
vn 0.0000000e+0 1.00000000 0.0000000e+0
vn -1.00000000 -3.0794522e-16 0.0000000e+0
vn 0.0000000e+0 1.00000000 -5.6852227e-16
vn 0.0000000e+0 0.48824154 0.87270854
vn -0.24851515 0.26430090 0.93187191
vn -0.24851515 0.26430090 0.93187191
vn -0.24851515 0.26430090 0.93187191
vn 0.0000000e+0 1.00000000 -1.8950742e-16
vn -0.24851515 0.26430090 0.93187191
vn 0.0000000e+0 1.00000000 -1.8950742e-16
vn 0.0000000e+0 1.00000000 -1.8950742e-16
vn 0.0000000e+0 1.00000000 0.0000000e+0
vn 0.0000000e+0 1.00000000 0.0000000e+0
vn 0.0000000e+0 0.48824154 0.87270854
vn 0.0000000e+0 1.00000000 0.0000000e+0
vn -1.00000000 0.0000000e+0 0.0000000e+0
vn 0.0000000e+0 1.00000000 0.0000000e+0
vn 0.0000000e+0 1.00000000 -1.4213057e-16
vn 0.0000000e+0 1.00000000 -1.4213057e-16
vn 0.0000000e+0 1.00000000 -1.4213057e-16
vn 0.0000000e+0 0.48824154 0.87270854
vn 0.0000000e+0 1.00000000 -1.4213057e-16
vn 1.00000000 3.2077627e-16 0.0000000e+0
vn 0.0000000e+0 0.48824154 0.87270854
vn 1.00000000 3.2077627e-16 0.0000000e+0
vn 0.0000000e+0 1.00000000 1.4213057e-16
vn 0.0000000e+0 1.00000000 1.4213057e-16
vn 0.0000000e+0 0.48824153 -0.87270855
vn 0.0000000e+0 1.00000000 1.4213057e-16
vn 1.00000000 0.0000000e+0 0.0000000e+0
vn 0.0000000e+0 1.00000000 1.4213057e-16
vn 0.0000000e+0 1.00000000 0.0000000e+0
vn 0.0000000e+0 1.00000000 0.0000000e+0
vn -1.00000000 0.0000000e+0 0.0000000e+0
vn 0.0000000e+0 1.00000000 0.0000000e+0
vn 0.0000000e+0 1.00000000 0.0000000e+0
vn 0.0000000e+0 0.48824153 -0.87270855
vn 0.0000000e+0 0.48824153 -0.87270855
vn -1.00000000 0.0000000e+0 0.0000000e+0
vn 0.0000000e+0 0.48824154 0.87270854
vn -1.00000000 0.0000000e+0 0.0000000e+0
vn 0.0000000e+0 0.48824154 0.87270854
vn -1.00000000 0.0000000e+0 0.0000000e+0
vn 0.0000000e+0 0.48824154 0.87270854
vn 1.00000000 -1.2831051e-15 0.0000000e+0
vn 1.00000000 -6.4155253e-16 0.0000000e+0
vn 0.0000000e+0 0.48824153 -0.87270855
vn 1.00000000 -6.4155253e-16 0.0000000e+0
vn 0.0000000e+0 0.48824153 -0.87270855
vn 0.0000000e+0 0.48824153 -0.87270855
vn -1.00000000 0.0000000e+0 0.0000000e+0
vn -1.00000000 0.0000000e+0 0.0000000e+0
vn 0.0000000e+0 0.48824153 -0.87270855
vn -1.00000000 -1.5397261e-16 0.0000000e+0
vn 0.0000000e+0 0.48824154 0.87270854
vn -1.00000000 -1.5397261e-16 0.0000000e+0
vn 0.0000000e+0 0.48824154 0.87270854
vn 0.0000000e+0 0.48824154 0.87270854
vn 1.00000000 6.4155253e-16 0.0000000e+0
vn 0.0000000e+0 0.48824153 -0.87270855
vn 1.00000000 3.2077627e-16 0.0000000e+0
vn 0.0000000e+0 0.48824153 -0.87270855
vn 1.00000000 3.2077627e-16 0.0000000e+0
g turret_red
usemtl red
f 1/36/1 16/38/55 5/40/13
f 1/36/3 17/34/61 16/38/59
f 1/36/4 18/28/69 17/34/62
f 2/18/5 20/20/78 10/22/27
f 3/35/7 14/33/41 11/31/31
f 4/17/9 22/15/92 7/13/19
f 4/17/11 23/19/98 22/15/96
f 4/17/12 24/25/108 23/19/99
f 5/40/14 16/38/56 6/39/15
f 6/39/16 14/33/42 3/35/8
f 6/39/17 15/37/52 14/33/44
f 6/39/18 16/38/57 15/37/53
f 7/13/20 22/15/93 8/14/21
f 8/14/22 20/20/79 2/18/6
f 8/14/23 21/16/89 20/20/81
f 8/14/24 22/15/94 21/16/90
f 9/32/25 18/28/67 1/36/2
f 10/22/28 18/28/68 9/32/26
f 10/22/29 19/26/74 18/28/70
f 10/22/30 20/20/80 19/26/75
f 11/31/33 14/33/43 13/27/37
f 11/31/32 24/25/104 12/21/35
f 12/21/36 24/25/105 4/17/10
f 13/27/38 24/25/106 11/31/34
f 13/27/39 25/29/111 24/25/107
f 14/33/45 25/29/112 13/27/40
f 14/6/46 29/10/139 25/12/113
f 14/6/50 30/4/143 29/10/141
f 14/7/51 31/2/147 30/1/144
f 15/37/54 16/38/58 14/33/47
f 16/38/60 17/34/63 14/33/48
f 17/8/64 31/2/145 14/7/49
f 18/28/71 28/30/131 17/34/65
f 19/26/76 27/24/125 18/28/72
f 20/20/82 27/24/126 19/26/77
f 20/7/87 34/2/155 33/1/151
f 20/5/83 36/9/159 27/11/127
f 21/16/91 22/15/95 20/20/84
f 22/15/97 23/19/100 20/20/85
f 23/8/101 34/2/153 20/7/86
f 24/25/109 26/23/117 23/19/102
f 25/29/116 26/23/119 24/25/110
f 25/29/114 28/30/132 26/23/118
f 25/8/115 29/2/140 28/7/133
f 26/23/121 28/30/134 27/24/128
f 26/6/120 34/10/154 23/12/103
f 26/6/123 35/4/157 34/10/156
f 26/7/124 36/2/162 35/1/158
f 27/24/130 28/30/135 18/28/73
f 27/8/129 36/2/160 26/7/122
f 28/6/136 31/10/146 17/12/66
f 28/6/137 32/4/149 31/10/148
f 29/2/142 32/1/150 28/7/138
f 33/3/152 36/9/161 20/5/88
